<svg width="1623" height="450" viewBox="0 0 1623 450" fill="none" xmlns="http://www.w3.org/2000/svg">
<path fill-rule="evenodd" clip-rule="evenodd" d="M652.268 82.0379C699.71 54.6471 782.147 38.623 836.396 46.2472C890.644 53.8713 896.162 82.2566 848.719 109.647L503.584 308.911C468.612 329.103 472.679 350.027 512.668 355.647C552.658 361.267 613.426 349.455 648.399 329.264L1001.34 125.491C1044.47 100.59 1119.42 86.023 1168.73 92.954C1218.05 99.8851 1223.07 125.69 1179.94 150.591L829.707 352.795C793.235 373.853 797.476 395.674 839.181 401.536C880.886 407.397 944.262 395.078 980.734 374.021L1098.04 306.292C1133.3 285.939 1194.55 274.031 1234.86 279.697L1367.64 298.358C1371.93 298.96 1372.37 301.204 1368.62 303.37C1364.87 305.535 1358.35 306.802 1354.06 306.199L1221.28 287.538C1189 284 1144 294.5 1113.57 308.475L996.264 376.203C952.291 401.591 875.882 416.443 825.6 409.377C775.318 402.31 770.204 376.001 814.177 350.613L1164.41 148.408C1200.03 127.838 1195.89 106.521 1155.15 100.795C1114.41 95.0696 1052.5 107.103 1016.87 127.674L663.929 331.446C621.456 355.968 547.653 370.314 499.087 363.488C450.521 356.663 445.581 331.251 488.054 306.729L833.19 107.465C873.131 84.4046 868.486 60.5071 822.814 54.0884C777.143 47.6696 707.739 61.1602 667.798 84.2205L556.77 148.322C521.517 168.676 460.26 180.583 419.948 174.918L254.945 151.728C250.656 151.125 250.22 148.881 253.971 146.716C257.721 144.551 264.238 143.284 268.526 143.887L433.53 167.077C465.264 171.536 513.488 162.163 541.241 146.14L652.268 82.0379Z" fill="#252238"/>
<path d="M261.742 147.809L426.745 170.999C462.768 176.062 517.509 165.421 549.012 147.233L660.039 83.1311C703.731 57.9055 779.651 43.1481 829.611 50.1696V50.1696C879.571 57.191 884.653 83.3324 840.961 108.558L495.825 307.822C457.103 330.179 461.606 353.347 505.884 359.57V359.57C550.162 365.792 617.447 352.714 656.17 330.357L1009.11 126.584C1048.49 103.849 1116.92 90.5481 1161.95 96.8764V96.8764C1206.98 103.205 1211.56 126.766 1172.18 149.501L821.949 351.706C781.726 374.928 786.404 398.994 832.397 405.458V405.458C878.39 411.922 948.282 398.336 988.505 375.114L1105.81 307.385C1137.32 289.197 1192.06 278.557 1228.08 283.619L1360.86 302.28" stroke="#514E66" stroke-width="1.94748" stroke-linecap="round" stroke-dasharray="10.39 10.39"/>
<mask id="mask0_9937_11170" style="mask-type:alpha" maskUnits="userSpaceOnUse" x="246" y="1" width="666" height="200">
<path d="M246.957 137L774.957 1.5L911.457 75L711.957 201L246.957 183V137Z" fill="#D9D9D9"/>
</mask>
<g mask="url(#mask0_9937_11170)">
<path d="M261.746 147.805L426.749 170.995C462.772 176.058 517.512 165.417 549.016 147.229L660.043 83.1272C703.735 57.9016 779.655 43.1442 829.615 50.1657V50.1657C879.575 57.1871 884.657 83.3284 840.965 108.554L495.829 307.818C457.106 330.175 461.61 353.343 505.888 359.566V359.566C550.166 365.789 617.451 352.71 656.174 330.353L1009.12 126.58C1048.5 103.845 1116.92 90.5442 1161.95 96.8725V96.8725C1206.98 103.201 1211.56 126.762 1172.18 149.497L821.952 351.702C781.73 374.924 786.407 398.99 832.401 405.454V405.454C878.394 411.918 948.286 398.332 988.509 375.11L1105.82 307.382C1137.32 289.193 1192.06 278.553 1228.08 283.615L1360.86 302.276" stroke="url(#paint0_linear_9937_11170)" stroke-width="1.94748" stroke-linecap="round" stroke-dasharray="10.39 10.39"/>
</g>
<defs>
<linearGradient id="paint0_linear_9937_11170" x1="588.148" y1="121.929" x2="483.803" y2="-12.479" gradientUnits="userSpaceOnUse">
<stop offset="0.0833333" stop-color="#FAE2B6"/>
<stop offset="0.630208" stop-color="#EF90B8"/>
<stop offset="0.958333" stop-color="#B684F0"/>
</linearGradient>
</defs>
</svg>
