<svg width="1440" height="575" viewBox="0 0 1440 575" fill="none" xmlns="http://www.w3.org/2000/svg">
<path fill-rule="evenodd" clip-rule="evenodd" d="M517.847 105.123C578.351 70.1912 683.484 49.7554 752.669 59.4786C821.853 69.2018 828.889 105.402 768.385 140.334L328.228 394.459C283.627 420.209 288.814 446.894 339.813 454.062C390.813 461.229 468.312 446.165 512.913 420.415L963.03 160.54C1018.03 128.783 1113.61 110.205 1176.5 119.045C1239.4 127.884 1245.79 160.793 1190.79 192.55L744.139 450.425C697.625 477.279 703.034 505.109 756.221 512.584C809.408 520.059 890.232 504.349 936.746 477.494L1086.35 391.119C1131.31 365.161 1209.43 349.976 1260.84 357.201L1430.18 381C1435.65 381.768 1436.2 384.63 1431.42 387.391C1426.64 390.153 1418.33 391.768 1412.86 391L1243.52 367.201C1203.05 361.513 1141.55 373.468 1106.16 393.902L956.551 480.277C900.471 512.655 803.026 531.596 738.901 522.584C674.775 513.572 668.253 480.019 724.333 447.641L1170.99 189.766C1216.42 163.533 1211.14 136.347 1159.18 129.045C1107.23 121.743 1028.27 137.09 982.835 163.323L532.718 423.198C478.552 454.471 384.43 472.767 322.493 464.062C260.555 455.357 254.256 422.949 308.422 391.676L748.58 137.551C799.518 108.141 793.594 77.6646 735.348 69.4786C677.102 61.2927 588.591 78.4975 537.653 107.907L396.058 189.657C351.098 215.614 272.976 230.8 221.566 223.574L11.1341 194C5.66499 193.231 5.10873 190.37 9.89166 187.608C14.6746 184.847 22.9855 183.231 28.4546 184L238.887 213.574C279.358 219.262 340.859 207.308 376.252 186.873L517.847 105.123Z" fill="#252238"/>
<path d="M19.798 189L230.23 218.574C276.17 225.031 345.982 211.461 386.159 188.265L527.754 106.515C583.475 74.3442 680.297 55.5239 744.012 64.4785V64.4785C807.727 73.4331 814.207 106.772 758.486 138.942L318.329 393.067C268.945 421.579 274.688 451.126 331.157 459.062V459.062C387.625 466.998 473.435 450.318 522.819 421.806L972.936 161.931C1023.16 132.936 1110.42 115.974 1167.85 124.045V124.045C1225.27 132.115 1231.11 162.163 1180.89 191.158L734.24 449.033C682.943 478.649 688.909 509.34 747.565 517.584V517.584C806.221 525.828 895.355 508.502 946.652 478.885L1096.26 392.51C1136.43 369.314 1206.25 355.744 1252.19 362.201L1421.52 386" stroke="#514E66" stroke-width="3" stroke-linecap="round" stroke-dasharray="16 16"/>
<mask id="mask0_8339_83644" style="mask-type:alpha" maskUnits="userSpaceOnUse" x="1" y="175" width="189" height="59">
<rect x="1" y="175" width="189" height="59" fill="#D9D9D9"/>
</mask>
<g mask="url(#mask0_8339_83644)">
<path d="M19.798 189L230.23 218.574C276.17 225.031 345.982 211.461 386.159 188.265L527.754 106.515C583.475 74.3442 680.297 55.5239 744.012 64.4785V64.4785C807.727 73.4331 814.207 106.772 758.486 138.942L318.329 393.067C268.945 421.579 274.688 451.126 331.157 459.062V459.062C387.625 466.998 473.435 450.318 522.819 421.806L972.936 161.931C1023.16 132.936 1110.42 115.974 1167.85 124.045V124.045C1225.27 132.115 1231.11 162.163 1180.89 191.158L734.24 449.033C682.943 478.649 688.909 509.34 747.565 517.584V517.584C806.221 525.828 895.355 508.502 946.652 478.885L1096.26 392.51C1136.43 369.314 1206.25 355.744 1252.19 362.201L1421.52 386" stroke="url(#paint0_linear_8339_83644)" stroke-width="3" stroke-linecap="round" stroke-dasharray="16 16"/>
</g>
<rect x="6.9375" y="163.59" width="57.5412" height="41" transform="rotate(11.3068 6.9375 163.59)" fill="url(#paint1_linear_8339_83644)"/>
<rect x="1383.2" y="358.627" width="57.5412" height="41" transform="rotate(9.14703 1383.2 358.627)" fill="url(#paint2_linear_8339_83644)"/>
<defs>
<linearGradient id="paint0_linear_8339_83644" x1="436.064" y1="156" x2="302.992" y2="-15.4133" gradientUnits="userSpaceOnUse">
<stop offset="0.0833333" stop-color="#FAE2B6"/>
<stop offset="0.630208" stop-color="#EF90B8"/>
<stop offset="0.958333" stop-color="#B684F0"/>
</linearGradient>
<linearGradient id="paint1_linear_8339_83644" x1="22.1504" y1="189.953" x2="63.7215" y2="189.446" gradientUnits="userSpaceOnUse">
<stop offset="0.0677083" stop-color="#0B081E"/>
<stop offset="1" stop-color="#0B081E" stop-opacity="0"/>
</linearGradient>
<linearGradient id="paint2_linear_8339_83644" x1="1384.29" y1="385.164" x2="1439.99" y2="384.509" gradientUnits="userSpaceOnUse">
<stop stop-color="#0B081E" stop-opacity="0"/>
<stop offset="0.816225" stop-color="#0B081E"/>
</linearGradient>
</defs>
</svg>
