<svg xmlns="http://www.w3.org/2000/svg" viewBox="0 0 159.28 48"><defs><style>.cls-1{fill:#5746da;}.cls-2{fill:#806dff;}.cls-3{fill:#babcbe;}.cls-4{fill:#f0f0f1;}.cls-5{fill:#fff;}</style></defs><g id="logo"><path class="cls-1" d="M17.44,6.6a6.41,6.41,0,0,1,.17-1.46A6.57,6.57,0,0,1,24,0H6.57A6.58,6.58,0,0,0,0,6.6H0a6.58,6.58,0,0,0,6.57,6.6H24A6.58,6.58,0,0,1,17.44,6.6Z"/><path class="cls-2" d="M41.43,0H24a6.57,6.57,0,0,0-6.4,5.14,6.41,6.41,0,0,0-.17,1.46A6.58,6.58,0,0,0,24,13.2H41.43A6.58,6.58,0,0,0,48,6.6h0A6.58,6.58,0,0,0,41.43,0Z"/><path class="cls-1" d="M22.93,24h0a6.58,6.58,0,0,1,6.57-6.6H6.5A6.51,6.51,0,0,0,0,23.93v.24A6.49,6.49,0,0,0,6.5,30.6h23A6.58,6.58,0,0,1,22.93,24Z"/><path class="cls-2" d="M41.5,17.4h-12A6.58,6.58,0,0,0,22.93,24h0a6.58,6.58,0,0,0,6.57,6.6h12A6.49,6.49,0,0,0,48,24.17v-.24A6.51,6.51,0,0,0,41.5,17.4Z"/><path class="cls-3" d="M19.87,46.49a6.58,6.58,0,0,1-2.37-4.72.62.62,0,0,1,0-.13.62.62,0,0,0,0,.13A6.58,6.58,0,0,0,19.87,46.49Z"/><path class="cls-3" d="M20.36,46.86c.12.08.25.17.38.24C20.61,47,20.48,46.94,20.36,46.86Z"/><path class="cls-3" d="M19.87,46.49l.49.37Z"/><path class="cls-3" d="M21.51,47.49a6.18,6.18,0,0,1-.77-.39A6.18,6.18,0,0,0,21.51,47.49Z"/><path class="cls-4" d="M43.71,37.85l-.41.58A2,2,0,0,0,43.71,37.85Z"/><path class="cls-2" d="M41.8,34.8H24.05a6.58,6.58,0,0,0-6.57,6.6,1.93,1.93,0,0,0,0,.24.62.62,0,0,0,0,.13,6.58,6.58,0,0,0,2.37,4.72l.49.37c.12.08.25.17.38.24a6.18,6.18,0,0,0,.77.39,6.51,6.51,0,0,0,2.54.51h0A24.28,24.28,0,0,0,43.3,38.43l.41-.58a2.06,2.06,0,0,0,.22-.93h0A2.12,2.12,0,0,0,41.8,34.8Z"/><path class="cls-3" d="M6.35,34.72Z"/><path class="cls-3" d="M4.76,38.26l-.24-.33A2,2,0,0,0,4.76,38.26Z"/><path class="cls-1" d="M20.74,47.1c-.13-.07-.26-.16-.38-.24l-.49-.37a6.58,6.58,0,0,1-2.37-4.72.62.62,0,0,1,0-.13,1.93,1.93,0,0,1,0-.24,6.58,6.58,0,0,1,6.57-6.6L6.47,34.73H6.24a2.12,2.12,0,0,0-2,2.12h0a2.11,2.11,0,0,0,.3,1.08l.24.33A23.81,23.81,0,0,0,24,48h0a6.51,6.51,0,0,1-2.54-.51A6.18,6.18,0,0,1,20.74,47.1Z"/><path class="cls-5" d="M81.24,14.18a11.53,11.53,0,0,0-4-2.74A13.89,13.89,0,0,0,72,10.49H61.26V37.16H72a13.88,13.88,0,0,0,5.26-1,11.31,11.31,0,0,0,4-2.72,12.22,12.22,0,0,0,2.57-4.23,15.7,15.7,0,0,0,.89-5.43,15.55,15.55,0,0,0-.89-5.41A12.34,12.34,0,0,0,81.24,14.18ZM79.16,27.46a7.47,7.47,0,0,1-1.56,2.76A7,7,0,0,1,75.1,32a8.67,8.67,0,0,1-3.33.6H66.21V15.06h5.56a8.44,8.44,0,0,1,3.32.61,7.17,7.17,0,0,1,2.49,1.75,7.37,7.37,0,0,1,1.58,2.76,11.5,11.5,0,0,1,.54,3.64A11.46,11.46,0,0,1,79.16,27.46Z"/><path class="cls-5" d="M123.85,27.71a6.45,6.45,0,0,0-2-1.41,17.23,17.23,0,0,0-3.13-1.11,15.42,15.42,0,0,1-2.17-.64,9.17,9.17,0,0,1-1.25-.61,1.72,1.72,0,0,1-.59-.67,2.14,2.14,0,0,1-.25-.86,2,2,0,0,1,.21-.93,1.8,1.8,0,0,1,.59-.67,2.86,2.86,0,0,1,1-.4,5.66,5.66,0,0,1,1.3-.13,4.85,4.85,0,0,1,1.63.32,10,10,0,0,1,1.74.86,9.93,9.93,0,0,1,1.58,1.22l2.59-2.86A8.27,8.27,0,0,0,123,18.13,11.35,11.35,0,0,0,120.29,17a11.58,11.58,0,0,0-3-.38,9.65,9.65,0,0,0-2.86.42,7.15,7.15,0,0,0-2.4,1.22,5.91,5.91,0,0,0-1.62,1.88,4.93,4.93,0,0,0-.59,2.42,6,6,0,0,0,.32,2,5,5,0,0,0,1,1.64,7,7,0,0,0,2.14,1.58A16.2,16.2,0,0,0,116.73,29a20.82,20.82,0,0,1,2.11.61,5.66,5.66,0,0,1,1.2.57,1.74,1.74,0,0,1,.69,1.45,1.93,1.93,0,0,1-.21.9,2.3,2.3,0,0,1-.59.7,2.74,2.74,0,0,1-.9.46,4.13,4.13,0,0,1-1.16.15,7.85,7.85,0,0,1-3-.57,6.84,6.84,0,0,1-2.56-1.87l-3,2.63a8.49,8.49,0,0,0,3.44,2.57,12.14,12.14,0,0,0,4.79.9,9.28,9.28,0,0,0,3.9-.8,6.78,6.78,0,0,0,2.74-2.21,5.32,5.32,0,0,0,1-3.2,6.44,6.44,0,0,0-.3-2A3.87,3.87,0,0,0,123.85,27.71Z"/><rect class="cls-5" x="129.45" y="17.08" width="4.69" height="20.08"/><path class="cls-5" d="M131.74,7.36a3,3,0,0,0-2.18.77,2.6,2.6,0,0,0-.8,2,2.56,2.56,0,0,0,.78,2,3.19,3.19,0,0,0,2.2.7,3,3,0,0,0,2.2-.76,2.56,2.56,0,0,0,.81-1.94,2.61,2.61,0,0,0-.79-2A3.2,3.2,0,0,0,131.74,7.36Z"/><path class="cls-5" d="M104.5,19.46a9.24,9.24,0,0,0-3-2.08,9.09,9.09,0,0,0-3.69-.76,10.66,10.66,0,0,0-4.13.78,9.29,9.29,0,0,0-3.24,2.21A10.54,10.54,0,0,0,88.34,23a11.68,11.68,0,0,0-.76,4.31,10.27,10.27,0,0,0,1.35,5.28A9.68,9.68,0,0,0,92.7,36.2a11.41,11.41,0,0,0,5.59,1.34,11.28,11.28,0,0,0,2.85-.38,14.65,14.65,0,0,0,2.77-1,10.49,10.49,0,0,0,2.34-1.62l-2.33-3.24a9,9,0,0,1-2.55,1.64,7.23,7.23,0,0,1-2.59.46,7.55,7.55,0,0,1-3.52-.78,5.57,5.57,0,0,1-2.33-2.23,6.46,6.46,0,0,1-.72-2.17H107l0-1.64a11,11,0,0,0-.63-4A9,9,0,0,0,104.5,19.46Zm-2,5.51H92.31a6.38,6.38,0,0,1,.45-1.4,4.56,4.56,0,0,1,1.93-2.07,6.29,6.29,0,0,1,3.14-.73,4.91,4.91,0,0,1,2.23.52,4.62,4.62,0,0,1,1.66,1.41,4.22,4.22,0,0,1,.76,2.07Z"/><path class="cls-5" d="M154.67,17.08l0,2.51a6.71,6.71,0,0,0-.8-.8,10.22,10.22,0,0,0-1.62-1.1,7.68,7.68,0,0,0-2-.76,9,9,0,0,0-2.21-.27A9.2,9.2,0,0,0,143.11,18a9.61,9.61,0,0,0-3.45,3.7,11.1,11.1,0,0,0-1.26,5.35,10.82,10.82,0,0,0,1.28,5.32A9.61,9.61,0,0,0,143.15,36a9.49,9.49,0,0,0,5,1.34,8,8,0,0,0,3.2-.67A7.59,7.59,0,0,0,154,35a6.14,6.14,0,0,0,.58-.7v1.88a6.62,6.62,0,0,1-.69,3.18,4.33,4.33,0,0,1-2,1.9,8,8,0,0,1-3.37.63,10.62,10.62,0,0,1-2.23-.23,10.79,10.79,0,0,1-2.11-.64,9.29,9.29,0,0,1-1.79-1l-1.68,3.46a10.45,10.45,0,0,0,3.6,1.79,15.1,15.1,0,0,0,4.48.69,13.46,13.46,0,0,0,4.42-.67,8.63,8.63,0,0,0,5.41-5.16,11.89,11.89,0,0,0,.72-4.3V17.08ZM154,30.34a5.49,5.49,0,0,1-2,2.21,5.76,5.76,0,0,1-3,.8,5.46,5.46,0,0,1-5-3,6.82,6.82,0,0,1-.74-3.22,6.9,6.9,0,0,1,.74-3.26,5.69,5.69,0,0,1,2-2.25,5.54,5.54,0,0,1,3-.82,5.46,5.46,0,0,1,5.05,3,7.13,7.13,0,0,1,.74,3.3A6.91,6.91,0,0,1,154,30.34Z"/></g></svg>