<svg width="339" height="288" viewBox="0 0 339 288" fill="none" xmlns="http://www.w3.org/2000/svg">
<rect x="0.5" y="0.5" width="321" height="287" rx="19.5" fill="#252238"/>
<rect x="0.5" y="0.5" width="321" height="287" rx="19.5" stroke="url(#paint0_linear_10085_39678)"/>
<path d="M37.08 46.96L35.52 45.2C34.44 45.86 33.16 46.24 31.74 46.24C27.66 46.24 24.82 43.16 24.82 38.76C24.82 34.38 27.68 31.28 31.76 31.28C35.86 31.28 38.72 34.36 38.72 38.76C38.72 40.92 38.02 42.76 36.84 44.08L38.36 45.8L37.08 46.96ZM36.66 38.76C36.66 35.4 34.7 33.18 31.76 33.18C28.82 33.18 26.88 35.4 26.88 38.76C26.88 42.12 28.82 44.36 31.76 44.36C32.68 44.36 33.5 44.14 34.2 43.72L32.3 41.58L33.58 40.42L35.5 42.58C36.24 41.62 36.66 40.3 36.66 38.76ZM43.2869 33.3H40.2469V31.54H45.1669V46H43.2869V33.3ZM53.5608 41.54V39.86H59.6608V41.54H53.5608ZM77.0628 45.98L67.3028 46V44.5L71.9628 40.48C74.3028 38.46 74.9628 37.48 74.9628 35.94C74.9628 34.12 73.9228 33.04 72.1828 33.04C70.4028 33.04 69.2428 34.34 69.2028 36.4H67.2428C67.3028 33.3 69.2628 31.28 72.2028 31.28C75.1028 31.28 76.9628 33.04 76.9628 35.82C76.9628 37.88 75.9428 39.34 73.3828 41.56L70.3828 44.16H77.0628V45.98ZM78.8667 38.78C78.8667 34.3 81.1867 31.26 84.8267 31.26C88.4467 31.26 90.7667 34.3 90.7667 38.78C90.7667 43.28 88.5467 46.26 84.8267 46.26C81.0867 46.26 78.8667 43.28 78.8667 38.78ZM80.8067 38.78C80.8067 42.34 82.2867 44.5 84.8267 44.5C87.3667 44.5 88.8267 42.34 88.8267 38.78C88.8267 35.18 87.3667 33.02 84.8267 33.02C82.2867 33.02 80.8067 35.18 80.8067 38.78ZM102.434 45.98L92.6739 46V44.5L97.3339 40.48C99.6739 38.46 100.334 37.48 100.334 35.94C100.334 34.12 99.2939 33.04 97.5539 33.04C95.7739 33.04 94.6139 34.34 94.5739 36.4H92.6139C92.6739 33.3 94.6339 31.28 97.5739 31.28C100.474 31.28 102.334 33.04 102.334 35.82C102.334 37.88 101.314 39.34 98.7539 41.56L95.7539 44.16H102.434V45.98ZM114.627 43.08H112.907V46H111.027V43.08H103.547V41.34L110.367 31.54H112.907V41.34H114.627V43.08ZM105.667 41.34H111.027V33.62L105.667 41.34Z" fill="#F3F3F3"/>
<path fill-rule="evenodd" clip-rule="evenodd" d="M32 92C36.4183 92 40 88.4183 40 84C40 79.5817 36.4183 76 32 76C27.5817 76 24 79.5817 24 84C24 88.4183 27.5817 92 32 92ZM35.7095 81.6627C35.8913 81.4549 35.8702 81.139 35.6624 80.9572C35.4546 80.7754 35.1387 80.7964 34.9569 81.0042L30.6421 85.9354L29.0201 84.3133C28.8248 84.118 28.5082 84.118 28.313 84.3133C28.1177 84.5085 28.1177 84.8251 28.313 85.0204L30.313 87.0204C30.4108 87.1182 30.5448 87.1712 30.6831 87.1666C30.8215 87.1619 30.9517 87.1002 31.0428 86.9961L35.7095 81.6627Z" fill="#A0A0A1"/>
<path d="M48.672 81.552C48.672 79.568 50.272 78.224 52.656 78.224C54.864 78.224 56.288 79.456 56.416 81.456H54.832C54.752 80.304 53.936 79.632 52.64 79.632C51.184 79.632 50.24 80.368 50.24 81.504C50.24 82.432 50.768 82.992 51.856 83.248L53.76 83.696C55.648 84.128 56.608 85.152 56.608 86.784C56.608 88.864 54.992 90.192 52.528 90.192C50.176 90.192 48.608 88.96 48.512 86.976H50.112C50.144 88.08 51.072 88.784 52.528 88.784C54.064 88.784 55.04 88.064 55.04 86.912C55.04 86 54.544 85.424 53.44 85.168L51.536 84.736C49.648 84.304 48.672 83.216 48.672 81.552ZM60.5304 90H59.0264V83.44H57.4904V82.176H59.0264V79.728H60.5304V82.176H62.0664V83.44H60.5304V90ZM65.6104 90.192C63.9304 90.192 62.9384 89.248 62.9384 87.824C62.9384 86.384 64.0104 85.488 65.8504 85.344L68.3144 85.152V84.928C68.3144 83.616 67.5304 83.152 66.4744 83.152C65.2104 83.152 64.4904 83.712 64.4904 84.656H63.1784C63.1784 83.024 64.5224 81.952 66.5384 81.952C68.4744 81.952 69.7864 82.976 69.7864 85.088V90H68.5064L68.3464 88.736C67.9464 89.632 66.8744 90.192 65.6104 90.192ZM66.0424 89.024C67.4664 89.024 68.3304 88.096 68.3304 86.624V86.208L66.3304 86.368C65.0024 86.496 64.4584 87.008 64.4584 87.776C64.4584 88.608 65.0664 89.024 66.0424 89.024ZM73.4053 90H71.9013V78.224H73.4053V85.856L76.8773 82.176H78.7653L75.7733 85.296L78.7493 90H77.0213L74.7333 86.384L73.4053 87.776V90ZM80.7303 80.32C80.1863 80.32 79.7383 79.872 79.7383 79.328C79.7383 78.768 80.1863 78.336 80.7303 78.336C81.2743 78.336 81.7223 78.768 81.7223 79.328C81.7223 79.872 81.2743 80.32 80.7303 80.32ZM79.9943 90V82.176H81.4983V90H79.9943ZM85.1858 90H83.6818V82.176H85.0418L85.2018 83.376C85.6978 82.48 86.6898 81.952 87.7938 81.952C89.8578 81.952 90.8018 83.216 90.8018 85.216V90H89.2978V85.552C89.2978 83.968 88.5618 83.328 87.4098 83.328C86.0018 83.328 85.1858 84.336 85.1858 85.856V90ZM92.3889 85.888C92.3889 83.68 93.8129 81.952 96.0849 81.952C97.3489 81.952 98.3249 82.528 98.8209 83.504L98.9329 82.176H100.277V89.68C100.277 92.144 98.7569 93.712 96.3569 93.712C94.2289 93.712 92.7729 92.512 92.4849 90.528H93.9889C94.1809 91.68 95.0449 92.352 96.3569 92.352C97.8289 92.352 98.7889 91.392 98.7889 89.904V88.336C98.2769 89.248 97.2529 89.792 96.0209 89.792C93.7969 89.792 92.3889 88.08 92.3889 85.888ZM93.8929 85.856C93.8929 87.328 94.8049 88.48 96.2769 88.48C97.7969 88.48 98.7249 87.392 98.7249 85.856C98.7249 84.352 97.8289 83.264 96.2929 83.264C94.7889 83.264 93.8929 84.416 93.8929 85.856ZM107.558 90H105.926L110.15 78.432H111.894L116.134 90H114.486L113.446 87.12H108.582L107.558 90ZM110.822 80.928L109.062 85.76H112.982L111.206 80.928C111.126 80.704 111.046 80.432 111.014 80.256C110.982 80.416 110.902 80.688 110.822 80.928ZM116.78 85.888C116.78 83.68 118.204 81.952 120.476 81.952C121.74 81.952 122.716 82.528 123.212 83.504L123.324 82.176H124.668V89.68C124.668 92.144 123.148 93.712 120.748 93.712C118.62 93.712 117.164 92.512 116.876 90.528H118.38C118.572 91.68 119.436 92.352 120.748 92.352C122.22 92.352 123.18 91.392 123.18 89.904V88.336C122.668 89.248 121.644 89.792 120.411 89.792C118.188 89.792 116.78 88.08 116.78 85.888ZM118.284 85.856C118.284 87.328 119.196 88.48 120.668 88.48C122.188 88.48 123.116 87.392 123.116 85.856C123.116 84.352 122.22 83.264 120.684 83.264C119.18 83.264 118.284 84.416 118.284 85.856ZM126.342 85.888C126.342 83.68 127.766 81.952 130.038 81.952C131.302 81.952 132.278 82.528 132.774 83.504L132.886 82.176H134.23V89.68C134.23 92.144 132.71 93.712 130.31 93.712C128.182 93.712 126.726 92.512 126.438 90.528H127.942C128.134 91.68 128.998 92.352 130.31 92.352C131.782 92.352 132.742 91.392 132.742 89.904V88.336C132.23 89.248 131.206 89.792 129.974 89.792C127.75 89.792 126.342 88.08 126.342 85.888ZM127.846 85.856C127.846 87.328 128.758 88.48 130.23 88.48C131.75 88.48 132.678 87.392 132.678 85.856C132.678 84.352 131.782 83.264 130.246 83.264C128.742 83.264 127.846 84.416 127.846 85.856ZM140.881 82.112V83.488H140.209C138.785 83.488 137.905 84.352 137.905 85.856V90H136.401V82.192H137.809L137.905 83.376C138.225 82.56 139.009 82.016 140.081 82.016C140.353 82.016 140.577 82.048 140.881 82.112ZM145.386 90.192C143.082 90.192 141.498 88.528 141.498 86.096C141.498 83.648 143.05 81.952 145.322 81.952C147.546 81.952 149.002 83.488 149.002 85.808V86.368L142.954 86.384C143.066 88.032 143.93 88.944 145.418 88.944C146.586 88.944 147.354 88.464 147.61 87.568H149.018C148.634 89.248 147.322 90.192 145.386 90.192ZM145.322 83.216C144.01 83.216 143.178 84 142.986 85.376H147.498C147.498 84.08 146.65 83.216 145.322 83.216ZM150.186 85.888C150.186 83.68 151.61 81.952 153.882 81.952C155.146 81.952 156.122 82.528 156.618 83.504L156.73 82.176H158.074V89.68C158.074 92.144 156.554 93.712 154.154 93.712C152.026 93.712 150.57 92.512 150.282 90.528H151.786C151.978 91.68 152.842 92.352 154.154 92.352C155.626 92.352 156.586 91.392 156.586 89.904V88.336C156.074 89.248 155.05 89.792 153.818 89.792C151.594 89.792 150.186 88.08 150.186 85.888ZM151.69 85.856C151.69 87.328 152.602 88.48 154.074 88.48C155.594 88.48 156.522 87.392 156.522 85.856C156.522 84.352 155.626 83.264 154.09 83.264C152.586 83.264 151.69 84.416 151.69 85.856ZM162.532 90.192C160.852 90.192 159.86 89.248 159.86 87.824C159.86 86.384 160.932 85.488 162.772 85.344L165.236 85.152V84.928C165.236 83.616 164.452 83.152 163.396 83.152C162.132 83.152 161.412 83.712 161.412 84.656H160.1C160.1 83.024 161.444 81.952 163.46 81.952C165.396 81.952 166.708 82.976 166.708 85.088V90H165.428L165.268 88.736C164.868 89.632 163.796 90.192 162.532 90.192ZM162.964 89.024C164.388 89.024 165.252 88.096 165.252 86.624V86.208L163.252 86.368C161.924 86.496 161.38 87.008 161.38 87.776C161.38 88.608 161.988 89.024 162.964 89.024ZM170.874 90H169.37V83.44H167.834V82.176H169.37V79.728H170.874V82.176H172.41V83.44H170.874V90ZM173.17 86.08C173.17 83.664 174.898 81.968 177.25 81.968C179.586 81.968 181.314 83.664 181.314 86.08C181.314 88.496 179.586 90.192 177.25 90.192C174.898 90.192 173.17 88.496 173.17 86.08ZM174.69 86.08C174.69 87.712 175.73 88.848 177.25 88.848C178.754 88.848 179.81 87.712 179.81 86.08C179.81 84.448 178.754 83.312 177.25 83.312C175.73 83.312 174.69 84.448 174.69 86.08ZM187.459 82.112V83.488H186.787C185.363 83.488 184.483 84.352 184.483 85.856V90H182.979V82.192H184.387L184.483 83.376C184.803 82.56 185.587 82.016 186.659 82.016C186.931 82.016 187.155 82.048 187.459 82.112ZM196.62 92.768H195.372C193.9 90.928 192.924 88.144 192.924 85.248C192.924 82.528 193.804 79.68 195.372 77.744H196.62C195.356 79.504 194.46 82.256 194.46 85.248C194.46 88.08 195.26 90.896 196.62 92.768ZM205.025 90H197.969V78.432H205.025V79.872H199.537V83.488H204.481V84.88H199.537V88.544H205.025V90ZM206.177 79.872V78.432H214.705V79.872H211.233V90H209.665V79.872H206.177ZM217.85 90H216.282V78.432H217.85V83.408H223.578V78.432H225.146V90H223.578V84.864H217.85V90ZM227.748 92.768H226.484C227.844 90.896 228.644 88.08 228.644 85.248C228.644 82.256 227.764 79.504 226.484 77.744H227.748C229.3 79.68 230.18 82.528 230.18 85.248C230.18 88.144 229.204 90.928 227.748 92.768Z" fill="#A0A0A1"/>
<path fill-rule="evenodd" clip-rule="evenodd" d="M32 140C36.4183 140 40 136.418 40 132C40 127.582 36.4183 124 32 124C27.5817 124 24 127.582 24 132C24 136.418 27.5817 140 32 140ZM35.7095 129.663C35.8913 129.455 35.8702 129.139 35.6624 128.957C35.4546 128.775 35.1387 128.796 34.9569 129.004L30.6421 133.935L29.0201 132.313C28.8248 132.118 28.5082 132.118 28.313 132.313C28.1177 132.509 28.1177 132.825 28.313 133.02L30.313 135.02C30.4108 135.118 30.5448 135.171 30.6831 135.167C30.8215 135.162 30.9517 135.1 31.0428 134.996L35.7095 129.663Z" fill="#A0A0A1"/>
<path d="M59.776 120.208C59.776 123.728 57.472 126.192 54.192 126.192C50.928 126.192 48.656 123.728 48.656 120.208C48.656 116.704 50.944 114.224 54.208 114.224C57.488 114.224 59.776 116.688 59.776 120.208ZM58.128 120.208C58.128 117.52 56.56 115.744 54.208 115.744C51.856 115.744 50.304 117.52 50.304 120.208C50.304 122.896 51.856 124.688 54.208 124.688C56.56 124.688 58.128 122.88 58.128 120.208ZM63.0295 126H61.5255V118.176H62.8695L63.0135 119.2C63.4135 118.464 64.2455 117.952 65.3495 117.952C66.5655 117.952 67.4295 118.56 67.8295 119.536C68.1975 118.56 69.1415 117.952 70.3575 117.952C72.1495 117.952 73.2375 119.072 73.2375 120.88V126H71.7655V121.248C71.7655 120.016 71.0775 119.312 70.0215 119.312C68.8855 119.312 68.1335 120.112 68.1335 121.36V126H66.6455V121.232C66.6455 120 65.9735 119.328 64.9175 119.328C63.7815 119.328 63.0295 120.112 63.0295 121.36V126ZM76.8264 126H75.3224V118.176H76.6824L76.8424 119.376C77.3384 118.48 78.3304 117.952 79.4344 117.952C81.4984 117.952 82.4424 119.216 82.4424 121.216V126H80.9384V121.552C80.9384 119.968 80.2024 119.328 79.0504 119.328C77.6424 119.328 76.8264 120.336 76.8264 121.856V126ZM85.2615 116.32C84.7175 116.32 84.2695 115.872 84.2695 115.328C84.2695 114.768 84.7175 114.336 85.2615 114.336C85.8055 114.336 86.2535 114.768 86.2535 115.328C86.2535 115.872 85.8055 116.32 85.2615 116.32ZM84.5255 126V118.176H86.0295V126H84.5255ZM87.701 122.096C87.701 119.648 89.253 117.952 91.541 117.952C93.509 117.952 94.885 119.072 95.157 120.816H93.653C93.397 119.824 92.597 119.296 91.589 119.296C90.165 119.296 89.189 120.384 89.189 122.08C89.189 123.76 90.101 124.848 91.525 124.848C92.597 124.848 93.397 124.288 93.669 123.36H95.173C94.869 125.056 93.413 126.192 91.525 126.192C89.221 126.192 87.701 124.56 87.701 122.096ZM98.2639 125.984H96.7599V114.224H98.2639V119.376C98.7599 118.528 99.7039 117.952 100.92 117.952C102.92 117.952 103.88 119.216 103.88 121.216V126H102.376V121.552C102.376 119.968 101.624 119.328 100.504 119.328C99.0479 119.328 98.2639 120.384 98.2639 121.728V125.984ZM108.251 126.192C106.571 126.192 105.579 125.248 105.579 123.824C105.579 122.384 106.651 121.488 108.491 121.344L110.955 121.152V120.928C110.955 119.616 110.171 119.152 109.115 119.152C107.851 119.152 107.131 119.712 107.131 120.656H105.819C105.819 119.024 107.163 117.952 109.179 117.952C111.115 117.952 112.427 118.976 112.427 121.088V126H111.147L110.987 124.736C110.587 125.632 109.515 126.192 108.251 126.192ZM108.683 125.024C110.107 125.024 110.971 124.096 110.971 122.624V122.208L108.971 122.368C107.643 122.496 107.099 123.008 107.099 123.776C107.099 124.608 107.707 125.024 108.683 125.024ZM115.246 116.32C114.702 116.32 114.254 115.872 114.254 115.328C114.254 114.768 114.702 114.336 115.246 114.336C115.79 114.336 116.238 114.768 116.238 115.328C116.238 115.872 115.79 116.32 115.246 116.32ZM114.51 126V118.176H116.014V126H114.51ZM119.701 126H118.197V118.176H119.557L119.717 119.376C120.213 118.48 121.205 117.952 122.309 117.952C124.373 117.952 125.317 119.216 125.317 121.216V126H123.813V121.552C123.813 119.968 123.077 119.328 121.925 119.328C120.517 119.328 119.701 120.336 119.701 121.856V126ZM131.36 117.552C131.36 115.568 132.96 114.224 135.344 114.224C137.552 114.224 138.976 115.456 139.104 117.456H137.52C137.44 116.304 136.624 115.632 135.328 115.632C133.872 115.632 132.928 116.368 132.928 117.504C132.928 118.432 133.456 118.992 134.544 119.248L136.448 119.696C138.336 120.128 139.296 121.152 139.296 122.784C139.296 124.864 137.68 126.192 135.216 126.192C132.864 126.192 131.296 124.96 131.2 122.976H132.799C132.832 124.08 133.76 124.784 135.216 124.784C136.752 124.784 137.728 124.064 137.728 122.912C137.728 122 137.232 121.424 136.128 121.168L134.224 120.736C132.336 120.304 131.36 119.216 131.36 117.552ZM142.69 126L140.13 118.176H141.682L142.978 122.24C143.154 122.816 143.314 123.408 143.458 124.096C143.586 123.408 143.794 122.752 143.97 122.24L145.282 118.176H146.818L148.114 122.24C148.242 122.624 148.498 123.536 148.626 124.096C148.754 123.472 148.898 122.928 149.122 122.24L150.434 118.176H152.002L149.33 126H147.906L146.546 121.808C146.29 121.024 146.13 120.416 146.05 119.984C145.97 120.368 145.826 120.88 145.538 121.824L144.178 126H142.69ZM155.22 126.192C153.54 126.192 152.548 125.248 152.548 123.824C152.548 122.384 153.62 121.488 155.46 121.344L157.924 121.152V120.928C157.924 119.616 157.14 119.152 156.084 119.152C154.82 119.152 154.1 119.712 154.1 120.656H152.788C152.788 119.024 154.132 117.952 156.148 117.952C158.084 117.952 159.396 118.976 159.396 121.088V126H158.116L157.956 124.736C157.556 125.632 156.484 126.192 155.22 126.192ZM155.652 125.024C157.076 125.024 157.94 124.096 157.94 122.624V122.208L155.94 122.368C154.612 122.496 154.068 123.008 154.068 123.776C154.068 124.608 154.676 125.024 155.652 125.024ZM161.479 129.504V118.176H162.839L162.951 119.584C163.479 118.512 164.535 117.952 165.783 117.952C168.023 117.952 169.415 119.632 169.415 122.032C169.415 124.416 168.103 126.208 165.783 126.208C164.535 126.208 163.495 125.68 162.983 124.72V129.504H161.479ZM162.999 122.096C162.999 123.696 163.927 124.848 165.463 124.848C166.999 124.848 167.911 123.696 167.911 122.096C167.911 120.48 166.999 119.328 165.463 119.328C163.927 119.328 162.999 120.464 162.999 122.096ZM178.823 128.768H177.575C176.103 126.928 175.127 124.144 175.127 121.248C175.127 118.528 176.007 115.68 177.575 113.744H178.823C177.559 115.504 176.663 118.256 176.663 121.248C176.663 124.08 177.463 126.896 178.823 128.768ZM184.668 121.872H181.74V126H180.172V114.432H184.668C186.94 114.432 188.396 115.92 188.396 118.144C188.396 120.304 186.924 121.872 184.668 121.872ZM184.396 115.84H181.74V120.464H184.332C185.884 120.464 186.748 119.552 186.748 118.128C186.748 116.672 185.868 115.84 184.396 115.84ZM191.892 126.192C190.212 126.192 189.22 125.248 189.22 123.824C189.22 122.384 190.292 121.488 192.132 121.344L194.596 121.152V120.928C194.596 119.616 193.812 119.152 192.756 119.152C191.492 119.152 190.772 119.712 190.772 120.656H189.46C189.46 119.024 190.804 117.952 192.82 117.952C194.756 117.952 196.068 118.976 196.068 121.088V126H194.788L194.628 124.736C194.228 125.632 193.156 126.192 191.892 126.192ZM192.324 125.024C193.748 125.024 194.612 124.096 194.612 122.624V122.208L192.612 122.368C191.284 122.496 190.74 123.008 190.74 123.776C190.74 124.608 191.348 125.024 192.324 125.024ZM197.211 129.504V128.272H198.219C198.939 128.272 199.515 128.16 199.883 127.168L200.155 126.416L197.003 118.176H198.587L200.859 124.48L203.179 118.176H204.731L201.035 127.76C200.507 129.104 199.723 129.664 198.523 129.664C198.027 129.664 197.611 129.6 197.211 129.504ZM209.811 121.888C209.811 119.68 211.235 117.952 213.507 117.952C214.771 117.952 215.747 118.528 216.243 119.504L216.355 118.176H217.699V125.68C217.699 128.144 216.179 129.712 213.779 129.712C211.651 129.712 210.195 128.512 209.907 126.528H211.411C211.603 127.68 212.467 128.352 213.779 128.352C215.251 128.352 216.211 127.392 216.211 125.904V124.336C215.699 125.248 214.675 125.792 213.443 125.792C211.219 125.792 209.811 124.08 209.811 121.888ZM211.315 121.856C211.315 123.328 212.227 124.48 213.699 124.48C215.219 124.48 216.147 123.392 216.147 121.856C216.147 120.352 215.251 119.264 213.715 119.264C212.211 119.264 211.315 120.416 211.315 121.856ZM222.157 126.192C220.477 126.192 219.485 125.248 219.485 123.824C219.485 122.384 220.557 121.488 222.397 121.344L224.861 121.152V120.928C224.861 119.616 224.077 119.152 223.021 119.152C221.757 119.152 221.037 119.712 221.037 120.656H219.725C219.725 119.024 221.069 117.952 223.085 117.952C225.021 117.952 226.333 118.976 226.333 121.088V126H225.053L224.893 124.736C224.493 125.632 223.421 126.192 222.157 126.192ZM222.589 125.024C224.013 125.024 224.877 124.096 224.877 122.624V122.208L222.877 122.368C221.549 122.496 221.005 123.008 221.005 123.776C221.005 124.608 221.613 125.024 222.589 125.024ZM227.776 123.728H229.216C229.216 124.528 229.824 125.008 230.816 125.008C231.872 125.008 232.48 124.576 232.48 123.856C232.48 123.328 232.224 123.008 231.408 122.8L230.032 122.48C228.64 122.144 227.984 121.456 227.984 120.304C227.984 118.864 229.2 117.952 230.928 117.952C232.64 117.952 233.76 118.912 233.792 120.4H232.352C232.32 119.616 231.792 119.12 230.88 119.12C229.936 119.12 229.408 119.536 229.408 120.256C229.408 120.784 229.792 121.136 230.56 121.328L231.936 121.664C233.264 121.984 233.92 122.592 233.92 123.76C233.92 125.248 232.64 126.192 230.784 126.192C228.944 126.192 227.776 125.216 227.776 123.728ZM241.643 126L239.083 118.176H240.635L241.931 122.24C242.107 122.816 242.267 123.408 242.411 124.096C242.539 123.408 242.747 122.752 242.923 122.24L244.235 118.176H245.771L247.067 122.24C247.195 122.624 247.451 123.536 247.579 124.096C247.707 123.472 247.851 122.928 248.075 122.24L249.387 118.176H250.955L248.283 126H246.859L245.499 121.808C245.243 121.024 245.083 120.416 245.003 119.984C244.923 120.368 244.779 120.88 244.491 121.824L243.131 126H241.643ZM252.98 116.32C252.436 116.32 251.988 115.872 251.988 115.328C251.988 114.768 252.436 114.336 252.98 114.336C253.524 114.336 253.972 114.768 253.972 115.328C253.972 115.872 253.524 116.32 252.98 116.32ZM252.244 126V118.176H253.748V126H252.244ZM258.14 126H256.636V119.44H255.1V118.176H256.636V115.728H258.14V118.176H259.676V119.44H258.14V126ZM262.53 125.984H261.026V114.224H262.53V119.376C263.026 118.528 263.97 117.952 265.186 117.952C267.186 117.952 268.146 119.216 268.146 121.216V126H266.642V121.552C266.642 119.968 265.89 119.328 264.77 119.328C263.314 119.328 262.53 120.384 262.53 121.728V125.984ZM276.892 126.192C275.212 126.192 274.22 125.248 274.22 123.824C274.22 122.384 275.292 121.488 277.132 121.344L279.596 121.152V120.928C279.596 119.616 278.812 119.152 277.756 119.152C276.492 119.152 275.772 119.712 275.772 120.656H274.46C274.46 119.024 275.804 117.952 277.82 117.952C279.756 117.952 281.068 118.976 281.068 121.088V126H279.788L279.628 124.736C279.228 125.632 278.156 126.192 276.892 126.192ZM277.324 125.024C278.748 125.024 279.612 124.096 279.612 122.624V122.208L277.612 122.368C276.284 122.496 275.74 123.008 275.74 123.776C275.74 124.608 276.348 125.024 277.324 125.024ZM284.655 126H283.151V118.176H284.511L284.671 119.376C285.167 118.48 286.159 117.952 287.263 117.952C289.327 117.952 290.271 119.216 290.271 121.216V126H288.767V121.552C288.767 119.968 288.031 119.328 286.879 119.328C285.471 119.328 284.655 120.336 284.655 121.856V126ZM291.445 129.504V128.272H292.453C293.173 128.272 293.749 128.16 294.117 127.168L294.389 126.416L291.237 118.176H292.821L295.093 124.48L297.413 118.176H298.965L295.269 127.76C294.741 129.104 293.957 129.664 292.757 129.664C292.261 129.664 291.845 129.6 291.445 129.504ZM50.592 150H49.088V142.176H50.448L50.608 143.376C51.104 142.48 52.096 141.952 53.2 141.952C55.264 141.952 56.208 143.216 56.208 145.216V150H54.704V145.552C54.704 143.968 53.968 143.328 52.816 143.328C51.408 143.328 50.592 144.336 50.592 145.856V150ZM60.5791 150.192C58.8991 150.192 57.9071 149.248 57.9071 147.824C57.9071 146.384 58.9791 145.488 60.8191 145.344L63.2831 145.152V144.928C63.2831 143.616 62.4991 143.152 61.4431 143.152C60.1791 143.152 59.4591 143.712 59.4591 144.656H58.1471C58.1471 143.024 59.4911 141.952 61.5071 141.952C63.4431 141.952 64.7551 142.976 64.7551 145.088V150H63.4751L63.3151 148.736C62.9151 149.632 61.8431 150.192 60.5791 150.192ZM61.0111 149.024C62.4351 149.024 63.2991 148.096 63.2991 146.624V146.208L61.2991 146.368C59.9711 146.496 59.4271 147.008 59.4271 147.776C59.4271 148.608 60.0351 149.024 61.0111 149.024ZM68.921 150H67.417V143.44H65.881V142.176H67.417V139.728H68.921V142.176H70.457V143.44H68.921V150ZM72.5428 140.32C71.9988 140.32 71.5508 139.872 71.5508 139.328C71.5508 138.768 71.9988 138.336 72.5428 138.336C73.0868 138.336 73.5348 138.768 73.5348 139.328C73.5348 139.872 73.0868 140.32 72.5428 140.32ZM71.8068 150V142.176H73.3108V150H71.8068ZM77.6863 150L74.5343 142.176H76.1343L77.8463 146.544C78.1183 147.28 78.3423 147.936 78.4703 148.416C78.5983 147.904 78.8543 147.232 79.1263 146.544L80.8703 142.176H82.4383L79.1743 150H77.6863ZM86.6515 150.192C84.3475 150.192 82.7635 148.528 82.7635 146.096C82.7635 143.648 84.3155 141.952 86.5875 141.952C88.8115 141.952 90.2675 143.488 90.2675 145.808V146.368L84.2195 146.384C84.3315 148.032 85.1955 148.944 86.6835 148.944C87.8515 148.944 88.6195 148.464 88.8755 147.568H90.2835C89.8995 149.248 88.5875 150.192 86.6515 150.192ZM86.5875 143.216C85.2755 143.216 84.4435 144 84.2515 145.376H88.7635C88.7635 144.08 87.9155 143.216 86.5875 143.216ZM98.5304 150H97.0264V143.44H95.4904V142.176H97.0264V139.728H98.5304V142.176H100.066V143.44H98.5304V150ZM100.826 146.08C100.826 143.664 102.554 141.968 104.906 141.968C107.242 141.968 108.97 143.664 108.97 146.08C108.97 148.496 107.242 150.192 104.906 150.192C102.554 150.192 100.826 148.496 100.826 146.08ZM102.346 146.08C102.346 147.712 103.386 148.848 104.906 148.848C106.41 148.848 107.466 147.712 107.466 146.08C107.466 144.448 106.41 143.312 104.906 143.312C103.386 143.312 102.346 144.448 102.346 146.08ZM112.171 150H110.667V138.224H112.171V145.856L115.643 142.176H117.531L114.539 145.296L117.515 150H115.787L113.499 146.384L112.171 147.776V150ZM121.839 150.192C119.535 150.192 117.951 148.528 117.951 146.096C117.951 143.648 119.503 141.952 121.775 141.952C123.999 141.952 125.455 143.488 125.455 145.808V146.368L119.407 146.384C119.519 148.032 120.383 148.944 121.871 148.944C123.039 148.944 123.807 148.464 124.063 147.568H125.471C125.087 149.248 123.775 150.192 121.839 150.192ZM121.775 143.216C120.463 143.216 119.631 144 119.439 145.376H123.951C123.951 144.08 123.103 143.216 121.775 143.216ZM128.639 150H127.135V142.176H128.495L128.655 143.376C129.151 142.48 130.143 141.952 131.247 141.952C133.311 141.952 134.255 143.216 134.255 145.216V150H132.751V145.552C132.751 143.968 132.015 143.328 130.863 143.328C129.455 143.328 128.639 144.336 128.639 145.856V150ZM136.514 152.768H135.25C136.61 150.896 137.41 148.08 137.41 145.248C137.41 142.256 136.53 139.504 135.25 137.744H136.514C138.066 139.68 138.946 142.528 138.946 145.248C138.946 148.144 137.97 150.928 136.514 152.768Z" fill="#A0A0A1"/>
<path fill-rule="evenodd" clip-rule="evenodd" d="M32 188C36.4183 188 40 184.418 40 180C40 175.582 36.4183 172 32 172C27.5817 172 24 175.582 24 180C24 184.418 27.5817 188 32 188ZM35.7095 177.663C35.8913 177.455 35.8702 177.139 35.6624 176.957C35.4546 176.775 35.1387 176.796 34.9569 177.004L30.6421 181.935L29.0201 180.313C28.8248 180.118 28.5082 180.118 28.313 180.313C28.1177 180.509 28.1177 180.825 28.313 181.02L30.313 183.02C30.4108 183.118 30.5448 183.171 30.6831 183.167C30.8215 183.162 30.9517 183.1 31.0428 182.996L35.7095 177.663Z" fill="#A0A0A1"/>
<path d="M50.912 174.432V186H49.344V174.432H50.912ZM54.8576 186H53.3536V178.176H54.7136L54.8736 179.376C55.3696 178.48 56.3616 177.952 57.4656 177.952C59.5296 177.952 60.4736 179.216 60.4736 181.216V186H58.9696V181.552C58.9696 179.968 58.2336 179.328 57.0816 179.328C55.6736 179.328 54.8576 180.336 54.8576 181.856V186ZM62.4768 182.432V181.088H67.3568V182.432H62.4768ZM71.5166 186.192C69.8366 186.192 68.8446 185.248 68.8446 183.824C68.8446 182.384 69.9166 181.488 71.7566 181.344L74.2206 181.152V180.928C74.2206 179.616 73.4366 179.152 72.3806 179.152C71.1166 179.152 70.3966 179.712 70.3966 180.656H69.0846C69.0846 179.024 70.4286 177.952 72.4446 177.952C74.3806 177.952 75.6926 178.976 75.6926 181.088V186H74.4126L74.2526 184.736C73.8526 185.632 72.7806 186.192 71.5166 186.192ZM71.9486 185.024C73.3726 185.024 74.2366 184.096 74.2366 182.624V182.208L72.2366 182.368C70.9086 182.496 70.3646 183.008 70.3646 183.776C70.3646 184.608 70.9726 185.024 71.9486 185.024ZM77.7755 189.504V178.176H79.1355L79.2475 179.584C79.7755 178.512 80.8315 177.952 82.0795 177.952C84.3195 177.952 85.7115 179.632 85.7115 182.032C85.7115 184.416 84.3995 186.208 82.0795 186.208C80.8315 186.208 79.7915 185.68 79.2795 184.72V189.504H77.7755ZM79.2955 182.096C79.2955 183.696 80.2235 184.848 81.7595 184.848C83.2955 184.848 84.2075 183.696 84.2075 182.096C84.2075 180.48 83.2955 179.328 81.7595 179.328C80.2235 179.328 79.2955 180.464 79.2955 182.096ZM87.3693 189.504V178.176H88.7293L88.8413 179.584C89.3693 178.512 90.4253 177.952 91.6733 177.952C93.9133 177.952 95.3053 179.632 95.3053 182.032C95.3053 184.416 93.9933 186.208 91.6733 186.208C90.4253 186.208 89.3853 185.68 88.8733 184.72V189.504H87.3693ZM88.8893 182.096C88.8893 183.696 89.8173 184.848 91.3533 184.848C92.8893 184.848 93.8013 183.696 93.8013 182.096C93.8013 180.48 92.8893 179.328 91.3533 179.328C89.8173 179.328 88.8893 180.464 88.8893 182.096ZM106.394 186.176C103.098 186.176 100.906 183.808 100.906 180.224C100.906 176.656 103.162 174.24 106.474 174.24C109.082 174.24 111.082 175.792 111.514 178.16H109.834C109.402 176.656 108.106 175.744 106.426 175.744C104.09 175.744 102.554 177.504 102.554 180.208C102.554 182.912 104.09 184.672 106.426 184.672C108.122 184.672 109.466 183.76 109.898 182.336H111.562C111.066 184.64 109.002 186.176 106.394 186.176ZM114.655 185.984H113.151V174.224H114.655V179.376C115.151 178.528 116.095 177.952 117.311 177.952C119.311 177.952 120.271 179.216 120.271 181.216V186H118.767V181.552C118.767 179.968 118.015 179.328 116.895 179.328C115.439 179.328 114.655 180.384 114.655 181.728V185.984ZM124.642 186.192C122.962 186.192 121.97 185.248 121.97 183.824C121.97 182.384 123.042 181.488 124.882 181.344L127.346 181.152V180.928C127.346 179.616 126.562 179.152 125.506 179.152C124.242 179.152 123.522 179.712 123.522 180.656H122.21C122.21 179.024 123.554 177.952 125.57 177.952C127.506 177.952 128.818 178.976 128.818 181.088V186H127.538L127.378 184.736C126.978 185.632 125.906 186.192 124.642 186.192ZM125.074 185.024C126.498 185.024 127.362 184.096 127.362 182.624V182.208L125.362 182.368C124.034 182.496 123.49 183.008 123.49 183.776C123.49 184.608 124.098 185.024 125.074 185.024ZM132.984 186H131.48V179.44H129.944V178.176H131.48V175.728H132.984V178.176H134.52V179.44H132.984V186ZM138.218 186H136.714V179.44H135.178V178.176H136.714V175.728H138.218V178.176H139.754V179.44H138.218V186ZM141.84 176.32C141.296 176.32 140.848 175.872 140.848 175.328C140.848 174.768 141.296 174.336 141.84 174.336C142.384 174.336 142.832 174.768 142.832 175.328C142.832 175.872 142.384 176.32 141.84 176.32ZM141.104 186V178.176H142.608V186H141.104ZM146.295 186H144.791V178.176H146.151L146.311 179.376C146.807 178.48 147.799 177.952 148.903 177.952C150.967 177.952 151.911 179.216 151.911 181.216V186H150.407V181.552C150.407 179.968 149.671 179.328 148.519 179.328C147.111 179.328 146.295 180.336 146.295 181.856V186ZM153.498 181.888C153.498 179.68 154.922 177.952 157.194 177.952C158.458 177.952 159.434 178.528 159.93 179.504L160.042 178.176H161.386V185.68C161.386 188.144 159.866 189.712 157.466 189.712C155.338 189.712 153.882 188.512 153.594 186.528H155.098C155.29 187.68 156.154 188.352 157.466 188.352C158.938 188.352 159.898 187.392 159.898 185.904V184.336C159.386 185.248 158.362 185.792 157.13 185.792C154.906 185.792 153.498 184.08 153.498 181.888ZM155.002 181.856C155.002 183.328 155.914 184.48 157.386 184.48C158.906 184.48 159.834 183.392 159.834 181.856C159.834 180.352 158.938 179.264 157.402 179.264C155.898 179.264 155.002 180.416 155.002 181.856Z" fill="#A0A0A1"/>
<path fill-rule="evenodd" clip-rule="evenodd" d="M32 224C36.4183 224 40 220.418 40 216C40 211.582 36.4183 208 32 208C27.5817 208 24 211.582 24 216C24 220.418 27.5817 224 32 224ZM35.7095 213.663C35.8913 213.455 35.8702 213.139 35.6624 212.957C35.4546 212.775 35.1387 212.796 34.9569 213.004L30.6421 217.935L29.0201 216.313C28.8248 216.118 28.5082 216.118 28.313 216.313C28.1177 216.509 28.1177 216.825 28.313 217.02L30.313 219.02C30.4108 219.118 30.5448 219.171 30.6831 219.167C30.8215 219.162 30.9517 219.1 31.0428 218.996L35.7095 213.663Z" fill="#A0A0A1"/>
<path d="M54.144 222.176C50.848 222.176 48.656 219.808 48.656 216.224C48.656 212.656 50.912 210.24 54.224 210.24C56.832 210.24 58.832 211.792 59.264 214.16H57.584C57.152 212.656 55.856 211.744 54.176 211.744C51.84 211.744 50.304 213.504 50.304 216.208C50.304 218.912 51.84 220.672 54.176 220.672C55.872 220.672 57.216 219.76 57.648 218.336H59.312C58.816 220.64 56.752 222.176 54.144 222.176ZM63.1104 222.192C61.4304 222.192 60.4384 221.248 60.4384 219.824C60.4384 218.384 61.5104 217.488 63.3504 217.344L65.8144 217.152V216.928C65.8144 215.616 65.0304 215.152 63.9744 215.152C62.7104 215.152 61.9904 215.712 61.9904 216.656H60.6784C60.6784 215.024 62.0224 213.952 64.0384 213.952C65.9744 213.952 67.2864 214.976 67.2864 217.088V222H66.0064L65.8464 220.736C65.4464 221.632 64.3744 222.192 63.1104 222.192ZM63.5424 221.024C64.9664 221.024 65.8304 220.096 65.8304 218.624V218.208L63.8304 218.368C62.5024 218.496 61.9584 219.008 61.9584 219.776C61.9584 220.608 62.5664 221.024 63.5424 221.024ZM68.7293 219.728H70.1693C70.1693 220.528 70.7773 221.008 71.7693 221.008C72.8253 221.008 73.4333 220.576 73.4333 219.856C73.4333 219.328 73.1773 219.008 72.3613 218.8L70.9853 218.48C69.5933 218.144 68.9373 217.456 68.9373 216.304C68.9373 214.864 70.1533 213.952 71.8813 213.952C73.5933 213.952 74.7133 214.912 74.7453 216.4H73.3053C73.2733 215.616 72.7453 215.12 71.8333 215.12C70.8893 215.12 70.3613 215.536 70.3613 216.256C70.3613 216.784 70.7453 217.136 71.5133 217.328L72.8893 217.664C74.2173 217.984 74.8733 218.592 74.8733 219.76C74.8733 221.248 73.5933 222.192 71.7373 222.192C69.8973 222.192 68.7293 221.216 68.7293 219.728ZM78.0451 221.984H76.5411V210.224H78.0451V215.376C78.5411 214.528 79.4851 213.952 80.7011 213.952C82.7011 213.952 83.6611 215.216 83.6611 217.216V222H82.1571V217.552C82.1571 215.968 81.4051 215.328 80.2851 215.328C78.8291 215.328 78.0451 216.384 78.0451 217.728V221.984ZM92.4003 222H90.9123V215.44H87.5683V222H86.0643V215.44H84.9123V214.176H86.0643V212.928C86.0643 211.008 87.0883 210.224 88.4483 210.224C88.7363 210.224 89.0723 210.24 89.3763 210.288V211.584H88.7043C87.7923 211.584 87.5683 212.08 87.5683 212.928V214.176H90.9123V210.224H92.4003V222ZM94.0916 218.08C94.0916 215.664 95.8196 213.968 98.1716 213.968C100.508 213.968 102.236 215.664 102.236 218.08C102.236 220.496 100.508 222.192 98.1716 222.192C95.8196 222.192 94.0916 220.496 94.0916 218.08ZM95.6116 218.08C95.6116 219.712 96.6516 220.848 98.1716 220.848C99.6756 220.848 100.732 219.712 100.732 218.08C100.732 216.448 99.6756 215.312 98.1716 215.312C96.6516 215.312 95.6116 216.448 95.6116 218.08ZM105.221 222L102.661 214.176H104.213L105.509 218.24C105.685 218.816 105.845 219.408 105.989 220.096C106.117 219.408 106.325 218.752 106.501 218.24L107.813 214.176H109.349L110.645 218.24C110.773 218.624 111.029 219.536 111.157 220.096C111.285 219.472 111.429 218.928 111.653 218.24L112.965 214.176H114.533L111.861 222H110.437L109.077 217.808C108.821 217.024 108.661 216.416 108.581 215.984C108.501 216.368 108.357 216.88 108.069 217.824L106.709 222H105.221ZM121.989 222H120.453V210.432H121.989L125.973 220.16L129.957 210.432H131.525V222H129.989V217.424C129.989 215.264 130.005 214.48 130.085 213.664L126.709 222H125.237L121.877 213.696C121.957 214.256 121.989 215.44 121.989 217.056V222ZM136.251 222.192C134.571 222.192 133.579 221.248 133.579 219.824C133.579 218.384 134.651 217.488 136.491 217.344L138.955 217.152V216.928C138.955 215.616 138.171 215.152 137.115 215.152C135.851 215.152 135.131 215.712 135.131 216.656H133.819C133.819 215.024 135.163 213.952 137.179 213.952C139.115 213.952 140.427 214.976 140.427 217.088V222H139.147L138.987 220.736C138.587 221.632 137.515 222.192 136.251 222.192ZM136.683 221.024C138.107 221.024 138.971 220.096 138.971 218.624V218.208L136.971 218.368C135.643 218.496 135.099 219.008 135.099 219.776C135.099 220.608 135.707 221.024 136.683 221.024ZM144.014 222H142.51V214.176H143.87L144.03 215.376C144.526 214.48 145.518 213.952 146.622 213.952C148.686 213.952 149.63 215.216 149.63 217.216V222H148.126V217.552C148.126 215.968 147.39 215.328 146.238 215.328C144.83 215.328 144.014 216.336 144.014 217.856V222ZM154.001 222.192C152.321 222.192 151.329 221.248 151.329 219.824C151.329 218.384 152.401 217.488 154.241 217.344L156.705 217.152V216.928C156.705 215.616 155.921 215.152 154.865 215.152C153.601 215.152 152.881 215.712 152.881 216.656H151.569C151.569 215.024 152.913 213.952 154.929 213.952C156.865 213.952 158.177 214.976 158.177 217.088V222H156.897L156.737 220.736C156.337 221.632 155.265 222.192 154.001 222.192ZM154.433 221.024C155.857 221.024 156.721 220.096 156.721 218.624V218.208L154.721 218.368C153.393 218.496 152.849 219.008 152.849 219.776C152.849 220.608 153.457 221.024 154.433 221.024ZM159.764 217.888C159.764 215.68 161.188 213.952 163.46 213.952C164.724 213.952 165.7 214.528 166.196 215.504L166.308 214.176H167.652V221.68C167.652 224.144 166.132 225.712 163.732 225.712C161.604 225.712 160.148 224.512 159.86 222.528H161.364C161.556 223.68 162.42 224.352 163.732 224.352C165.204 224.352 166.164 223.392 166.164 221.904V220.336C165.652 221.248 164.628 221.792 163.396 221.792C161.172 221.792 159.764 220.08 159.764 217.888ZM161.268 217.856C161.268 219.328 162.18 220.48 163.652 220.48C165.172 220.48 166.1 219.392 166.1 217.856C166.1 216.352 165.204 215.264 163.668 215.264C162.164 215.264 161.268 216.416 161.268 217.856ZM173.198 222.192C170.894 222.192 169.31 220.528 169.31 218.096C169.31 215.648 170.862 213.952 173.134 213.952C175.358 213.952 176.814 215.488 176.814 217.808V218.368L170.766 218.384C170.878 220.032 171.742 220.944 173.23 220.944C174.398 220.944 175.166 220.464 175.422 219.568H176.83C176.446 221.248 175.134 222.192 173.198 222.192ZM173.134 215.216C171.822 215.216 170.99 216 170.798 217.376H175.31C175.31 216.08 174.462 215.216 173.134 215.216ZM179.998 222H178.494V214.176H179.838L179.982 215.2C180.382 214.464 181.214 213.952 182.318 213.952C183.534 213.952 184.398 214.56 184.798 215.536C185.166 214.56 186.11 213.952 187.326 213.952C189.118 213.952 190.206 215.072 190.206 216.88V222H188.734V217.248C188.734 216.016 188.046 215.312 186.99 215.312C185.854 215.312 185.102 216.112 185.102 217.36V222H183.614V217.232C183.614 216 182.942 215.328 181.886 215.328C180.75 215.328 179.998 216.112 179.998 217.36V222ZM195.667 222.192C193.363 222.192 191.779 220.528 191.779 218.096C191.779 215.648 193.331 213.952 195.603 213.952C197.827 213.952 199.283 215.488 199.283 217.808V218.368L193.235 218.384C193.347 220.032 194.211 220.944 195.699 220.944C196.867 220.944 197.635 220.464 197.891 219.568H199.299C198.915 221.248 197.603 222.192 195.667 222.192ZM195.603 215.216C194.291 215.216 193.459 216 193.267 217.376H197.779C197.779 216.08 196.931 215.216 195.603 215.216ZM202.467 222H200.963V214.176H202.323L202.483 215.376C202.979 214.48 203.971 213.952 205.075 213.952C207.139 213.952 208.083 215.216 208.083 217.216V222H206.579V217.552C206.579 215.968 205.843 215.328 204.691 215.328C203.283 215.328 202.467 216.336 202.467 217.856V222ZM212.374 222H210.87V215.44H209.334V214.176H210.87V211.728H212.374V214.176H213.91V215.44H212.374V222ZM223.011 224.768H221.763C220.291 222.928 219.315 220.144 219.315 217.248C219.315 214.528 220.195 211.68 221.763 209.744H223.011C221.747 211.504 220.851 214.256 220.851 217.248C220.851 220.08 221.651 222.896 223.011 224.768ZM223.688 213.552C223.688 211.568 225.288 210.224 227.672 210.224C229.88 210.224 231.304 211.456 231.432 213.456H229.848C229.768 212.304 228.952 211.632 227.656 211.632C226.2 211.632 225.256 212.368 225.256 213.504C225.256 214.432 225.784 214.992 226.872 215.248L228.776 215.696C230.664 216.128 231.624 217.152 231.624 218.784C231.624 220.864 230.008 222.192 227.544 222.192C225.192 222.192 223.624 220.96 223.528 218.976H225.128C225.16 220.08 226.088 220.784 227.544 220.784C229.08 220.784 230.056 220.064 230.056 218.912C230.056 218 229.56 217.424 228.456 217.168L226.552 216.736C224.664 216.304 223.688 215.216 223.688 213.552ZM238.746 214.176H240.234V222H238.89L238.73 220.816C238.282 221.632 237.242 222.192 236.09 222.192C234.266 222.192 233.242 220.96 233.242 219.04V214.176H234.746V218.544C234.746 220.224 235.466 220.864 236.618 220.864C237.994 220.864 238.746 219.984 238.746 218.304V214.176ZM243.152 212.32C242.608 212.32 242.16 211.872 242.16 211.328C242.16 210.768 242.608 210.336 243.152 210.336C243.696 210.336 244.144 210.768 244.144 211.328C244.144 211.872 243.696 212.32 243.152 212.32ZM242.416 222V214.176H243.92V222H242.416ZM246.42 224.768H245.156C246.516 222.896 247.316 220.08 247.316 217.248C247.316 214.256 246.436 211.504 245.156 209.744H246.42C247.972 211.68 248.852 214.528 248.852 217.248C248.852 220.144 247.876 222.928 246.42 224.768Z" fill="#A0A0A1"/>
<path fill-rule="evenodd" clip-rule="evenodd" d="M32 260C36.4183 260 40 256.418 40 252C40 247.582 36.4183 244 32 244C27.5817 244 24 247.582 24 252C24 256.418 27.5817 260 32 260ZM35.7095 249.663C35.8913 249.455 35.8702 249.139 35.6624 248.957C35.4546 248.775 35.1387 248.796 34.9569 249.004L30.6421 253.935L29.0201 252.313C28.8248 252.118 28.5082 252.118 28.313 252.313C28.1177 252.509 28.1177 252.825 28.313 253.02L30.313 255.02C30.4108 255.118 30.5448 255.171 30.6831 255.167C30.8215 255.162 30.9517 255.1 31.0428 254.996L35.7095 249.663Z" fill="#A0A0A1"/>
<path d="M48.224 247.872V246.432H56.752V247.872H53.28V258H51.712V247.872H48.224ZM61.5993 250.112V251.488H60.9273C59.5033 251.488 58.6233 252.352 58.6233 253.856V258H57.1193V250.192H58.5273L58.6233 251.376C58.9433 250.56 59.7273 250.016 60.7993 250.016C61.0713 250.016 61.2953 250.048 61.5993 250.112ZM64.9854 258.192C63.3054 258.192 62.3134 257.248 62.3134 255.824C62.3134 254.384 63.3854 253.488 65.2254 253.344L67.6894 253.152V252.928C67.6894 251.616 66.9054 251.152 65.8494 251.152C64.5854 251.152 63.8654 251.712 63.8654 252.656H62.5534C62.5534 251.024 63.8974 249.952 65.9134 249.952C67.8494 249.952 69.1614 250.976 69.1614 253.088V258H67.8814L67.7214 256.736C67.3214 257.632 66.2494 258.192 64.9854 258.192ZM65.4174 257.024C66.8414 257.024 67.7054 256.096 67.7054 254.624V254.208L65.7054 254.368C64.3774 254.496 63.8334 255.008 63.8334 255.776C63.8334 256.608 64.4414 257.024 65.4174 257.024ZM72.7483 258H71.2443V250.176H72.6043L72.7643 251.376C73.2603 250.48 74.2523 249.952 75.3563 249.952C77.4203 249.952 78.3643 251.216 78.3643 253.216V258H76.8603V253.552C76.8603 251.968 76.1243 251.328 74.9723 251.328C73.5643 251.328 72.7483 252.336 72.7483 253.856V258ZM79.7136 255.728H81.1536C81.1536 256.528 81.7616 257.008 82.7536 257.008C83.8096 257.008 84.4176 256.576 84.4176 255.856C84.4176 255.328 84.1616 255.008 83.3456 254.8L81.9696 254.48C80.5776 254.144 79.9216 253.456 79.9216 252.304C79.9216 250.864 81.1376 249.952 82.8656 249.952C84.5776 249.952 85.6976 250.912 85.7296 252.4H84.2896C84.2576 251.616 83.7296 251.12 82.8176 251.12C81.8736 251.12 81.3456 251.536 81.3456 252.256C81.3456 252.784 81.7296 253.136 82.4976 253.328L83.8736 253.664C85.2016 253.984 85.8576 254.592 85.8576 255.76C85.8576 257.248 84.5776 258.192 82.7216 258.192C80.8816 258.192 79.7136 257.216 79.7136 255.728ZM89.8135 258.192C88.1335 258.192 87.1415 257.248 87.1415 255.824C87.1415 254.384 88.2135 253.488 90.0535 253.344L92.5175 253.152V252.928C92.5175 251.616 91.7335 251.152 90.6775 251.152C89.4135 251.152 88.6935 251.712 88.6935 252.656H87.3815C87.3815 251.024 88.7255 249.952 90.7415 249.952C92.6775 249.952 93.9895 250.976 93.9895 253.088V258H92.7095L92.5495 256.736C92.1495 257.632 91.0775 258.192 89.8135 258.192ZM90.2455 257.024C91.6695 257.024 92.5335 256.096 92.5335 254.624V254.208L90.5335 254.368C89.2055 254.496 88.6615 255.008 88.6615 255.776C88.6615 256.608 89.2695 257.024 90.2455 257.024ZM95.5604 254.096C95.5604 251.648 97.1124 249.952 99.4004 249.952C101.368 249.952 102.744 251.072 103.016 252.816H101.512C101.256 251.824 100.456 251.296 99.4484 251.296C98.0244 251.296 97.0484 252.384 97.0484 254.08C97.0484 255.76 97.9604 256.848 99.3844 256.848C100.456 256.848 101.256 256.288 101.528 255.36H103.032C102.728 257.056 101.272 258.192 99.3844 258.192C97.0804 258.192 95.5604 256.56 95.5604 254.096ZM106.827 258H105.323V251.44H103.787V250.176H105.323V247.728H106.827V250.176H108.363V251.44H106.827V258ZM110.449 248.32C109.905 248.32 109.457 247.872 109.457 247.328C109.457 246.768 109.905 246.336 110.449 246.336C110.993 246.336 111.441 246.768 111.441 247.328C111.441 247.872 110.993 248.32 110.449 248.32ZM109.713 258V250.176H111.217V258H109.713ZM112.889 254.08C112.889 251.664 114.617 249.968 116.969 249.968C119.305 249.968 121.033 251.664 121.033 254.08C121.033 256.496 119.305 258.192 116.969 258.192C114.617 258.192 112.889 256.496 112.889 254.08ZM114.409 254.08C114.409 255.712 115.449 256.848 116.969 256.848C118.473 256.848 119.529 255.712 119.529 254.08C119.529 252.448 118.473 251.312 116.969 251.312C115.449 251.312 114.409 252.448 114.409 254.08ZM124.201 258H122.697V250.176H124.057L124.217 251.376C124.713 250.48 125.705 249.952 126.809 249.952C128.873 249.952 129.817 251.216 129.817 253.216V258H128.313V253.552C128.313 251.968 127.577 251.328 126.425 251.328C125.017 251.328 124.201 252.336 124.201 253.856V258ZM138.1 258H136.532V246.432H138.1L144.02 255.376V246.432H145.588V258H144.02L138.1 249.056V258ZM147.514 254.08C147.514 251.664 149.242 249.968 151.594 249.968C153.93 249.968 155.658 251.664 155.658 254.08C155.658 256.496 153.93 258.192 151.594 258.192C149.242 258.192 147.514 256.496 147.514 254.08ZM149.034 254.08C149.034 255.712 150.074 256.848 151.594 256.848C153.098 256.848 154.154 255.712 154.154 254.08C154.154 252.448 153.098 251.312 151.594 251.312C150.074 251.312 149.034 252.448 149.034 254.08ZM159.452 258H157.948V251.44H156.412V250.176H157.948V247.728H159.452V250.176H160.988V251.44H159.452V258ZM165.636 258.192C163.332 258.192 161.748 256.528 161.748 254.096C161.748 251.648 163.3 249.952 165.572 249.952C167.796 249.952 169.252 251.488 169.252 253.808V254.368L163.204 254.384C163.316 256.032 164.18 256.944 165.668 256.944C166.836 256.944 167.604 256.464 167.86 255.568H169.268C168.884 257.248 167.572 258.192 165.636 258.192ZM165.572 251.216C164.26 251.216 163.428 252 163.236 253.376H167.748C167.748 252.08 166.9 251.216 165.572 251.216ZM170.292 255.728H171.732C171.732 256.528 172.34 257.008 173.332 257.008C174.388 257.008 174.996 256.576 174.996 255.856C174.996 255.328 174.74 255.008 173.924 254.8L172.548 254.48C171.156 254.144 170.5 253.456 170.5 252.304C170.5 250.864 171.716 249.952 173.444 249.952C175.156 249.952 176.276 250.912 176.308 252.4H174.868C174.836 251.616 174.308 251.12 173.396 251.12C172.452 251.12 171.924 251.536 171.924 252.256C171.924 252.784 172.308 253.136 173.076 253.328L174.452 253.664C175.78 253.984 176.436 254.592 176.436 255.76C176.436 257.248 175.156 258.192 173.3 258.192C171.46 258.192 170.292 257.216 170.292 255.728Z" fill="#A0A0A1"/>
<defs>
<linearGradient id="paint0_linear_10085_39678" x1="0" y1="288" x2="372.413" y2="188.288" gradientUnits="userSpaceOnUse">
<stop stop-color="white" stop-opacity="0.1"/>
<stop offset="1" stop-color="white" stop-opacity="0.05"/>
<stop offset="1" stop-color="white" stop-opacity="0.05"/>
</linearGradient>
</defs>
</svg>
