<svg width="339" height="272" viewBox="0 0 339 272" fill="none" xmlns="http://www.w3.org/2000/svg">
<rect x="0.5" y="0.5" width="321" height="271" rx="19.5" fill="#252238"/>
<rect x="0.5" y="0.5" width="321" height="271" rx="19.5" stroke="url(#paint0_linear_10085_39678)"/>
<path d="M37.08 38.96L35.52 37.2C34.44 37.86 33.16 38.24 31.74 38.24C27.66 38.24 24.82 35.16 24.82 30.76C24.82 26.38 27.68 23.28 31.76 23.28C35.86 23.28 38.72 26.36 38.72 30.76C38.72 32.92 38.02 34.76 36.84 36.08L38.36 37.8L37.08 38.96ZM36.66 30.76C36.66 27.4 34.7 25.18 31.76 25.18C28.82 25.18 26.88 27.4 26.88 30.76C26.88 34.12 28.82 36.36 31.76 36.36C32.68 36.36 33.5 36.14 34.2 35.72L32.3 33.58L33.58 32.42L35.5 34.58C36.24 33.62 36.66 32.3 36.66 30.76ZM43.2869 25.3H40.2469V23.54H45.1669V38H43.2869V25.3ZM53.5608 33.54V31.86H59.6608V33.54H53.5608ZM77.0628 37.98L67.3028 38V36.5L71.9628 32.48C74.3028 30.46 74.9628 29.48 74.9628 27.94C74.9628 26.12 73.9228 25.04 72.1828 25.04C70.4028 25.04 69.2428 26.34 69.2028 28.4H67.2428C67.3028 25.3 69.2628 23.28 72.2028 23.28C75.1028 23.28 76.9628 25.04 76.9628 27.82C76.9628 29.88 75.9428 31.34 73.3828 33.56L70.3828 36.16H77.0628V37.98ZM78.8667 30.78C78.8667 26.3 81.1867 23.26 84.8267 23.26C88.4467 23.26 90.7667 26.3 90.7667 30.78C90.7667 35.28 88.5467 38.26 84.8267 38.26C81.0867 38.26 78.8667 35.28 78.8667 30.78ZM80.8067 30.78C80.8067 34.34 82.2867 36.5 84.8267 36.5C87.3667 36.5 88.8267 34.34 88.8267 30.78C88.8267 27.18 87.3667 25.02 84.8267 25.02C82.2867 25.02 80.8067 27.18 80.8067 30.78ZM102.434 37.98L92.6739 38V36.5L97.3339 32.48C99.6739 30.46 100.334 29.48 100.334 27.94C100.334 26.12 99.2939 25.04 97.5539 25.04C95.7739 25.04 94.6139 26.34 94.5739 28.4H92.6139C92.6739 25.3 94.6339 23.28 97.5739 23.28C100.474 23.28 102.334 25.04 102.334 27.82C102.334 29.88 101.314 31.34 98.7539 33.56L95.7539 36.16H102.434V37.98ZM114.627 35.08H112.907V38H111.027V35.08H103.547V33.34L110.367 23.54H112.907V33.34H114.627V35.08ZM105.667 33.34H111.027V25.62L105.667 33.34Z" fill="#F3F3F3"/>
<path fill-rule="evenodd" clip-rule="evenodd" d="M32 84C36.4183 84 40 80.4183 40 76C40 71.5817 36.4183 68 32 68C27.5817 68 24 71.5817 24 76C24 80.4183 27.5817 84 32 84ZM35.7095 73.6627C35.8913 73.4549 35.8702 73.139 35.6624 72.9572C35.4546 72.7754 35.1387 72.7964 34.9569 73.0042L30.6421 77.9354L29.0201 76.3133C28.8248 76.118 28.5082 76.118 28.313 76.3133C28.1177 76.5085 28.1177 76.8251 28.313 77.0204L30.313 79.0204C30.4108 79.1182 30.5448 79.1712 30.6831 79.1666C30.8215 79.1619 30.9517 79.1002 31.0428 78.9961L35.7095 73.6627Z" fill="#A0A0A1"/>
<path d="M48.672 73.552C48.672 71.568 50.272 70.224 52.656 70.224C54.864 70.224 56.288 71.456 56.416 73.456H54.832C54.752 72.304 53.936 71.632 52.64 71.632C51.184 71.632 50.24 72.368 50.24 73.504C50.24 74.432 50.768 74.992 51.856 75.248L53.76 75.696C55.648 76.128 56.608 77.152 56.608 78.784C56.608 80.864 54.992 82.192 52.528 82.192C50.176 82.192 48.608 80.96 48.512 78.976H50.112C50.144 80.08 51.072 80.784 52.528 80.784C54.064 80.784 55.04 80.064 55.04 78.912C55.04 78 54.544 77.424 53.44 77.168L51.536 76.736C49.648 76.304 48.672 75.216 48.672 73.552ZM60.5304 82H59.0264V75.44H57.4904V74.176H59.0264V71.728H60.5304V74.176H62.0664V75.44H60.5304V82ZM65.6104 82.192C63.9304 82.192 62.9384 81.248 62.9384 79.824C62.9384 78.384 64.0104 77.488 65.8504 77.344L68.3144 77.152V76.928C68.3144 75.616 67.5304 75.152 66.4744 75.152C65.2104 75.152 64.4904 75.712 64.4904 76.656H63.1784C63.1784 75.024 64.5224 73.952 66.5384 73.952C68.4744 73.952 69.7864 74.976 69.7864 77.088V82H68.5064L68.3464 80.736C67.9464 81.632 66.8744 82.192 65.6104 82.192ZM66.0424 81.024C67.4664 81.024 68.3304 80.096 68.3304 78.624V78.208L66.3304 78.368C65.0024 78.496 64.4584 79.008 64.4584 79.776C64.4584 80.608 65.0664 81.024 66.0424 81.024ZM73.4053 82H71.9013V70.224H73.4053V77.856L76.8773 74.176H78.7653L75.7733 77.296L78.7493 82H77.0213L74.7333 78.384L73.4053 79.776V82ZM80.7303 72.32C80.1863 72.32 79.7383 71.872 79.7383 71.328C79.7383 70.768 80.1863 70.336 80.7303 70.336C81.2743 70.336 81.7223 70.768 81.7223 71.328C81.7223 71.872 81.2743 72.32 80.7303 72.32ZM79.9943 82V74.176H81.4983V82H79.9943ZM85.1858 82H83.6818V74.176H85.0418L85.2018 75.376C85.6978 74.48 86.6898 73.952 87.7938 73.952C89.8578 73.952 90.8018 75.216 90.8018 77.216V82H89.2978V77.552C89.2978 75.968 88.5618 75.328 87.4098 75.328C86.0018 75.328 85.1858 76.336 85.1858 77.856V82ZM92.3889 77.888C92.3889 75.68 93.8129 73.952 96.0849 73.952C97.3489 73.952 98.3249 74.528 98.8209 75.504L98.9329 74.176H100.277V81.68C100.277 84.144 98.7569 85.712 96.3569 85.712C94.2289 85.712 92.7729 84.512 92.4849 82.528H93.9889C94.1809 83.68 95.0449 84.352 96.3569 84.352C97.8289 84.352 98.7889 83.392 98.7889 81.904V80.336C98.2769 81.248 97.2529 81.792 96.0209 81.792C93.7969 81.792 92.3889 80.08 92.3889 77.888ZM93.8929 77.856C93.8929 79.328 94.8049 80.48 96.2769 80.48C97.7969 80.48 98.7249 79.392 98.7249 77.856C98.7249 76.352 97.8289 75.264 96.2929 75.264C94.7889 75.264 93.8929 76.416 93.8929 77.856ZM107.558 82H105.926L110.15 70.432H111.894L116.134 82H114.486L113.446 79.12H108.582L107.558 82ZM110.822 72.928L109.062 77.76H112.982L111.206 72.928C111.126 72.704 111.046 72.432 111.014 72.256C110.982 72.416 110.902 72.688 110.822 72.928ZM116.78 77.888C116.78 75.68 118.204 73.952 120.476 73.952C121.74 73.952 122.716 74.528 123.212 75.504L123.324 74.176H124.668V81.68C124.668 84.144 123.148 85.712 120.748 85.712C118.62 85.712 117.164 84.512 116.876 82.528H118.38C118.572 83.68 119.436 84.352 120.748 84.352C122.22 84.352 123.18 83.392 123.18 81.904V80.336C122.668 81.248 121.644 81.792 120.411 81.792C118.188 81.792 116.78 80.08 116.78 77.888ZM118.284 77.856C118.284 79.328 119.196 80.48 120.668 80.48C122.188 80.48 123.116 79.392 123.116 77.856C123.116 76.352 122.22 75.264 120.684 75.264C119.18 75.264 118.284 76.416 118.284 77.856ZM126.342 77.888C126.342 75.68 127.766 73.952 130.038 73.952C131.302 73.952 132.278 74.528 132.774 75.504L132.886 74.176H134.23V81.68C134.23 84.144 132.71 85.712 130.31 85.712C128.182 85.712 126.726 84.512 126.438 82.528H127.942C128.134 83.68 128.998 84.352 130.31 84.352C131.782 84.352 132.742 83.392 132.742 81.904V80.336C132.23 81.248 131.206 81.792 129.974 81.792C127.75 81.792 126.342 80.08 126.342 77.888ZM127.846 77.856C127.846 79.328 128.758 80.48 130.23 80.48C131.75 80.48 132.678 79.392 132.678 77.856C132.678 76.352 131.782 75.264 130.246 75.264C128.742 75.264 127.846 76.416 127.846 77.856ZM140.881 74.112V75.488H140.209C138.785 75.488 137.905 76.352 137.905 77.856V82H136.401V74.192H137.809L137.905 75.376C138.225 74.56 139.009 74.016 140.081 74.016C140.353 74.016 140.577 74.048 140.881 74.112ZM145.386 82.192C143.082 82.192 141.498 80.528 141.498 78.096C141.498 75.648 143.05 73.952 145.322 73.952C147.546 73.952 149.002 75.488 149.002 77.808V78.368L142.954 78.384C143.066 80.032 143.93 80.944 145.418 80.944C146.586 80.944 147.354 80.464 147.61 79.568H149.018C148.634 81.248 147.322 82.192 145.386 82.192ZM145.322 75.216C144.01 75.216 143.178 76 142.986 77.376H147.498C147.498 76.08 146.65 75.216 145.322 75.216ZM150.186 77.888C150.186 75.68 151.61 73.952 153.882 73.952C155.146 73.952 156.122 74.528 156.618 75.504L156.73 74.176H158.074V81.68C158.074 84.144 156.554 85.712 154.154 85.712C152.026 85.712 150.57 84.512 150.282 82.528H151.786C151.978 83.68 152.842 84.352 154.154 84.352C155.626 84.352 156.586 83.392 156.586 81.904V80.336C156.074 81.248 155.05 81.792 153.818 81.792C151.594 81.792 150.186 80.08 150.186 77.888ZM151.69 77.856C151.69 79.328 152.602 80.48 154.074 80.48C155.594 80.48 156.522 79.392 156.522 77.856C156.522 76.352 155.626 75.264 154.09 75.264C152.586 75.264 151.69 76.416 151.69 77.856ZM162.532 82.192C160.852 82.192 159.86 81.248 159.86 79.824C159.86 78.384 160.932 77.488 162.772 77.344L165.236 77.152V76.928C165.236 75.616 164.452 75.152 163.396 75.152C162.132 75.152 161.412 75.712 161.412 76.656H160.1C160.1 75.024 161.444 73.952 163.46 73.952C165.396 73.952 166.708 74.976 166.708 77.088V82H165.428L165.268 80.736C164.868 81.632 163.796 82.192 162.532 82.192ZM162.964 81.024C164.388 81.024 165.252 80.096 165.252 78.624V78.208L163.252 78.368C161.924 78.496 161.38 79.008 161.38 79.776C161.38 80.608 161.988 81.024 162.964 81.024ZM170.874 82H169.37V75.44H167.834V74.176H169.37V71.728H170.874V74.176H172.41V75.44H170.874V82ZM173.17 78.08C173.17 75.664 174.898 73.968 177.25 73.968C179.586 73.968 181.314 75.664 181.314 78.08C181.314 80.496 179.586 82.192 177.25 82.192C174.898 82.192 173.17 80.496 173.17 78.08ZM174.69 78.08C174.69 79.712 175.73 80.848 177.25 80.848C178.754 80.848 179.81 79.712 179.81 78.08C179.81 76.448 178.754 75.312 177.25 75.312C175.73 75.312 174.69 76.448 174.69 78.08ZM187.459 74.112V75.488H186.787C185.363 75.488 184.483 76.352 184.483 77.856V82H182.979V74.192H184.387L184.483 75.376C184.803 74.56 185.587 74.016 186.659 74.016C186.931 74.016 187.155 74.048 187.459 74.112ZM196.62 84.768H195.372C193.9 82.928 192.924 80.144 192.924 77.248C192.924 74.528 193.804 71.68 195.372 69.744H196.62C195.356 71.504 194.46 74.256 194.46 77.248C194.46 80.08 195.26 82.896 196.62 84.768ZM205.025 82H197.969V70.432H205.025V71.872H199.537V75.488H204.481V76.88H199.537V80.544H205.025V82ZM206.177 71.872V70.432H214.705V71.872H211.233V82H209.665V71.872H206.177ZM217.85 82H216.282V70.432H217.85V75.408H223.578V70.432H225.146V82H223.578V76.864H217.85V82ZM227.748 84.768H226.484C227.844 82.896 228.644 80.08 228.644 77.248C228.644 74.256 227.764 71.504 226.484 69.744H227.748C229.3 71.68 230.18 74.528 230.18 77.248C230.18 80.144 229.204 82.928 227.748 84.768Z" fill="#A0A0A1"/>
<path fill-rule="evenodd" clip-rule="evenodd" d="M32 132C36.4183 132 40 128.418 40 124C40 119.582 36.4183 116 32 116C27.5817 116 24 119.582 24 124C24 128.418 27.5817 132 32 132ZM35.7095 121.663C35.8913 121.455 35.8702 121.139 35.6624 120.957C35.4546 120.775 35.1387 120.796 34.9569 121.004L30.6421 125.935L29.0201 124.313C28.8248 124.118 28.5082 124.118 28.313 124.313C28.1177 124.509 28.1177 124.825 28.313 125.02L30.313 127.02C30.4108 127.118 30.5448 127.171 30.6831 127.167C30.8215 127.162 30.9517 127.1 31.0428 126.996L35.7095 121.663Z" fill="#A0A0A1"/>
<path d="M59.776 112.208C59.776 115.728 57.472 118.192 54.192 118.192C50.928 118.192 48.656 115.728 48.656 112.208C48.656 108.704 50.944 106.224 54.208 106.224C57.488 106.224 59.776 108.688 59.776 112.208ZM58.128 112.208C58.128 109.52 56.56 107.744 54.208 107.744C51.856 107.744 50.304 109.52 50.304 112.208C50.304 114.896 51.856 116.688 54.208 116.688C56.56 116.688 58.128 114.88 58.128 112.208ZM63.0295 118H61.5255V110.176H62.8695L63.0135 111.2C63.4135 110.464 64.2455 109.952 65.3495 109.952C66.5655 109.952 67.4295 110.56 67.8295 111.536C68.1975 110.56 69.1415 109.952 70.3575 109.952C72.1495 109.952 73.2375 111.072 73.2375 112.88V118H71.7655V113.248C71.7655 112.016 71.0775 111.312 70.0215 111.312C68.8855 111.312 68.1335 112.112 68.1335 113.36V118H66.6455V113.232C66.6455 112 65.9735 111.328 64.9175 111.328C63.7815 111.328 63.0295 112.112 63.0295 113.36V118ZM76.8264 118H75.3224V110.176H76.6824L76.8424 111.376C77.3384 110.48 78.3304 109.952 79.4344 109.952C81.4984 109.952 82.4424 111.216 82.4424 113.216V118H80.9384V113.552C80.9384 111.968 80.2024 111.328 79.0504 111.328C77.6424 111.328 76.8264 112.336 76.8264 113.856V118ZM85.2615 108.32C84.7175 108.32 84.2695 107.872 84.2695 107.328C84.2695 106.768 84.7175 106.336 85.2615 106.336C85.8055 106.336 86.2535 106.768 86.2535 107.328C86.2535 107.872 85.8055 108.32 85.2615 108.32ZM84.5255 118V110.176H86.0295V118H84.5255ZM87.701 114.096C87.701 111.648 89.253 109.952 91.541 109.952C93.509 109.952 94.885 111.072 95.157 112.816H93.653C93.397 111.824 92.597 111.296 91.589 111.296C90.165 111.296 89.189 112.384 89.189 114.08C89.189 115.76 90.101 116.848 91.525 116.848C92.597 116.848 93.397 116.288 93.669 115.36H95.173C94.869 117.056 93.413 118.192 91.525 118.192C89.221 118.192 87.701 116.56 87.701 114.096ZM98.2639 117.984H96.7599V106.224H98.2639V111.376C98.7599 110.528 99.7039 109.952 100.92 109.952C102.92 109.952 103.88 111.216 103.88 113.216V118H102.376V113.552C102.376 111.968 101.624 111.328 100.504 111.328C99.0479 111.328 98.2639 112.384 98.2639 113.728V117.984ZM108.251 118.192C106.571 118.192 105.579 117.248 105.579 115.824C105.579 114.384 106.651 113.488 108.491 113.344L110.955 113.152V112.928C110.955 111.616 110.171 111.152 109.115 111.152C107.851 111.152 107.131 111.712 107.131 112.656H105.819C105.819 111.024 107.163 109.952 109.179 109.952C111.115 109.952 112.427 110.976 112.427 113.088V118H111.147L110.987 116.736C110.587 117.632 109.515 118.192 108.251 118.192ZM108.683 117.024C110.107 117.024 110.971 116.096 110.971 114.624V114.208L108.971 114.368C107.643 114.496 107.099 115.008 107.099 115.776C107.099 116.608 107.707 117.024 108.683 117.024ZM115.246 108.32C114.702 108.32 114.254 107.872 114.254 107.328C114.254 106.768 114.702 106.336 115.246 106.336C115.79 106.336 116.238 106.768 116.238 107.328C116.238 107.872 115.79 108.32 115.246 108.32ZM114.51 118V110.176H116.014V118H114.51ZM119.701 118H118.197V110.176H119.557L119.717 111.376C120.213 110.48 121.205 109.952 122.309 109.952C124.373 109.952 125.317 111.216 125.317 113.216V118H123.813V113.552C123.813 111.968 123.077 111.328 121.925 111.328C120.517 111.328 119.701 112.336 119.701 113.856V118ZM131.36 109.552C131.36 107.568 132.96 106.224 135.344 106.224C137.552 106.224 138.976 107.456 139.104 109.456H137.52C137.44 108.304 136.624 107.632 135.328 107.632C133.872 107.632 132.928 108.368 132.928 109.504C132.928 110.432 133.456 110.992 134.544 111.248L136.448 111.696C138.336 112.128 139.296 113.152 139.296 114.784C139.296 116.864 137.68 118.192 135.216 118.192C132.864 118.192 131.296 116.96 131.2 114.976H132.799C132.832 116.08 133.76 116.784 135.216 116.784C136.752 116.784 137.728 116.064 137.728 114.912C137.728 114 137.232 113.424 136.128 113.168L134.224 112.736C132.336 112.304 131.36 111.216 131.36 109.552ZM142.69 118L140.13 110.176H141.682L142.978 114.24C143.154 114.816 143.314 115.408 143.458 116.096C143.586 115.408 143.794 114.752 143.97 114.24L145.282 110.176H146.818L148.114 114.24C148.242 114.624 148.498 115.536 148.626 116.096C148.754 115.472 148.898 114.928 149.122 114.24L150.434 110.176H152.002L149.33 118H147.906L146.546 113.808C146.29 113.024 146.13 112.416 146.05 111.984C145.97 112.368 145.826 112.88 145.538 113.824L144.178 118H142.69ZM155.22 118.192C153.54 118.192 152.548 117.248 152.548 115.824C152.548 114.384 153.62 113.488 155.46 113.344L157.924 113.152V112.928C157.924 111.616 157.14 111.152 156.084 111.152C154.82 111.152 154.1 111.712 154.1 112.656H152.788C152.788 111.024 154.132 109.952 156.148 109.952C158.084 109.952 159.396 110.976 159.396 113.088V118H158.116L157.956 116.736C157.556 117.632 156.484 118.192 155.22 118.192ZM155.652 117.024C157.076 117.024 157.94 116.096 157.94 114.624V114.208L155.94 114.368C154.612 114.496 154.068 115.008 154.068 115.776C154.068 116.608 154.676 117.024 155.652 117.024ZM161.479 121.504V110.176H162.839L162.951 111.584C163.479 110.512 164.535 109.952 165.783 109.952C168.023 109.952 169.415 111.632 169.415 114.032C169.415 116.416 168.103 118.208 165.783 118.208C164.535 118.208 163.495 117.68 162.983 116.72V121.504H161.479ZM162.999 114.096C162.999 115.696 163.927 116.848 165.463 116.848C166.999 116.848 167.911 115.696 167.911 114.096C167.911 112.48 166.999 111.328 165.463 111.328C163.927 111.328 162.999 112.464 162.999 114.096ZM178.823 120.768H177.575C176.103 118.928 175.127 116.144 175.127 113.248C175.127 110.528 176.007 107.68 177.575 105.744H178.823C177.559 107.504 176.663 110.256 176.663 113.248C176.663 116.08 177.463 118.896 178.823 120.768ZM184.668 113.872H181.74V118H180.172V106.432H184.668C186.94 106.432 188.396 107.92 188.396 110.144C188.396 112.304 186.924 113.872 184.668 113.872ZM184.396 107.84H181.74V112.464H184.332C185.884 112.464 186.748 111.552 186.748 110.128C186.748 108.672 185.868 107.84 184.396 107.84ZM191.892 118.192C190.212 118.192 189.22 117.248 189.22 115.824C189.22 114.384 190.292 113.488 192.132 113.344L194.596 113.152V112.928C194.596 111.616 193.812 111.152 192.756 111.152C191.492 111.152 190.772 111.712 190.772 112.656H189.46C189.46 111.024 190.804 109.952 192.82 109.952C194.756 109.952 196.068 110.976 196.068 113.088V118H194.788L194.628 116.736C194.228 117.632 193.156 118.192 191.892 118.192ZM192.324 117.024C193.748 117.024 194.612 116.096 194.612 114.624V114.208L192.612 114.368C191.284 114.496 190.74 115.008 190.74 115.776C190.74 116.608 191.348 117.024 192.324 117.024ZM197.211 121.504V120.272H198.219C198.939 120.272 199.515 120.16 199.883 119.168L200.155 118.416L197.003 110.176H198.587L200.859 116.48L203.179 110.176H204.731L201.035 119.76C200.507 121.104 199.723 121.664 198.523 121.664C198.027 121.664 197.611 121.6 197.211 121.504ZM209.811 113.888C209.811 111.68 211.235 109.952 213.507 109.952C214.771 109.952 215.747 110.528 216.243 111.504L216.355 110.176H217.699V117.68C217.699 120.144 216.179 121.712 213.779 121.712C211.651 121.712 210.195 120.512 209.907 118.528H211.411C211.603 119.68 212.467 120.352 213.779 120.352C215.251 120.352 216.211 119.392 216.211 117.904V116.336C215.699 117.248 214.675 117.792 213.443 117.792C211.219 117.792 209.811 116.08 209.811 113.888ZM211.315 113.856C211.315 115.328 212.227 116.48 213.699 116.48C215.219 116.48 216.147 115.392 216.147 113.856C216.147 112.352 215.251 111.264 213.715 111.264C212.211 111.264 211.315 112.416 211.315 113.856ZM222.157 118.192C220.477 118.192 219.485 117.248 219.485 115.824C219.485 114.384 220.557 113.488 222.397 113.344L224.861 113.152V112.928C224.861 111.616 224.077 111.152 223.021 111.152C221.757 111.152 221.037 111.712 221.037 112.656H219.725C219.725 111.024 221.069 109.952 223.085 109.952C225.021 109.952 226.333 110.976 226.333 113.088V118H225.053L224.893 116.736C224.493 117.632 223.421 118.192 222.157 118.192ZM222.589 117.024C224.013 117.024 224.877 116.096 224.877 114.624V114.208L222.877 114.368C221.549 114.496 221.005 115.008 221.005 115.776C221.005 116.608 221.613 117.024 222.589 117.024ZM227.776 115.728H229.216C229.216 116.528 229.824 117.008 230.816 117.008C231.872 117.008 232.48 116.576 232.48 115.856C232.48 115.328 232.224 115.008 231.408 114.8L230.032 114.48C228.64 114.144 227.984 113.456 227.984 112.304C227.984 110.864 229.2 109.952 230.928 109.952C232.64 109.952 233.76 110.912 233.792 112.4H232.352C232.32 111.616 231.792 111.12 230.88 111.12C229.936 111.12 229.408 111.536 229.408 112.256C229.408 112.784 229.792 113.136 230.56 113.328L231.936 113.664C233.264 113.984 233.92 114.592 233.92 115.76C233.92 117.248 232.64 118.192 230.784 118.192C228.944 118.192 227.776 117.216 227.776 115.728ZM241.643 118L239.083 110.176H240.635L241.931 114.24C242.107 114.816 242.267 115.408 242.411 116.096C242.539 115.408 242.747 114.752 242.923 114.24L244.235 110.176H245.771L247.067 114.24C247.195 114.624 247.451 115.536 247.579 116.096C247.707 115.472 247.851 114.928 248.075 114.24L249.387 110.176H250.955L248.283 118H246.859L245.499 113.808C245.243 113.024 245.083 112.416 245.003 111.984C244.923 112.368 244.779 112.88 244.491 113.824L243.131 118H241.643ZM252.98 108.32C252.436 108.32 251.988 107.872 251.988 107.328C251.988 106.768 252.436 106.336 252.98 106.336C253.524 106.336 253.972 106.768 253.972 107.328C253.972 107.872 253.524 108.32 252.98 108.32ZM252.244 118V110.176H253.748V118H252.244ZM258.14 118H256.636V111.44H255.1V110.176H256.636V107.728H258.14V110.176H259.676V111.44H258.14V118ZM262.53 117.984H261.026V106.224H262.53V111.376C263.026 110.528 263.97 109.952 265.186 109.952C267.186 109.952 268.146 111.216 268.146 113.216V118H266.642V113.552C266.642 111.968 265.89 111.328 264.77 111.328C263.314 111.328 262.53 112.384 262.53 113.728V117.984ZM276.892 118.192C275.212 118.192 274.22 117.248 274.22 115.824C274.22 114.384 275.292 113.488 277.132 113.344L279.596 113.152V112.928C279.596 111.616 278.812 111.152 277.756 111.152C276.492 111.152 275.772 111.712 275.772 112.656H274.46C274.46 111.024 275.804 109.952 277.82 109.952C279.756 109.952 281.068 110.976 281.068 113.088V118H279.788L279.628 116.736C279.228 117.632 278.156 118.192 276.892 118.192ZM277.324 117.024C278.748 117.024 279.612 116.096 279.612 114.624V114.208L277.612 114.368C276.284 114.496 275.74 115.008 275.74 115.776C275.74 116.608 276.348 117.024 277.324 117.024ZM284.655 118H283.151V110.176H284.511L284.671 111.376C285.167 110.48 286.159 109.952 287.263 109.952C289.327 109.952 290.271 111.216 290.271 113.216V118H288.767V113.552C288.767 111.968 288.031 111.328 286.879 111.328C285.471 111.328 284.655 112.336 284.655 113.856V118ZM291.445 121.504V120.272H292.453C293.173 120.272 293.749 120.16 294.117 119.168L294.389 118.416L291.237 110.176H292.821L295.093 116.48L297.413 110.176H298.965L295.269 119.76C294.741 121.104 293.957 121.664 292.757 121.664C292.261 121.664 291.845 121.6 291.445 121.504ZM50.592 142H49.088V134.176H50.448L50.608 135.376C51.104 134.48 52.096 133.952 53.2 133.952C55.264 133.952 56.208 135.216 56.208 137.216V142H54.704V137.552C54.704 135.968 53.968 135.328 52.816 135.328C51.408 135.328 50.592 136.336 50.592 137.856V142ZM60.5791 142.192C58.8991 142.192 57.9071 141.248 57.9071 139.824C57.9071 138.384 58.9791 137.488 60.8191 137.344L63.2831 137.152V136.928C63.2831 135.616 62.4991 135.152 61.4431 135.152C60.1791 135.152 59.4591 135.712 59.4591 136.656H58.1471C58.1471 135.024 59.4911 133.952 61.5071 133.952C63.4431 133.952 64.7551 134.976 64.7551 137.088V142H63.4751L63.3151 140.736C62.9151 141.632 61.8431 142.192 60.5791 142.192ZM61.0111 141.024C62.4351 141.024 63.2991 140.096 63.2991 138.624V138.208L61.2991 138.368C59.9711 138.496 59.4271 139.008 59.4271 139.776C59.4271 140.608 60.0351 141.024 61.0111 141.024ZM68.921 142H67.417V135.44H65.881V134.176H67.417V131.728H68.921V134.176H70.457V135.44H68.921V142ZM72.5428 132.32C71.9988 132.32 71.5508 131.872 71.5508 131.328C71.5508 130.768 71.9988 130.336 72.5428 130.336C73.0868 130.336 73.5348 130.768 73.5348 131.328C73.5348 131.872 73.0868 132.32 72.5428 132.32ZM71.8068 142V134.176H73.3108V142H71.8068ZM77.6863 142L74.5343 134.176H76.1343L77.8463 138.544C78.1183 139.28 78.3423 139.936 78.4703 140.416C78.5983 139.904 78.8543 139.232 79.1263 138.544L80.8703 134.176H82.4383L79.1743 142H77.6863ZM86.6515 142.192C84.3475 142.192 82.7635 140.528 82.7635 138.096C82.7635 135.648 84.3155 133.952 86.5875 133.952C88.8115 133.952 90.2675 135.488 90.2675 137.808V138.368L84.2195 138.384C84.3315 140.032 85.1955 140.944 86.6835 140.944C87.8515 140.944 88.6195 140.464 88.8755 139.568H90.2835C89.8995 141.248 88.5875 142.192 86.6515 142.192ZM86.5875 135.216C85.2755 135.216 84.4435 136 84.2515 137.376H88.7635C88.7635 136.08 87.9155 135.216 86.5875 135.216ZM98.5304 142H97.0264V135.44H95.4904V134.176H97.0264V131.728H98.5304V134.176H100.066V135.44H98.5304V142ZM100.826 138.08C100.826 135.664 102.554 133.968 104.906 133.968C107.242 133.968 108.97 135.664 108.97 138.08C108.97 140.496 107.242 142.192 104.906 142.192C102.554 142.192 100.826 140.496 100.826 138.08ZM102.346 138.08C102.346 139.712 103.386 140.848 104.906 140.848C106.41 140.848 107.466 139.712 107.466 138.08C107.466 136.448 106.41 135.312 104.906 135.312C103.386 135.312 102.346 136.448 102.346 138.08ZM112.171 142H110.667V130.224H112.171V137.856L115.643 134.176H117.531L114.539 137.296L117.515 142H115.787L113.499 138.384L112.171 139.776V142ZM121.839 142.192C119.535 142.192 117.951 140.528 117.951 138.096C117.951 135.648 119.503 133.952 121.775 133.952C123.999 133.952 125.455 135.488 125.455 137.808V138.368L119.407 138.384C119.519 140.032 120.383 140.944 121.871 140.944C123.039 140.944 123.807 140.464 124.063 139.568H125.471C125.087 141.248 123.775 142.192 121.839 142.192ZM121.775 135.216C120.463 135.216 119.631 136 119.439 137.376H123.951C123.951 136.08 123.103 135.216 121.775 135.216ZM128.639 142H127.135V134.176H128.495L128.655 135.376C129.151 134.48 130.143 133.952 131.247 133.952C133.311 133.952 134.255 135.216 134.255 137.216V142H132.751V137.552C132.751 135.968 132.015 135.328 130.863 135.328C129.455 135.328 128.639 136.336 128.639 137.856V142ZM136.514 144.768H135.25C136.61 142.896 137.41 140.08 137.41 137.248C137.41 134.256 136.53 131.504 135.25 129.744H136.514C138.066 131.68 138.946 134.528 138.946 137.248C138.946 140.144 137.97 142.928 136.514 144.768Z" fill="#A0A0A1"/>
<path fill-rule="evenodd" clip-rule="evenodd" d="M32 180C36.4183 180 40 176.418 40 172C40 167.582 36.4183 164 32 164C27.5817 164 24 167.582 24 172C24 176.418 27.5817 180 32 180ZM35.7095 169.663C35.8913 169.455 35.8702 169.139 35.6624 168.957C35.4546 168.775 35.1387 168.796 34.9569 169.004L30.6421 173.935L29.0201 172.313C28.8248 172.118 28.5082 172.118 28.313 172.313C28.1177 172.509 28.1177 172.825 28.313 173.02L30.313 175.02C30.4108 175.118 30.5448 175.171 30.6831 175.167C30.8215 175.162 30.9517 175.1 31.0428 174.996L35.7095 169.663Z" fill="#A0A0A1"/>
<path d="M50.912 166.432V178H49.344V166.432H50.912ZM54.8576 178H53.3536V170.176H54.7136L54.8736 171.376C55.3696 170.48 56.3616 169.952 57.4656 169.952C59.5296 169.952 60.4736 171.216 60.4736 173.216V178H58.9696V173.552C58.9696 171.968 58.2336 171.328 57.0816 171.328C55.6736 171.328 54.8576 172.336 54.8576 173.856V178ZM62.4768 174.432V173.088H67.3568V174.432H62.4768ZM71.5166 178.192C69.8366 178.192 68.8446 177.248 68.8446 175.824C68.8446 174.384 69.9166 173.488 71.7566 173.344L74.2206 173.152V172.928C74.2206 171.616 73.4366 171.152 72.3806 171.152C71.1166 171.152 70.3966 171.712 70.3966 172.656H69.0846C69.0846 171.024 70.4286 169.952 72.4446 169.952C74.3806 169.952 75.6926 170.976 75.6926 173.088V178H74.4126L74.2526 176.736C73.8526 177.632 72.7806 178.192 71.5166 178.192ZM71.9486 177.024C73.3726 177.024 74.2366 176.096 74.2366 174.624V174.208L72.2366 174.368C70.9086 174.496 70.3646 175.008 70.3646 175.776C70.3646 176.608 70.9726 177.024 71.9486 177.024ZM77.7755 181.504V170.176H79.1355L79.2475 171.584C79.7755 170.512 80.8315 169.952 82.0795 169.952C84.3195 169.952 85.7115 171.632 85.7115 174.032C85.7115 176.416 84.3995 178.208 82.0795 178.208C80.8315 178.208 79.7915 177.68 79.2795 176.72V181.504H77.7755ZM79.2955 174.096C79.2955 175.696 80.2235 176.848 81.7595 176.848C83.2955 176.848 84.2075 175.696 84.2075 174.096C84.2075 172.48 83.2955 171.328 81.7595 171.328C80.2235 171.328 79.2955 172.464 79.2955 174.096ZM87.3693 181.504V170.176H88.7293L88.8413 171.584C89.3693 170.512 90.4253 169.952 91.6733 169.952C93.9133 169.952 95.3053 171.632 95.3053 174.032C95.3053 176.416 93.9933 178.208 91.6733 178.208C90.4253 178.208 89.3853 177.68 88.8733 176.72V181.504H87.3693ZM88.8893 174.096C88.8893 175.696 89.8173 176.848 91.3533 176.848C92.8893 176.848 93.8013 175.696 93.8013 174.096C93.8013 172.48 92.8893 171.328 91.3533 171.328C89.8173 171.328 88.8893 172.464 88.8893 174.096ZM106.394 178.176C103.098 178.176 100.906 175.808 100.906 172.224C100.906 168.656 103.162 166.24 106.474 166.24C109.082 166.24 111.082 167.792 111.514 170.16H109.834C109.402 168.656 108.106 167.744 106.426 167.744C104.09 167.744 102.554 169.504 102.554 172.208C102.554 174.912 104.09 176.672 106.426 176.672C108.122 176.672 109.466 175.76 109.898 174.336H111.562C111.066 176.64 109.002 178.176 106.394 178.176ZM114.655 177.984H113.151V166.224H114.655V171.376C115.151 170.528 116.095 169.952 117.311 169.952C119.311 169.952 120.271 171.216 120.271 173.216V178H118.767V173.552C118.767 171.968 118.015 171.328 116.895 171.328C115.439 171.328 114.655 172.384 114.655 173.728V177.984ZM124.642 178.192C122.962 178.192 121.97 177.248 121.97 175.824C121.97 174.384 123.042 173.488 124.882 173.344L127.346 173.152V172.928C127.346 171.616 126.562 171.152 125.506 171.152C124.242 171.152 123.522 171.712 123.522 172.656H122.21C122.21 171.024 123.554 169.952 125.57 169.952C127.506 169.952 128.818 170.976 128.818 173.088V178H127.538L127.378 176.736C126.978 177.632 125.906 178.192 124.642 178.192ZM125.074 177.024C126.498 177.024 127.362 176.096 127.362 174.624V174.208L125.362 174.368C124.034 174.496 123.49 175.008 123.49 175.776C123.49 176.608 124.098 177.024 125.074 177.024ZM132.984 178H131.48V171.44H129.944V170.176H131.48V167.728H132.984V170.176H134.52V171.44H132.984V178ZM138.218 178H136.714V171.44H135.178V170.176H136.714V167.728H138.218V170.176H139.754V171.44H138.218V178ZM141.84 168.32C141.296 168.32 140.848 167.872 140.848 167.328C140.848 166.768 141.296 166.336 141.84 166.336C142.384 166.336 142.832 166.768 142.832 167.328C142.832 167.872 142.384 168.32 141.84 168.32ZM141.104 178V170.176H142.608V178H141.104ZM146.295 178H144.791V170.176H146.151L146.311 171.376C146.807 170.48 147.799 169.952 148.903 169.952C150.967 169.952 151.911 171.216 151.911 173.216V178H150.407V173.552C150.407 171.968 149.671 171.328 148.519 171.328C147.111 171.328 146.295 172.336 146.295 173.856V178ZM153.498 173.888C153.498 171.68 154.922 169.952 157.194 169.952C158.458 169.952 159.434 170.528 159.93 171.504L160.042 170.176H161.386V177.68C161.386 180.144 159.866 181.712 157.466 181.712C155.338 181.712 153.882 180.512 153.594 178.528H155.098C155.29 179.68 156.154 180.352 157.466 180.352C158.938 180.352 159.898 179.392 159.898 177.904V176.336C159.386 177.248 158.362 177.792 157.13 177.792C154.906 177.792 153.498 176.08 153.498 173.888ZM155.002 173.856C155.002 175.328 155.914 176.48 157.386 176.48C158.906 176.48 159.834 175.392 159.834 173.856C159.834 172.352 158.938 171.264 157.402 171.264C155.898 171.264 155.002 172.416 155.002 173.856Z" fill="#A0A0A1"/>
<path fill-rule="evenodd" clip-rule="evenodd" d="M32 216C36.4183 216 40 212.418 40 208C40 203.582 36.4183 200 32 200C27.5817 200 24 203.582 24 208C24 212.418 27.5817 216 32 216ZM35.7095 205.663C35.8913 205.455 35.8702 205.139 35.6624 204.957C35.4546 204.775 35.1387 204.796 34.9569 205.004L30.6421 209.935L29.0201 208.313C28.8248 208.118 28.5082 208.118 28.313 208.313C28.1177 208.509 28.1177 208.825 28.313 209.02L30.313 211.02C30.4108 211.118 30.5448 211.171 30.6831 211.167C30.8215 211.162 30.9517 211.1 31.0428 210.996L35.7095 205.663Z" fill="#A0A0A1"/>
<path d="M54.144 214.176C50.848 214.176 48.656 211.808 48.656 208.224C48.656 204.656 50.912 202.24 54.224 202.24C56.832 202.24 58.832 203.792 59.264 206.16H57.584C57.152 204.656 55.856 203.744 54.176 203.744C51.84 203.744 50.304 205.504 50.304 208.208C50.304 210.912 51.84 212.672 54.176 212.672C55.872 212.672 57.216 211.76 57.648 210.336H59.312C58.816 212.64 56.752 214.176 54.144 214.176ZM63.1104 214.192C61.4304 214.192 60.4384 213.248 60.4384 211.824C60.4384 210.384 61.5104 209.488 63.3504 209.344L65.8144 209.152V208.928C65.8144 207.616 65.0304 207.152 63.9744 207.152C62.7104 207.152 61.9904 207.712 61.9904 208.656H60.6784C60.6784 207.024 62.0224 205.952 64.0384 205.952C65.9744 205.952 67.2864 206.976 67.2864 209.088V214H66.0064L65.8464 212.736C65.4464 213.632 64.3744 214.192 63.1104 214.192ZM63.5424 213.024C64.9664 213.024 65.8304 212.096 65.8304 210.624V210.208L63.8304 210.368C62.5024 210.496 61.9584 211.008 61.9584 211.776C61.9584 212.608 62.5664 213.024 63.5424 213.024ZM68.7293 211.728H70.1693C70.1693 212.528 70.7773 213.008 71.7693 213.008C72.8253 213.008 73.4333 212.576 73.4333 211.856C73.4333 211.328 73.1773 211.008 72.3613 210.8L70.9853 210.48C69.5933 210.144 68.9373 209.456 68.9373 208.304C68.9373 206.864 70.1533 205.952 71.8813 205.952C73.5933 205.952 74.7133 206.912 74.7453 208.4H73.3053C73.2733 207.616 72.7453 207.12 71.8333 207.12C70.8893 207.12 70.3613 207.536 70.3613 208.256C70.3613 208.784 70.7453 209.136 71.5133 209.328L72.8893 209.664C74.2173 209.984 74.8733 210.592 74.8733 211.76C74.8733 213.248 73.5933 214.192 71.7373 214.192C69.8973 214.192 68.7293 213.216 68.7293 211.728ZM78.0451 213.984H76.5411V202.224H78.0451V207.376C78.5411 206.528 79.4851 205.952 80.7011 205.952C82.7011 205.952 83.6611 207.216 83.6611 209.216V214H82.1571V209.552C82.1571 207.968 81.4051 207.328 80.2851 207.328C78.8291 207.328 78.0451 208.384 78.0451 209.728V213.984ZM92.4003 214H90.9123V207.44H87.5683V214H86.0643V207.44H84.9123V206.176H86.0643V204.928C86.0643 203.008 87.0883 202.224 88.4483 202.224C88.7363 202.224 89.0723 202.24 89.3763 202.288V203.584H88.7043C87.7923 203.584 87.5683 204.08 87.5683 204.928V206.176H90.9123V202.224H92.4003V214ZM94.0916 210.08C94.0916 207.664 95.8196 205.968 98.1716 205.968C100.508 205.968 102.236 207.664 102.236 210.08C102.236 212.496 100.508 214.192 98.1716 214.192C95.8196 214.192 94.0916 212.496 94.0916 210.08ZM95.6116 210.08C95.6116 211.712 96.6516 212.848 98.1716 212.848C99.6756 212.848 100.732 211.712 100.732 210.08C100.732 208.448 99.6756 207.312 98.1716 207.312C96.6516 207.312 95.6116 208.448 95.6116 210.08ZM105.221 214L102.661 206.176H104.213L105.509 210.24C105.685 210.816 105.845 211.408 105.989 212.096C106.117 211.408 106.325 210.752 106.501 210.24L107.813 206.176H109.349L110.645 210.24C110.773 210.624 111.029 211.536 111.157 212.096C111.285 211.472 111.429 210.928 111.653 210.24L112.965 206.176H114.533L111.861 214H110.437L109.077 209.808C108.821 209.024 108.661 208.416 108.581 207.984C108.501 208.368 108.357 208.88 108.069 209.824L106.709 214H105.221ZM121.989 214H120.453V202.432H121.989L125.973 212.16L129.957 202.432H131.525V214H129.989V209.424C129.989 207.264 130.005 206.48 130.085 205.664L126.709 214H125.237L121.877 205.696C121.957 206.256 121.989 207.44 121.989 209.056V214ZM136.251 214.192C134.571 214.192 133.579 213.248 133.579 211.824C133.579 210.384 134.651 209.488 136.491 209.344L138.955 209.152V208.928C138.955 207.616 138.171 207.152 137.115 207.152C135.851 207.152 135.131 207.712 135.131 208.656H133.819C133.819 207.024 135.163 205.952 137.179 205.952C139.115 205.952 140.427 206.976 140.427 209.088V214H139.147L138.987 212.736C138.587 213.632 137.515 214.192 136.251 214.192ZM136.683 213.024C138.107 213.024 138.971 212.096 138.971 210.624V210.208L136.971 210.368C135.643 210.496 135.099 211.008 135.099 211.776C135.099 212.608 135.707 213.024 136.683 213.024ZM144.014 214H142.51V206.176H143.87L144.03 207.376C144.526 206.48 145.518 205.952 146.622 205.952C148.686 205.952 149.63 207.216 149.63 209.216V214H148.126V209.552C148.126 207.968 147.39 207.328 146.238 207.328C144.83 207.328 144.014 208.336 144.014 209.856V214ZM154.001 214.192C152.321 214.192 151.329 213.248 151.329 211.824C151.329 210.384 152.401 209.488 154.241 209.344L156.705 209.152V208.928C156.705 207.616 155.921 207.152 154.865 207.152C153.601 207.152 152.881 207.712 152.881 208.656H151.569C151.569 207.024 152.913 205.952 154.929 205.952C156.865 205.952 158.177 206.976 158.177 209.088V214H156.897L156.737 212.736C156.337 213.632 155.265 214.192 154.001 214.192ZM154.433 213.024C155.857 213.024 156.721 212.096 156.721 210.624V210.208L154.721 210.368C153.393 210.496 152.849 211.008 152.849 211.776C152.849 212.608 153.457 213.024 154.433 213.024ZM159.764 209.888C159.764 207.68 161.188 205.952 163.46 205.952C164.724 205.952 165.7 206.528 166.196 207.504L166.308 206.176H167.652V213.68C167.652 216.144 166.132 217.712 163.732 217.712C161.604 217.712 160.148 216.512 159.86 214.528H161.364C161.556 215.68 162.42 216.352 163.732 216.352C165.204 216.352 166.164 215.392 166.164 213.904V212.336C165.652 213.248 164.628 213.792 163.396 213.792C161.172 213.792 159.764 212.08 159.764 209.888ZM161.268 209.856C161.268 211.328 162.18 212.48 163.652 212.48C165.172 212.48 166.1 211.392 166.1 209.856C166.1 208.352 165.204 207.264 163.668 207.264C162.164 207.264 161.268 208.416 161.268 209.856ZM173.198 214.192C170.894 214.192 169.31 212.528 169.31 210.096C169.31 207.648 170.862 205.952 173.134 205.952C175.358 205.952 176.814 207.488 176.814 209.808V210.368L170.766 210.384C170.878 212.032 171.742 212.944 173.23 212.944C174.398 212.944 175.166 212.464 175.422 211.568H176.83C176.446 213.248 175.134 214.192 173.198 214.192ZM173.134 207.216C171.822 207.216 170.99 208 170.798 209.376H175.31C175.31 208.08 174.462 207.216 173.134 207.216ZM179.998 214H178.494V206.176H179.838L179.982 207.2C180.382 206.464 181.214 205.952 182.318 205.952C183.534 205.952 184.398 206.56 184.798 207.536C185.166 206.56 186.11 205.952 187.326 205.952C189.118 205.952 190.206 207.072 190.206 208.88V214H188.734V209.248C188.734 208.016 188.046 207.312 186.99 207.312C185.854 207.312 185.102 208.112 185.102 209.36V214H183.614V209.232C183.614 208 182.942 207.328 181.886 207.328C180.75 207.328 179.998 208.112 179.998 209.36V214ZM195.667 214.192C193.363 214.192 191.779 212.528 191.779 210.096C191.779 207.648 193.331 205.952 195.603 205.952C197.827 205.952 199.283 207.488 199.283 209.808V210.368L193.235 210.384C193.347 212.032 194.211 212.944 195.699 212.944C196.867 212.944 197.635 212.464 197.891 211.568H199.299C198.915 213.248 197.603 214.192 195.667 214.192ZM195.603 207.216C194.291 207.216 193.459 208 193.267 209.376H197.779C197.779 208.08 196.931 207.216 195.603 207.216ZM202.467 214H200.963V206.176H202.323L202.483 207.376C202.979 206.48 203.971 205.952 205.075 205.952C207.139 205.952 208.083 207.216 208.083 209.216V214H206.579V209.552C206.579 207.968 205.843 207.328 204.691 207.328C203.283 207.328 202.467 208.336 202.467 209.856V214ZM212.374 214H210.87V207.44H209.334V206.176H210.87V203.728H212.374V206.176H213.91V207.44H212.374V214ZM223.011 216.768H221.763C220.291 214.928 219.315 212.144 219.315 209.248C219.315 206.528 220.195 203.68 221.763 201.744H223.011C221.747 203.504 220.851 206.256 220.851 209.248C220.851 212.08 221.651 214.896 223.011 216.768ZM223.688 205.552C223.688 203.568 225.288 202.224 227.672 202.224C229.88 202.224 231.304 203.456 231.432 205.456H229.848C229.768 204.304 228.952 203.632 227.656 203.632C226.2 203.632 225.256 204.368 225.256 205.504C225.256 206.432 225.784 206.992 226.872 207.248L228.776 207.696C230.664 208.128 231.624 209.152 231.624 210.784C231.624 212.864 230.008 214.192 227.544 214.192C225.192 214.192 223.624 212.96 223.528 210.976H225.128C225.16 212.08 226.088 212.784 227.544 212.784C229.08 212.784 230.056 212.064 230.056 210.912C230.056 210 229.56 209.424 228.456 209.168L226.552 208.736C224.664 208.304 223.688 207.216 223.688 205.552ZM238.746 206.176H240.234V214H238.89L238.73 212.816C238.282 213.632 237.242 214.192 236.09 214.192C234.266 214.192 233.242 212.96 233.242 211.04V206.176H234.746V210.544C234.746 212.224 235.466 212.864 236.618 212.864C237.994 212.864 238.746 211.984 238.746 210.304V206.176ZM243.152 204.32C242.608 204.32 242.16 203.872 242.16 203.328C242.16 202.768 242.608 202.336 243.152 202.336C243.696 202.336 244.144 202.768 244.144 203.328C244.144 203.872 243.696 204.32 243.152 204.32ZM242.416 214V206.176H243.92V214H242.416ZM246.42 216.768H245.156C246.516 214.896 247.316 212.08 247.316 209.248C247.316 206.256 246.436 203.504 245.156 201.744H246.42C247.972 203.68 248.852 206.528 248.852 209.248C248.852 212.144 247.876 214.928 246.42 216.768Z" fill="#A0A0A1"/>
<path fill-rule="evenodd" clip-rule="evenodd" d="M32 252C36.4183 252 40 248.418 40 244C40 239.582 36.4183 236 32 236C27.5817 236 24 239.582 24 244C24 248.418 27.5817 252 32 252ZM35.7095 241.663C35.8913 241.455 35.8702 241.139 35.6624 240.957C35.4546 240.775 35.1387 240.796 34.9569 241.004L30.6421 245.935L29.0201 244.313C28.8248 244.118 28.5082 244.118 28.313 244.313C28.1177 244.509 28.1177 244.825 28.313 245.02L30.313 247.02C30.4108 247.118 30.5448 247.171 30.6831 247.167C30.8215 247.162 30.9517 247.1 31.0428 246.996L35.7095 241.663Z" fill="#A0A0A1"/>
<path d="M48.224 239.872V238.432H56.752V239.872H53.28V250H51.712V239.872H48.224ZM61.5993 242.112V243.488H60.9273C59.5033 243.488 58.6233 244.352 58.6233 245.856V250H57.1193V242.192H58.5273L58.6233 243.376C58.9433 242.56 59.7273 242.016 60.7993 242.016C61.0713 242.016 61.2953 242.048 61.5993 242.112ZM64.9854 250.192C63.3054 250.192 62.3134 249.248 62.3134 247.824C62.3134 246.384 63.3854 245.488 65.2254 245.344L67.6894 245.152V244.928C67.6894 243.616 66.9054 243.152 65.8494 243.152C64.5854 243.152 63.8654 243.712 63.8654 244.656H62.5534C62.5534 243.024 63.8974 241.952 65.9134 241.952C67.8494 241.952 69.1614 242.976 69.1614 245.088V250H67.8814L67.7214 248.736C67.3214 249.632 66.2494 250.192 64.9854 250.192ZM65.4174 249.024C66.8414 249.024 67.7054 248.096 67.7054 246.624V246.208L65.7054 246.368C64.3774 246.496 63.8334 247.008 63.8334 247.776C63.8334 248.608 64.4414 249.024 65.4174 249.024ZM72.7483 250H71.2443V242.176H72.6043L72.7643 243.376C73.2603 242.48 74.2523 241.952 75.3563 241.952C77.4203 241.952 78.3643 243.216 78.3643 245.216V250H76.8603V245.552C76.8603 243.968 76.1243 243.328 74.9723 243.328C73.5643 243.328 72.7483 244.336 72.7483 245.856V250ZM79.7136 247.728H81.1536C81.1536 248.528 81.7616 249.008 82.7536 249.008C83.8096 249.008 84.4176 248.576 84.4176 247.856C84.4176 247.328 84.1616 247.008 83.3456 246.8L81.9696 246.48C80.5776 246.144 79.9216 245.456 79.9216 244.304C79.9216 242.864 81.1376 241.952 82.8656 241.952C84.5776 241.952 85.6976 242.912 85.7296 244.4H84.2896C84.2576 243.616 83.7296 243.12 82.8176 243.12C81.8736 243.12 81.3456 243.536 81.3456 244.256C81.3456 244.784 81.7296 245.136 82.4976 245.328L83.8736 245.664C85.2016 245.984 85.8576 246.592 85.8576 247.76C85.8576 249.248 84.5776 250.192 82.7216 250.192C80.8816 250.192 79.7136 249.216 79.7136 247.728ZM89.8135 250.192C88.1335 250.192 87.1415 249.248 87.1415 247.824C87.1415 246.384 88.2135 245.488 90.0535 245.344L92.5175 245.152V244.928C92.5175 243.616 91.7335 243.152 90.6775 243.152C89.4135 243.152 88.6935 243.712 88.6935 244.656H87.3815C87.3815 243.024 88.7255 241.952 90.7415 241.952C92.6775 241.952 93.9895 242.976 93.9895 245.088V250H92.7095L92.5495 248.736C92.1495 249.632 91.0775 250.192 89.8135 250.192ZM90.2455 249.024C91.6695 249.024 92.5335 248.096 92.5335 246.624V246.208L90.5335 246.368C89.2055 246.496 88.6615 247.008 88.6615 247.776C88.6615 248.608 89.2695 249.024 90.2455 249.024ZM95.5604 246.096C95.5604 243.648 97.1124 241.952 99.4004 241.952C101.368 241.952 102.744 243.072 103.016 244.816H101.512C101.256 243.824 100.456 243.296 99.4484 243.296C98.0244 243.296 97.0484 244.384 97.0484 246.08C97.0484 247.76 97.9604 248.848 99.3844 248.848C100.456 248.848 101.256 248.288 101.528 247.36H103.032C102.728 249.056 101.272 250.192 99.3844 250.192C97.0804 250.192 95.5604 248.56 95.5604 246.096ZM106.827 250H105.323V243.44H103.787V242.176H105.323V239.728H106.827V242.176H108.363V243.44H106.827V250ZM110.449 240.32C109.905 240.32 109.457 239.872 109.457 239.328C109.457 238.768 109.905 238.336 110.449 238.336C110.993 238.336 111.441 238.768 111.441 239.328C111.441 239.872 110.993 240.32 110.449 240.32ZM109.713 250V242.176H111.217V250H109.713ZM112.889 246.08C112.889 243.664 114.617 241.968 116.969 241.968C119.305 241.968 121.033 243.664 121.033 246.08C121.033 248.496 119.305 250.192 116.969 250.192C114.617 250.192 112.889 248.496 112.889 246.08ZM114.409 246.08C114.409 247.712 115.449 248.848 116.969 248.848C118.473 248.848 119.529 247.712 119.529 246.08C119.529 244.448 118.473 243.312 116.969 243.312C115.449 243.312 114.409 244.448 114.409 246.08ZM124.201 250H122.697V242.176H124.057L124.217 243.376C124.713 242.48 125.705 241.952 126.809 241.952C128.873 241.952 129.817 243.216 129.817 245.216V250H128.313V245.552C128.313 243.968 127.577 243.328 126.425 243.328C125.017 243.328 124.201 244.336 124.201 245.856V250ZM138.1 250H136.532V238.432H138.1L144.02 247.376V238.432H145.588V250H144.02L138.1 241.056V250ZM147.514 246.08C147.514 243.664 149.242 241.968 151.594 241.968C153.93 241.968 155.658 243.664 155.658 246.08C155.658 248.496 153.93 250.192 151.594 250.192C149.242 250.192 147.514 248.496 147.514 246.08ZM149.034 246.08C149.034 247.712 150.074 248.848 151.594 248.848C153.098 248.848 154.154 247.712 154.154 246.08C154.154 244.448 153.098 243.312 151.594 243.312C150.074 243.312 149.034 244.448 149.034 246.08ZM159.452 250H157.948V243.44H156.412V242.176H157.948V239.728H159.452V242.176H160.988V243.44H159.452V250ZM165.636 250.192C163.332 250.192 161.748 248.528 161.748 246.096C161.748 243.648 163.3 241.952 165.572 241.952C167.796 241.952 169.252 243.488 169.252 245.808V246.368L163.204 246.384C163.316 248.032 164.18 248.944 165.668 248.944C166.836 248.944 167.604 248.464 167.86 247.568H169.268C168.884 249.248 167.572 250.192 165.636 250.192ZM165.572 243.216C164.26 243.216 163.428 244 163.236 245.376H167.748C167.748 244.08 166.9 243.216 165.572 243.216ZM170.292 247.728H171.732C171.732 248.528 172.34 249.008 173.332 249.008C174.388 249.008 174.996 248.576 174.996 247.856C174.996 247.328 174.74 247.008 173.924 246.8L172.548 246.48C171.156 246.144 170.5 245.456 170.5 244.304C170.5 242.864 171.716 241.952 173.444 241.952C175.156 241.952 176.276 242.912 176.308 244.4H174.868C174.836 243.616 174.308 243.12 173.396 243.12C172.452 243.12 171.924 243.536 171.924 244.256C171.924 244.784 172.308 245.136 173.076 245.328L174.452 245.664C175.78 245.984 176.436 246.592 176.436 247.76C176.436 249.248 175.156 250.192 173.3 250.192C171.46 250.192 170.292 249.216 170.292 247.728Z" fill="#A0A0A1"/>
<defs>
<linearGradient id="paint0_linear_10085_39678" x1="0" y1="272" x2="369.421" y2="167.271" gradientUnits="userSpaceOnUse">
<stop stop-color="white" stop-opacity="0.1"/>
<stop offset="1" stop-color="white" stop-opacity="0.05"/>
<stop offset="1" stop-color="white" stop-opacity="0.05"/>
</linearGradient>
</defs>
</svg>
