<svg width="325" height="289" viewBox="0 0 325 289" fill="none" xmlns="http://www.w3.org/2000/svg">
<g clip-path="url(#clip0_10312_10542)">
<path d="M305 1.2832H20C9.23045 1.2832 0.5 10.0137 0.5 20.7832V268.783C0.5 279.553 9.23045 288.283 20 288.283H305C315.77 288.283 324.5 279.553 324.5 268.783V20.7832C324.5 10.0137 315.77 1.2832 305 1.2832Z" fill="#252238"/>
<path d="M305 1.2832H20C9.23045 1.2832 0.5 10.0137 0.5 20.7832V268.783C0.5 279.553 9.23045 288.283 20 288.283H305C315.77 288.283 324.5 279.553 324.5 268.783V20.7832C324.5 10.0137 315.77 1.2832 305 1.2832Z" stroke="url(#paint0_linear_10312_10542)"/>
<path d="M37.0803 47.743L35.5203 45.983C34.4403 46.643 33.1603 47.023 31.7403 47.023C27.6603 47.023 24.8203 43.943 24.8203 39.543C24.8203 35.163 27.6803 32.063 31.7603 32.063C35.8603 32.063 38.7203 35.143 38.7203 39.543C38.7203 41.703 38.0203 43.543 36.8403 44.863L38.3603 46.583L37.0803 47.743ZM36.6603 39.543C36.6603 36.183 34.7003 33.963 31.7603 33.963C28.8203 33.963 26.8803 36.183 26.8803 39.543C26.8803 42.903 28.8203 45.143 31.7603 45.143C32.6803 45.143 33.5003 44.923 34.2003 44.503L32.3003 42.363L33.5803 41.203L35.5003 43.363C36.2403 42.403 36.6603 41.083 36.6603 39.543ZM43.2872 34.083H40.2472V32.323H45.1672V46.783H43.2872V34.083ZM53.5611 42.323V40.643H59.6611V42.323H53.5611ZM77.0631 46.763L67.3031 46.783V45.283L71.9631 41.263C74.3031 39.243 74.9631 38.263 74.9631 36.723C74.9631 34.903 73.9231 33.823 72.1831 33.823C70.4031 33.823 69.2431 35.123 69.2031 37.183H67.2431C67.3031 34.083 69.2631 32.063 72.2031 32.063C75.1031 32.063 76.9631 33.823 76.9631 36.603C76.9631 38.663 75.9431 40.123 73.3831 42.343L70.3831 44.943H77.0631V46.763ZM78.867 39.563C78.867 35.083 81.187 32.043 84.827 32.043C88.447 32.043 90.767 35.083 90.767 39.563C90.767 44.063 88.547 47.043 84.827 47.043C81.087 47.043 78.867 44.063 78.867 39.563ZM80.807 39.563C80.807 43.123 82.287 45.283 84.827 45.283C87.367 45.283 88.827 43.123 88.827 39.563C88.827 35.963 87.367 33.803 84.827 33.803C82.287 33.803 80.807 35.963 80.807 39.563ZM102.434 46.763L92.6742 46.783V45.283L97.3342 41.263C99.6742 39.243 100.334 38.263 100.334 36.723C100.334 34.903 99.2942 33.823 97.5542 33.823C95.7742 33.823 94.6142 35.123 94.5742 37.183H92.6142C92.6742 34.083 94.6342 32.063 97.5742 32.063C100.474 32.063 102.334 33.823 102.334 36.603C102.334 38.663 101.314 40.123 98.7542 42.343L95.7542 44.943H102.434V46.763ZM108.961 47.023C106.001 47.023 104.081 45.143 104.081 42.263H106.021C106.021 44.123 107.161 45.263 109.001 45.263C110.961 45.263 112.221 43.963 112.221 42.003C112.221 40.143 111.041 38.763 109.021 38.763C107.801 38.763 106.681 39.343 106.021 40.163L104.361 39.743L106.121 32.323H113.361V34.123H107.541L106.581 37.963C107.341 37.383 108.301 37.083 109.381 37.083C112.321 37.083 114.221 39.143 114.221 41.923C114.221 44.923 112.081 47.023 108.961 47.023Z" fill="#F3F3F3"/>
<path fill-rule="evenodd" clip-rule="evenodd" d="M32 92.7832C36.4183 92.7832 40 89.2015 40 84.7832C40 80.3649 36.4183 76.7832 32 76.7832C27.5817 76.7832 24 80.3649 24 84.7832C24 89.2015 27.5817 92.7832 32 92.7832ZM35.7095 82.4459C35.8913 82.2381 35.8702 81.9222 35.6624 81.7404C35.4546 81.5586 35.1387 81.5796 34.9569 81.7874L30.6421 86.7186L29.0201 85.0965C28.8248 84.9012 28.5082 84.9012 28.313 85.0965C28.1177 85.2917 28.1177 85.6083 28.313 85.8036L30.313 87.8036C30.4108 87.9014 30.5448 87.9544 30.6831 87.9498C30.8215 87.9451 30.9517 87.8834 31.0428 87.7793L35.7095 82.4459Z" fill="#A0A0A1"/>
<path d="M48.6717 82.3353C48.6717 80.3513 50.2717 79.0073 52.6557 79.0073C54.8637 79.0073 56.2877 80.2393 56.4157 82.2393H54.8317C54.7517 81.0873 53.9357 80.4153 52.6397 80.4153C51.1837 80.4153 50.2397 81.1513 50.2397 82.2873C50.2397 83.2153 50.7677 83.7753 51.8557 84.0313L53.7597 84.4793C55.6477 84.9113 56.6077 85.9353 56.6077 87.5673C56.6077 89.6473 54.9917 90.9753 52.5277 90.9753C50.1757 90.9753 48.6077 89.7433 48.5117 87.7593H50.1117C50.1437 88.8633 51.0717 89.5673 52.5277 89.5673C54.0637 89.5673 55.0397 88.8473 55.0397 87.6953C55.0397 86.7833 54.5437 86.2073 53.4397 85.9513L51.5357 85.5193C49.6477 85.0873 48.6717 83.9993 48.6717 82.3353ZM60.5301 90.7833H59.0261V84.2233H57.4901V82.9593H59.0261V80.5113H60.5301V82.9593H62.0661V84.2233H60.5301V90.7833ZM65.6101 90.9753C63.9301 90.9753 62.9381 90.0313 62.9381 88.6073C62.9381 87.1673 64.0101 86.2713 65.8501 86.1273L68.3141 85.9353V85.7113C68.3141 84.3993 67.5301 83.9353 66.4741 83.9353C65.2101 83.9353 64.4901 84.4953 64.4901 85.4393H63.1781C63.1781 83.8073 64.5221 82.7353 66.5381 82.7353C68.4741 82.7353 69.7861 83.7593 69.7861 85.8713V90.7833H68.5061L68.3461 89.5193C67.9461 90.4153 66.8741 90.9753 65.6101 90.9753ZM66.0421 89.8073C67.4661 89.8073 68.3301 88.8793 68.3301 87.4073V86.9913L66.3301 87.1513C65.0021 87.2793 64.4581 87.7913 64.4581 88.5593C64.4581 89.3913 65.0661 89.8073 66.0421 89.8073ZM73.405 90.7833H71.901V79.0073H73.405V86.6393L76.877 82.9593H78.765L75.773 86.0793L78.749 90.7833H77.021L74.733 87.1673L73.405 88.5593V90.7833ZM80.73 81.1033C80.186 81.1033 79.738 80.6553 79.738 80.1113C79.738 79.5513 80.186 79.1193 80.73 79.1193C81.274 79.1193 81.722 79.5513 81.722 80.1113C81.722 80.6553 81.274 81.1033 80.73 81.1033ZM79.994 90.7833V82.9593H81.498V90.7833H79.994ZM85.1855 90.7833H83.6815V82.9593H85.0415L85.2015 84.1593C85.6975 83.2633 86.6895 82.7353 87.7935 82.7353C89.8575 82.7353 90.8015 83.9993 90.8015 85.9993V90.7833H89.2975V86.3353C89.2975 84.7513 88.5615 84.1113 87.4095 84.1113C86.0015 84.1113 85.1855 85.1193 85.1855 86.6393V90.7833ZM92.3886 86.6713C92.3886 84.4633 93.8126 82.7353 96.0846 82.7353C97.3486 82.7353 98.3246 83.3113 98.8206 84.2873L98.9326 82.9593H100.277V90.4633C100.277 92.9273 98.7566 94.4953 96.3566 94.4953C94.2286 94.4953 92.7726 93.2953 92.4846 91.3113H93.9886C94.1806 92.4633 95.0446 93.1353 96.3566 93.1353C97.8286 93.1353 98.7886 92.1753 98.7886 90.6873V89.1193C98.2766 90.0313 97.2526 90.5753 96.0206 90.5753C93.7966 90.5753 92.3886 88.8633 92.3886 86.6713ZM93.8926 86.6393C93.8926 88.1113 94.8046 89.2633 96.2766 89.2633C97.7966 89.2633 98.7246 88.1753 98.7246 86.6393C98.7246 85.1353 97.8286 84.0473 96.2926 84.0473C94.7886 84.0473 93.8926 85.1993 93.8926 86.6393ZM107.558 90.7833H105.926L110.15 79.2153H111.894L116.134 90.7833H114.486L113.446 87.9033H108.582L107.558 90.7833ZM110.822 81.7113L109.062 86.5433H112.982L111.206 81.7113C111.126 81.4873 111.046 81.2153 111.014 81.0393C110.982 81.1993 110.902 81.4713 110.822 81.7113ZM116.78 86.6713C116.78 84.4633 118.204 82.7353 120.476 82.7353C121.74 82.7353 122.716 83.3113 123.212 84.2873L123.324 82.9593H124.668V90.4633C124.668 92.9273 123.148 94.4953 120.748 94.4953C118.62 94.4953 117.164 93.2953 116.876 91.3113H118.38C118.572 92.4633 119.436 93.1353 120.748 93.1353C122.22 93.1353 123.18 92.1753 123.18 90.6873V89.1193C122.668 90.0313 121.644 90.5753 120.411 90.5753C118.188 90.5753 116.78 88.8633 116.78 86.6713ZM118.284 86.6393C118.284 88.1113 119.196 89.2633 120.668 89.2633C122.188 89.2633 123.116 88.1753 123.116 86.6393C123.116 85.1353 122.22 84.0473 120.684 84.0473C119.18 84.0473 118.284 85.1993 118.284 86.6393ZM126.342 86.6713C126.342 84.4633 127.766 82.7353 130.038 82.7353C131.302 82.7353 132.278 83.3113 132.774 84.2873L132.886 82.9593H134.23V90.4633C134.23 92.9273 132.71 94.4953 130.31 94.4953C128.182 94.4953 126.726 93.2953 126.438 91.3113H127.942C128.134 92.4633 128.998 93.1353 130.31 93.1353C131.782 93.1353 132.742 92.1753 132.742 90.6873V89.1193C132.23 90.0313 131.206 90.5753 129.974 90.5753C127.75 90.5753 126.342 88.8633 126.342 86.6713ZM127.846 86.6393C127.846 88.1113 128.758 89.2633 130.23 89.2633C131.75 89.2633 132.678 88.1753 132.678 86.6393C132.678 85.1353 131.782 84.0473 130.246 84.0473C128.742 84.0473 127.846 85.1993 127.846 86.6393ZM140.881 82.8953V84.2713H140.209C138.785 84.2713 137.905 85.1353 137.905 86.6393V90.7833H136.401V82.9753H137.809L137.905 84.1593C138.225 83.3433 139.009 82.7993 140.081 82.7993C140.353 82.7993 140.577 82.8313 140.881 82.8953ZM145.386 90.9753C143.082 90.9753 141.498 89.3113 141.498 86.8793C141.498 84.4313 143.05 82.7353 145.322 82.7353C147.546 82.7353 149.002 84.2713 149.002 86.5913V87.1513L142.954 87.1673C143.066 88.8153 143.93 89.7273 145.418 89.7273C146.586 89.7273 147.354 89.2473 147.61 88.3513H149.018C148.634 90.0313 147.322 90.9753 145.386 90.9753ZM145.322 83.9993C144.01 83.9993 143.178 84.7833 142.986 86.1593H147.498C147.498 84.8633 146.65 83.9993 145.322 83.9993ZM150.186 86.6713C150.186 84.4633 151.61 82.7353 153.882 82.7353C155.146 82.7353 156.122 83.3113 156.618 84.2873L156.73 82.9593H158.074V90.4633C158.074 92.9273 156.554 94.4953 154.154 94.4953C152.026 94.4953 150.57 93.2953 150.282 91.3113H151.786C151.978 92.4633 152.842 93.1353 154.154 93.1353C155.626 93.1353 156.586 92.1753 156.586 90.6873V89.1193C156.074 90.0313 155.05 90.5753 153.818 90.5753C151.594 90.5753 150.186 88.8633 150.186 86.6713ZM151.69 86.6393C151.69 88.1113 152.602 89.2633 154.074 89.2633C155.594 89.2633 156.522 88.1753 156.522 86.6393C156.522 85.1353 155.626 84.0473 154.09 84.0473C152.586 84.0473 151.69 85.1993 151.69 86.6393ZM162.532 90.9753C160.852 90.9753 159.86 90.0313 159.86 88.6073C159.86 87.1673 160.932 86.2713 162.772 86.1273L165.236 85.9353V85.7113C165.236 84.3993 164.452 83.9353 163.396 83.9353C162.132 83.9353 161.412 84.4953 161.412 85.4393H160.1C160.1 83.8073 161.444 82.7353 163.46 82.7353C165.396 82.7353 166.708 83.7593 166.708 85.8713V90.7833H165.428L165.268 89.5193C164.868 90.4153 163.796 90.9753 162.532 90.9753ZM162.964 89.8073C164.388 89.8073 165.252 88.8793 165.252 87.4073V86.9913L163.252 87.1513C161.924 87.2793 161.38 87.7913 161.38 88.5593C161.38 89.3913 161.988 89.8073 162.964 89.8073ZM170.874 90.7833H169.37V84.2233H167.834V82.9593H169.37V80.5113H170.874V82.9593H172.41V84.2233H170.874V90.7833ZM173.17 86.8633C173.17 84.4473 174.898 82.7513 177.25 82.7513C179.586 82.7513 181.314 84.4473 181.314 86.8633C181.314 89.2793 179.586 90.9753 177.25 90.9753C174.898 90.9753 173.17 89.2793 173.17 86.8633ZM174.69 86.8633C174.69 88.4953 175.73 89.6313 177.25 89.6313C178.754 89.6313 179.81 88.4953 179.81 86.8633C179.81 85.2313 178.754 84.0953 177.25 84.0953C175.73 84.0953 174.69 85.2313 174.69 86.8633ZM187.459 82.8953V84.2713H186.787C185.363 84.2713 184.483 85.1353 184.483 86.6393V90.7833H182.979V82.9753H184.387L184.483 84.1593C184.803 83.3433 185.587 82.7993 186.659 82.7993C186.931 82.7993 187.155 82.8313 187.459 82.8953ZM196.62 93.5513H195.372C193.9 91.7113 192.924 88.9273 192.924 86.0313C192.924 83.3113 193.804 80.4633 195.372 78.5273H196.62C195.356 80.2873 194.46 83.0393 194.46 86.0313C194.46 88.8633 195.26 91.6793 196.62 93.5513ZM199.537 79.2153V90.7833H197.969V79.2153H199.537ZM207.035 90.9593C203.739 90.9593 201.547 88.5913 201.547 85.0073C201.547 81.4393 203.803 79.0233 207.115 79.0233C209.723 79.0233 211.723 80.5753 212.155 82.9433H210.475C210.043 81.4393 208.747 80.5273 207.067 80.5273C204.731 80.5273 203.195 82.2873 203.195 84.9913C203.195 87.6953 204.731 89.4553 207.067 89.4553C208.763 89.4553 210.107 88.5433 210.539 87.1193H212.203C211.707 89.4233 209.643 90.9593 207.035 90.9593ZM218.621 86.6553H215.693V90.7833H214.125V79.2153H218.621C220.893 79.2153 222.349 80.7033 222.349 82.9273C222.349 85.0873 220.877 86.6553 218.621 86.6553ZM218.349 80.6233H215.693V85.2473H218.285C219.837 85.2473 220.701 84.3353 220.701 82.9113C220.701 81.4553 219.821 80.6233 218.349 80.6233ZM224.563 90.1593C224.563 91.3113 223.699 92.2713 222.563 92.4153V91.7433C223.219 91.6313 223.683 91.1993 223.683 90.7033C223.571 90.7673 223.443 90.7993 223.251 90.7993C222.723 90.7993 222.275 90.4153 222.275 89.8233C222.275 89.1833 222.707 88.7193 223.347 88.7193C224.019 88.7193 224.563 89.2793 224.563 90.1593ZM230.688 82.3353C230.688 80.3513 232.288 79.0073 234.672 79.0073C236.88 79.0073 238.304 80.2393 238.432 82.2393H236.848C236.768 81.0873 235.952 80.4153 234.656 80.4153C233.2 80.4153 232.256 81.1513 232.256 82.2873C232.256 83.2153 232.784 83.7753 233.872 84.0313L235.776 84.4793C237.664 84.9113 238.624 85.9353 238.624 87.5673C238.624 89.6473 237.008 90.9753 234.544 90.9753C232.192 90.9753 230.624 89.7433 230.528 87.7593H232.128C232.16 88.8633 233.088 89.5673 234.544 89.5673C236.08 89.5673 237.056 88.8473 237.056 87.6953C237.056 86.7833 236.56 86.2073 235.456 85.9513L233.552 85.5193C231.664 85.0873 230.688 83.9993 230.688 82.3353ZM247.65 90.7833H240.594V79.2153H247.65V80.6553H242.162V84.2713H247.106V85.6633H242.162V89.3273H247.65V90.7833ZM251.49 79.2153V90.7833H249.922V79.2153H251.49ZM254.108 93.5513H252.844C254.204 91.6793 255.004 88.8633 255.004 86.0313C255.004 83.0393 254.124 80.2873 252.844 78.5273H254.108C255.66 80.4633 256.54 83.3113 256.54 86.0313C256.54 88.9273 255.564 91.7113 254.108 93.5513Z" fill="#A0A0A1"/>
<path fill-rule="evenodd" clip-rule="evenodd" d="M32 136.783C36.4183 136.783 40 133.201 40 128.783C40 124.365 36.4183 120.783 32 120.783C27.5817 120.783 24 124.365 24 128.783C24 133.201 27.5817 136.783 32 136.783ZM35.7095 126.446C35.8913 126.238 35.8702 125.922 35.6624 125.74C35.4546 125.558 35.1387 125.579 34.9569 125.787L30.6421 130.718L29.0201 129.096C28.8248 128.901 28.5082 128.901 28.313 129.096C28.1177 129.292 28.1177 129.608 28.313 129.803L30.313 131.803C30.4108 131.901 30.5448 131.954 30.6831 131.95C30.8215 131.945 30.9517 131.883 31.0428 131.779L35.7095 126.446Z" fill="#A0A0A1"/>
<path d="M53.1677 134.784H49.3438V123.216H53.1037C56.5597 123.216 58.8957 125.552 58.8957 129.008C58.8957 132.448 56.5917 134.784 53.1677 134.784ZM52.9917 124.656H50.9117V133.328H53.0557C55.6317 133.328 57.2637 131.664 57.2637 129.008C57.2637 126.32 55.6317 124.656 52.9917 124.656ZM64.0107 134.976C61.7067 134.976 60.1226 133.312 60.1226 130.88C60.1226 128.432 61.6746 126.736 63.9466 126.736C66.1706 126.736 67.6266 128.272 67.6266 130.592V131.152L61.5786 131.168C61.6906 132.816 62.5546 133.728 64.0426 133.728C65.2106 133.728 65.9786 133.248 66.2346 132.352H67.6426C67.2586 134.032 65.9467 134.976 64.0107 134.976ZM63.9466 128C62.6346 128 61.8026 128.784 61.6106 130.16H66.1227C66.1227 128.864 65.2746 128 63.9466 128ZM68.6665 132.512H70.1065C70.1065 133.312 70.7146 133.792 71.7066 133.792C72.7626 133.792 73.3705 133.36 73.3705 132.64C73.3705 132.112 73.1145 131.792 72.2985 131.584L70.9225 131.264C69.5305 130.928 68.8745 130.24 68.8745 129.088C68.8745 127.648 70.0906 126.736 71.8186 126.736C73.5306 126.736 74.6505 127.696 74.6825 129.184H73.2425C73.2105 128.4 72.6825 127.904 71.7705 127.904C70.8265 127.904 70.2985 128.32 70.2985 129.04C70.2985 129.568 70.6825 129.92 71.4505 130.112L72.8265 130.448C74.1545 130.768 74.8105 131.376 74.8105 132.544C74.8105 134.032 73.5305 134.976 71.6745 134.976C69.8345 134.976 68.6665 134 68.6665 132.512ZM77.2143 125.104C76.6703 125.104 76.2224 124.656 76.2224 124.112C76.2224 123.552 76.6703 123.12 77.2143 123.12C77.7583 123.12 78.2063 123.552 78.2063 124.112C78.2063 124.656 77.7583 125.104 77.2143 125.104ZM76.4783 134.784V126.96H77.9823V134.784H76.4783ZM79.6698 130.672C79.6698 128.464 81.0938 126.736 83.3658 126.736C84.6298 126.736 85.6058 127.312 86.1018 128.288L86.2139 126.96H87.5578V134.464C87.5578 136.928 86.0378 138.496 83.6378 138.496C81.5098 138.496 80.0538 137.296 79.7658 135.312H81.2699C81.4619 136.464 82.3258 137.136 83.6378 137.136C85.1098 137.136 86.0698 136.176 86.0698 134.688V133.12C85.5578 134.032 84.5338 134.576 83.3018 134.576C81.0778 134.576 79.6698 132.864 79.6698 130.672ZM81.1739 130.64C81.1739 132.112 82.0858 133.264 83.5578 133.264C85.0778 133.264 86.0059 132.176 86.0059 130.64C86.0059 129.136 85.1098 128.048 83.5738 128.048C82.0698 128.048 81.1739 129.2 81.1739 130.64ZM95.8953 134.784H94.3593V123.216H95.8953L99.8793 132.944L103.864 123.216H105.432V134.784H103.896V130.208C103.896 128.048 103.912 127.264 103.992 126.448L100.616 134.784H99.1433L95.7833 126.48C95.8633 127.04 95.8953 128.224 95.8953 129.84V134.784ZM112.621 130.656H109.693V134.784H108.125V123.216H112.621C114.893 123.216 116.349 124.704 116.349 126.928C116.349 129.088 114.877 130.656 112.621 130.656ZM112.349 124.624H109.693V129.248H112.285C113.837 129.248 114.701 128.336 114.701 126.912C114.701 125.456 113.821 124.624 112.349 124.624ZM122.925 134.96C119.629 134.96 117.437 132.592 117.437 129.008C117.437 125.44 119.693 123.024 123.005 123.024C125.613 123.024 127.613 124.576 128.045 126.944H126.365C125.933 125.44 124.637 124.528 122.957 124.528C120.621 124.528 119.085 126.288 119.085 128.992C119.085 131.696 120.621 133.456 122.957 133.456C124.653 133.456 125.997 132.544 126.429 131.12H128.093C127.597 133.424 125.533 134.96 122.925 134.96ZM138.215 134.784H134.391V123.216H138.151C141.607 123.216 143.943 125.552 143.943 129.008C143.943 132.448 141.639 134.784 138.215 134.784ZM138.039 124.656H135.959V133.328H138.103C140.679 133.328 142.311 131.664 142.311 129.008C142.311 126.32 140.679 124.656 138.039 124.656ZM149.058 134.976C146.754 134.976 145.17 133.312 145.17 130.88C145.17 128.432 146.722 126.736 148.994 126.736C151.218 126.736 152.674 128.272 152.674 130.592V131.152L146.626 131.168C146.738 132.816 147.602 133.728 149.09 133.728C150.258 133.728 151.026 133.248 151.282 132.352H152.69C152.306 134.032 150.994 134.976 149.058 134.976ZM148.994 128C147.682 128 146.85 128.784 146.658 130.16H151.17C151.17 128.864 150.322 128 148.994 128ZM153.842 130.88C153.842 128.432 155.394 126.736 157.682 126.736C159.65 126.736 161.026 127.856 161.298 129.6H159.794C159.538 128.608 158.738 128.08 157.73 128.08C156.306 128.08 155.33 129.168 155.33 130.864C155.33 132.544 156.242 133.632 157.666 133.632C158.738 133.632 159.538 133.072 159.81 132.144H161.314C161.01 133.84 159.554 134.976 157.666 134.976C155.362 134.976 153.842 133.344 153.842 130.88ZM166.277 134.976C163.973 134.976 162.389 133.312 162.389 130.88C162.389 128.432 163.941 126.736 166.213 126.736C168.437 126.736 169.892 128.272 169.892 130.592V131.152L163.845 131.168C163.957 132.816 164.821 133.728 166.309 133.728C167.477 133.728 168.245 133.248 168.501 132.352H169.909C169.525 134.032 168.213 134.976 166.277 134.976ZM166.213 128C164.901 128 164.069 128.784 163.877 130.16H168.389C168.389 128.864 167.541 128 166.213 128ZM173.076 134.784H171.572V126.96H172.932L173.092 128.16C173.588 127.264 174.58 126.736 175.684 126.736C177.748 126.736 178.692 128 178.692 130V134.784H177.188V130.336C177.188 128.752 176.452 128.112 175.3 128.112C173.892 128.112 173.076 129.12 173.076 130.64V134.784ZM182.984 134.784H181.48V128.224H179.944V126.96H181.48V124.512H182.984V126.96H184.52V128.224H182.984V134.784ZM190.349 126.896V128.272H189.677C188.253 128.272 187.373 129.136 187.373 130.64V134.784H185.869V126.976H187.277L187.373 128.16C187.693 127.344 188.477 126.8 189.549 126.8C189.821 126.8 190.045 126.832 190.349 126.896ZM193.735 134.976C192.055 134.976 191.063 134.032 191.063 132.608C191.063 131.168 192.135 130.272 193.975 130.128L196.439 129.936V129.712C196.439 128.4 195.655 127.936 194.599 127.936C193.335 127.936 192.615 128.496 192.615 129.44H191.303C191.303 127.808 192.647 126.736 194.663 126.736C196.599 126.736 197.911 127.76 197.911 129.872V134.784H196.631L196.471 133.52C196.071 134.416 194.999 134.976 193.735 134.976ZM194.167 133.808C195.591 133.808 196.455 132.88 196.455 131.408V130.992L194.455 131.152C193.127 131.28 192.583 131.792 192.583 132.56C192.583 133.392 193.191 133.808 194.167 133.808ZM201.53 134.784H200.026V123.008H201.53V134.784ZM204.48 125.104C203.936 125.104 203.488 124.656 203.488 124.112C203.488 123.552 203.936 123.12 204.48 123.12C205.024 123.12 205.472 123.552 205.472 124.112C205.472 124.656 205.024 125.104 204.48 125.104ZM203.744 134.784V126.96H205.248V134.784H203.744ZM213.048 134.784H206.952V133.568L211.176 128.224H206.952V126.96H213.048V128.192L208.792 133.52H213.048V134.784ZM217.948 134.976C215.644 134.976 214.06 133.312 214.06 130.88C214.06 128.432 215.612 126.736 217.884 126.736C220.108 126.736 221.564 128.272 221.564 130.592V131.152L215.516 131.168C215.628 132.816 216.492 133.728 217.98 133.728C219.148 133.728 219.916 133.248 220.172 132.352H221.58C221.196 134.032 219.884 134.976 217.948 134.976ZM217.884 128C216.572 128 215.74 128.784 215.548 130.16H220.06C220.06 128.864 219.212 128 217.884 128ZM226.38 134.976C224.108 134.976 222.732 133.28 222.732 130.896C222.732 128.496 224.124 126.736 226.444 126.736C227.644 126.736 228.652 127.264 229.18 128.224V123.008H230.668V134.784H229.324L229.196 133.36C228.684 134.432 227.628 134.976 226.38 134.976ZM226.684 133.616C228.22 133.616 229.164 132.48 229.164 130.848C229.164 129.248 228.22 128.096 226.684 128.096C225.148 128.096 224.252 129.248 224.252 130.848C224.252 132.464 225.148 133.616 226.684 133.616ZM239.037 134.784H237.469V123.216H239.037L244.957 132.16V123.216H246.525V134.784H244.957L239.037 125.84V134.784ZM252.339 134.976C250.035 134.976 248.451 133.312 248.451 130.88C248.451 128.432 250.003 126.736 252.275 126.736C254.499 126.736 255.955 128.272 255.955 130.592V131.152L249.907 131.168C250.019 132.816 250.883 133.728 252.371 133.728C253.539 133.728 254.307 133.248 254.563 132.352H255.971C255.587 134.032 254.275 134.976 252.339 134.976ZM252.275 128C250.963 128 250.131 128.784 249.939 130.16H254.451C254.451 128.864 253.603 128 252.275 128ZM259.765 134.784H258.261V128.224H256.725V126.96H258.261V124.512H259.765V126.96H261.301V128.224H259.765V134.784ZM264.331 134.784L261.771 126.96H263.323L264.619 131.024C264.795 131.6 264.955 132.192 265.099 132.88C265.227 132.192 265.435 131.536 265.611 131.024L266.923 126.96H268.459L269.755 131.024C269.883 131.408 270.139 132.32 270.267 132.88C270.395 132.256 270.539 131.712 270.763 131.024L272.075 126.96H273.643L270.97 134.784H269.547L268.187 130.592C267.931 129.808 267.771 129.2 267.691 128.768C267.611 129.152 267.467 129.664 267.179 130.608L265.819 134.784H264.331ZM274.06 130.864C274.06 128.448 275.788 126.752 278.14 126.752C280.476 126.752 282.204 128.448 282.204 130.864C282.204 133.28 280.476 134.976 278.14 134.976C275.788 134.976 274.06 133.28 274.06 130.864ZM275.58 130.864C275.58 132.496 276.62 133.632 278.14 133.632C279.644 133.632 280.7 132.496 280.7 130.864C280.7 129.232 279.644 128.096 278.14 128.096C276.62 128.096 275.58 129.232 275.58 130.864ZM288.349 126.896V128.272H287.677C286.253 128.272 285.373 129.136 285.373 130.64V134.784H283.869V126.976H285.277L285.373 128.16C285.693 127.344 286.477 126.8 287.549 126.8C287.821 126.8 288.045 126.832 288.349 126.896ZM291.296 134.784H289.792V123.008H291.296V130.64L294.768 126.96H296.656L293.664 130.08L296.64 134.784H294.912L292.624 131.168L291.296 132.56V134.784Z" fill="#A0A0A1"/>
</g>
<defs>
<linearGradient id="paint0_linear_10312_10542" x1="2.56755e-06" y1="288.783" x2="375.413" y2="187.331" gradientUnits="userSpaceOnUse">
<stop stop-color="white" stop-opacity="0.1"/>
<stop offset="1" stop-color="white" stop-opacity="0.05"/>
</linearGradient>
<clipPath id="clip0_10312_10542">
<rect width="325" height="288" fill="white" transform="translate(0 0.783203)"/>
</clipPath>
</defs>
</svg>
