<svg width="339" height="289" viewBox="0 0 339 289" fill="none" xmlns="http://www.w3.org/2000/svg">
<g clip-path="url(#clip0_10312_10550)">
<path d="M318.437 1.2832H21.0631C9.70641 1.2832 0.5 10.0137 0.5 20.7832V268.783C0.5 279.553 9.70641 288.283 21.0631 288.283H318.437C329.794 288.283 339 279.553 339 268.783V20.7832C339 10.0137 329.794 1.2832 318.437 1.2832Z" fill="#252238"/>
<path d="M37.0803 47.743L35.5203 45.983C34.4403 46.643 33.1603 47.023 31.7403 47.023C27.6603 47.023 24.8203 43.943 24.8203 39.543C24.8203 35.163 27.6803 32.063 31.7603 32.063C35.8603 32.063 38.7203 35.143 38.7203 39.543C38.7203 41.703 38.0203 43.543 36.8403 44.863L38.3603 46.583L37.0803 47.743ZM36.6603 39.543C36.6603 36.183 34.7003 33.963 31.7603 33.963C28.8203 33.963 26.8803 36.183 26.8803 39.543C26.8803 42.903 28.8203 45.143 31.7603 45.143C32.6803 45.143 33.5003 44.923 34.2003 44.503L32.3003 42.363L33.5803 41.203L35.5003 43.363C36.2403 42.403 36.6603 41.083 36.6603 39.543ZM43.2872 34.083H40.2472V32.323H45.1672V46.783H43.2872V34.083ZM53.5611 42.323V40.643H59.6611V42.323H53.5611ZM77.0631 46.763L67.3031 46.783V45.283L71.9631 41.263C74.3031 39.243 74.9631 38.263 74.9631 36.723C74.9631 34.903 73.9231 33.823 72.1831 33.823C70.4031 33.823 69.2431 35.123 69.2031 37.183H67.2431C67.3031 34.083 69.2631 32.063 72.2031 32.063C75.1031 32.063 76.9631 33.823 76.9631 36.603C76.9631 38.663 75.9431 40.123 73.3831 42.343L70.3831 44.943H77.0631V46.763ZM78.867 39.563C78.867 35.083 81.187 32.043 84.827 32.043C88.447 32.043 90.767 35.083 90.767 39.563C90.767 44.063 88.547 47.043 84.827 47.043C81.087 47.043 78.867 44.063 78.867 39.563ZM80.807 39.563C80.807 43.123 82.287 45.283 84.827 45.283C87.367 45.283 88.827 43.123 88.827 39.563C88.827 35.963 87.367 33.803 84.827 33.803C82.287 33.803 80.807 35.963 80.807 39.563ZM102.434 46.763L92.6742 46.783V45.283L97.3342 41.263C99.6742 39.243 100.334 38.263 100.334 36.723C100.334 34.903 99.2942 33.823 97.5542 33.823C95.7742 33.823 94.6142 35.123 94.5742 37.183H92.6142C92.6742 34.083 94.6342 32.063 97.5742 32.063C100.474 32.063 102.334 33.823 102.334 36.603C102.334 38.663 101.314 40.123 98.7542 42.343L95.7542 44.943H102.434V46.763ZM114.627 43.863H112.907V46.783H111.027V43.863H103.547V42.123L110.367 32.323H112.907V42.123H114.627V43.863ZM105.667 42.123H111.027V34.403L105.667 42.123Z" fill="#F3F3F3"/>
<path fill-rule="evenodd" clip-rule="evenodd" d="M32 92.7832C36.4183 92.7832 40 89.2015 40 84.7832C40 80.3649 36.4183 76.7832 32 76.7832C27.5817 76.7832 24 80.3649 24 84.7832C24 89.2015 27.5817 92.7832 32 92.7832ZM35.7095 82.4459C35.8913 82.2381 35.8702 81.9222 35.6624 81.7404C35.4546 81.5586 35.1387 81.5796 34.9569 81.7874L30.6421 86.7186L29.0201 85.0965C28.8248 84.9012 28.5082 84.9012 28.313 85.0965C28.1177 85.2917 28.1177 85.6083 28.313 85.8036L30.313 87.8036C30.4108 87.9014 30.5448 87.9544 30.6831 87.9498C30.8215 87.9451 30.9517 87.8834 31.0428 87.7793L35.7095 82.4459Z" fill="#A0A0A1"/>
<path d="M48.6717 82.3353C48.6717 80.3513 50.2717 79.0073 52.6557 79.0073C54.8637 79.0073 56.2877 80.2393 56.4157 82.2393H54.8317C54.7517 81.0873 53.9357 80.4153 52.6397 80.4153C51.1837 80.4153 50.2397 81.1513 50.2397 82.2873C50.2397 83.2153 50.7677 83.7753 51.8557 84.0313L53.7597 84.4793C55.6477 84.9113 56.6077 85.9353 56.6077 87.5673C56.6077 89.6473 54.9917 90.9753 52.5277 90.9753C50.1757 90.9753 48.6077 89.7433 48.5117 87.7593H50.1117C50.1437 88.8633 51.0717 89.5673 52.5277 89.5673C54.0637 89.5673 55.0397 88.8473 55.0397 87.6953C55.0397 86.7833 54.5437 86.2073 53.4397 85.9513L51.5357 85.5193C49.6477 85.0873 48.6717 83.9993 48.6717 82.3353ZM60.5301 90.7833H59.0261V84.2233H57.4901V82.9593H59.0261V80.5113H60.5301V82.9593H62.0661V84.2233H60.5301V90.7833ZM65.6101 90.9753C63.9301 90.9753 62.9381 90.0313 62.9381 88.6073C62.9381 87.1673 64.0101 86.2713 65.8501 86.1273L68.3141 85.9353V85.7113C68.3141 84.3993 67.5301 83.9353 66.4741 83.9353C65.2101 83.9353 64.4901 84.4953 64.4901 85.4393H63.1781C63.1781 83.8073 64.5221 82.7353 66.5381 82.7353C68.4741 82.7353 69.7861 83.7593 69.7861 85.8713V90.7833H68.5061L68.3461 89.5193C67.9461 90.4153 66.8741 90.9753 65.6101 90.9753ZM66.0421 89.8073C67.4661 89.8073 68.3301 88.8793 68.3301 87.4073V86.9913L66.3301 87.1513C65.0021 87.2793 64.4581 87.7913 64.4581 88.5593C64.4581 89.3913 65.0661 89.8073 66.0421 89.8073ZM73.405 90.7833H71.901V79.0073H73.405V86.6393L76.877 82.9593H78.765L75.773 86.0793L78.749 90.7833H77.021L74.733 87.1673L73.405 88.5593V90.7833ZM80.73 81.1033C80.186 81.1033 79.738 80.6553 79.738 80.1113C79.738 79.5513 80.186 79.1193 80.73 79.1193C81.274 79.1193 81.722 79.5513 81.722 80.1113C81.722 80.6553 81.274 81.1033 80.73 81.1033ZM79.994 90.7833V82.9593H81.498V90.7833H79.994ZM85.1855 90.7833H83.6815V82.9593H85.0415L85.2015 84.1593C85.6975 83.2633 86.6895 82.7353 87.7935 82.7353C89.8575 82.7353 90.8015 83.9993 90.8015 85.9993V90.7833H89.2975V86.3353C89.2975 84.7513 88.5615 84.1113 87.4095 84.1113C86.0015 84.1113 85.1855 85.1193 85.1855 86.6393V90.7833ZM92.3886 86.6713C92.3886 84.4633 93.8126 82.7353 96.0846 82.7353C97.3486 82.7353 98.3246 83.3113 98.8206 84.2873L98.9326 82.9593H100.277V90.4633C100.277 92.9273 98.7566 94.4953 96.3566 94.4953C94.2286 94.4953 92.7726 93.2953 92.4846 91.3113H93.9886C94.1806 92.4633 95.0446 93.1353 96.3566 93.1353C97.8286 93.1353 98.7886 92.1753 98.7886 90.6873V89.1193C98.2766 90.0313 97.2526 90.5753 96.0206 90.5753C93.7966 90.5753 92.3886 88.8633 92.3886 86.6713ZM93.8926 86.6393C93.8926 88.1113 94.8046 89.2633 96.2766 89.2633C97.7966 89.2633 98.7246 88.1753 98.7246 86.6393C98.7246 85.1353 97.8286 84.0473 96.2926 84.0473C94.7886 84.0473 93.8926 85.1993 93.8926 86.6393ZM107.558 90.7833H105.926L110.15 79.2153H111.894L116.134 90.7833H114.486L113.446 87.9033H108.582L107.558 90.7833ZM110.822 81.7113L109.062 86.5433H112.982L111.206 81.7113C111.126 81.4873 111.046 81.2153 111.014 81.0393C110.982 81.1993 110.902 81.4713 110.822 81.7113ZM116.78 86.6713C116.78 84.4633 118.204 82.7353 120.476 82.7353C121.74 82.7353 122.716 83.3113 123.212 84.2873L123.324 82.9593H124.668V90.4633C124.668 92.9273 123.148 94.4953 120.748 94.4953C118.62 94.4953 117.164 93.2953 116.876 91.3113H118.38C118.572 92.4633 119.436 93.1353 120.748 93.1353C122.22 93.1353 123.18 92.1753 123.18 90.6873V89.1193C122.668 90.0313 121.644 90.5753 120.411 90.5753C118.188 90.5753 116.78 88.8633 116.78 86.6713ZM118.284 86.6393C118.284 88.1113 119.196 89.2633 120.668 89.2633C122.188 89.2633 123.116 88.1753 123.116 86.6393C123.116 85.1353 122.22 84.0473 120.684 84.0473C119.18 84.0473 118.284 85.1993 118.284 86.6393ZM126.342 86.6713C126.342 84.4633 127.766 82.7353 130.038 82.7353C131.302 82.7353 132.278 83.3113 132.774 84.2873L132.886 82.9593H134.23V90.4633C134.23 92.9273 132.71 94.4953 130.31 94.4953C128.182 94.4953 126.726 93.2953 126.438 91.3113H127.942C128.134 92.4633 128.998 93.1353 130.31 93.1353C131.782 93.1353 132.742 92.1753 132.742 90.6873V89.1193C132.23 90.0313 131.206 90.5753 129.974 90.5753C127.75 90.5753 126.342 88.8633 126.342 86.6713ZM127.846 86.6393C127.846 88.1113 128.758 89.2633 130.23 89.2633C131.75 89.2633 132.678 88.1753 132.678 86.6393C132.678 85.1353 131.782 84.0473 130.246 84.0473C128.742 84.0473 127.846 85.1993 127.846 86.6393ZM140.881 82.8953V84.2713H140.209C138.785 84.2713 137.905 85.1353 137.905 86.6393V90.7833H136.401V82.9753H137.809L137.905 84.1593C138.225 83.3433 139.009 82.7993 140.081 82.7993C140.353 82.7993 140.577 82.8313 140.881 82.8953ZM145.386 90.9753C143.082 90.9753 141.498 89.3113 141.498 86.8793C141.498 84.4313 143.05 82.7353 145.322 82.7353C147.546 82.7353 149.002 84.2713 149.002 86.5913V87.1513L142.954 87.1673C143.066 88.8153 143.93 89.7273 145.418 89.7273C146.586 89.7273 147.354 89.2473 147.61 88.3513H149.018C148.634 90.0313 147.322 90.9753 145.386 90.9753ZM145.322 83.9993C144.01 83.9993 143.178 84.7833 142.986 86.1593H147.498C147.498 84.8633 146.65 83.9993 145.322 83.9993ZM150.186 86.6713C150.186 84.4633 151.61 82.7353 153.882 82.7353C155.146 82.7353 156.122 83.3113 156.618 84.2873L156.73 82.9593H158.074V90.4633C158.074 92.9273 156.554 94.4953 154.154 94.4953C152.026 94.4953 150.57 93.2953 150.282 91.3113H151.786C151.978 92.4633 152.842 93.1353 154.154 93.1353C155.626 93.1353 156.586 92.1753 156.586 90.6873V89.1193C156.074 90.0313 155.05 90.5753 153.818 90.5753C151.594 90.5753 150.186 88.8633 150.186 86.6713ZM151.69 86.6393C151.69 88.1113 152.602 89.2633 154.074 89.2633C155.594 89.2633 156.522 88.1753 156.522 86.6393C156.522 85.1353 155.626 84.0473 154.09 84.0473C152.586 84.0473 151.69 85.1993 151.69 86.6393ZM162.532 90.9753C160.852 90.9753 159.86 90.0313 159.86 88.6073C159.86 87.1673 160.932 86.2713 162.772 86.1273L165.236 85.9353V85.7113C165.236 84.3993 164.452 83.9353 163.396 83.9353C162.132 83.9353 161.412 84.4953 161.412 85.4393H160.1C160.1 83.8073 161.444 82.7353 163.46 82.7353C165.396 82.7353 166.708 83.7593 166.708 85.8713V90.7833H165.428L165.268 89.5193C164.868 90.4153 163.796 90.9753 162.532 90.9753ZM162.964 89.8073C164.388 89.8073 165.252 88.8793 165.252 87.4073V86.9913L163.252 87.1513C161.924 87.2793 161.38 87.7913 161.38 88.5593C161.38 89.3913 161.988 89.8073 162.964 89.8073ZM170.874 90.7833H169.37V84.2233H167.834V82.9593H169.37V80.5113H170.874V82.9593H172.41V84.2233H170.874V90.7833ZM173.17 86.8633C173.17 84.4473 174.898 82.7513 177.25 82.7513C179.586 82.7513 181.314 84.4473 181.314 86.8633C181.314 89.2793 179.586 90.9753 177.25 90.9753C174.898 90.9753 173.17 89.2793 173.17 86.8633ZM174.69 86.8633C174.69 88.4953 175.73 89.6313 177.25 89.6313C178.754 89.6313 179.81 88.4953 179.81 86.8633C179.81 85.2313 178.754 84.0953 177.25 84.0953C175.73 84.0953 174.69 85.2313 174.69 86.8633ZM187.459 82.8953V84.2713H186.787C185.363 84.2713 184.483 85.1353 184.483 86.6393V90.7833H182.979V82.9753H184.387L184.483 84.1593C184.803 83.3433 185.587 82.7993 186.659 82.7993C186.931 82.7993 187.155 82.8313 187.459 82.8953ZM196.62 93.5513H195.372C193.9 91.7113 192.924 88.9273 192.924 86.0313C192.924 83.3113 193.804 80.4633 195.372 78.5273H196.62C195.356 80.2873 194.46 83.0393 194.46 86.0313C194.46 88.8633 195.26 91.6793 196.62 93.5513ZM205.025 90.7833H197.969V79.2153H205.025V80.6553H199.537V84.2713H204.481V85.6633H199.537V89.3273H205.025V90.7833ZM206.177 80.6553V79.2153H214.705V80.6553H211.233V90.7833H209.665V80.6553H206.177ZM217.85 90.7833H216.282V79.2153H217.85V84.1913H223.578V79.2153H225.146V90.7833H223.578V85.6473H217.85V90.7833ZM227.748 93.5513H226.484C227.844 91.6793 228.644 88.8633 228.644 86.0313C228.644 83.0393 227.764 80.2873 226.484 78.5273H227.748C229.3 80.4633 230.18 83.3113 230.18 86.0313C230.18 88.9273 229.204 91.7113 227.748 93.5513Z" fill="#A0A0A1"/>
<path fill-rule="evenodd" clip-rule="evenodd" d="M32 140.783C36.4183 140.783 40 137.201 40 132.783C40 128.365 36.4183 124.783 32 124.783C27.5817 124.783 24 128.365 24 132.783C24 137.201 27.5817 140.783 32 140.783ZM35.7095 130.446C35.8913 130.238 35.8702 129.922 35.6624 129.74C35.4546 129.558 35.1387 129.579 34.9569 129.787L30.6421 134.718L29.0201 133.096C28.8248 132.901 28.5082 132.901 28.313 133.096C28.1177 133.292 28.1177 133.608 28.313 133.803L30.313 135.803C30.4108 135.901 30.5448 135.954 30.6831 135.95C30.8215 135.945 30.9517 135.883 31.0428 135.779L35.7095 130.446Z" fill="#A0A0A1"/>
<path d="M59.7763 120.991C59.7763 124.511 57.4723 126.975 54.1923 126.975C50.9283 126.975 48.6562 124.511 48.6562 120.991C48.6562 117.487 50.9443 115.007 54.2083 115.007C57.4883 115.007 59.7763 117.471 59.7763 120.991ZM58.1283 120.991C58.1283 118.303 56.5603 116.527 54.2083 116.527C51.8563 116.527 50.3043 118.303 50.3043 120.991C50.3043 123.679 51.8563 125.471 54.2083 125.471C56.5603 125.471 58.1283 123.663 58.1283 120.991ZM63.0298 126.783H61.5258V118.959H62.8698L63.0138 119.983C63.4138 119.247 64.2458 118.735 65.3498 118.735C66.5658 118.735 67.4298 119.343 67.8298 120.319C68.1978 119.343 69.1417 118.735 70.3577 118.735C72.1497 118.735 73.2378 119.855 73.2378 121.663V126.783H71.7658V122.031C71.7658 120.799 71.0778 120.095 70.0218 120.095C68.8858 120.095 68.1338 120.895 68.1338 122.143V126.783H66.6458V122.015C66.6458 120.783 65.9738 120.111 64.9178 120.111C63.7818 120.111 63.0298 120.895 63.0298 122.143V126.783ZM76.8267 126.783H75.3227V118.959H76.6827L76.8427 120.159C77.3387 119.263 78.3307 118.735 79.4347 118.735C81.4987 118.735 82.4426 119.999 82.4426 121.999V126.783H80.9387V122.335C80.9387 120.751 80.2027 120.111 79.0507 120.111C77.6427 120.111 76.8267 121.119 76.8267 122.639V126.783ZM85.2617 117.103C84.7177 117.103 84.2698 116.655 84.2698 116.111C84.2698 115.551 84.7177 115.119 85.2617 115.119C85.8057 115.119 86.2538 115.551 86.2538 116.111C86.2538 116.655 85.8057 117.103 85.2617 117.103ZM84.5257 126.783V118.959H86.0298V126.783H84.5257ZM87.7012 122.879C87.7012 120.431 89.2533 118.735 91.5413 118.735C93.5093 118.735 94.8852 119.855 95.1572 121.599H93.6533C93.3973 120.607 92.5972 120.079 91.5892 120.079C90.1652 120.079 89.1893 121.167 89.1893 122.863C89.1893 124.543 90.1013 125.631 91.5253 125.631C92.5973 125.631 93.3973 125.071 93.6693 124.143H95.1732C94.8692 125.839 93.4133 126.975 91.5253 126.975C89.2213 126.975 87.7012 125.343 87.7012 122.879ZM98.2642 126.767H96.7602V115.007H98.2642V120.159C98.7602 119.311 99.7041 118.735 100.92 118.735C102.92 118.735 103.88 119.999 103.88 121.999V126.783H102.376V122.335C102.376 120.751 101.624 120.111 100.504 120.111C99.0481 120.111 98.2642 121.167 98.2642 122.511V126.767ZM108.251 126.975C106.571 126.975 105.579 126.031 105.579 124.607C105.579 123.167 106.651 122.271 108.491 122.127L110.955 121.935V121.711C110.955 120.399 110.171 119.935 109.115 119.935C107.851 119.935 107.131 120.495 107.131 121.439H105.819C105.819 119.807 107.163 118.735 109.179 118.735C111.115 118.735 112.427 119.759 112.427 121.871V126.783H111.147L110.987 125.519C110.587 126.415 109.515 126.975 108.251 126.975ZM108.683 125.807C110.107 125.807 110.971 124.879 110.971 123.407V122.991L108.971 123.151C107.643 123.279 107.099 123.791 107.099 124.559C107.099 125.391 107.707 125.807 108.683 125.807ZM115.246 117.103C114.702 117.103 114.254 116.655 114.254 116.111C114.254 115.551 114.702 115.119 115.246 115.119C115.79 115.119 116.238 115.551 116.238 116.111C116.238 116.655 115.79 117.103 115.246 117.103ZM114.51 126.783V118.959H116.014V126.783H114.51ZM119.701 126.783H118.197V118.959H119.557L119.717 120.159C120.213 119.263 121.205 118.735 122.309 118.735C124.373 118.735 125.317 119.999 125.317 121.999V126.783H123.813V122.335C123.813 120.751 123.077 120.111 121.925 120.111C120.517 120.111 119.701 121.119 119.701 122.639V126.783ZM131.36 118.335C131.36 116.351 132.96 115.007 135.344 115.007C137.552 115.007 138.976 116.239 139.104 118.239H137.52C137.44 117.087 136.624 116.415 135.328 116.415C133.872 116.415 132.928 117.151 132.928 118.287C132.928 119.215 133.456 119.775 134.544 120.031L136.448 120.479C138.336 120.911 139.296 121.935 139.296 123.567C139.296 125.647 137.68 126.975 135.216 126.975C132.864 126.975 131.296 125.743 131.2 123.759H132.799C132.832 124.863 133.76 125.567 135.216 125.567C136.752 125.567 137.728 124.847 137.728 123.695C137.728 122.783 137.232 122.207 136.128 121.951L134.224 121.519C132.336 121.087 131.36 119.999 131.36 118.335ZM142.69 126.783L140.13 118.959H141.682L142.978 123.023C143.154 123.599 143.314 124.191 143.458 124.879C143.586 124.191 143.794 123.535 143.97 123.023L145.282 118.959H146.818L148.114 123.023C148.242 123.407 148.498 124.319 148.626 124.879C148.754 124.255 148.898 123.711 149.122 123.023L150.434 118.959H152.002L149.33 126.783H147.906L146.546 122.591C146.29 121.807 146.13 121.199 146.05 120.767C145.97 121.151 145.826 121.663 145.538 122.607L144.178 126.783H142.69ZM155.22 126.975C153.54 126.975 152.548 126.031 152.548 124.607C152.548 123.167 153.62 122.271 155.46 122.127L157.924 121.935V121.711C157.924 120.399 157.14 119.935 156.084 119.935C154.82 119.935 154.1 120.495 154.1 121.439H152.788C152.788 119.807 154.132 118.735 156.148 118.735C158.084 118.735 159.396 119.759 159.396 121.871V126.783H158.116L157.956 125.519C157.556 126.415 156.484 126.975 155.22 126.975ZM155.652 125.807C157.076 125.807 157.94 124.879 157.94 123.407V122.991L155.94 123.151C154.612 123.279 154.068 123.791 154.068 124.559C154.068 125.391 154.676 125.807 155.652 125.807ZM161.479 130.287V118.959H162.839L162.951 120.367C163.479 119.295 164.535 118.735 165.783 118.735C168.023 118.735 169.415 120.415 169.415 122.815C169.415 125.199 168.103 126.991 165.783 126.991C164.535 126.991 163.495 126.463 162.983 125.503V130.287H161.479ZM162.999 122.879C162.999 124.479 163.927 125.631 165.463 125.631C166.999 125.631 167.911 124.479 167.911 122.879C167.911 121.263 166.999 120.111 165.463 120.111C163.927 120.111 162.999 121.247 162.999 122.879ZM178.823 129.551H177.575C176.103 127.711 175.127 124.927 175.127 122.031C175.127 119.311 176.007 116.463 177.575 114.527H178.823C177.559 116.287 176.663 119.039 176.663 122.031C176.663 124.863 177.463 127.679 178.823 129.551ZM184.668 122.655H181.74V126.783H180.172V115.215H184.668C186.94 115.215 188.396 116.703 188.396 118.927C188.396 121.087 186.924 122.655 184.668 122.655ZM184.396 116.623H181.74V121.247H184.332C185.884 121.247 186.748 120.335 186.748 118.911C186.748 117.455 185.868 116.623 184.396 116.623ZM191.892 126.975C190.212 126.975 189.22 126.031 189.22 124.607C189.22 123.167 190.292 122.271 192.132 122.127L194.596 121.935V121.711C194.596 120.399 193.812 119.935 192.756 119.935C191.492 119.935 190.772 120.495 190.772 121.439H189.46C189.46 119.807 190.804 118.735 192.82 118.735C194.756 118.735 196.068 119.759 196.068 121.871V126.783H194.788L194.628 125.519C194.228 126.415 193.156 126.975 191.892 126.975ZM192.324 125.807C193.748 125.807 194.612 124.879 194.612 123.407V122.991L192.612 123.151C191.284 123.279 190.74 123.791 190.74 124.559C190.74 125.391 191.348 125.807 192.324 125.807ZM197.211 130.287V129.055H198.219C198.939 129.055 199.515 128.943 199.883 127.951L200.155 127.199L197.003 118.959H198.587L200.859 125.263L203.179 118.959H204.731L201.035 128.543C200.507 129.887 199.723 130.447 198.523 130.447C198.027 130.447 197.611 130.383 197.211 130.287ZM209.811 122.671C209.811 120.463 211.235 118.735 213.507 118.735C214.771 118.735 215.747 119.311 216.243 120.287L216.355 118.959H217.699V126.463C217.699 128.927 216.179 130.495 213.779 130.495C211.651 130.495 210.195 129.295 209.907 127.311H211.411C211.603 128.463 212.467 129.135 213.779 129.135C215.251 129.135 216.211 128.175 216.211 126.687V125.119C215.699 126.031 214.675 126.575 213.443 126.575C211.219 126.575 209.811 124.863 209.811 122.671ZM211.315 122.639C211.315 124.111 212.227 125.263 213.699 125.263C215.219 125.263 216.147 124.175 216.147 122.639C216.147 121.135 215.251 120.047 213.715 120.047C212.211 120.047 211.315 121.199 211.315 122.639ZM222.157 126.975C220.477 126.975 219.485 126.031 219.485 124.607C219.485 123.167 220.557 122.271 222.397 122.127L224.861 121.935V121.711C224.861 120.399 224.077 119.935 223.021 119.935C221.757 119.935 221.037 120.495 221.037 121.439H219.725C219.725 119.807 221.069 118.735 223.085 118.735C225.021 118.735 226.333 119.759 226.333 121.871V126.783H225.053L224.893 125.519C224.493 126.415 223.421 126.975 222.157 126.975ZM222.589 125.807C224.013 125.807 224.877 124.879 224.877 123.407V122.991L222.877 123.151C221.549 123.279 221.005 123.791 221.005 124.559C221.005 125.391 221.613 125.807 222.589 125.807ZM227.776 124.511H229.216C229.216 125.311 229.824 125.791 230.816 125.791C231.872 125.791 232.48 125.359 232.48 124.639C232.48 124.111 232.224 123.791 231.408 123.583L230.032 123.263C228.64 122.927 227.984 122.239 227.984 121.087C227.984 119.647 229.2 118.735 230.928 118.735C232.64 118.735 233.76 119.695 233.792 121.183H232.352C232.32 120.399 231.792 119.903 230.88 119.903C229.936 119.903 229.408 120.319 229.408 121.039C229.408 121.567 229.792 121.919 230.56 122.111L231.936 122.447C233.264 122.767 233.92 123.375 233.92 124.543C233.92 126.031 232.64 126.975 230.784 126.975C228.944 126.975 227.776 125.999 227.776 124.511ZM241.643 126.783L239.083 118.959H240.635L241.931 123.023C242.107 123.599 242.267 124.191 242.411 124.879C242.539 124.191 242.747 123.535 242.923 123.023L244.235 118.959H245.771L247.067 123.023C247.195 123.407 247.451 124.319 247.579 124.879C247.707 124.255 247.851 123.711 248.075 123.023L249.387 118.959H250.955L248.283 126.783H246.859L245.499 122.591C245.243 121.807 245.083 121.199 245.003 120.767C244.923 121.151 244.779 121.663 244.491 122.607L243.131 126.783H241.643ZM252.98 117.103C252.436 117.103 251.988 116.655 251.988 116.111C251.988 115.551 252.436 115.119 252.98 115.119C253.524 115.119 253.972 115.551 253.972 116.111C253.972 116.655 253.524 117.103 252.98 117.103ZM252.244 126.783V118.959H253.748V126.783H252.244ZM258.14 126.783H256.636V120.223H255.1V118.959H256.636V116.511H258.14V118.959H259.676V120.223H258.14V126.783ZM262.53 126.767H261.026V115.007H262.53V120.159C263.026 119.311 263.97 118.735 265.186 118.735C267.186 118.735 268.146 119.999 268.146 121.999V126.783H266.642V122.335C266.642 120.751 265.89 120.111 264.77 120.111C263.314 120.111 262.53 121.167 262.53 122.511V126.767ZM276.892 126.975C275.212 126.975 274.22 126.031 274.22 124.607C274.22 123.167 275.292 122.271 277.132 122.127L279.596 121.935V121.711C279.596 120.399 278.812 119.935 277.756 119.935C276.492 119.935 275.772 120.495 275.772 121.439H274.46C274.46 119.807 275.804 118.735 277.82 118.735C279.756 118.735 281.068 119.759 281.068 121.871V126.783H279.788L279.628 125.519C279.228 126.415 278.156 126.975 276.892 126.975ZM277.324 125.807C278.748 125.807 279.612 124.879 279.612 123.407V122.991L277.612 123.151C276.284 123.279 275.74 123.791 275.74 124.559C275.74 125.391 276.348 125.807 277.324 125.807ZM284.655 126.783H283.151V118.959H284.511L284.671 120.159C285.167 119.263 286.159 118.735 287.263 118.735C289.327 118.735 290.271 119.999 290.271 121.999V126.783H288.767V122.335C288.767 120.751 288.031 120.111 286.879 120.111C285.471 120.111 284.655 121.119 284.655 122.639V126.783ZM291.445 130.287V129.055H292.453C293.173 129.055 293.749 128.943 294.117 127.951L294.389 127.199L291.237 118.959H292.821L295.093 125.263L297.413 118.959H298.965L295.269 128.543C294.741 129.887 293.957 130.447 292.757 130.447C292.261 130.447 291.845 130.383 291.445 130.287ZM50.5923 150.783H49.0883V142.959H50.4483L50.6083 144.159C51.1043 143.263 52.0963 142.735 53.2003 142.735C55.2643 142.735 56.2083 143.999 56.2083 145.999V150.783H54.7043V146.335C54.7043 144.751 53.9683 144.111 52.8163 144.111C51.4083 144.111 50.5923 145.119 50.5923 146.639V150.783ZM60.5794 150.975C58.8994 150.975 57.9074 150.031 57.9074 148.607C57.9074 147.167 58.9794 146.271 60.8194 146.127L63.2834 145.935V145.711C63.2834 144.399 62.4994 143.935 61.4434 143.935C60.1794 143.935 59.4594 144.495 59.4594 145.439H58.1474C58.1474 143.807 59.4914 142.735 61.5074 142.735C63.4434 142.735 64.7553 143.759 64.7553 145.871V150.783H63.4754L63.3154 149.519C62.9154 150.415 61.8434 150.975 60.5794 150.975ZM61.0114 149.807C62.4354 149.807 63.2994 148.879 63.2994 147.407V146.991L61.2994 147.151C59.9714 147.279 59.4274 147.791 59.4274 148.559C59.4274 149.391 60.0354 149.807 61.0114 149.807ZM68.9212 150.783H67.4173V144.223H65.8812V142.959H67.4173V140.511H68.9212V142.959H70.4573V144.223H68.9212V150.783ZM72.5431 141.103C71.9991 141.103 71.551 140.655 71.551 140.111C71.551 139.551 71.9991 139.119 72.5431 139.119C73.0871 139.119 73.535 139.551 73.535 140.111C73.535 140.655 73.0871 141.103 72.5431 141.103ZM71.8071 150.783V142.959H73.3111V150.783H71.8071ZM77.6866 150.783L74.5346 142.959H76.1346L77.8465 147.327C78.1186 148.063 78.3426 148.719 78.4706 149.199C78.5986 148.687 78.8545 148.015 79.1265 147.327L80.8706 142.959H82.4386L79.1746 150.783H77.6866ZM86.6517 150.975C84.3477 150.975 82.7637 149.311 82.7637 146.879C82.7637 144.431 84.3158 142.735 86.5878 142.735C88.8118 142.735 90.2678 144.271 90.2678 146.591V147.151L84.2197 147.167C84.3317 148.815 85.1958 149.727 86.6838 149.727C87.8518 149.727 88.6198 149.247 88.8758 148.351H90.2838C89.8998 150.031 88.5877 150.975 86.6517 150.975ZM86.5878 143.999C85.2758 143.999 84.4438 144.783 84.2518 146.159H88.7637C88.7637 144.863 87.9158 143.999 86.5878 143.999ZM98.5307 150.783H97.0266V144.223H95.4907V142.959H97.0266V140.511H98.5307V142.959H100.066V144.223H98.5307V150.783ZM100.826 146.863C100.826 144.447 102.554 142.751 104.906 142.751C107.242 142.751 108.97 144.447 108.97 146.863C108.97 149.279 107.242 150.975 104.906 150.975C102.554 150.975 100.826 149.279 100.826 146.863ZM102.346 146.863C102.346 148.495 103.386 149.631 104.906 149.631C106.41 149.631 107.466 148.495 107.466 146.863C107.466 145.231 106.41 144.095 104.906 144.095C103.386 144.095 102.346 145.231 102.346 146.863ZM112.171 150.783H110.667V139.007H112.171V146.639L115.643 142.959H117.531L114.539 146.079L117.515 150.783H115.787L113.499 147.167L112.171 148.559V150.783ZM121.839 150.975C119.535 150.975 117.951 149.311 117.951 146.879C117.951 144.431 119.503 142.735 121.775 142.735C123.999 142.735 125.455 144.271 125.455 146.591V147.151L119.407 147.167C119.519 148.815 120.383 149.727 121.871 149.727C123.039 149.727 123.807 149.247 124.063 148.351H125.471C125.087 150.031 123.775 150.975 121.839 150.975ZM121.775 143.999C120.463 143.999 119.631 144.783 119.439 146.159H123.951C123.951 144.863 123.103 143.999 121.775 143.999ZM128.639 150.783H127.135V142.959H128.495L128.655 144.159C129.151 143.263 130.143 142.735 131.247 142.735C133.311 142.735 134.255 143.999 134.255 145.999V150.783H132.751V146.335C132.751 144.751 132.015 144.111 130.863 144.111C129.455 144.111 128.639 145.119 128.639 146.639V150.783ZM136.514 153.551H135.25C136.61 151.679 137.41 148.863 137.41 146.031C137.41 143.039 136.53 140.287 135.25 138.527H136.514C138.066 140.463 138.946 143.311 138.946 146.031C138.946 148.927 137.97 151.711 136.514 153.551Z" fill="#A0A0A1"/>
<path fill-rule="evenodd" clip-rule="evenodd" d="M32 188.783C36.4183 188.783 40 185.201 40 180.783C40 176.365 36.4183 172.783 32 172.783C27.5817 172.783 24 176.365 24 180.783C24 185.201 27.5817 188.783 32 188.783ZM35.7095 178.446C35.8913 178.238 35.8702 177.922 35.6624 177.74C35.4546 177.558 35.1387 177.579 34.9569 177.787L30.6421 182.718L29.0201 181.096C28.8248 180.901 28.5082 180.901 28.313 181.096C28.1177 181.292 28.1177 181.608 28.313 181.803L30.313 183.803C30.4108 183.901 30.5448 183.954 30.6831 183.95C30.8215 183.945 30.9517 183.883 31.0428 183.779L35.7095 178.446Z" fill="#A0A0A1"/>
<path d="M50.9117 175.216V186.784H49.3438V175.216H50.9117ZM54.8573 186.784H53.3533V178.96H54.7133L54.8733 180.16C55.3693 179.264 56.3613 178.736 57.4653 178.736C59.5293 178.736 60.4733 180 60.4733 182V186.784H58.9693V182.336C58.9693 180.752 58.2333 180.112 57.0813 180.112C55.6733 180.112 54.8573 181.12 54.8573 182.64V186.784ZM62.4765 183.216V181.872H67.3565V183.216H62.4765ZM71.5163 186.976C69.8363 186.976 68.8443 186.032 68.8443 184.608C68.8443 183.168 69.9163 182.272 71.7563 182.128L74.2203 181.936V181.712C74.2203 180.4 73.4363 179.936 72.3803 179.936C71.1163 179.936 70.3963 180.496 70.3963 181.44H69.0844C69.0844 179.808 70.4284 178.736 72.4444 178.736C74.3804 178.736 75.6923 179.76 75.6923 181.872V186.784H74.4123L74.2523 185.52C73.8523 186.416 72.7803 186.976 71.5163 186.976ZM71.9483 185.808C73.3723 185.808 74.2364 184.88 74.2364 183.408V182.992L72.2364 183.152C70.9084 183.28 70.3643 183.792 70.3643 184.56C70.3643 185.392 70.9723 185.808 71.9483 185.808ZM77.7752 190.288V178.96H79.1352L79.2472 180.368C79.7752 179.296 80.8312 178.736 82.0792 178.736C84.3192 178.736 85.7113 180.416 85.7113 182.816C85.7113 185.2 84.3992 186.992 82.0792 186.992C80.8312 186.992 79.7913 186.464 79.2793 185.504V190.288H77.7752ZM79.2952 182.88C79.2952 184.48 80.2232 185.632 81.7592 185.632C83.2952 185.632 84.2072 184.48 84.2072 182.88C84.2072 181.264 83.2952 180.112 81.7592 180.112C80.2232 180.112 79.2952 181.248 79.2952 182.88ZM87.369 190.288V178.96H88.729L88.841 180.368C89.369 179.296 90.425 178.736 91.673 178.736C93.913 178.736 95.305 180.416 95.305 182.816C95.305 185.2 93.993 186.992 91.673 186.992C90.425 186.992 89.385 186.464 88.873 185.504V190.288H87.369ZM88.889 182.88C88.889 184.48 89.8171 185.632 91.3531 185.632C92.8891 185.632 93.801 184.48 93.801 182.88C93.801 181.264 92.8891 180.112 91.3531 180.112C89.8171 180.112 88.889 181.248 88.889 182.88ZM106.394 186.96C103.098 186.96 100.906 184.592 100.906 181.008C100.906 177.44 103.162 175.024 106.474 175.024C109.082 175.024 111.082 176.576 111.514 178.944H109.834C109.402 177.44 108.106 176.528 106.426 176.528C104.09 176.528 102.554 178.288 102.554 180.992C102.554 183.696 104.09 185.456 106.426 185.456C108.122 185.456 109.466 184.544 109.898 183.12H111.562C111.066 185.424 109.002 186.96 106.394 186.96ZM114.655 186.768H113.151V175.008H114.655V180.16C115.151 179.312 116.095 178.736 117.311 178.736C119.311 178.736 120.271 180 120.271 182V186.784H118.767V182.336C118.767 180.752 118.015 180.112 116.895 180.112C115.439 180.112 114.655 181.168 114.655 182.512V186.768ZM124.642 186.976C122.962 186.976 121.97 186.032 121.97 184.608C121.97 183.168 123.042 182.272 124.882 182.128L127.346 181.936V181.712C127.346 180.4 126.562 179.936 125.506 179.936C124.242 179.936 123.522 180.496 123.522 181.44H122.21C122.21 179.808 123.554 178.736 125.57 178.736C127.506 178.736 128.818 179.76 128.818 181.872V186.784H127.538L127.378 185.52C126.978 186.416 125.906 186.976 124.642 186.976ZM125.074 185.808C126.498 185.808 127.362 184.88 127.362 183.408V182.992L125.362 183.152C124.034 183.28 123.49 183.792 123.49 184.56C123.49 185.392 124.098 185.808 125.074 185.808ZM132.984 186.784H131.48V180.224H129.944V178.96H131.48V176.512H132.984V178.96H134.52V180.224H132.984V186.784ZM138.218 186.784H136.714V180.224H135.178V178.96H136.714V176.512H138.218V178.96H139.754V180.224H138.218V186.784ZM141.84 177.104C141.296 177.104 140.848 176.656 140.848 176.112C140.848 175.552 141.296 175.12 141.84 175.12C142.384 175.12 142.832 175.552 142.832 176.112C142.832 176.656 142.384 177.104 141.84 177.104ZM141.104 186.784V178.96H142.608V186.784H141.104ZM146.295 186.784H144.791V178.96H146.151L146.311 180.16C146.807 179.264 147.799 178.736 148.903 178.736C150.967 178.736 151.911 180 151.911 182V186.784H150.407V182.336C150.407 180.752 149.671 180.112 148.519 180.112C147.111 180.112 146.295 181.12 146.295 182.64V186.784ZM153.498 182.672C153.498 180.464 154.922 178.736 157.194 178.736C158.458 178.736 159.434 179.312 159.93 180.288L160.042 178.96H161.386V186.464C161.386 188.928 159.866 190.496 157.466 190.496C155.338 190.496 153.882 189.296 153.594 187.312H155.098C155.29 188.464 156.154 189.136 157.466 189.136C158.938 189.136 159.898 188.176 159.898 186.688V185.12C159.386 186.032 158.362 186.576 157.13 186.576C154.906 186.576 153.498 184.864 153.498 182.672ZM155.002 182.64C155.002 184.112 155.914 185.264 157.386 185.264C158.906 185.264 159.834 184.176 159.834 182.64C159.834 181.136 158.938 180.048 157.402 180.048C155.898 180.048 155.002 181.2 155.002 182.64Z" fill="#A0A0A1"/>
<path fill-rule="evenodd" clip-rule="evenodd" d="M32 224.783C36.4183 224.783 40 221.201 40 216.783C40 212.365 36.4183 208.783 32 208.783C27.5817 208.783 24 212.365 24 216.783C24 221.201 27.5817 224.783 32 224.783ZM35.7095 214.446C35.8913 214.238 35.8702 213.922 35.6624 213.74C35.4546 213.558 35.1387 213.579 34.9569 213.787L30.6421 218.718L29.0201 217.096C28.8248 216.901 28.5082 216.901 28.313 217.096C28.1177 217.292 28.1177 217.608 28.313 217.803L30.313 219.803C30.4108 219.901 30.5448 219.954 30.6831 219.95C30.8215 219.945 30.9517 219.883 31.0428 219.779L35.7095 214.446Z" fill="#A0A0A1"/>
<path d="M54.1443 222.959C50.8483 222.959 48.6562 220.591 48.6562 217.007C48.6562 213.439 50.9123 211.023 54.2243 211.023C56.8323 211.023 58.8323 212.575 59.2643 214.943H57.5843C57.1523 213.439 55.8563 212.527 54.1763 212.527C51.8403 212.527 50.3043 214.287 50.3043 216.991C50.3043 219.695 51.8403 221.455 54.1763 221.455C55.8723 221.455 57.2163 220.543 57.6483 219.119H59.3123C58.8163 221.423 56.7523 222.959 54.1443 222.959ZM63.1107 222.975C61.4307 222.975 60.4387 222.031 60.4387 220.607C60.4387 219.167 61.5107 218.271 63.3507 218.127L65.8147 217.935V217.711C65.8147 216.399 65.0307 215.935 63.9747 215.935C62.7107 215.935 61.9907 216.495 61.9907 217.439H60.6786C60.6786 215.807 62.0227 214.735 64.0387 214.735C65.9747 214.735 67.2867 215.759 67.2867 217.871V222.783H66.0067L65.8466 221.519C65.4466 222.415 64.3747 222.975 63.1107 222.975ZM63.5427 221.807C64.9667 221.807 65.8307 220.879 65.8307 219.407V218.991L63.8307 219.151C62.5027 219.279 61.9587 219.791 61.9587 220.559C61.9587 221.391 62.5667 221.807 63.5427 221.807ZM68.7296 220.511H70.1695C70.1695 221.311 70.7776 221.791 71.7696 221.791C72.8256 221.791 73.4335 221.359 73.4335 220.639C73.4335 220.111 73.1775 219.791 72.3615 219.583L70.9855 219.263C69.5935 218.927 68.9376 218.239 68.9376 217.087C68.9376 215.647 70.1536 214.735 71.8816 214.735C73.5936 214.735 74.7136 215.695 74.7456 217.183H73.3055C73.2735 216.399 72.7455 215.903 71.8335 215.903C70.8895 215.903 70.3615 216.319 70.3615 217.039C70.3615 217.567 70.7455 217.919 71.5135 218.111L72.8895 218.447C74.2175 218.767 74.8736 219.375 74.8736 220.543C74.8736 222.031 73.5935 222.975 71.7375 222.975C69.8975 222.975 68.7296 221.999 68.7296 220.511ZM78.0453 222.767H76.5414V211.007H78.0453V216.159C78.5413 215.311 79.4854 214.735 80.7014 214.735C82.7014 214.735 83.6614 215.999 83.6614 217.999V222.783H82.1573V218.335C82.1573 216.751 81.4054 216.111 80.2854 216.111C78.8294 216.111 78.0453 217.167 78.0453 218.511V222.767ZM92.4006 222.783H90.9126V216.223H87.5686V222.783H86.0646V216.223H84.9126V214.959H86.0646V213.711C86.0646 211.791 87.0886 211.007 88.4486 211.007C88.7366 211.007 89.0725 211.023 89.3765 211.071V212.367H88.7046C87.7926 212.367 87.5686 212.863 87.5686 213.711V214.959H90.9126V211.007H92.4006V222.783ZM94.0919 218.863C94.0919 216.447 95.8199 214.751 98.1719 214.751C100.508 214.751 102.236 216.447 102.236 218.863C102.236 221.279 100.508 222.975 98.1719 222.975C95.8199 222.975 94.0919 221.279 94.0919 218.863ZM95.6119 218.863C95.6119 220.495 96.6519 221.631 98.1719 221.631C99.6759 221.631 100.732 220.495 100.732 218.863C100.732 217.231 99.6759 216.095 98.1719 216.095C96.6519 216.095 95.6119 217.231 95.6119 218.863ZM105.221 222.783L102.661 214.959H104.213L105.509 219.023C105.685 219.599 105.845 220.191 105.989 220.879C106.117 220.191 106.325 219.535 106.501 219.023L107.813 214.959H109.349L110.645 219.023C110.773 219.407 111.029 220.319 111.157 220.879C111.285 220.255 111.429 219.711 111.653 219.023L112.965 214.959H114.533L111.861 222.783H110.437L109.077 218.591C108.821 217.807 108.661 217.199 108.581 216.767C108.501 217.151 108.357 217.663 108.069 218.607L106.709 222.783H105.221ZM121.989 222.783H120.453V211.215H121.989L125.973 220.943L129.957 211.215H131.525V222.783H129.989V218.207C129.989 216.047 130.005 215.263 130.085 214.447L126.709 222.783H125.237L121.877 214.479C121.957 215.039 121.989 216.223 121.989 217.839V222.783ZM136.251 222.975C134.571 222.975 133.579 222.031 133.579 220.607C133.579 219.167 134.651 218.271 136.491 218.127L138.955 217.935V217.711C138.955 216.399 138.171 215.935 137.115 215.935C135.851 215.935 135.131 216.495 135.131 217.439H133.819C133.819 215.807 135.163 214.735 137.179 214.735C139.115 214.735 140.427 215.759 140.427 217.871V222.783H139.147L138.987 221.519C138.587 222.415 137.515 222.975 136.251 222.975ZM136.683 221.807C138.107 221.807 138.971 220.879 138.971 219.407V218.991L136.971 219.151C135.643 219.279 135.099 219.791 135.099 220.559C135.099 221.391 135.707 221.807 136.683 221.807ZM144.014 222.783H142.51V214.959H143.87L144.03 216.159C144.526 215.263 145.518 214.735 146.622 214.735C148.686 214.735 149.63 215.999 149.63 217.999V222.783H148.126V218.335C148.126 216.751 147.39 216.111 146.238 216.111C144.83 216.111 144.014 217.119 144.014 218.639V222.783ZM154.001 222.975C152.321 222.975 151.329 222.031 151.329 220.607C151.329 219.167 152.401 218.271 154.241 218.127L156.705 217.935V217.711C156.705 216.399 155.921 215.935 154.865 215.935C153.601 215.935 152.881 216.495 152.881 217.439H151.569C151.569 215.807 152.913 214.735 154.929 214.735C156.865 214.735 158.177 215.759 158.177 217.871V222.783H156.897L156.737 221.519C156.337 222.415 155.265 222.975 154.001 222.975ZM154.433 221.807C155.857 221.807 156.721 220.879 156.721 219.407V218.991L154.721 219.151C153.393 219.279 152.849 219.791 152.849 220.559C152.849 221.391 153.457 221.807 154.433 221.807ZM159.764 218.671C159.764 216.463 161.188 214.735 163.46 214.735C164.724 214.735 165.7 215.311 166.196 216.287L166.308 214.959H167.652V222.463C167.652 224.927 166.132 226.495 163.732 226.495C161.604 226.495 160.148 225.295 159.86 223.311H161.364C161.556 224.463 162.42 225.135 163.732 225.135C165.204 225.135 166.164 224.175 166.164 222.687V221.119C165.652 222.031 164.628 222.575 163.396 222.575C161.172 222.575 159.764 220.863 159.764 218.671ZM161.268 218.639C161.268 220.111 162.18 221.263 163.652 221.263C165.172 221.263 166.1 220.175 166.1 218.639C166.1 217.135 165.204 216.047 163.668 216.047C162.164 216.047 161.268 217.199 161.268 218.639ZM173.198 222.975C170.894 222.975 169.31 221.311 169.31 218.879C169.31 216.431 170.862 214.735 173.134 214.735C175.358 214.735 176.814 216.271 176.814 218.591V219.151L170.766 219.167C170.878 220.815 171.742 221.727 173.23 221.727C174.398 221.727 175.166 221.247 175.422 220.351H176.83C176.446 222.031 175.134 222.975 173.198 222.975ZM173.134 215.999C171.822 215.999 170.99 216.783 170.798 218.159H175.31C175.31 216.863 174.462 215.999 173.134 215.999ZM179.998 222.783H178.494V214.959H179.838L179.982 215.983C180.382 215.247 181.214 214.735 182.318 214.735C183.534 214.735 184.398 215.343 184.798 216.319C185.166 215.343 186.11 214.735 187.326 214.735C189.118 214.735 190.206 215.855 190.206 217.663V222.783H188.734V218.031C188.734 216.799 188.046 216.095 186.99 216.095C185.854 216.095 185.102 216.895 185.102 218.143V222.783H183.614V218.015C183.614 216.783 182.942 216.111 181.886 216.111C180.75 216.111 179.998 216.895 179.998 218.143V222.783ZM195.667 222.975C193.363 222.975 191.779 221.311 191.779 218.879C191.779 216.431 193.331 214.735 195.603 214.735C197.827 214.735 199.283 216.271 199.283 218.591V219.151L193.235 219.167C193.347 220.815 194.211 221.727 195.699 221.727C196.867 221.727 197.635 221.247 197.891 220.351H199.299C198.915 222.031 197.603 222.975 195.667 222.975ZM195.603 215.999C194.291 215.999 193.459 216.783 193.267 218.159H197.779C197.779 216.863 196.931 215.999 195.603 215.999ZM202.467 222.783H200.963V214.959H202.323L202.483 216.159C202.979 215.263 203.971 214.735 205.075 214.735C207.139 214.735 208.083 215.999 208.083 217.999V222.783H206.579V218.335C206.579 216.751 205.843 216.111 204.691 216.111C203.283 216.111 202.467 217.119 202.467 218.639V222.783ZM212.374 222.783H210.87V216.223H209.334V214.959H210.87V212.511H212.374V214.959H213.91V216.223H212.374V222.783ZM223.011 225.551H221.763C220.291 223.711 219.315 220.927 219.315 218.031C219.315 215.311 220.195 212.463 221.763 210.527H223.011C221.747 212.287 220.851 215.039 220.851 218.031C220.851 220.863 221.651 223.679 223.011 225.551ZM223.688 214.335C223.688 212.351 225.288 211.007 227.672 211.007C229.88 211.007 231.304 212.239 231.432 214.239H229.848C229.768 213.087 228.952 212.415 227.656 212.415C226.2 212.415 225.256 213.151 225.256 214.287C225.256 215.215 225.784 215.775 226.872 216.031L228.776 216.479C230.664 216.911 231.624 217.935 231.624 219.567C231.624 221.647 230.008 222.975 227.544 222.975C225.192 222.975 223.624 221.743 223.528 219.759H225.128C225.16 220.863 226.088 221.567 227.544 221.567C229.08 221.567 230.056 220.847 230.056 219.695C230.056 218.783 229.56 218.207 228.456 217.951L226.552 217.519C224.664 217.087 223.688 215.999 223.688 214.335ZM238.746 214.959H240.234V222.783H238.89L238.73 221.599C238.282 222.415 237.242 222.975 236.09 222.975C234.266 222.975 233.242 221.743 233.242 219.823V214.959H234.746V219.327C234.746 221.007 235.466 221.647 236.618 221.647C237.994 221.647 238.746 220.767 238.746 219.087V214.959ZM243.152 213.103C242.608 213.103 242.16 212.655 242.16 212.111C242.16 211.551 242.608 211.119 243.152 211.119C243.696 211.119 244.144 211.551 244.144 212.111C244.144 212.655 243.696 213.103 243.152 213.103ZM242.416 222.783V214.959H243.92V222.783H242.416ZM246.42 225.551H245.156C246.516 223.679 247.316 220.863 247.316 218.031C247.316 215.039 246.436 212.287 245.156 210.527H246.42C247.972 212.463 248.852 215.311 248.852 218.031C248.852 220.927 247.876 223.711 246.42 225.551Z" fill="#A0A0A1"/>
<path fill-rule="evenodd" clip-rule="evenodd" d="M32 260.783C36.4183 260.783 40 257.201 40 252.783C40 248.365 36.4183 244.783 32 244.783C27.5817 244.783 24 248.365 24 252.783C24 257.201 27.5817 260.783 32 260.783ZM35.7095 250.446C35.8913 250.238 35.8702 249.922 35.6624 249.74C35.4546 249.558 35.1387 249.579 34.9569 249.787L30.6421 254.718L29.0201 253.096C28.8248 252.901 28.5082 252.901 28.313 253.096C28.1177 253.292 28.1177 253.608 28.313 253.803L30.313 255.803C30.4108 255.901 30.5448 255.954 30.6831 255.95C30.8215 255.945 30.9517 255.883 31.0428 255.779L35.7095 250.446Z" fill="#A0A0A1"/>
<path d="M48.2227 248.655V247.215H56.7507V248.655H53.2787V258.783H51.7107V248.655H48.2227ZM61.598 250.895V252.271H60.926C59.502 252.271 58.622 253.135 58.622 254.639V258.783H57.118V250.975H58.526L58.622 252.159C58.942 251.343 59.726 250.799 60.798 250.799C61.07 250.799 61.294 250.831 61.598 250.895ZM64.9841 258.975C63.3041 258.975 62.3121 258.031 62.3121 256.607C62.3121 255.167 63.3841 254.271 65.2241 254.127L67.6881 253.935V253.711C67.6881 252.399 66.9041 251.935 65.8481 251.935C64.5841 251.935 63.8641 252.495 63.8641 253.439H62.5521C62.5521 251.807 63.8961 250.735 65.9121 250.735C67.8481 250.735 69.1601 251.759 69.1601 253.871V258.783H67.8801L67.7201 257.519C67.3201 258.415 66.2481 258.975 64.9841 258.975ZM65.4161 257.807C66.8401 257.807 67.7041 256.879 67.7041 255.407V254.991L65.7041 255.151C64.3761 255.279 63.8321 255.791 63.8321 256.559C63.8321 257.391 64.4401 257.807 65.4161 257.807ZM72.747 258.783H71.243V250.959H72.603L72.763 252.159C73.259 251.263 74.251 250.735 75.355 250.735C77.419 250.735 78.363 251.999 78.363 253.999V258.783H76.859V254.335C76.859 252.751 76.123 252.111 74.971 252.111C73.563 252.111 72.747 253.119 72.747 254.639V258.783ZM79.7123 256.511H81.1523C81.1523 257.311 81.7603 257.791 82.7523 257.791C83.8083 257.791 84.4163 257.359 84.4163 256.639C84.4163 256.111 84.1603 255.791 83.3443 255.583L81.9683 255.263C80.5763 254.927 79.9203 254.239 79.9203 253.087C79.9203 251.647 81.1363 250.735 82.8643 250.735C84.5763 250.735 85.6963 251.695 85.7283 253.183H84.2883C84.2563 252.399 83.7283 251.903 82.8163 251.903C81.8723 251.903 81.3443 252.319 81.3443 253.039C81.3443 253.567 81.7283 253.919 82.4963 254.111L83.8723 254.447C85.2003 254.767 85.8563 255.375 85.8563 256.543C85.8563 258.031 84.5763 258.975 82.7203 258.975C80.8803 258.975 79.7123 257.999 79.7123 256.511ZM89.8122 258.975C88.1322 258.975 87.1402 258.031 87.1402 256.607C87.1402 255.167 88.2122 254.271 90.0522 254.127L92.5162 253.935V253.711C92.5162 252.399 91.7322 251.935 90.6762 251.935C89.4122 251.935 88.6922 252.495 88.6922 253.439H87.3802C87.3802 251.807 88.7242 250.735 90.7402 250.735C92.6762 250.735 93.9882 251.759 93.9882 253.871V258.783H92.7082L92.5482 257.519C92.1482 258.415 91.0762 258.975 89.8122 258.975ZM90.2442 257.807C91.6682 257.807 92.5322 256.879 92.5322 255.407V254.991L90.5322 255.151C89.2042 255.279 88.6602 255.791 88.6602 256.559C88.6602 257.391 89.2682 257.807 90.2442 257.807ZM95.5591 254.879C95.5591 252.431 97.1111 250.735 99.3991 250.735C101.367 250.735 102.743 251.855 103.015 253.599H101.511C101.255 252.607 100.455 252.079 99.4471 252.079C98.0231 252.079 97.0471 253.167 97.0471 254.863C97.0471 256.543 97.9591 257.631 99.3831 257.631C100.455 257.631 101.255 257.071 101.527 256.143H103.031C102.727 257.839 101.271 258.975 99.3831 258.975C97.0791 258.975 95.5591 257.343 95.5591 254.879ZM106.826 258.783H105.322V252.223H103.786V250.959H105.322V248.511H106.826V250.959H108.362V252.223H106.826V258.783ZM110.448 249.103C109.904 249.103 109.456 248.655 109.456 248.111C109.456 247.551 109.904 247.119 110.448 247.119C110.992 247.119 111.44 247.551 111.44 248.111C111.44 248.655 110.992 249.103 110.448 249.103ZM109.712 258.783V250.959H111.216V258.783H109.712ZM112.888 254.863C112.888 252.447 114.616 250.751 116.968 250.751C119.304 250.751 121.032 252.447 121.032 254.863C121.032 257.279 119.304 258.975 116.968 258.975C114.616 258.975 112.888 257.279 112.888 254.863ZM114.408 254.863C114.408 256.495 115.448 257.631 116.968 257.631C118.472 257.631 119.528 256.495 119.528 254.863C119.528 253.231 118.472 252.095 116.968 252.095C115.448 252.095 114.408 253.231 114.408 254.863ZM124.2 258.783H122.696V250.959H124.056L124.216 252.159C124.712 251.263 125.704 250.735 126.808 250.735C128.872 250.735 129.816 251.999 129.816 253.999V258.783H128.312V254.335C128.312 252.751 127.576 252.111 126.424 252.111C125.016 252.111 124.2 253.119 124.2 254.639V258.783ZM138.099 258.783H136.531V247.215H138.099L144.019 256.159V247.215H145.587V258.783H144.019L138.099 249.839V258.783ZM147.513 254.863C147.513 252.447 149.241 250.751 151.593 250.751C153.929 250.751 155.657 252.447 155.657 254.863C155.657 257.279 153.929 258.975 151.593 258.975C149.241 258.975 147.513 257.279 147.513 254.863ZM149.033 254.863C149.033 256.495 150.073 257.631 151.593 257.631C153.097 257.631 154.153 256.495 154.153 254.863C154.153 253.231 153.097 252.095 151.593 252.095C150.073 252.095 149.033 253.231 149.033 254.863ZM159.451 258.783H157.947V252.223H156.411V250.959H157.947V248.511H159.451V250.959H160.987V252.223H159.451V258.783ZM165.635 258.975C163.331 258.975 161.747 257.311 161.747 254.879C161.747 252.431 163.299 250.735 165.571 250.735C167.795 250.735 169.251 252.271 169.251 254.591V255.151L163.203 255.167C163.315 256.815 164.179 257.727 165.667 257.727C166.835 257.727 167.603 257.247 167.859 256.351H169.267C168.883 258.031 167.571 258.975 165.635 258.975ZM165.571 251.999C164.259 251.999 163.427 252.783 163.235 254.159H167.747C167.747 252.863 166.899 251.999 165.571 251.999ZM170.291 256.511H171.731C171.731 257.311 172.339 257.791 173.331 257.791C174.387 257.791 174.995 257.359 174.995 256.639C174.995 256.111 174.739 255.791 173.923 255.583L172.547 255.263C171.155 254.927 170.499 254.239 170.499 253.087C170.499 251.647 171.715 250.735 173.443 250.735C175.155 250.735 176.275 251.695 176.307 253.183H174.867C174.835 252.399 174.307 251.903 173.395 251.903C172.451 251.903 171.923 252.319 171.923 253.039C171.923 253.567 172.307 253.919 173.075 254.111L174.451 254.447C175.779 254.767 176.435 255.375 176.435 256.543C176.435 258.031 175.155 258.975 173.299 258.975C171.459 258.975 170.291 257.999 170.291 256.511Z" fill="#A0A0A1"/>
</g>
<defs>
<clipPath id="clip0_10312_10550">
<rect width="339" height="288" fill="white" transform="translate(0 0.783203)"/>
</clipPath>
</defs>
</svg>
