<svg width="325" height="288" viewBox="0 0 325 288" fill="none" xmlns="http://www.w3.org/2000/svg">
<rect x="0.5" y="0.5" width="324" height="287" rx="19.5" fill="#252238"/>
<rect x="0.5" y="0.5" width="324" height="287" rx="19.5" stroke="url(#paint0_linear_10085_39752)"/>
<path d="M37.08 46.96L35.52 45.2C34.44 45.86 33.16 46.24 31.74 46.24C27.66 46.24 24.82 43.16 24.82 38.76C24.82 34.38 27.68 31.28 31.76 31.28C35.86 31.28 38.72 34.36 38.72 38.76C38.72 40.92 38.02 42.76 36.84 44.08L38.36 45.8L37.08 46.96ZM36.66 38.76C36.66 35.4 34.7 33.18 31.76 33.18C28.82 33.18 26.88 35.4 26.88 38.76C26.88 42.12 28.82 44.36 31.76 44.36C32.68 44.36 33.5 44.14 34.2 43.72L32.3 41.58L33.58 40.42L35.5 42.58C36.24 41.62 36.66 40.3 36.66 38.76ZM43.2869 33.3H40.2469V31.54H45.1669V46H43.2869V33.3ZM53.5608 41.54V39.86H59.6608V41.54H53.5608ZM77.0628 45.98L67.3028 46V44.5L71.9628 40.48C74.3028 38.46 74.9628 37.48 74.9628 35.94C74.9628 34.12 73.9228 33.04 72.1828 33.04C70.4028 33.04 69.2428 34.34 69.2028 36.4H67.2428C67.3028 33.3 69.2628 31.28 72.2028 31.28C75.1028 31.28 76.9628 33.04 76.9628 35.82C76.9628 37.88 75.9428 39.34 73.3828 41.56L70.3828 44.16H77.0628V45.98ZM78.8667 38.78C78.8667 34.3 81.1867 31.26 84.8267 31.26C88.4467 31.26 90.7667 34.3 90.7667 38.78C90.7667 43.28 88.5467 46.26 84.8267 46.26C81.0867 46.26 78.8667 43.28 78.8667 38.78ZM80.8067 38.78C80.8067 42.34 82.2867 44.5 84.8267 44.5C87.3667 44.5 88.8267 42.34 88.8267 38.78C88.8267 35.18 87.3667 33.02 84.8267 33.02C82.2867 33.02 80.8067 35.18 80.8067 38.78ZM102.434 45.98L92.6739 46V44.5L97.3339 40.48C99.6739 38.46 100.334 37.48 100.334 35.94C100.334 34.12 99.2939 33.04 97.5539 33.04C95.7739 33.04 94.6139 34.34 94.5739 36.4H92.6139C92.6739 33.3 94.6339 31.28 97.5739 31.28C100.474 31.28 102.334 33.04 102.334 35.82C102.334 37.88 101.314 39.34 98.7539 41.56L95.7539 44.16H102.434V45.98ZM108.961 46.24C106.001 46.24 104.081 44.36 104.081 41.48H106.021C106.021 43.34 107.161 44.48 109.001 44.48C110.961 44.48 112.221 43.18 112.221 41.22C112.221 39.36 111.041 37.98 109.021 37.98C107.801 37.98 106.681 38.56 106.021 39.38L104.361 38.96L106.121 31.54H113.361V33.34H107.541L106.581 37.18C107.341 36.6 108.301 36.3 109.381 36.3C112.321 36.3 114.221 38.36 114.221 41.14C114.221 44.14 112.081 46.24 108.961 46.24Z" fill="#F3F3F3"/>
<path fill-rule="evenodd" clip-rule="evenodd" d="M32 92C36.4183 92 40 88.4183 40 84C40 79.5817 36.4183 76 32 76C27.5817 76 24 79.5817 24 84C24 88.4183 27.5817 92 32 92ZM35.7095 81.6627C35.8913 81.4549 35.8702 81.139 35.6624 80.9572C35.4546 80.7754 35.1387 80.7964 34.9569 81.0042L30.6421 85.9354L29.0201 84.3133C28.8248 84.118 28.5082 84.118 28.313 84.3133C28.1177 84.5085 28.1177 84.8251 28.313 85.0204L30.313 87.0204C30.4108 87.1182 30.5448 87.1712 30.6831 87.1666C30.8215 87.1619 30.9517 87.1002 31.0428 86.9961L35.7095 81.6627Z" fill="#A0A0A1"/>
<path d="M48.672 81.552C48.672 79.568 50.272 78.224 52.656 78.224C54.864 78.224 56.288 79.456 56.416 81.456H54.832C54.752 80.304 53.936 79.632 52.64 79.632C51.184 79.632 50.24 80.368 50.24 81.504C50.24 82.432 50.768 82.992 51.856 83.248L53.76 83.696C55.648 84.128 56.608 85.152 56.608 86.784C56.608 88.864 54.992 90.192 52.528 90.192C50.176 90.192 48.608 88.96 48.512 86.976H50.112C50.144 88.08 51.072 88.784 52.528 88.784C54.064 88.784 55.04 88.064 55.04 86.912C55.04 86 54.544 85.424 53.44 85.168L51.536 84.736C49.648 84.304 48.672 83.216 48.672 81.552ZM60.5304 90H59.0264V83.44H57.4904V82.176H59.0264V79.728H60.5304V82.176H62.0664V83.44H60.5304V90ZM65.6104 90.192C63.9304 90.192 62.9384 89.248 62.9384 87.824C62.9384 86.384 64.0104 85.488 65.8504 85.344L68.3144 85.152V84.928C68.3144 83.616 67.5304 83.152 66.4744 83.152C65.2104 83.152 64.4904 83.712 64.4904 84.656H63.1784C63.1784 83.024 64.5224 81.952 66.5384 81.952C68.4744 81.952 69.7864 82.976 69.7864 85.088V90H68.5064L68.3464 88.736C67.9464 89.632 66.8744 90.192 65.6104 90.192ZM66.0424 89.024C67.4664 89.024 68.3304 88.096 68.3304 86.624V86.208L66.3304 86.368C65.0024 86.496 64.4584 87.008 64.4584 87.776C64.4584 88.608 65.0664 89.024 66.0424 89.024ZM73.4053 90H71.9013V78.224H73.4053V85.856L76.8773 82.176H78.7653L75.7733 85.296L78.7493 90H77.0213L74.7333 86.384L73.4053 87.776V90ZM80.7303 80.32C80.1863 80.32 79.7383 79.872 79.7383 79.328C79.7383 78.768 80.1863 78.336 80.7303 78.336C81.2743 78.336 81.7223 78.768 81.7223 79.328C81.7223 79.872 81.2743 80.32 80.7303 80.32ZM79.9943 90V82.176H81.4983V90H79.9943ZM85.1858 90H83.6818V82.176H85.0418L85.2018 83.376C85.6978 82.48 86.6898 81.952 87.7938 81.952C89.8578 81.952 90.8018 83.216 90.8018 85.216V90H89.2978V85.552C89.2978 83.968 88.5618 83.328 87.4098 83.328C86.0018 83.328 85.1858 84.336 85.1858 85.856V90ZM92.3889 85.888C92.3889 83.68 93.8129 81.952 96.0849 81.952C97.3489 81.952 98.3249 82.528 98.8209 83.504L98.9329 82.176H100.277V89.68C100.277 92.144 98.7569 93.712 96.3569 93.712C94.2289 93.712 92.7729 92.512 92.4849 90.528H93.9889C94.1809 91.68 95.0449 92.352 96.3569 92.352C97.8289 92.352 98.7889 91.392 98.7889 89.904V88.336C98.2769 89.248 97.2529 89.792 96.0209 89.792C93.7969 89.792 92.3889 88.08 92.3889 85.888ZM93.8929 85.856C93.8929 87.328 94.8049 88.48 96.2769 88.48C97.7969 88.48 98.7249 87.392 98.7249 85.856C98.7249 84.352 97.8289 83.264 96.2929 83.264C94.7889 83.264 93.8929 84.416 93.8929 85.856ZM107.558 90H105.926L110.15 78.432H111.894L116.134 90H114.486L113.446 87.12H108.582L107.558 90ZM110.822 80.928L109.062 85.76H112.982L111.206 80.928C111.126 80.704 111.046 80.432 111.014 80.256C110.982 80.416 110.902 80.688 110.822 80.928ZM116.78 85.888C116.78 83.68 118.204 81.952 120.476 81.952C121.74 81.952 122.716 82.528 123.212 83.504L123.324 82.176H124.668V89.68C124.668 92.144 123.148 93.712 120.748 93.712C118.62 93.712 117.164 92.512 116.876 90.528H118.38C118.572 91.68 119.436 92.352 120.748 92.352C122.22 92.352 123.18 91.392 123.18 89.904V88.336C122.668 89.248 121.644 89.792 120.411 89.792C118.188 89.792 116.78 88.08 116.78 85.888ZM118.284 85.856C118.284 87.328 119.196 88.48 120.668 88.48C122.188 88.48 123.116 87.392 123.116 85.856C123.116 84.352 122.22 83.264 120.684 83.264C119.18 83.264 118.284 84.416 118.284 85.856ZM126.342 85.888C126.342 83.68 127.766 81.952 130.038 81.952C131.302 81.952 132.278 82.528 132.774 83.504L132.886 82.176H134.23V89.68C134.23 92.144 132.71 93.712 130.31 93.712C128.182 93.712 126.726 92.512 126.438 90.528H127.942C128.134 91.68 128.998 92.352 130.31 92.352C131.782 92.352 132.742 91.392 132.742 89.904V88.336C132.23 89.248 131.206 89.792 129.974 89.792C127.75 89.792 126.342 88.08 126.342 85.888ZM127.846 85.856C127.846 87.328 128.758 88.48 130.23 88.48C131.75 88.48 132.678 87.392 132.678 85.856C132.678 84.352 131.782 83.264 130.246 83.264C128.742 83.264 127.846 84.416 127.846 85.856ZM140.881 82.112V83.488H140.209C138.785 83.488 137.905 84.352 137.905 85.856V90H136.401V82.192H137.809L137.905 83.376C138.225 82.56 139.009 82.016 140.081 82.016C140.353 82.016 140.577 82.048 140.881 82.112ZM145.386 90.192C143.082 90.192 141.498 88.528 141.498 86.096C141.498 83.648 143.05 81.952 145.322 81.952C147.546 81.952 149.002 83.488 149.002 85.808V86.368L142.954 86.384C143.066 88.032 143.93 88.944 145.418 88.944C146.586 88.944 147.354 88.464 147.61 87.568H149.018C148.634 89.248 147.322 90.192 145.386 90.192ZM145.322 83.216C144.01 83.216 143.178 84 142.986 85.376H147.498C147.498 84.08 146.65 83.216 145.322 83.216ZM150.186 85.888C150.186 83.68 151.61 81.952 153.882 81.952C155.146 81.952 156.122 82.528 156.618 83.504L156.73 82.176H158.074V89.68C158.074 92.144 156.554 93.712 154.154 93.712C152.026 93.712 150.57 92.512 150.282 90.528H151.786C151.978 91.68 152.842 92.352 154.154 92.352C155.626 92.352 156.586 91.392 156.586 89.904V88.336C156.074 89.248 155.05 89.792 153.818 89.792C151.594 89.792 150.186 88.08 150.186 85.888ZM151.69 85.856C151.69 87.328 152.602 88.48 154.074 88.48C155.594 88.48 156.522 87.392 156.522 85.856C156.522 84.352 155.626 83.264 154.09 83.264C152.586 83.264 151.69 84.416 151.69 85.856ZM162.532 90.192C160.852 90.192 159.86 89.248 159.86 87.824C159.86 86.384 160.932 85.488 162.772 85.344L165.236 85.152V84.928C165.236 83.616 164.452 83.152 163.396 83.152C162.132 83.152 161.412 83.712 161.412 84.656H160.1C160.1 83.024 161.444 81.952 163.46 81.952C165.396 81.952 166.708 82.976 166.708 85.088V90H165.428L165.268 88.736C164.868 89.632 163.796 90.192 162.532 90.192ZM162.964 89.024C164.388 89.024 165.252 88.096 165.252 86.624V86.208L163.252 86.368C161.924 86.496 161.38 87.008 161.38 87.776C161.38 88.608 161.988 89.024 162.964 89.024ZM170.874 90H169.37V83.44H167.834V82.176H169.37V79.728H170.874V82.176H172.41V83.44H170.874V90ZM173.17 86.08C173.17 83.664 174.898 81.968 177.25 81.968C179.586 81.968 181.314 83.664 181.314 86.08C181.314 88.496 179.586 90.192 177.25 90.192C174.898 90.192 173.17 88.496 173.17 86.08ZM174.69 86.08C174.69 87.712 175.73 88.848 177.25 88.848C178.754 88.848 179.81 87.712 179.81 86.08C179.81 84.448 178.754 83.312 177.25 83.312C175.73 83.312 174.69 84.448 174.69 86.08ZM187.459 82.112V83.488H186.787C185.363 83.488 184.483 84.352 184.483 85.856V90H182.979V82.192H184.387L184.483 83.376C184.803 82.56 185.587 82.016 186.659 82.016C186.931 82.016 187.155 82.048 187.459 82.112ZM196.62 92.768H195.372C193.9 90.928 192.924 88.144 192.924 85.248C192.924 82.528 193.804 79.68 195.372 77.744H196.62C195.356 79.504 194.46 82.256 194.46 85.248C194.46 88.08 195.26 90.896 196.62 92.768ZM199.537 78.432V90H197.969V78.432H199.537ZM207.035 90.176C203.739 90.176 201.547 87.808 201.547 84.224C201.547 80.656 203.803 78.24 207.115 78.24C209.723 78.24 211.723 79.792 212.155 82.16H210.475C210.043 80.656 208.747 79.744 207.067 79.744C204.731 79.744 203.195 81.504 203.195 84.208C203.195 86.912 204.731 88.672 207.067 88.672C208.763 88.672 210.107 87.76 210.539 86.336H212.203C211.707 88.64 209.643 90.176 207.035 90.176ZM218.621 85.872H215.693V90H214.125V78.432H218.621C220.893 78.432 222.349 79.92 222.349 82.144C222.349 84.304 220.877 85.872 218.621 85.872ZM218.349 79.84H215.693V84.464H218.285C219.837 84.464 220.701 83.552 220.701 82.128C220.701 80.672 219.821 79.84 218.349 79.84ZM224.563 89.376C224.563 90.528 223.699 91.488 222.563 91.632V90.96C223.219 90.848 223.683 90.416 223.683 89.92C223.571 89.984 223.443 90.016 223.251 90.016C222.723 90.016 222.275 89.632 222.275 89.04C222.275 88.4 222.707 87.936 223.347 87.936C224.019 87.936 224.563 88.496 224.563 89.376ZM230.688 81.552C230.688 79.568 232.288 78.224 234.672 78.224C236.88 78.224 238.304 79.456 238.432 81.456H236.848C236.768 80.304 235.952 79.632 234.656 79.632C233.2 79.632 232.256 80.368 232.256 81.504C232.256 82.432 232.784 82.992 233.872 83.248L235.776 83.696C237.664 84.128 238.624 85.152 238.624 86.784C238.624 88.864 237.008 90.192 234.544 90.192C232.192 90.192 230.624 88.96 230.528 86.976H232.128C232.16 88.08 233.088 88.784 234.544 88.784C236.08 88.784 237.056 88.064 237.056 86.912C237.056 86 236.56 85.424 235.456 85.168L233.552 84.736C231.664 84.304 230.688 83.216 230.688 81.552ZM247.65 90H240.594V78.432H247.65V79.872H242.162V83.488H247.106V84.88H242.162V88.544H247.65V90ZM251.49 78.432V90H249.922V78.432H251.49ZM254.108 92.768H252.844C254.204 90.896 255.004 88.08 255.004 85.248C255.004 82.256 254.124 79.504 252.844 77.744H254.108C255.66 79.68 256.54 82.528 256.54 85.248C256.54 88.144 255.564 90.928 254.108 92.768Z" fill="#A0A0A1"/>
<path fill-rule="evenodd" clip-rule="evenodd" d="M32 136C36.4183 136 40 132.418 40 128C40 123.582 36.4183 120 32 120C27.5817 120 24 123.582 24 128C24 132.418 27.5817 136 32 136ZM35.7095 125.663C35.8913 125.455 35.8702 125.139 35.6624 124.957C35.4546 124.775 35.1387 124.796 34.9569 125.004L30.6421 129.935L29.0201 128.313C28.8248 128.118 28.5082 128.118 28.313 128.313C28.1177 128.509 28.1177 128.825 28.313 129.02L30.313 131.02C30.4108 131.118 30.5448 131.171 30.6831 131.167C30.8215 131.162 30.9517 131.1 31.0428 130.996L35.7095 125.663Z" fill="#A0A0A1"/>
<path d="M53.168 134H49.344V122.432H53.104C56.56 122.432 58.896 124.768 58.896 128.224C58.896 131.664 56.592 134 53.168 134ZM52.992 123.872H50.912V132.544H53.056C55.632 132.544 57.264 130.88 57.264 128.224C57.264 125.536 55.632 123.872 52.992 123.872ZM64.0109 134.192C61.7069 134.192 60.1229 132.528 60.1229 130.096C60.1229 127.648 61.6749 125.952 63.9469 125.952C66.1709 125.952 67.6269 127.488 67.6269 129.808V130.368L61.5789 130.384C61.6909 132.032 62.5549 132.944 64.0429 132.944C65.2109 132.944 65.9789 132.464 66.2349 131.568H67.6429C67.2589 133.248 65.9469 134.192 64.0109 134.192ZM63.9469 127.216C62.6349 127.216 61.8029 128 61.6109 129.376H66.1229C66.1229 128.08 65.2749 127.216 63.9469 127.216ZM68.6668 131.728H70.1068C70.1068 132.528 70.7148 133.008 71.7068 133.008C72.7628 133.008 73.3708 132.576 73.3708 131.856C73.3708 131.328 73.1148 131.008 72.2988 130.8L70.9228 130.48C69.5308 130.144 68.8748 129.456 68.8748 128.304C68.8748 126.864 70.0908 125.952 71.8188 125.952C73.5308 125.952 74.6508 126.912 74.6828 128.4H73.2428C73.2108 127.616 72.6828 127.12 71.7708 127.12C70.8268 127.12 70.2988 127.536 70.2988 128.256C70.2988 128.784 70.6828 129.136 71.4508 129.328L72.8268 129.664C74.1548 129.984 74.8108 130.592 74.8108 131.76C74.8108 133.248 73.5308 134.192 71.6748 134.192C69.8348 134.192 68.6668 133.216 68.6668 131.728ZM77.2146 124.32C76.6706 124.32 76.2226 123.872 76.2226 123.328C76.2226 122.768 76.6706 122.336 77.2146 122.336C77.7586 122.336 78.2066 122.768 78.2066 123.328C78.2066 123.872 77.7586 124.32 77.2146 124.32ZM76.4786 134V126.176H77.9826V134H76.4786ZM79.6701 129.888C79.6701 127.68 81.0941 125.952 83.3661 125.952C84.6301 125.952 85.6061 126.528 86.1021 127.504L86.2141 126.176H87.5581V133.68C87.5581 136.144 86.0381 137.712 83.6381 137.712C81.5101 137.712 80.0541 136.512 79.7661 134.528H81.2701C81.4621 135.68 82.3261 136.352 83.6381 136.352C85.1101 136.352 86.0701 135.392 86.0701 133.904V132.336C85.5581 133.248 84.5341 133.792 83.3021 133.792C81.0781 133.792 79.6701 132.08 79.6701 129.888ZM81.1741 129.856C81.1741 131.328 82.0861 132.48 83.5581 132.48C85.0781 132.48 86.0061 131.392 86.0061 129.856C86.0061 128.352 85.1101 127.264 83.5741 127.264C82.0701 127.264 81.1741 128.416 81.1741 129.856ZM95.8956 134H94.3596V122.432H95.8956L99.8796 132.16L103.864 122.432H105.432V134H103.896V129.424C103.896 127.264 103.912 126.48 103.992 125.664L100.616 134H99.1436L95.7836 125.696C95.8636 126.256 95.8956 127.44 95.8956 129.056V134ZM112.621 129.872H109.693V134H108.125V122.432H112.621C114.893 122.432 116.349 123.92 116.349 126.144C116.349 128.304 114.877 129.872 112.621 129.872ZM112.349 123.84H109.693V128.464H112.285C113.837 128.464 114.701 127.552 114.701 126.128C114.701 124.672 113.821 123.84 112.349 123.84ZM122.925 134.176C119.629 134.176 117.437 131.808 117.437 128.224C117.437 124.656 119.693 122.24 123.005 122.24C125.613 122.24 127.613 123.792 128.045 126.16H126.365C125.933 124.656 124.637 123.744 122.957 123.744C120.621 123.744 119.085 125.504 119.085 128.208C119.085 130.912 120.621 132.672 122.957 132.672C124.653 132.672 125.997 131.76 126.429 130.336H128.093C127.597 132.64 125.533 134.176 122.925 134.176ZM138.215 134H134.391V122.432H138.151C141.607 122.432 143.943 124.768 143.943 128.224C143.943 131.664 141.639 134 138.215 134ZM138.039 123.872H135.959V132.544H138.103C140.679 132.544 142.311 130.88 142.311 128.224C142.311 125.536 140.679 123.872 138.039 123.872ZM149.058 134.192C146.754 134.192 145.17 132.528 145.17 130.096C145.17 127.648 146.722 125.952 148.994 125.952C151.218 125.952 152.674 127.488 152.674 129.808V130.368L146.626 130.384C146.738 132.032 147.602 132.944 149.09 132.944C150.258 132.944 151.026 132.464 151.282 131.568H152.69C152.306 133.248 150.994 134.192 149.058 134.192ZM148.994 127.216C147.682 127.216 146.85 128 146.658 129.376H151.17C151.17 128.08 150.322 127.216 148.994 127.216ZM153.842 130.096C153.842 127.648 155.394 125.952 157.682 125.952C159.65 125.952 161.026 127.072 161.298 128.816H159.794C159.538 127.824 158.738 127.296 157.73 127.296C156.306 127.296 155.33 128.384 155.33 130.08C155.33 131.76 156.242 132.848 157.666 132.848C158.738 132.848 159.538 132.288 159.81 131.36H161.314C161.01 133.056 159.554 134.192 157.666 134.192C155.362 134.192 153.842 132.56 153.842 130.096ZM166.277 134.192C163.973 134.192 162.389 132.528 162.389 130.096C162.389 127.648 163.941 125.952 166.213 125.952C168.437 125.952 169.892 127.488 169.892 129.808V130.368L163.845 130.384C163.957 132.032 164.821 132.944 166.309 132.944C167.477 132.944 168.245 132.464 168.501 131.568H169.909C169.525 133.248 168.213 134.192 166.277 134.192ZM166.213 127.216C164.901 127.216 164.069 128 163.877 129.376H168.389C168.389 128.08 167.541 127.216 166.213 127.216ZM173.076 134H171.572V126.176H172.932L173.092 127.376C173.588 126.48 174.58 125.952 175.684 125.952C177.748 125.952 178.692 127.216 178.692 129.216V134H177.188V129.552C177.188 127.968 176.452 127.328 175.3 127.328C173.892 127.328 173.076 128.336 173.076 129.856V134ZM182.984 134H181.48V127.44H179.944V126.176H181.48V123.728H182.984V126.176H184.52V127.44H182.984V134ZM190.349 126.112V127.488H189.677C188.253 127.488 187.373 128.352 187.373 129.856V134H185.869V126.192H187.277L187.373 127.376C187.693 126.56 188.477 126.016 189.549 126.016C189.821 126.016 190.045 126.048 190.349 126.112ZM193.735 134.192C192.055 134.192 191.063 133.248 191.063 131.824C191.063 130.384 192.135 129.488 193.975 129.344L196.439 129.152V128.928C196.439 127.616 195.655 127.152 194.599 127.152C193.335 127.152 192.615 127.712 192.615 128.656H191.303C191.303 127.024 192.647 125.952 194.663 125.952C196.599 125.952 197.911 126.976 197.911 129.088V134H196.631L196.471 132.736C196.071 133.632 194.999 134.192 193.735 134.192ZM194.167 133.024C195.591 133.024 196.455 132.096 196.455 130.624V130.208L194.455 130.368C193.127 130.496 192.583 131.008 192.583 131.776C192.583 132.608 193.191 133.024 194.167 133.024ZM201.53 134H200.026V122.224H201.53V134ZM204.48 124.32C203.936 124.32 203.488 123.872 203.488 123.328C203.488 122.768 203.936 122.336 204.48 122.336C205.024 122.336 205.472 122.768 205.472 123.328C205.472 123.872 205.024 124.32 204.48 124.32ZM203.744 134V126.176H205.248V134H203.744ZM213.048 134H206.952V132.784L211.176 127.44H206.952V126.176H213.048V127.408L208.792 132.736H213.048V134ZM217.948 134.192C215.644 134.192 214.06 132.528 214.06 130.096C214.06 127.648 215.612 125.952 217.884 125.952C220.108 125.952 221.564 127.488 221.564 129.808V130.368L215.516 130.384C215.628 132.032 216.492 132.944 217.98 132.944C219.148 132.944 219.916 132.464 220.172 131.568H221.58C221.196 133.248 219.884 134.192 217.948 134.192ZM217.884 127.216C216.572 127.216 215.74 128 215.548 129.376H220.06C220.06 128.08 219.212 127.216 217.884 127.216ZM226.38 134.192C224.108 134.192 222.732 132.496 222.732 130.112C222.732 127.712 224.124 125.952 226.444 125.952C227.644 125.952 228.652 126.48 229.18 127.44V122.224H230.668V134H229.324L229.196 132.576C228.684 133.648 227.628 134.192 226.38 134.192ZM226.684 132.832C228.22 132.832 229.164 131.696 229.164 130.064C229.164 128.464 228.22 127.312 226.684 127.312C225.148 127.312 224.252 128.464 224.252 130.064C224.252 131.68 225.148 132.832 226.684 132.832ZM239.037 134H237.469V122.432H239.037L244.957 131.376V122.432H246.525V134H244.957L239.037 125.056V134ZM252.339 134.192C250.035 134.192 248.451 132.528 248.451 130.096C248.451 127.648 250.003 125.952 252.275 125.952C254.499 125.952 255.955 127.488 255.955 129.808V130.368L249.907 130.384C250.019 132.032 250.883 132.944 252.371 132.944C253.539 132.944 254.307 132.464 254.563 131.568H255.971C255.587 133.248 254.275 134.192 252.339 134.192ZM252.275 127.216C250.963 127.216 250.131 128 249.939 129.376H254.451C254.451 128.08 253.603 127.216 252.275 127.216ZM259.765 134H258.261V127.44H256.725V126.176H258.261V123.728H259.765V126.176H261.301V127.44H259.765V134ZM264.331 134L261.771 126.176H263.323L264.619 130.24C264.795 130.816 264.955 131.408 265.099 132.096C265.227 131.408 265.435 130.752 265.611 130.24L266.923 126.176H268.459L269.755 130.24C269.883 130.624 270.139 131.536 270.267 132.096C270.395 131.472 270.539 130.928 270.763 130.24L272.075 126.176H273.643L270.97 134H269.547L268.187 129.808C267.931 129.024 267.771 128.416 267.691 127.984C267.611 128.368 267.467 128.88 267.179 129.824L265.819 134H264.331ZM274.06 130.08C274.06 127.664 275.788 125.968 278.14 125.968C280.476 125.968 282.204 127.664 282.204 130.08C282.204 132.496 280.476 134.192 278.14 134.192C275.788 134.192 274.06 132.496 274.06 130.08ZM275.58 130.08C275.58 131.712 276.62 132.848 278.14 132.848C279.644 132.848 280.7 131.712 280.7 130.08C280.7 128.448 279.644 127.312 278.14 127.312C276.62 127.312 275.58 128.448 275.58 130.08ZM288.349 126.112V127.488H287.677C286.253 127.488 285.373 128.352 285.373 129.856V134H283.869V126.192H285.277L285.373 127.376C285.693 126.56 286.477 126.016 287.549 126.016C287.821 126.016 288.045 126.048 288.349 126.112ZM291.296 134H289.792V122.224H291.296V129.856L294.768 126.176H296.656L293.664 129.296L296.64 134H294.912L292.624 130.384L291.296 131.776V134Z" fill="#A0A0A1"/>
<defs>
<linearGradient id="paint0_linear_10085_39752" x1="0" y1="288" x2="375.413" y2="186.548" gradientUnits="userSpaceOnUse">
<stop stop-color="white" stop-opacity="0.1"/>
<stop offset="1" stop-color="white" stop-opacity="0.05"/>
<stop offset="1" stop-color="white" stop-opacity="0.05"/>
</linearGradient>
</defs>
</svg>
