<svg width="344" height="278" viewBox="0 0 344 278" fill="none" xmlns="http://www.w3.org/2000/svg">
<rect x="0.5" y="0.5" width="343" height="227" rx="19.5" fill="#252238"/>
<rect x="0.5" y="0.5" width="343" height="227" rx="19.5" stroke="url(#paint0_linear_10085_39697)"/>
<path d="M37.08 46.96L35.52 45.2C34.44 45.86 33.16 46.24 31.74 46.24C27.66 46.24 24.82 43.16 24.82 38.76C24.82 34.38 27.68 31.28 31.76 31.28C35.86 31.28 38.72 34.36 38.72 38.76C38.72 40.92 38.02 42.76 36.84 44.08L38.36 45.8L37.08 46.96ZM36.66 38.76C36.66 35.4 34.7 33.18 31.76 33.18C28.82 33.18 26.88 35.4 26.88 38.76C26.88 42.12 28.82 44.36 31.76 44.36C32.68 44.36 33.5 44.14 34.2 43.72L32.3 41.58L33.58 40.42L35.5 42.58C36.24 41.62 36.66 40.3 36.66 38.76ZM50.2269 45.98L40.4669 46V44.5L45.1269 40.48C47.4669 38.46 48.1269 37.48 48.1269 35.94C48.1269 34.12 47.0869 33.04 45.3469 33.04C43.5669 33.04 42.4069 34.34 42.3669 36.4H40.4069C40.4669 33.3 42.4269 31.28 45.3669 31.28C48.2669 31.28 50.1269 33.04 50.1269 35.82C50.1269 37.88 49.1069 39.34 46.5469 41.56L43.5469 44.16H50.2269V45.98ZM57.7795 41.54V39.86H63.8795V41.54H57.7795ZM81.2816 45.98L71.5216 46V44.5L76.1816 40.48C78.5216 38.46 79.1816 37.48 79.1816 35.94C79.1816 34.12 78.1416 33.04 76.4016 33.04C74.6216 33.04 73.4616 34.34 73.4216 36.4H71.4616C71.5216 33.3 73.4816 31.28 76.4216 31.28C79.3216 31.28 81.1816 33.04 81.1816 35.82C81.1816 37.88 80.1616 39.34 77.6016 41.56L74.6016 44.16H81.2816V45.98ZM83.0855 38.78C83.0855 34.3 85.4055 31.26 89.0455 31.26C92.6655 31.26 94.9855 34.3 94.9855 38.78C94.9855 43.28 92.7655 46.26 89.0455 46.26C85.3055 46.26 83.0855 43.28 83.0855 38.78ZM85.0255 38.78C85.0255 42.34 86.5055 44.5 89.0455 44.5C91.5855 44.5 93.0455 42.34 93.0455 38.78C93.0455 35.18 91.5855 33.02 89.0455 33.02C86.5055 33.02 85.0255 35.18 85.0255 38.78ZM106.653 45.98L96.8927 46V44.5L101.553 40.48C103.893 38.46 104.553 37.48 104.553 35.94C104.553 34.12 103.513 33.04 101.773 33.04C99.9927 33.04 98.8327 34.34 98.7927 36.4H96.8327C96.8927 33.3 98.8527 31.28 101.793 31.28C104.693 31.28 106.553 33.04 106.553 35.82C106.553 37.88 105.533 39.34 102.973 41.56L99.9727 44.16H106.653V45.98ZM118.846 43.08H117.126V46H115.246V43.08H107.766V41.34L114.586 31.54H117.126V41.34H118.846V43.08ZM109.886 41.34H115.246V33.62L109.886 41.34Z" fill="#F3F3F3"/>
<path fill-rule="evenodd" clip-rule="evenodd" d="M32 92C36.4183 92 40 88.4183 40 84C40 79.5817 36.4183 76 32 76C27.5817 76 24 79.5817 24 84C24 88.4183 27.5817 92 32 92ZM35.7095 81.6627C35.8913 81.4549 35.8702 81.139 35.6624 80.9572C35.4546 80.7754 35.1387 80.7964 34.9569 81.0042L30.6421 85.9354L29.0201 84.3133C28.8248 84.118 28.5082 84.118 28.313 84.3133C28.1177 84.5085 28.1177 84.8251 28.313 85.0204L30.313 87.0204C30.4108 87.1182 30.5448 87.1712 30.6831 87.1666C30.8215 87.1619 30.9517 87.1002 31.0428 86.9961L35.7095 81.6627Z" fill="#A0A0A1"/>
<path d="M50.912 90H49.344V78.432H53.712C56.192 78.432 57.664 79.744 57.664 81.904C57.664 83.504 56.864 84.656 55.424 85.12L57.776 90H56.032L53.872 85.424H50.912V90ZM50.912 79.84V84.032H53.728C55.184 84.032 56.016 83.248 56.016 81.92C56.016 80.576 55.152 79.84 53.712 79.84H50.912ZM62.3703 90.192C60.0663 90.192 58.4823 88.528 58.4823 86.096C58.4823 83.648 60.0343 81.952 62.3063 81.952C64.5303 81.952 65.9862 83.488 65.9862 85.808V86.368L59.9383 86.384C60.0503 88.032 60.9143 88.944 62.4023 88.944C63.5703 88.944 64.3383 88.464 64.5943 87.568H66.0023C65.6183 89.248 64.3063 90.192 62.3703 90.192ZM62.3063 83.216C60.9943 83.216 60.1623 84 59.9703 85.376H64.4823C64.4823 84.08 63.6343 83.216 62.3063 83.216ZM67.5861 86.432V85.088H72.4661V86.432H67.5861ZM73.8543 87.728H75.2943C75.2943 88.528 75.9023 89.008 76.8943 89.008C77.9503 89.008 78.5583 88.576 78.5583 87.856C78.5583 87.328 78.3023 87.008 77.4863 86.8L76.1103 86.48C74.7183 86.144 74.0623 85.456 74.0623 84.304C74.0623 82.864 75.2783 81.952 77.0063 81.952C78.7183 81.952 79.8383 82.912 79.8703 84.4H78.4303C78.3983 83.616 77.8703 83.12 76.9583 83.12C76.0143 83.12 75.4863 83.536 75.4863 84.256C75.4863 84.784 75.8703 85.136 76.6383 85.328L78.0143 85.664C79.3423 85.984 79.9983 86.592 79.9983 87.76C79.9983 89.248 78.7183 90.192 76.8623 90.192C75.0223 90.192 73.8543 89.216 73.8543 87.728ZM83.8741 90H82.3701V83.44H80.8341V82.176H82.3701V79.728H83.8741V82.176H85.4101V83.44H83.8741V90ZM88.9541 90.192C87.2741 90.192 86.2821 89.248 86.2821 87.824C86.2821 86.384 87.3541 85.488 89.1941 85.344L91.6581 85.152V84.928C91.6581 83.616 90.8741 83.152 89.8181 83.152C88.5541 83.152 87.8341 83.712 87.8341 84.656H86.5221C86.5221 83.024 87.8661 81.952 89.8821 81.952C91.8181 81.952 93.1301 82.976 93.1301 85.088V90H91.8501L91.6901 88.736C91.2901 89.632 90.2181 90.192 88.9541 90.192ZM89.3861 89.024C90.8101 89.024 91.6741 88.096 91.6741 86.624V86.208L89.6741 86.368C88.3461 86.496 87.8021 87.008 87.8021 87.776C87.8021 88.608 88.4101 89.024 89.3861 89.024ZM96.749 90H95.245V78.224H96.749V85.856L100.221 82.176H102.109L99.117 85.296L102.093 90H100.365L98.077 86.384L96.749 87.776V90ZM104.074 80.32C103.53 80.32 103.082 79.872 103.082 79.328C103.082 78.768 103.53 78.336 104.074 78.336C104.618 78.336 105.066 78.768 105.066 79.328C105.066 79.872 104.618 80.32 104.074 80.32ZM103.338 90V82.176H104.842V90H103.338ZM108.53 90H107.026V82.176H108.386L108.546 83.376C109.042 82.48 110.034 81.952 111.138 81.952C113.202 81.952 114.146 83.216 114.146 85.216V90H112.642V85.552C112.642 83.968 111.906 83.328 110.754 83.328C109.346 83.328 108.53 84.336 108.53 85.856V90ZM115.733 85.888C115.733 83.68 117.157 81.952 119.429 81.952C120.693 81.952 121.669 82.528 122.165 83.504L122.277 82.176H123.621V89.68C123.621 92.144 122.101 93.712 119.701 93.712C117.573 93.712 116.117 92.512 115.829 90.528H117.333C117.525 91.68 118.389 92.352 119.701 92.352C121.173 92.352 122.133 91.392 122.133 89.904V88.336C121.621 89.248 120.597 89.792 119.365 89.792C117.141 89.792 115.733 88.08 115.733 85.888ZM117.237 85.856C117.237 87.328 118.149 88.48 119.621 88.48C121.141 88.48 122.069 87.392 122.069 85.856C122.069 84.352 121.173 83.264 119.637 83.264C118.133 83.264 117.237 84.416 117.237 85.856ZM133.542 92.768H132.294C130.822 90.928 129.846 88.144 129.846 85.248C129.846 82.528 130.726 79.68 132.294 77.744H133.542C132.278 79.504 131.382 82.256 131.382 85.248C131.382 88.08 132.182 90.896 133.542 92.768ZM141.947 90H134.891V78.432H141.947V79.872H136.459V83.488H141.403V84.88H136.459V88.544H141.947V90ZM143.099 79.872V78.432H151.627V79.872H148.155V90H146.587V79.872H143.099ZM154.771 90H153.203V78.432H154.771V83.408H160.499V78.432H162.067V90H160.499V84.864H154.771V90ZM164.67 92.768H163.406C164.766 90.896 165.566 88.08 165.566 85.248C165.566 82.256 164.686 79.504 163.406 77.744H164.67C166.222 79.68 167.102 82.528 167.102 85.248C167.102 88.144 166.126 90.928 164.67 92.768Z" fill="#A0A0A1"/>
<path fill-rule="evenodd" clip-rule="evenodd" d="M32 128C36.4183 128 40 124.418 40 120C40 115.582 36.4183 112 32 112C27.5817 112 24 115.582 24 120C24 124.418 27.5817 128 32 128ZM35.7095 117.663C35.8913 117.455 35.8702 117.139 35.6624 116.957C35.4546 116.775 35.1387 116.796 34.9569 117.004L30.6421 121.935L29.0201 120.313C28.8248 120.118 28.5082 120.118 28.313 120.313C28.1177 120.509 28.1177 120.825 28.313 121.02L30.313 123.02C30.4108 123.118 30.5448 123.171 30.6831 123.167C30.8215 123.162 30.9517 123.1 31.0428 122.996L35.7095 117.663Z" fill="#A0A0A1"/>
<path d="M48.672 117.552C48.672 115.568 50.272 114.224 52.656 114.224C54.864 114.224 56.288 115.456 56.416 117.456H54.832C54.752 116.304 53.936 115.632 52.64 115.632C51.184 115.632 50.24 116.368 50.24 117.504C50.24 118.432 50.768 118.992 51.856 119.248L53.76 119.696C55.648 120.128 56.608 121.152 56.608 122.784C56.608 124.864 54.992 126.192 52.528 126.192C50.176 126.192 48.608 124.96 48.512 122.976H50.112C50.144 124.08 51.072 124.784 52.528 124.784C54.064 124.784 55.04 124.064 55.04 122.912C55.04 122 54.544 121.424 53.44 121.168L51.536 120.736C49.648 120.304 48.672 119.216 48.672 117.552ZM60.5304 126H59.0264V119.44H57.4904V118.176H59.0264V115.728H60.5304V118.176H62.0664V119.44H60.5304V126ZM65.6104 126.192C63.9304 126.192 62.9384 125.248 62.9384 123.824C62.9384 122.384 64.0104 121.488 65.8504 121.344L68.3144 121.152V120.928C68.3144 119.616 67.5304 119.152 66.4744 119.152C65.2104 119.152 64.4904 119.712 64.4904 120.656H63.1784C63.1784 119.024 64.5224 117.952 66.5384 117.952C68.4744 117.952 69.7864 118.976 69.7864 121.088V126H68.5064L68.3464 124.736C67.9464 125.632 66.8744 126.192 65.6104 126.192ZM66.0424 125.024C67.4664 125.024 68.3304 124.096 68.3304 122.624V122.208L66.3304 122.368C65.0024 122.496 64.4584 123.008 64.4584 123.776C64.4584 124.608 65.0664 125.024 66.0424 125.024ZM73.4053 126H71.9013V114.224H73.4053V121.856L76.8773 118.176H78.7653L75.7733 121.296L78.7493 126H77.0213L74.7333 122.384L73.4053 123.776V126ZM80.7303 116.32C80.1863 116.32 79.7383 115.872 79.7383 115.328C79.7383 114.768 80.1863 114.336 80.7303 114.336C81.2743 114.336 81.7223 114.768 81.7223 115.328C81.7223 115.872 81.2743 116.32 80.7303 116.32ZM79.9943 126V118.176H81.4983V126H79.9943ZM85.1858 126H83.6818V118.176H85.0418L85.2018 119.376C85.6978 118.48 86.6898 117.952 87.7938 117.952C89.8578 117.952 90.8018 119.216 90.8018 121.216V126H89.2978V121.552C89.2978 119.968 88.5618 119.328 87.4098 119.328C86.0018 119.328 85.1858 120.336 85.1858 121.856V126ZM92.3889 121.888C92.3889 119.68 93.8129 117.952 96.0849 117.952C97.3489 117.952 98.3249 118.528 98.8209 119.504L98.9329 118.176H100.277V125.68C100.277 128.144 98.7569 129.712 96.3569 129.712C94.2289 129.712 92.7729 128.512 92.4849 126.528H93.9889C94.1809 127.68 95.0449 128.352 96.3569 128.352C97.8289 128.352 98.7889 127.392 98.7889 125.904V124.336C98.2769 125.248 97.2529 125.792 96.0209 125.792C93.7969 125.792 92.3889 124.08 92.3889 121.888ZM93.8929 121.856C93.8929 123.328 94.8049 124.48 96.2769 124.48C97.7969 124.48 98.7249 123.392 98.7249 121.856C98.7249 120.352 97.8289 119.264 96.2929 119.264C94.7889 119.264 93.8929 120.416 93.8929 121.856ZM107.558 126H105.926L110.15 114.432H111.894L116.134 126H114.486L113.446 123.12H108.582L107.558 126ZM110.822 116.928L109.062 121.76H112.982L111.206 116.928C111.126 116.704 111.046 116.432 111.014 116.256C110.982 116.416 110.902 116.688 110.822 116.928ZM116.78 121.888C116.78 119.68 118.204 117.952 120.476 117.952C121.74 117.952 122.716 118.528 123.212 119.504L123.324 118.176H124.668V125.68C124.668 128.144 123.148 129.712 120.748 129.712C118.62 129.712 117.164 128.512 116.876 126.528H118.38C118.572 127.68 119.436 128.352 120.748 128.352C122.22 128.352 123.18 127.392 123.18 125.904V124.336C122.668 125.248 121.644 125.792 120.411 125.792C118.188 125.792 116.78 124.08 116.78 121.888ZM118.284 121.856C118.284 123.328 119.196 124.48 120.668 124.48C122.188 124.48 123.116 123.392 123.116 121.856C123.116 120.352 122.22 119.264 120.684 119.264C119.18 119.264 118.284 120.416 118.284 121.856ZM126.342 121.888C126.342 119.68 127.766 117.952 130.038 117.952C131.302 117.952 132.278 118.528 132.774 119.504L132.886 118.176H134.23V125.68C134.23 128.144 132.71 129.712 130.31 129.712C128.182 129.712 126.726 128.512 126.438 126.528H127.942C128.134 127.68 128.998 128.352 130.31 128.352C131.782 128.352 132.742 127.392 132.742 125.904V124.336C132.23 125.248 131.206 125.792 129.974 125.792C127.75 125.792 126.342 124.08 126.342 121.888ZM127.846 121.856C127.846 123.328 128.758 124.48 130.23 124.48C131.75 124.48 132.678 123.392 132.678 121.856C132.678 120.352 131.782 119.264 130.246 119.264C128.742 119.264 127.846 120.416 127.846 121.856ZM140.881 118.112V119.488H140.209C138.785 119.488 137.905 120.352 137.905 121.856V126H136.401V118.192H137.809L137.905 119.376C138.225 118.56 139.009 118.016 140.081 118.016C140.353 118.016 140.577 118.048 140.881 118.112ZM145.386 126.192C143.082 126.192 141.498 124.528 141.498 122.096C141.498 119.648 143.05 117.952 145.322 117.952C147.546 117.952 149.002 119.488 149.002 121.808V122.368L142.954 122.384C143.066 124.032 143.93 124.944 145.418 124.944C146.586 124.944 147.354 124.464 147.61 123.568H149.018C148.634 125.248 147.322 126.192 145.386 126.192ZM145.322 119.216C144.01 119.216 143.178 120 142.986 121.376H147.498C147.498 120.08 146.65 119.216 145.322 119.216ZM150.186 121.888C150.186 119.68 151.61 117.952 153.882 117.952C155.146 117.952 156.122 118.528 156.618 119.504L156.73 118.176H158.074V125.68C158.074 128.144 156.554 129.712 154.154 129.712C152.026 129.712 150.57 128.512 150.282 126.528H151.786C151.978 127.68 152.842 128.352 154.154 128.352C155.626 128.352 156.586 127.392 156.586 125.904V124.336C156.074 125.248 155.05 125.792 153.818 125.792C151.594 125.792 150.186 124.08 150.186 121.888ZM151.69 121.856C151.69 123.328 152.602 124.48 154.074 124.48C155.594 124.48 156.522 123.392 156.522 121.856C156.522 120.352 155.626 119.264 154.09 119.264C152.586 119.264 151.69 120.416 151.69 121.856ZM162.532 126.192C160.852 126.192 159.86 125.248 159.86 123.824C159.86 122.384 160.932 121.488 162.772 121.344L165.236 121.152V120.928C165.236 119.616 164.452 119.152 163.396 119.152C162.132 119.152 161.412 119.712 161.412 120.656H160.1C160.1 119.024 161.444 117.952 163.46 117.952C165.396 117.952 166.708 118.976 166.708 121.088V126H165.428L165.268 124.736C164.868 125.632 163.796 126.192 162.532 126.192ZM162.964 125.024C164.388 125.024 165.252 124.096 165.252 122.624V122.208L163.252 122.368C161.924 122.496 161.38 123.008 161.38 123.776C161.38 124.608 161.988 125.024 162.964 125.024ZM170.874 126H169.37V119.44H167.834V118.176H169.37V115.728H170.874V118.176H172.41V119.44H170.874V126ZM173.17 122.08C173.17 119.664 174.898 117.968 177.25 117.968C179.586 117.968 181.314 119.664 181.314 122.08C181.314 124.496 179.586 126.192 177.25 126.192C174.898 126.192 173.17 124.496 173.17 122.08ZM174.69 122.08C174.69 123.712 175.73 124.848 177.25 124.848C178.754 124.848 179.81 123.712 179.81 122.08C179.81 120.448 178.754 119.312 177.25 119.312C175.73 119.312 174.69 120.448 174.69 122.08ZM187.459 118.112V119.488H186.787C185.363 119.488 184.483 120.352 184.483 121.856V126H182.979V118.192H184.387L184.483 119.376C184.803 118.56 185.587 118.016 186.659 118.016C186.931 118.016 187.155 118.048 187.459 118.112ZM196.62 128.768H195.372C193.9 126.928 192.924 124.144 192.924 121.248C192.924 118.528 193.804 115.68 195.372 113.744H196.62C195.356 115.504 194.46 118.256 194.46 121.248C194.46 124.08 195.26 126.896 196.62 128.768ZM197.297 117.552C197.297 115.568 198.897 114.224 201.281 114.224C203.489 114.224 204.913 115.456 205.041 117.456H203.457C203.377 116.304 202.561 115.632 201.265 115.632C199.809 115.632 198.865 116.368 198.865 117.504C198.865 118.432 199.393 118.992 200.481 119.248L202.385 119.696C204.273 120.128 205.233 121.152 205.233 122.784C205.233 124.864 203.617 126.192 201.153 126.192C198.801 126.192 197.233 124.96 197.137 122.976H198.737C198.769 124.08 199.697 124.784 201.153 124.784C202.689 124.784 203.665 124.064 203.665 122.912C203.665 122 203.169 121.424 202.065 121.168L200.161 120.736C198.273 120.304 197.297 119.216 197.297 117.552ZM206.435 122.08C206.435 119.664 208.163 117.968 210.515 117.968C212.851 117.968 214.579 119.664 214.579 122.08C214.579 124.496 212.851 126.192 210.515 126.192C208.163 126.192 206.435 124.496 206.435 122.08ZM207.955 122.08C207.955 123.712 208.995 124.848 210.515 124.848C212.019 124.848 213.075 123.712 213.075 122.08C213.075 120.448 212.019 119.312 210.515 119.312C208.995 119.312 207.955 120.448 207.955 122.08ZM217.78 126H216.276V114.224H217.78V126ZM222.282 126.192C220.602 126.192 219.61 125.248 219.61 123.824C219.61 122.384 220.682 121.488 222.522 121.344L224.986 121.152V120.928C224.986 119.616 224.202 119.152 223.146 119.152C221.882 119.152 221.162 119.712 221.162 120.656H219.85C219.85 119.024 221.194 117.952 223.21 117.952C225.146 117.952 226.458 118.976 226.458 121.088V126H225.178L225.018 124.736C224.618 125.632 223.546 126.192 222.282 126.192ZM222.714 125.024C224.138 125.024 225.002 124.096 225.002 122.624V122.208L223.002 122.368C221.674 122.496 221.13 123.008 221.13 123.776C221.13 124.608 221.738 125.024 222.714 125.024ZM230.045 126H228.541V118.176H229.901L230.061 119.376C230.557 118.48 231.549 117.952 232.653 117.952C234.717 117.952 235.661 119.216 235.661 121.216V126H234.157V121.552C234.157 119.968 233.421 119.328 232.269 119.328C230.861 119.328 230.045 120.336 230.045 121.856V126ZM240.032 126.192C238.352 126.192 237.36 125.248 237.36 123.824C237.36 122.384 238.432 121.488 240.272 121.344L242.736 121.152V120.928C242.736 119.616 241.952 119.152 240.896 119.152C239.632 119.152 238.912 119.712 238.912 120.656H237.6C237.6 119.024 238.944 117.952 240.96 117.952C242.896 117.952 244.208 118.976 244.208 121.088V126H242.928L242.768 124.736C242.368 125.632 241.296 126.192 240.032 126.192ZM240.464 125.024C241.888 125.024 242.752 124.096 242.752 122.624V122.208L240.752 122.368C239.424 122.496 238.88 123.008 238.88 123.776C238.88 124.608 239.488 125.024 240.464 125.024ZM248.547 125.376C248.547 126.528 247.683 127.488 246.547 127.632V126.96C247.203 126.848 247.667 126.416 247.667 125.92C247.555 125.984 247.427 126.016 247.235 126.016C246.707 126.016 246.259 125.632 246.259 125.04C246.259 124.4 246.691 123.936 247.331 123.936C248.003 123.936 248.547 124.496 248.547 125.376ZM255.824 126H254.192L258.416 114.432H260.16L264.4 126H262.752L261.712 123.12H256.848L255.824 126ZM259.088 116.928L257.328 121.76H261.248L259.472 116.928C259.392 116.704 259.312 116.432 259.28 116.256C259.248 116.416 259.168 116.688 259.088 116.928ZM265.682 129.504V118.176H267.042L267.154 119.584C267.682 118.512 268.738 117.952 269.986 117.952C272.226 117.952 273.618 119.632 273.618 122.032C273.618 124.416 272.306 126.208 269.986 126.208C268.738 126.208 267.698 125.68 267.186 124.72V129.504H265.682ZM267.202 122.096C267.202 123.696 268.13 124.848 269.666 124.848C271.202 124.848 272.114 123.696 272.114 122.096C272.114 120.48 271.202 119.328 269.666 119.328C268.13 119.328 267.202 120.464 267.202 122.096ZM277.405 126H275.901V119.44H274.365V118.176H275.901V115.728H277.405V118.176H278.941V119.44H277.405V126ZM279.701 122.08C279.701 119.664 281.429 117.968 283.781 117.968C286.117 117.968 287.845 119.664 287.845 122.08C287.845 124.496 286.117 126.192 283.781 126.192C281.429 126.192 279.701 124.496 279.701 122.08ZM281.221 122.08C281.221 123.712 282.261 124.848 283.781 124.848C285.285 124.848 286.341 123.712 286.341 122.08C286.341 120.448 285.285 119.312 283.781 119.312C282.261 119.312 281.221 120.448 281.221 122.08ZM288.87 123.728H290.31C290.31 124.528 290.918 125.008 291.91 125.008C292.966 125.008 293.574 124.576 293.574 123.856C293.574 123.328 293.318 123.008 292.502 122.8L291.126 122.48C289.734 122.144 289.078 121.456 289.078 120.304C289.078 118.864 290.294 117.952 292.022 117.952C293.734 117.952 294.854 118.912 294.886 120.4H293.446C293.414 119.616 292.886 119.12 291.974 119.12C291.03 119.12 290.502 119.536 290.502 120.256C290.502 120.784 290.886 121.136 291.654 121.328L293.03 121.664C294.358 121.984 295.014 122.592 295.014 123.76C295.014 125.248 293.734 126.192 291.878 126.192C290.038 126.192 288.87 125.216 288.87 123.728ZM296.858 128.768H295.594C296.954 126.896 297.754 124.08 297.754 121.248C297.754 118.256 296.874 115.504 295.594 113.744H296.858C298.41 115.68 299.29 118.528 299.29 121.248C299.29 124.144 298.314 126.928 296.858 128.768Z" fill="#A0A0A1"/>
<path fill-rule="evenodd" clip-rule="evenodd" d="M32 164C36.4183 164 40 160.418 40 156C40 151.582 36.4183 148 32 148C27.5817 148 24 151.582 24 156C24 160.418 27.5817 164 32 164ZM35.7095 153.663C35.8913 153.455 35.8702 153.139 35.6624 152.957C35.4546 152.775 35.1387 152.796 34.9569 153.004L30.6421 157.935L29.0201 156.313C28.8248 156.118 28.5082 156.118 28.313 156.313C28.1177 156.509 28.1177 156.825 28.313 157.02L30.313 159.02C30.4108 159.118 30.5448 159.171 30.6831 159.167C30.8215 159.162 30.9517 159.1 31.0428 158.996L35.7095 153.663Z" fill="#A0A0A1"/>
<path d="M54.144 162.176C50.848 162.176 48.656 159.808 48.656 156.224C48.656 152.656 50.912 150.24 54.224 150.24C56.832 150.24 58.832 151.792 59.264 154.16H57.584C57.152 152.656 55.856 151.744 54.176 151.744C51.84 151.744 50.304 153.504 50.304 156.208C50.304 158.912 51.84 160.672 54.176 160.672C55.872 160.672 57.216 159.76 57.648 158.336H59.312C58.816 160.64 56.752 162.176 54.144 162.176ZM63.1104 162.192C61.4304 162.192 60.4384 161.248 60.4384 159.824C60.4384 158.384 61.5104 157.488 63.3504 157.344L65.8144 157.152V156.928C65.8144 155.616 65.0304 155.152 63.9744 155.152C62.7104 155.152 61.9904 155.712 61.9904 156.656H60.6784C60.6784 155.024 62.0224 153.952 64.0384 153.952C65.9744 153.952 67.2864 154.976 67.2864 157.088V162H66.0064L65.8464 160.736C65.4464 161.632 64.3744 162.192 63.1104 162.192ZM63.5424 161.024C64.9664 161.024 65.8304 160.096 65.8304 158.624V158.208L63.8304 158.368C62.5024 158.496 61.9584 159.008 61.9584 159.776C61.9584 160.608 62.5664 161.024 63.5424 161.024ZM68.7293 159.728H70.1693C70.1693 160.528 70.7773 161.008 71.7693 161.008C72.8253 161.008 73.4333 160.576 73.4333 159.856C73.4333 159.328 73.1773 159.008 72.3613 158.8L70.9853 158.48C69.5933 158.144 68.9373 157.456 68.9373 156.304C68.9373 154.864 70.1533 153.952 71.8813 153.952C73.5933 153.952 74.7133 154.912 74.7453 156.4H73.3053C73.2733 155.616 72.7453 155.12 71.8333 155.12C70.8893 155.12 70.3613 155.536 70.3613 156.256C70.3613 156.784 70.7453 157.136 71.5133 157.328L72.8893 157.664C74.2173 157.984 74.8733 158.592 74.8733 159.76C74.8733 161.248 73.5933 162.192 71.7373 162.192C69.8973 162.192 68.7293 161.216 68.7293 159.728ZM78.0451 161.984H76.5411V150.224H78.0451V155.376C78.5411 154.528 79.4851 153.952 80.7011 153.952C82.7011 153.952 83.6611 155.216 83.6611 157.216V162H82.1571V157.552C82.1571 155.968 81.4051 155.328 80.2851 155.328C78.8291 155.328 78.0451 156.384 78.0451 157.728V161.984ZM92.4003 162H90.9123V155.44H87.5683V162H86.0643V155.44H84.9123V154.176H86.0643V152.928C86.0643 151.008 87.0883 150.224 88.4483 150.224C88.7363 150.224 89.0723 150.24 89.3763 150.288V151.584H88.7043C87.7923 151.584 87.5683 152.08 87.5683 152.928V154.176H90.9123V150.224H92.4003V162ZM94.0916 158.08C94.0916 155.664 95.8196 153.968 98.1716 153.968C100.508 153.968 102.236 155.664 102.236 158.08C102.236 160.496 100.508 162.192 98.1716 162.192C95.8196 162.192 94.0916 160.496 94.0916 158.08ZM95.6116 158.08C95.6116 159.712 96.6516 160.848 98.1716 160.848C99.6756 160.848 100.732 159.712 100.732 158.08C100.732 156.448 99.6756 155.312 98.1716 155.312C96.6516 155.312 95.6116 156.448 95.6116 158.08ZM105.221 162L102.661 154.176H104.213L105.509 158.24C105.685 158.816 105.845 159.408 105.989 160.096C106.117 159.408 106.325 158.752 106.501 158.24L107.813 154.176H109.349L110.645 158.24C110.773 158.624 111.029 159.536 111.157 160.096C111.285 159.472 111.429 158.928 111.653 158.24L112.965 154.176H114.533L111.861 162H110.437L109.077 157.808C108.821 157.024 108.661 156.416 108.581 155.984C108.501 156.368 108.357 156.88 108.069 157.824L106.709 162H105.221ZM121.989 162H120.453V150.432H121.989L125.973 160.16L129.957 150.432H131.525V162H129.989V157.424C129.989 155.264 130.005 154.48 130.085 153.664L126.709 162H125.237L121.877 153.696C121.957 154.256 121.989 155.44 121.989 157.056V162ZM136.251 162.192C134.571 162.192 133.579 161.248 133.579 159.824C133.579 158.384 134.651 157.488 136.491 157.344L138.955 157.152V156.928C138.955 155.616 138.171 155.152 137.115 155.152C135.851 155.152 135.131 155.712 135.131 156.656H133.819C133.819 155.024 135.163 153.952 137.179 153.952C139.115 153.952 140.427 154.976 140.427 157.088V162H139.147L138.987 160.736C138.587 161.632 137.515 162.192 136.251 162.192ZM136.683 161.024C138.107 161.024 138.971 160.096 138.971 158.624V158.208L136.971 158.368C135.643 158.496 135.099 159.008 135.099 159.776C135.099 160.608 135.707 161.024 136.683 161.024ZM144.014 162H142.51V154.176H143.87L144.03 155.376C144.526 154.48 145.518 153.952 146.622 153.952C148.686 153.952 149.63 155.216 149.63 157.216V162H148.126V157.552C148.126 155.968 147.39 155.328 146.238 155.328C144.83 155.328 144.014 156.336 144.014 157.856V162ZM154.001 162.192C152.321 162.192 151.329 161.248 151.329 159.824C151.329 158.384 152.401 157.488 154.241 157.344L156.705 157.152V156.928C156.705 155.616 155.921 155.152 154.865 155.152C153.601 155.152 152.881 155.712 152.881 156.656H151.569C151.569 155.024 152.913 153.952 154.929 153.952C156.865 153.952 158.177 154.976 158.177 157.088V162H156.897L156.737 160.736C156.337 161.632 155.265 162.192 154.001 162.192ZM154.433 161.024C155.857 161.024 156.721 160.096 156.721 158.624V158.208L154.721 158.368C153.393 158.496 152.849 159.008 152.849 159.776C152.849 160.608 153.457 161.024 154.433 161.024ZM159.764 157.888C159.764 155.68 161.188 153.952 163.46 153.952C164.724 153.952 165.7 154.528 166.196 155.504L166.308 154.176H167.652V161.68C167.652 164.144 166.132 165.712 163.732 165.712C161.604 165.712 160.148 164.512 159.86 162.528H161.364C161.556 163.68 162.42 164.352 163.732 164.352C165.204 164.352 166.164 163.392 166.164 161.904V160.336C165.652 161.248 164.628 161.792 163.396 161.792C161.172 161.792 159.764 160.08 159.764 157.888ZM161.268 157.856C161.268 159.328 162.18 160.48 163.652 160.48C165.172 160.48 166.1 159.392 166.1 157.856C166.1 156.352 165.204 155.264 163.668 155.264C162.164 155.264 161.268 156.416 161.268 157.856ZM173.198 162.192C170.894 162.192 169.31 160.528 169.31 158.096C169.31 155.648 170.862 153.952 173.134 153.952C175.358 153.952 176.814 155.488 176.814 157.808V158.368L170.766 158.384C170.878 160.032 171.742 160.944 173.23 160.944C174.398 160.944 175.166 160.464 175.422 159.568H176.83C176.446 161.248 175.134 162.192 173.198 162.192ZM173.134 155.216C171.822 155.216 170.99 156 170.798 157.376H175.31C175.31 156.08 174.462 155.216 173.134 155.216ZM179.998 162H178.494V154.176H179.838L179.982 155.2C180.382 154.464 181.214 153.952 182.318 153.952C183.534 153.952 184.398 154.56 184.798 155.536C185.166 154.56 186.11 153.952 187.326 153.952C189.118 153.952 190.206 155.072 190.206 156.88V162H188.734V157.248C188.734 156.016 188.046 155.312 186.99 155.312C185.854 155.312 185.102 156.112 185.102 157.36V162H183.614V157.232C183.614 156 182.942 155.328 181.886 155.328C180.75 155.328 179.998 156.112 179.998 157.36V162ZM195.667 162.192C193.363 162.192 191.779 160.528 191.779 158.096C191.779 155.648 193.331 153.952 195.603 153.952C197.827 153.952 199.283 155.488 199.283 157.808V158.368L193.235 158.384C193.347 160.032 194.211 160.944 195.699 160.944C196.867 160.944 197.635 160.464 197.891 159.568H199.299C198.915 161.248 197.603 162.192 195.667 162.192ZM195.603 155.216C194.291 155.216 193.459 156 193.267 157.376H197.779C197.779 156.08 196.931 155.216 195.603 155.216ZM202.467 162H200.963V154.176H202.323L202.483 155.376C202.979 154.48 203.971 153.952 205.075 153.952C207.139 153.952 208.083 155.216 208.083 157.216V162H206.579V157.552C206.579 155.968 205.843 155.328 204.691 155.328C203.283 155.328 202.467 156.336 202.467 157.856V162ZM212.374 162H210.87V155.44H209.334V154.176H210.87V151.728H212.374V154.176H213.91V155.44H212.374V162ZM223.011 164.768H221.763C220.291 162.928 219.315 160.144 219.315 157.248C219.315 154.528 220.195 151.68 221.763 149.744H223.011C221.747 151.504 220.851 154.256 220.851 157.248C220.851 160.08 221.651 162.896 223.011 164.768ZM223.688 153.552C223.688 151.568 225.288 150.224 227.672 150.224C229.88 150.224 231.304 151.456 231.432 153.456H229.848C229.768 152.304 228.952 151.632 227.656 151.632C226.2 151.632 225.256 152.368 225.256 153.504C225.256 154.432 225.784 154.992 226.872 155.248L228.776 155.696C230.664 156.128 231.624 157.152 231.624 158.784C231.624 160.864 230.008 162.192 227.544 162.192C225.192 162.192 223.624 160.96 223.528 158.976H225.128C225.16 160.08 226.088 160.784 227.544 160.784C229.08 160.784 230.056 160.064 230.056 158.912C230.056 158 229.56 157.424 228.456 157.168L226.552 156.736C224.664 156.304 223.688 155.216 223.688 153.552ZM232.826 158.08C232.826 155.664 234.554 153.968 236.906 153.968C239.242 153.968 240.97 155.664 240.97 158.08C240.97 160.496 239.242 162.192 236.906 162.192C234.554 162.192 232.826 160.496 232.826 158.08ZM234.346 158.08C234.346 159.712 235.386 160.848 236.906 160.848C238.41 160.848 239.466 159.712 239.466 158.08C239.466 156.448 238.41 155.312 236.906 155.312C235.386 155.312 234.346 156.448 234.346 158.08ZM244.171 162H242.667V150.224H244.171V162ZM248.673 162.192C246.993 162.192 246.001 161.248 246.001 159.824C246.001 158.384 247.073 157.488 248.913 157.344L251.377 157.152V156.928C251.377 155.616 250.593 155.152 249.537 155.152C248.273 155.152 247.553 155.712 247.553 156.656H246.241C246.241 155.024 247.585 153.952 249.601 153.952C251.537 153.952 252.849 154.976 252.849 157.088V162H251.569L251.409 160.736C251.009 161.632 249.937 162.192 248.673 162.192ZM249.105 161.024C250.529 161.024 251.393 160.096 251.393 158.624V158.208L249.393 158.368C248.065 158.496 247.521 159.008 247.521 159.776C247.521 160.608 248.129 161.024 249.105 161.024ZM256.436 162H254.932V154.176H256.292L256.452 155.376C256.948 154.48 257.94 153.952 259.044 153.952C261.108 153.952 262.052 155.216 262.052 157.216V162H260.548V157.552C260.548 155.968 259.812 155.328 258.66 155.328C257.252 155.328 256.436 156.336 256.436 157.856V162ZM266.423 162.192C264.743 162.192 263.751 161.248 263.751 159.824C263.751 158.384 264.823 157.488 266.663 157.344L269.127 157.152V156.928C269.127 155.616 268.343 155.152 267.287 155.152C266.023 155.152 265.303 155.712 265.303 156.656H263.991C263.991 155.024 265.335 153.952 267.351 153.952C269.287 153.952 270.599 154.976 270.599 157.088V162H269.319L269.159 160.736C268.759 161.632 267.687 162.192 266.423 162.192ZM266.855 161.024C268.279 161.024 269.143 160.096 269.143 158.624V158.208L267.143 158.368C265.815 158.496 265.271 159.008 265.271 159.776C265.271 160.608 265.879 161.024 266.855 161.024ZM272.858 164.768H271.594C272.954 162.896 273.754 160.08 273.754 157.248C273.754 154.256 272.874 151.504 271.594 149.744H272.858C274.41 151.68 275.29 154.528 275.29 157.248C275.29 160.144 274.314 162.928 272.858 164.768Z" fill="#A0A0A1"/>
<path fill-rule="evenodd" clip-rule="evenodd" d="M32 200C36.4183 200 40 196.418 40 192C40 187.582 36.4183 184 32 184C27.5817 184 24 187.582 24 192C24 196.418 27.5817 200 32 200ZM35.7095 189.663C35.8913 189.455 35.8702 189.139 35.6624 188.957C35.4546 188.775 35.1387 188.796 34.9569 189.004L30.6421 193.935L29.0201 192.313C28.8248 192.118 28.5082 192.118 28.313 192.313C28.1177 192.509 28.1177 192.825 28.313 193.02L30.313 195.02C30.4108 195.118 30.5448 195.171 30.6831 195.167C30.8215 195.162 30.9517 195.1 31.0428 194.996L35.7095 189.663Z" fill="#A0A0A1"/>
<path d="M49.824 198H48.192L52.416 186.432H54.16L58.4 198H56.752L55.712 195.12H50.848L49.824 198ZM53.088 188.928L51.328 193.76H55.248L53.472 188.928C53.392 188.704 53.312 188.432 53.28 188.256C53.248 188.416 53.168 188.688 53.088 188.928ZM59.0418 195.728H60.4818C60.4818 196.528 61.0898 197.008 62.0818 197.008C63.1378 197.008 63.7458 196.576 63.7458 195.856C63.7458 195.328 63.4898 195.008 62.6738 194.8L61.2978 194.48C59.9058 194.144 59.2498 193.456 59.2498 192.304C59.2498 190.864 60.4658 189.952 62.1938 189.952C63.9058 189.952 65.0258 190.912 65.0578 192.4H63.6178C63.5858 191.616 63.0578 191.12 62.1458 191.12C61.2018 191.12 60.6738 191.536 60.6738 192.256C60.6738 192.784 61.0578 193.136 61.8258 193.328L63.2018 193.664C64.5298 193.984 65.1858 194.592 65.1858 195.76C65.1858 197.248 63.9058 198.192 62.0498 198.192C60.2098 198.192 59.0418 197.216 59.0418 195.728ZM66.2136 195.728H67.6536C67.6536 196.528 68.2616 197.008 69.2536 197.008C70.3096 197.008 70.9176 196.576 70.9176 195.856C70.9176 195.328 70.6616 195.008 69.8456 194.8L68.4696 194.48C67.0776 194.144 66.4216 193.456 66.4216 192.304C66.4216 190.864 67.6376 189.952 69.3656 189.952C71.0776 189.952 72.1976 190.912 72.2296 192.4H70.7896C70.7576 191.616 70.2296 191.12 69.3176 191.12C68.3736 191.12 67.8456 191.536 67.8456 192.256C67.8456 192.784 68.2296 193.136 68.9976 193.328L70.3736 193.664C71.7016 193.984 72.3576 194.592 72.3576 195.76C72.3576 197.248 71.0776 198.192 69.2216 198.192C67.3816 198.192 66.2136 197.216 66.2136 195.728ZM77.4015 198.192C75.0975 198.192 73.5135 196.528 73.5135 194.096C73.5135 191.648 75.0655 189.952 77.3375 189.952C79.5615 189.952 81.0175 191.488 81.0175 193.808V194.368L74.9695 194.384C75.0815 196.032 75.9455 196.944 77.4335 196.944C78.6015 196.944 79.3695 196.464 79.6255 195.568H81.0335C80.6495 197.248 79.3375 198.192 77.4015 198.192ZM77.3375 191.216C76.0255 191.216 75.1935 192 75.0015 193.376H79.5135C79.5135 192.08 78.6655 191.216 77.3375 191.216ZM84.8273 198H83.3233V191.44H81.7873V190.176H83.3233V187.728H84.8273V190.176H86.3633V191.44H84.8273V198ZM87.073 195.728H88.513C88.513 196.528 89.121 197.008 90.113 197.008C91.169 197.008 91.777 196.576 91.777 195.856C91.777 195.328 91.521 195.008 90.705 194.8L89.329 194.48C87.937 194.144 87.281 193.456 87.281 192.304C87.281 190.864 88.497 189.952 90.225 189.952C91.937 189.952 93.057 190.912 93.089 192.4H91.649C91.617 191.616 91.089 191.12 90.177 191.12C89.233 191.12 88.705 191.536 88.705 192.256C88.705 192.784 89.089 193.136 89.857 193.328L91.233 193.664C92.561 193.984 93.217 194.592 93.217 195.76C93.217 197.248 91.937 198.192 90.081 198.192C88.241 198.192 87.073 197.216 87.073 195.728ZM100.764 198H99.2599V190.176H100.604L100.748 191.2C101.148 190.464 101.98 189.952 103.084 189.952C104.3 189.952 105.164 190.56 105.564 191.536C105.932 190.56 106.876 189.952 108.092 189.952C109.884 189.952 110.972 191.072 110.972 192.88V198H109.5V193.248C109.5 192.016 108.812 191.312 107.756 191.312C106.62 191.312 105.868 192.112 105.868 193.36V198H104.38V193.232C104.38 192 103.708 191.328 102.652 191.328C101.516 191.328 100.764 192.112 100.764 193.36V198ZM112.545 194.08C112.545 191.664 114.273 189.968 116.625 189.968C118.961 189.968 120.689 191.664 120.689 194.08C120.689 196.496 118.961 198.192 116.625 198.192C114.273 198.192 112.545 196.496 112.545 194.08ZM114.065 194.08C114.065 195.712 115.105 196.848 116.625 196.848C118.129 196.848 119.185 195.712 119.185 194.08C119.185 192.448 118.129 191.312 116.625 191.312C115.105 191.312 114.065 192.448 114.065 194.08ZM124.186 198L121.034 190.176H122.634L124.346 194.544C124.618 195.28 124.842 195.936 124.97 196.416C125.098 195.904 125.354 195.232 125.626 194.544L127.37 190.176H128.938L125.674 198H124.186ZM133.152 198.192C130.848 198.192 129.264 196.528 129.264 194.096C129.264 191.648 130.816 189.952 133.088 189.952C135.312 189.952 136.767 191.488 136.767 193.808V194.368L130.72 194.384C130.832 196.032 131.696 196.944 133.184 196.944C134.352 196.944 135.12 196.464 135.376 195.568H136.784C136.4 197.248 135.088 198.192 133.152 198.192ZM133.088 191.216C131.776 191.216 130.944 192 130.752 193.376H135.264C135.264 192.08 134.416 191.216 133.088 191.216ZM142.182 195.728H143.622C143.622 196.528 144.23 197.008 145.222 197.008C146.278 197.008 146.886 196.576 146.886 195.856C146.886 195.328 146.63 195.008 145.814 194.8L144.438 194.48C143.046 194.144 142.39 193.456 142.39 192.304C142.39 190.864 143.606 189.952 145.334 189.952C147.046 189.952 148.166 190.912 148.198 192.4H146.758C146.726 191.616 146.198 191.12 145.286 191.12C144.342 191.12 143.814 191.536 143.814 192.256C143.814 192.784 144.198 193.136 144.966 193.328L146.342 193.664C147.67 193.984 148.326 194.592 148.326 195.76C148.326 197.248 147.046 198.192 145.19 198.192C143.35 198.192 142.182 197.216 142.182 195.728ZM153.37 198.192C151.066 198.192 149.482 196.528 149.482 194.096C149.482 191.648 151.034 189.952 153.306 189.952C155.53 189.952 156.986 191.488 156.986 193.808V194.368L150.938 194.384C151.05 196.032 151.914 196.944 153.402 196.944C154.57 196.944 155.338 196.464 155.594 195.568H157.002C156.618 197.248 155.306 198.192 153.37 198.192ZM153.306 191.216C151.994 191.216 151.162 192 150.97 193.376H155.482C155.482 192.08 154.634 191.216 153.306 191.216ZM160.876 198.192C159.196 198.192 158.204 197.248 158.204 195.824C158.204 194.384 159.276 193.488 161.116 193.344L163.58 193.152V192.928C163.58 191.616 162.796 191.152 161.74 191.152C160.476 191.152 159.756 191.712 159.756 192.656H158.444C158.444 191.024 159.788 189.952 161.804 189.952C163.74 189.952 165.052 190.976 165.052 193.088V198H163.772L163.612 196.736C163.212 197.632 162.14 198.192 160.876 198.192ZM161.308 197.024C162.732 197.024 163.596 196.096 163.596 194.624V194.208L161.596 194.368C160.268 194.496 159.724 195.008 159.724 195.776C159.724 196.608 160.332 197.024 161.308 197.024ZM168.639 198H167.135V190.176H168.479L168.623 191.2C169.023 190.464 169.855 189.952 170.959 189.952C172.175 189.952 173.039 190.56 173.439 191.536C173.807 190.56 174.751 189.952 175.967 189.952C177.759 189.952 178.847 191.072 178.847 192.88V198H177.375V193.248C177.375 192.016 176.687 191.312 175.631 191.312C174.495 191.312 173.743 192.112 173.743 193.36V198H172.255V193.232C172.255 192 171.583 191.328 170.527 191.328C169.391 191.328 168.639 192.112 168.639 193.36V198ZM182.468 198H180.964V186.224H182.468V198ZM188.058 198.192C185.754 198.192 184.17 196.528 184.17 194.096C184.17 191.648 185.722 189.952 187.994 189.952C190.218 189.952 191.674 191.488 191.674 193.808V194.368L185.626 194.384C185.738 196.032 186.602 196.944 188.09 196.944C189.258 196.944 190.026 196.464 190.282 195.568H191.69C191.306 197.248 189.994 198.192 188.058 198.192ZM187.994 191.216C186.682 191.216 185.85 192 185.658 193.376H190.17C190.17 192.08 189.322 191.216 187.994 191.216ZM192.714 195.728H194.154C194.154 196.528 194.762 197.008 195.754 197.008C196.81 197.008 197.418 196.576 197.418 195.856C197.418 195.328 197.162 195.008 196.346 194.8L194.97 194.48C193.578 194.144 192.922 193.456 192.922 192.304C192.922 190.864 194.138 189.952 195.866 189.952C197.578 189.952 198.698 190.912 198.73 192.4H197.29C197.258 191.616 196.73 191.12 195.818 191.12C194.874 191.12 194.346 191.536 194.346 192.256C194.346 192.784 194.73 193.136 195.498 193.328L196.874 193.664C198.202 193.984 198.858 194.592 198.858 195.76C198.858 197.248 197.578 198.192 195.722 198.192C193.882 198.192 192.714 197.216 192.714 195.728ZM199.886 195.728H201.326C201.326 196.528 201.934 197.008 202.926 197.008C203.982 197.008 204.59 196.576 204.59 195.856C204.59 195.328 204.334 195.008 203.518 194.8L202.142 194.48C200.75 194.144 200.094 193.456 200.094 192.304C200.094 190.864 201.31 189.952 203.038 189.952C204.75 189.952 205.87 190.912 205.902 192.4H204.462C204.43 191.616 203.902 191.12 202.99 191.12C202.046 191.12 201.518 191.536 201.518 192.256C201.518 192.784 201.902 193.136 202.67 193.328L204.046 193.664C205.374 193.984 206.03 194.592 206.03 195.76C206.03 197.248 204.75 198.192 202.894 198.192C201.054 198.192 199.886 197.216 199.886 195.728ZM209.233 198H207.729V186.224H209.233V198ZM210.695 201.504V200.272H211.703C212.423 200.272 212.999 200.16 213.367 199.168L213.639 198.416L210.487 190.176H212.071L214.343 196.48L216.663 190.176H218.215L214.519 199.76C213.991 201.104 213.207 201.664 212.007 201.664C211.511 201.664 211.095 201.6 210.695 201.504ZM226.079 198.192C224.399 198.192 223.407 197.248 223.407 195.824C223.407 194.384 224.479 193.488 226.319 193.344L228.783 193.152V192.928C228.783 191.616 227.999 191.152 226.943 191.152C225.679 191.152 224.959 191.712 224.959 192.656H223.647C223.647 191.024 224.991 189.952 227.007 189.952C228.943 189.952 230.255 190.976 230.255 193.088V198H228.975L228.815 196.736C228.415 197.632 227.343 198.192 226.079 198.192ZM226.511 197.024C227.935 197.024 228.799 196.096 228.799 194.624V194.208L226.799 194.368C225.471 194.496 224.927 195.008 224.927 195.776C224.927 196.608 225.535 197.024 226.511 197.024ZM231.826 194.096C231.826 191.648 233.378 189.952 235.666 189.952C237.634 189.952 239.01 191.072 239.282 192.816H237.778C237.522 191.824 236.722 191.296 235.714 191.296C234.29 191.296 233.314 192.384 233.314 194.08C233.314 195.76 234.226 196.848 235.65 196.848C236.722 196.848 237.522 196.288 237.794 195.36H239.298C238.994 197.056 237.538 198.192 235.65 198.192C233.346 198.192 231.826 196.56 231.826 194.096ZM245.365 190.112V191.488H244.693C243.269 191.488 242.389 192.352 242.389 193.856V198H240.885V190.192H242.293L242.389 191.376C242.709 190.56 243.493 190.016 244.565 190.016C244.837 190.016 245.061 190.048 245.365 190.112ZM245.982 194.08C245.982 191.664 247.71 189.968 250.062 189.968C252.398 189.968 254.126 191.664 254.126 194.08C254.126 196.496 252.398 198.192 250.062 198.192C247.71 198.192 245.982 196.496 245.982 194.08ZM247.502 194.08C247.502 195.712 248.542 196.848 250.062 196.848C251.566 196.848 252.622 195.712 252.622 194.08C252.622 192.448 251.566 191.312 250.062 191.312C248.542 191.312 247.502 192.448 247.502 194.08ZM255.151 195.728H256.591C256.591 196.528 257.199 197.008 258.191 197.008C259.247 197.008 259.855 196.576 259.855 195.856C259.855 195.328 259.599 195.008 258.783 194.8L257.407 194.48C256.015 194.144 255.359 193.456 255.359 192.304C255.359 190.864 256.575 189.952 258.303 189.952C260.015 189.952 261.135 190.912 261.167 192.4H259.727C259.695 191.616 259.167 191.12 258.255 191.12C257.311 191.12 256.783 191.536 256.783 192.256C256.783 192.784 257.167 193.136 257.935 193.328L259.311 193.664C260.639 193.984 261.295 194.592 261.295 195.76C261.295 197.248 260.015 198.192 258.159 198.192C256.319 198.192 255.151 197.216 255.151 195.728ZM262.323 195.728H263.763C263.763 196.528 264.371 197.008 265.363 197.008C266.419 197.008 267.027 196.576 267.027 195.856C267.027 195.328 266.771 195.008 265.955 194.8L264.579 194.48C263.187 194.144 262.531 193.456 262.531 192.304C262.531 190.864 263.747 189.952 265.475 189.952C267.187 189.952 268.307 190.912 268.339 192.4H266.899C266.867 191.616 266.339 191.12 265.427 191.12C264.483 191.12 263.955 191.536 263.955 192.256C263.955 192.784 264.339 193.136 265.107 193.328L266.483 193.664C267.811 193.984 268.467 194.592 268.467 195.76C268.467 197.248 267.187 198.192 265.331 198.192C263.491 198.192 262.323 197.216 262.323 195.728ZM273.998 194.096C273.998 191.648 275.55 189.952 277.838 189.952C279.806 189.952 281.182 191.072 281.454 192.816H279.95C279.694 191.824 278.894 191.296 277.886 191.296C276.462 191.296 275.486 192.384 275.486 194.08C275.486 195.76 276.398 196.848 277.822 196.848C278.894 196.848 279.694 196.288 279.966 195.36H281.47C281.166 197.056 279.71 198.192 277.822 198.192C275.518 198.192 273.998 196.56 273.998 194.096ZM284.561 197.984H283.057V186.224H284.561V191.376C285.057 190.528 286.001 189.952 287.217 189.952C289.217 189.952 290.177 191.216 290.177 193.216V198H288.673V193.552C288.673 191.968 287.921 191.328 286.801 191.328C285.345 191.328 284.561 192.384 284.561 193.728V197.984ZM294.548 198.192C292.868 198.192 291.876 197.248 291.876 195.824C291.876 194.384 292.948 193.488 294.788 193.344L297.252 193.152V192.928C297.252 191.616 296.468 191.152 295.412 191.152C294.148 191.152 293.428 191.712 293.428 192.656H292.116C292.116 191.024 293.46 189.952 295.476 189.952C297.412 189.952 298.724 190.976 298.724 193.088V198H297.444L297.284 196.736C296.884 197.632 295.812 198.192 294.548 198.192ZM294.98 197.024C296.404 197.024 297.268 196.096 297.268 194.624V194.208L295.268 194.368C293.94 194.496 293.396 195.008 293.396 195.776C293.396 196.608 294.004 197.024 294.98 197.024ZM301.543 188.32C300.999 188.32 300.551 187.872 300.551 187.328C300.551 186.768 300.999 186.336 301.543 186.336C302.087 186.336 302.535 186.768 302.535 187.328C302.535 187.872 302.087 188.32 301.543 188.32ZM300.807 198V190.176H302.311V198H300.807ZM305.998 198H304.494V190.176H305.854L306.014 191.376C306.51 190.48 307.502 189.952 308.606 189.952C310.67 189.952 311.614 191.216 311.614 193.216V198H310.11V193.552C310.11 191.968 309.374 191.328 308.222 191.328C306.814 191.328 305.998 192.336 305.998 193.856V198ZM312.964 195.728H314.404C314.404 196.528 315.012 197.008 316.004 197.008C317.06 197.008 317.668 196.576 317.668 195.856C317.668 195.328 317.412 195.008 316.596 194.8L315.22 194.48C313.828 194.144 313.172 193.456 313.172 192.304C313.172 190.864 314.388 189.952 316.116 189.952C317.828 189.952 318.948 190.912 318.98 192.4H317.54C317.508 191.616 316.98 191.12 316.068 191.12C315.124 191.12 314.596 191.536 314.596 192.256C314.596 192.784 314.98 193.136 315.748 193.328L317.124 193.664C318.452 193.984 319.108 194.592 319.108 195.76C319.108 197.248 317.828 198.192 315.972 198.192C314.132 198.192 312.964 197.216 312.964 195.728Z" fill="#A0A0A1"/>
<defs>
<linearGradient id="paint0_linear_10085_39697" x1="0" y1="228" x2="377.144" y2="91.7329" gradientUnits="userSpaceOnUse">
<stop stop-color="white" stop-opacity="0.1"/>
<stop offset="1" stop-color="white" stop-opacity="0.05"/>
<stop offset="1" stop-color="white" stop-opacity="0.05"/>
</linearGradient>
</defs>
</svg>
