<svg width="344" height="289" viewBox="0 0 344 289" fill="none" xmlns="http://www.w3.org/2000/svg">
<g clip-path="url(#clip0_10312_10563)">
<path d="M324 1.2832H20C9.23045 1.2832 0.5 10.0137 0.5 20.7832V268.783C0.5 279.553 9.23045 288.283 20 288.283H324C334.77 288.283 343.5 279.553 343.5 268.783V20.7832C343.5 10.0137 334.77 1.2832 324 1.2832Z" fill="#252238"/>
<path d="M324 1.2832H20C9.23045 1.2832 0.5 10.0137 0.5 20.7832V268.783C0.5 279.553 9.23045 288.283 20 288.283H324C334.77 288.283 343.5 279.553 343.5 268.783V20.7832C343.5 10.0137 334.77 1.2832 324 1.2832Z" stroke="url(#paint0_linear_10312_10563)"/>
<path d="M37.0803 47.743L35.5203 45.983C34.4403 46.643 33.1603 47.023 31.7403 47.023C27.6603 47.023 24.8203 43.943 24.8203 39.543C24.8203 35.163 27.6803 32.063 31.7603 32.063C35.8603 32.063 38.7203 35.143 38.7203 39.543C38.7203 41.703 38.0203 43.543 36.8403 44.863L38.3603 46.583L37.0803 47.743ZM36.6603 39.543C36.6603 36.183 34.7003 33.963 31.7603 33.963C28.8203 33.963 26.8803 36.183 26.8803 39.543C26.8803 42.903 28.8203 45.143 31.7603 45.143C32.6803 45.143 33.5003 44.923 34.2003 44.503L32.3003 42.363L33.5803 41.203L35.5003 43.363C36.2403 42.403 36.6603 41.083 36.6603 39.543ZM50.2272 46.763L40.4672 46.783V45.283L45.1272 41.263C47.4672 39.243 48.1272 38.263 48.1272 36.723C48.1272 34.903 47.0872 33.823 45.3472 33.823C43.5672 33.823 42.4072 35.123 42.3672 37.183H40.4072C40.4672 34.083 42.4272 32.063 45.3672 32.063C48.2672 32.063 50.1272 33.823 50.1272 36.603C50.1272 38.663 49.1072 40.123 46.5472 42.343L43.5472 44.943H50.2272V46.763ZM57.7798 42.323V40.643H63.8798V42.323H57.7798ZM81.2819 46.763L71.5219 46.783V45.283L76.1819 41.263C78.5219 39.243 79.1819 38.263 79.1819 36.723C79.1819 34.903 78.1419 33.823 76.4019 33.823C74.6219 33.823 73.4619 35.123 73.4219 37.183H71.4619C71.5219 34.083 73.4819 32.063 76.4219 32.063C79.3219 32.063 81.1819 33.823 81.1819 36.603C81.1819 38.663 80.1619 40.123 77.6019 42.343L74.6019 44.943H81.2819V46.763ZM83.0858 39.563C83.0858 35.083 85.4058 32.043 89.0458 32.043C92.6658 32.043 94.9858 35.083 94.9858 39.563C94.9858 44.063 92.7658 47.043 89.0458 47.043C85.3058 47.043 83.0858 44.063 83.0858 39.563ZM85.0258 39.563C85.0258 43.123 86.5058 45.283 89.0458 45.283C91.5858 45.283 93.0458 43.123 93.0458 39.563C93.0458 35.963 91.5858 33.803 89.0458 33.803C86.5058 33.803 85.0258 35.963 85.0258 39.563ZM106.653 46.763L96.893 46.783V45.283L101.553 41.263C103.893 39.243 104.553 38.263 104.553 36.723C104.553 34.903 103.513 33.823 101.773 33.823C99.993 33.823 98.833 35.123 98.793 37.183H96.833C96.893 34.083 98.853 32.063 101.793 32.063C104.693 32.063 106.553 33.823 106.553 36.603C106.553 38.663 105.533 40.123 102.973 42.343L99.973 44.943H106.653V46.763ZM118.846 43.863H117.126V46.783H115.246V43.863H107.766V42.123L114.586 32.323H117.126V42.123H118.846V43.863ZM109.886 42.123H115.246V34.403L109.886 42.123Z" fill="#F3F3F3"/>
<path fill-rule="evenodd" clip-rule="evenodd" d="M32 92.7832C36.4183 92.7832 40 89.2015 40 84.7832C40 80.3649 36.4183 76.7832 32 76.7832C27.5817 76.7832 24 80.3649 24 84.7832C24 89.2015 27.5817 92.7832 32 92.7832ZM35.7095 82.4459C35.8913 82.2381 35.8702 81.9222 35.6624 81.7404C35.4546 81.5586 35.1387 81.5796 34.9569 81.7874L30.6421 86.7186L29.0201 85.0965C28.8248 84.9012 28.5082 84.9012 28.313 85.0965C28.1177 85.2917 28.1177 85.6083 28.313 85.8036L30.313 87.8036C30.4108 87.9014 30.5448 87.9544 30.6831 87.9498C30.8215 87.9451 30.9517 87.8834 31.0428 87.7793L35.7095 82.4459Z" fill="#A0A0A1"/>
<path d="M50.9117 90.7833H49.3438V79.2153H53.7118C56.1918 79.2153 57.6637 80.5273 57.6637 82.6873C57.6637 84.2873 56.8637 85.4393 55.4237 85.9033L57.7757 90.7833H56.0317L53.8717 86.2073H50.9117V90.7833ZM50.9117 80.6233V84.8153H53.7277C55.1837 84.8153 56.0157 84.0313 56.0157 82.7033C56.0157 81.3593 55.1518 80.6233 53.7118 80.6233H50.9117ZM62.37 90.9753C60.066 90.9753 58.482 89.3113 58.482 86.8793C58.482 84.4313 60.034 82.7353 62.306 82.7353C64.53 82.7353 65.9859 84.2713 65.9859 86.5913V87.1513L59.938 87.1673C60.05 88.8153 60.914 89.7273 62.4021 89.7273C63.5701 89.7273 64.338 89.2473 64.594 88.3513H66.002C65.618 90.0313 64.306 90.9753 62.37 90.9753ZM62.306 83.9993C60.994 83.9993 60.162 84.7833 59.97 86.1593H64.482C64.482 84.8633 63.634 83.9993 62.306 83.9993ZM67.5858 87.2153V85.8713H72.4659V87.2153H67.5858ZM73.854 88.5113H75.294C75.294 89.3113 75.9021 89.7913 76.8941 89.7913C77.9501 89.7913 78.558 89.3593 78.558 88.6393C78.558 88.1113 78.302 87.7913 77.486 87.5833L76.11 87.2633C74.718 86.9273 74.062 86.2393 74.062 85.0873C74.062 83.6473 75.2781 82.7353 77.0061 82.7353C78.7181 82.7353 79.838 83.6953 79.87 85.1833H78.43C78.398 84.3993 77.87 83.9033 76.958 83.9033C76.014 83.9033 75.486 84.3193 75.486 85.0393C75.486 85.5673 75.87 85.9193 76.638 86.1113L78.014 86.4473C79.342 86.7673 79.998 87.3753 79.998 88.5433C79.998 90.0313 78.718 90.9753 76.862 90.9753C75.022 90.9753 73.854 89.9993 73.854 88.5113ZM83.8738 90.7833H82.3699V84.2233H80.8338V82.9593H82.3699V80.5113H83.8738V82.9593H85.4099V84.2233H83.8738V90.7833ZM88.9538 90.9753C87.2738 90.9753 86.2818 90.0313 86.2818 88.6073C86.2818 87.1673 87.3538 86.2713 89.1938 86.1273L91.6578 85.9353V85.7113C91.6578 84.3993 90.8738 83.9353 89.8178 83.9353C88.5538 83.9353 87.8338 84.4953 87.8338 85.4393H86.5219C86.5219 83.8073 87.8659 82.7353 89.8819 82.7353C91.8179 82.7353 93.1298 83.7593 93.1298 85.8713V90.7833H91.8498L91.6898 89.5193C91.2898 90.4153 90.2178 90.9753 88.9538 90.9753ZM89.3858 89.8073C90.8098 89.8073 91.6739 88.8793 91.6739 87.4073V86.9913L89.6739 87.1513C88.3459 87.2793 87.8018 87.7913 87.8018 88.5593C87.8018 89.3913 88.4098 89.8073 89.3858 89.8073ZM96.7487 90.7833H95.2448V79.0073H96.7487V86.6393L100.221 82.9593H102.109L99.1167 86.0793L102.093 90.7833H100.365L98.0768 87.1673L96.7487 88.5593V90.7833ZM104.074 81.1033C103.53 81.1033 103.082 80.6553 103.082 80.1113C103.082 79.5513 103.53 79.1193 104.074 79.1193C104.618 79.1193 105.066 79.5513 105.066 80.1113C105.066 80.6553 104.618 81.1033 104.074 81.1033ZM103.338 90.7833V82.9593H104.842V90.7833H103.338ZM108.53 90.7833H107.026V82.9593H108.386L108.546 84.1593C109.042 83.2633 110.034 82.7353 111.138 82.7353C113.202 82.7353 114.146 83.9993 114.146 85.9993V90.7833H112.642V86.3353C112.642 84.7513 111.906 84.1113 110.754 84.1113C109.346 84.1113 108.53 85.1193 108.53 86.6393V90.7833ZM115.733 86.6713C115.733 84.4633 117.157 82.7353 119.429 82.7353C120.693 82.7353 121.669 83.3113 122.165 84.2873L122.277 82.9593H123.621V90.4633C123.621 92.9273 122.101 94.4953 119.701 94.4953C117.573 94.4953 116.117 93.2953 115.829 91.3113H117.333C117.525 92.4633 118.389 93.1353 119.701 93.1353C121.173 93.1353 122.133 92.1753 122.133 90.6873V89.1193C121.621 90.0313 120.597 90.5753 119.365 90.5753C117.141 90.5753 115.733 88.8633 115.733 86.6713ZM117.237 86.6393C117.237 88.1113 118.149 89.2633 119.621 89.2633C121.141 89.2633 122.069 88.1753 122.069 86.6393C122.069 85.1353 121.173 84.0473 119.637 84.0473C118.133 84.0473 117.237 85.1993 117.237 86.6393ZM133.542 93.5513H132.294C130.822 91.7113 129.846 88.9273 129.846 86.0313C129.846 83.3113 130.726 80.4633 132.294 78.5273H133.542C132.278 80.2873 131.382 83.0393 131.382 86.0313C131.382 88.8633 132.182 91.6793 133.542 93.5513ZM141.947 90.7833H134.891V79.2153H141.947V80.6553H136.459V84.2713H141.403V85.6633H136.459V89.3273H141.947V90.7833ZM143.099 80.6553V79.2153H151.627V80.6553H148.155V90.7833H146.587V80.6553H143.099ZM154.771 90.7833H153.203V79.2153H154.771V84.1913H160.499V79.2153H162.067V90.7833H160.499V85.6473H154.771V90.7833ZM164.67 93.5513H163.406C164.766 91.6793 165.566 88.8633 165.566 86.0313C165.566 83.0393 164.686 80.2873 163.406 78.5273H164.67C166.222 80.4633 167.102 83.3113 167.102 86.0313C167.102 88.9273 166.126 91.7113 164.67 93.5513Z" fill="#A0A0A1"/>
<path fill-rule="evenodd" clip-rule="evenodd" d="M32 128.783C36.4183 128.783 40 125.201 40 120.783C40 116.365 36.4183 112.783 32 112.783C27.5817 112.783 24 116.365 24 120.783C24 125.201 27.5817 128.783 32 128.783ZM35.7095 118.446C35.8913 118.238 35.8702 117.922 35.6624 117.74C35.4546 117.558 35.1387 117.579 34.9569 117.787L30.6421 122.718L29.0201 121.096C28.8248 120.901 28.5082 120.901 28.313 121.096C28.1177 121.292 28.1177 121.608 28.313 121.803L30.313 123.803C30.4108 123.901 30.5448 123.954 30.6831 123.95C30.8215 123.945 30.9517 123.883 31.0428 123.779L35.7095 118.446Z" fill="#A0A0A1"/>
<path d="M48.6717 118.335C48.6717 116.351 50.2717 115.007 52.6557 115.007C54.8637 115.007 56.2877 116.239 56.4157 118.239H54.8317C54.7517 117.087 53.9357 116.415 52.6397 116.415C51.1837 116.415 50.2397 117.151 50.2397 118.287C50.2397 119.215 50.7677 119.775 51.8557 120.031L53.7597 120.479C55.6477 120.911 56.6077 121.935 56.6077 123.567C56.6077 125.647 54.9917 126.975 52.5277 126.975C50.1757 126.975 48.6077 125.743 48.5117 123.759H50.1117C50.1437 124.863 51.0717 125.567 52.5277 125.567C54.0637 125.567 55.0397 124.847 55.0397 123.695C55.0397 122.783 54.5437 122.207 53.4397 121.951L51.5357 121.519C49.6477 121.087 48.6717 119.999 48.6717 118.335ZM60.5301 126.783H59.0261V120.223H57.4901V118.959H59.0261V116.511H60.5301V118.959H62.0661V120.223H60.5301V126.783ZM65.6101 126.975C63.9301 126.975 62.9381 126.031 62.9381 124.607C62.9381 123.167 64.0101 122.271 65.8501 122.127L68.3141 121.935V121.711C68.3141 120.399 67.5301 119.935 66.4741 119.935C65.2101 119.935 64.4901 120.495 64.4901 121.439H63.1781C63.1781 119.807 64.5221 118.735 66.5381 118.735C68.4741 118.735 69.7861 119.759 69.7861 121.871V126.783H68.5061L68.3461 125.519C67.9461 126.415 66.8741 126.975 65.6101 126.975ZM66.0421 125.807C67.4661 125.807 68.3301 124.879 68.3301 123.407V122.991L66.3301 123.151C65.0021 123.279 64.4581 123.791 64.4581 124.559C64.4581 125.391 65.0661 125.807 66.0421 125.807ZM73.405 126.783H71.901V115.007H73.405V122.639L76.877 118.959H78.765L75.773 122.079L78.749 126.783H77.021L74.733 123.167L73.405 124.559V126.783ZM80.73 117.103C80.186 117.103 79.738 116.655 79.738 116.111C79.738 115.551 80.186 115.119 80.73 115.119C81.274 115.119 81.722 115.551 81.722 116.111C81.722 116.655 81.274 117.103 80.73 117.103ZM79.994 126.783V118.959H81.498V126.783H79.994ZM85.1855 126.783H83.6815V118.959H85.0415L85.2015 120.159C85.6975 119.263 86.6895 118.735 87.7935 118.735C89.8575 118.735 90.8015 119.999 90.8015 121.999V126.783H89.2975V122.335C89.2975 120.751 88.5615 120.111 87.4095 120.111C86.0015 120.111 85.1855 121.119 85.1855 122.639V126.783ZM92.3886 122.671C92.3886 120.463 93.8126 118.735 96.0846 118.735C97.3486 118.735 98.3246 119.311 98.8206 120.287L98.9326 118.959H100.277V126.463C100.277 128.927 98.7566 130.495 96.3566 130.495C94.2286 130.495 92.7726 129.295 92.4846 127.311H93.9886C94.1806 128.463 95.0446 129.135 96.3566 129.135C97.8286 129.135 98.7886 128.175 98.7886 126.687V125.119C98.2766 126.031 97.2526 126.575 96.0206 126.575C93.7966 126.575 92.3886 124.863 92.3886 122.671ZM93.8926 122.639C93.8926 124.111 94.8046 125.263 96.2766 125.263C97.7966 125.263 98.7246 124.175 98.7246 122.639C98.7246 121.135 97.8286 120.047 96.2926 120.047C94.7886 120.047 93.8926 121.199 93.8926 122.639ZM107.558 126.783H105.926L110.15 115.215H111.894L116.134 126.783H114.486L113.446 123.903H108.582L107.558 126.783ZM110.822 117.711L109.062 122.543H112.982L111.206 117.711C111.126 117.487 111.046 117.215 111.014 117.039C110.982 117.199 110.902 117.471 110.822 117.711ZM116.78 122.671C116.78 120.463 118.204 118.735 120.476 118.735C121.74 118.735 122.716 119.311 123.212 120.287L123.324 118.959H124.668V126.463C124.668 128.927 123.148 130.495 120.748 130.495C118.62 130.495 117.164 129.295 116.876 127.311H118.38C118.572 128.463 119.436 129.135 120.748 129.135C122.22 129.135 123.18 128.175 123.18 126.687V125.119C122.668 126.031 121.644 126.575 120.411 126.575C118.188 126.575 116.78 124.863 116.78 122.671ZM118.284 122.639C118.284 124.111 119.196 125.263 120.668 125.263C122.188 125.263 123.116 124.175 123.116 122.639C123.116 121.135 122.22 120.047 120.684 120.047C119.18 120.047 118.284 121.199 118.284 122.639ZM126.342 122.671C126.342 120.463 127.766 118.735 130.038 118.735C131.302 118.735 132.278 119.311 132.774 120.287L132.886 118.959H134.23V126.463C134.23 128.927 132.71 130.495 130.31 130.495C128.182 130.495 126.726 129.295 126.438 127.311H127.942C128.134 128.463 128.998 129.135 130.31 129.135C131.782 129.135 132.742 128.175 132.742 126.687V125.119C132.23 126.031 131.206 126.575 129.974 126.575C127.75 126.575 126.342 124.863 126.342 122.671ZM127.846 122.639C127.846 124.111 128.758 125.263 130.23 125.263C131.75 125.263 132.678 124.175 132.678 122.639C132.678 121.135 131.782 120.047 130.246 120.047C128.742 120.047 127.846 121.199 127.846 122.639ZM140.881 118.895V120.271H140.209C138.785 120.271 137.905 121.135 137.905 122.639V126.783H136.401V118.975H137.809L137.905 120.159C138.225 119.343 139.009 118.799 140.081 118.799C140.353 118.799 140.577 118.831 140.881 118.895ZM145.386 126.975C143.082 126.975 141.498 125.311 141.498 122.879C141.498 120.431 143.05 118.735 145.322 118.735C147.546 118.735 149.002 120.271 149.002 122.591V123.151L142.954 123.167C143.066 124.815 143.93 125.727 145.418 125.727C146.586 125.727 147.354 125.247 147.61 124.351H149.018C148.634 126.031 147.322 126.975 145.386 126.975ZM145.322 119.999C144.01 119.999 143.178 120.783 142.986 122.159H147.498C147.498 120.863 146.65 119.999 145.322 119.999ZM150.186 122.671C150.186 120.463 151.61 118.735 153.882 118.735C155.146 118.735 156.122 119.311 156.618 120.287L156.73 118.959H158.074V126.463C158.074 128.927 156.554 130.495 154.154 130.495C152.026 130.495 150.57 129.295 150.282 127.311H151.786C151.978 128.463 152.842 129.135 154.154 129.135C155.626 129.135 156.586 128.175 156.586 126.687V125.119C156.074 126.031 155.05 126.575 153.818 126.575C151.594 126.575 150.186 124.863 150.186 122.671ZM151.69 122.639C151.69 124.111 152.602 125.263 154.074 125.263C155.594 125.263 156.522 124.175 156.522 122.639C156.522 121.135 155.626 120.047 154.09 120.047C152.586 120.047 151.69 121.199 151.69 122.639ZM162.532 126.975C160.852 126.975 159.86 126.031 159.86 124.607C159.86 123.167 160.932 122.271 162.772 122.127L165.236 121.935V121.711C165.236 120.399 164.452 119.935 163.396 119.935C162.132 119.935 161.412 120.495 161.412 121.439H160.1C160.1 119.807 161.444 118.735 163.46 118.735C165.396 118.735 166.708 119.759 166.708 121.871V126.783H165.428L165.268 125.519C164.868 126.415 163.796 126.975 162.532 126.975ZM162.964 125.807C164.388 125.807 165.252 124.879 165.252 123.407V122.991L163.252 123.151C161.924 123.279 161.38 123.791 161.38 124.559C161.38 125.391 161.988 125.807 162.964 125.807ZM170.874 126.783H169.37V120.223H167.834V118.959H169.37V116.511H170.874V118.959H172.41V120.223H170.874V126.783ZM173.17 122.863C173.17 120.447 174.898 118.751 177.25 118.751C179.586 118.751 181.314 120.447 181.314 122.863C181.314 125.279 179.586 126.975 177.25 126.975C174.898 126.975 173.17 125.279 173.17 122.863ZM174.69 122.863C174.69 124.495 175.73 125.631 177.25 125.631C178.754 125.631 179.81 124.495 179.81 122.863C179.81 121.231 178.754 120.095 177.25 120.095C175.73 120.095 174.69 121.231 174.69 122.863ZM187.459 118.895V120.271H186.787C185.363 120.271 184.483 121.135 184.483 122.639V126.783H182.979V118.975H184.387L184.483 120.159C184.803 119.343 185.587 118.799 186.659 118.799C186.931 118.799 187.155 118.831 187.459 118.895ZM196.62 129.551H195.372C193.9 127.711 192.924 124.927 192.924 122.031C192.924 119.311 193.804 116.463 195.372 114.527H196.62C195.356 116.287 194.46 119.039 194.46 122.031C194.46 124.863 195.26 127.679 196.62 129.551ZM197.297 118.335C197.297 116.351 198.897 115.007 201.281 115.007C203.489 115.007 204.913 116.239 205.041 118.239H203.457C203.377 117.087 202.561 116.415 201.265 116.415C199.809 116.415 198.865 117.151 198.865 118.287C198.865 119.215 199.393 119.775 200.481 120.031L202.385 120.479C204.273 120.911 205.233 121.935 205.233 123.567C205.233 125.647 203.617 126.975 201.153 126.975C198.801 126.975 197.233 125.743 197.137 123.759H198.737C198.769 124.863 199.697 125.567 201.153 125.567C202.689 125.567 203.665 124.847 203.665 123.695C203.665 122.783 203.169 122.207 202.065 121.951L200.161 121.519C198.273 121.087 197.297 119.999 197.297 118.335ZM206.435 122.863C206.435 120.447 208.163 118.751 210.515 118.751C212.851 118.751 214.579 120.447 214.579 122.863C214.579 125.279 212.851 126.975 210.515 126.975C208.163 126.975 206.435 125.279 206.435 122.863ZM207.955 122.863C207.955 124.495 208.995 125.631 210.515 125.631C212.019 125.631 213.075 124.495 213.075 122.863C213.075 121.231 212.019 120.095 210.515 120.095C208.995 120.095 207.955 121.231 207.955 122.863ZM217.78 126.783H216.276V115.007H217.78V126.783ZM222.282 126.975C220.602 126.975 219.61 126.031 219.61 124.607C219.61 123.167 220.682 122.271 222.522 122.127L224.986 121.935V121.711C224.986 120.399 224.202 119.935 223.146 119.935C221.882 119.935 221.162 120.495 221.162 121.439H219.85C219.85 119.807 221.194 118.735 223.21 118.735C225.146 118.735 226.458 119.759 226.458 121.871V126.783H225.178L225.018 125.519C224.618 126.415 223.546 126.975 222.282 126.975ZM222.714 125.807C224.138 125.807 225.002 124.879 225.002 123.407V122.991L223.002 123.151C221.674 123.279 221.13 123.791 221.13 124.559C221.13 125.391 221.738 125.807 222.714 125.807ZM230.045 126.783H228.541V118.959H229.901L230.061 120.159C230.557 119.263 231.549 118.735 232.653 118.735C234.717 118.735 235.661 119.999 235.661 121.999V126.783H234.157V122.335C234.157 120.751 233.421 120.111 232.269 120.111C230.861 120.111 230.045 121.119 230.045 122.639V126.783ZM240.032 126.975C238.352 126.975 237.36 126.031 237.36 124.607C237.36 123.167 238.432 122.271 240.272 122.127L242.736 121.935V121.711C242.736 120.399 241.952 119.935 240.896 119.935C239.632 119.935 238.912 120.495 238.912 121.439H237.6C237.6 119.807 238.944 118.735 240.96 118.735C242.896 118.735 244.208 119.759 244.208 121.871V126.783H242.928L242.768 125.519C242.368 126.415 241.296 126.975 240.032 126.975ZM240.464 125.807C241.888 125.807 242.752 124.879 242.752 123.407V122.991L240.752 123.151C239.424 123.279 238.88 123.791 238.88 124.559C238.88 125.391 239.488 125.807 240.464 125.807ZM248.547 126.159C248.547 127.311 247.683 128.271 246.547 128.415V127.743C247.203 127.631 247.667 127.199 247.667 126.703C247.555 126.767 247.427 126.799 247.235 126.799C246.707 126.799 246.259 126.415 246.259 125.823C246.259 125.183 246.691 124.719 247.331 124.719C248.003 124.719 248.547 125.279 248.547 126.159ZM255.824 126.783H254.192L258.416 115.215H260.16L264.4 126.783H262.752L261.712 123.903H256.848L255.824 126.783ZM259.088 117.711L257.328 122.543H261.248L259.472 117.711C259.392 117.487 259.312 117.215 259.28 117.039C259.248 117.199 259.168 117.471 259.088 117.711ZM265.682 130.287V118.959H267.042L267.154 120.367C267.682 119.295 268.738 118.735 269.986 118.735C272.226 118.735 273.618 120.415 273.618 122.815C273.618 125.199 272.306 126.991 269.986 126.991C268.738 126.991 267.698 126.463 267.186 125.503V130.287H265.682ZM267.202 122.879C267.202 124.479 268.13 125.631 269.666 125.631C271.202 125.631 272.114 124.479 272.114 122.879C272.114 121.263 271.202 120.111 269.666 120.111C268.13 120.111 267.202 121.247 267.202 122.879ZM277.405 126.783H275.901V120.223H274.365V118.959H275.901V116.511H277.405V118.959H278.941V120.223H277.405V126.783ZM279.701 122.863C279.701 120.447 281.429 118.751 283.781 118.751C286.117 118.751 287.845 120.447 287.845 122.863C287.845 125.279 286.117 126.975 283.781 126.975C281.429 126.975 279.701 125.279 279.701 122.863ZM281.221 122.863C281.221 124.495 282.261 125.631 283.781 125.631C285.285 125.631 286.341 124.495 286.341 122.863C286.341 121.231 285.285 120.095 283.781 120.095C282.261 120.095 281.221 121.231 281.221 122.863ZM288.87 124.511H290.31C290.31 125.311 290.918 125.791 291.91 125.791C292.966 125.791 293.574 125.359 293.574 124.639C293.574 124.111 293.318 123.791 292.502 123.583L291.126 123.263C289.734 122.927 289.078 122.239 289.078 121.087C289.078 119.647 290.294 118.735 292.022 118.735C293.734 118.735 294.854 119.695 294.886 121.183H293.446C293.414 120.399 292.886 119.903 291.974 119.903C291.03 119.903 290.502 120.319 290.502 121.039C290.502 121.567 290.886 121.919 291.654 122.111L293.03 122.447C294.358 122.767 295.014 123.375 295.014 124.543C295.014 126.031 293.734 126.975 291.878 126.975C290.038 126.975 288.87 125.999 288.87 124.511ZM296.858 129.551H295.594C296.954 127.679 297.754 124.863 297.754 122.031C297.754 119.039 296.874 116.287 295.594 114.527H296.858C298.41 116.463 299.29 119.311 299.29 122.031C299.29 124.927 298.314 127.711 296.858 129.551Z" fill="#A0A0A1"/>
<path fill-rule="evenodd" clip-rule="evenodd" d="M32 164.783C36.4183 164.783 40 161.201 40 156.783C40 152.365 36.4183 148.783 32 148.783C27.5817 148.783 24 152.365 24 156.783C24 161.201 27.5817 164.783 32 164.783ZM35.7095 154.446C35.8913 154.238 35.8702 153.922 35.6624 153.74C35.4546 153.558 35.1387 153.579 34.9569 153.787L30.6421 158.718L29.0201 157.096C28.8248 156.901 28.5082 156.901 28.313 157.096C28.1177 157.292 28.1177 157.608 28.313 157.803L30.313 159.803C30.4108 159.901 30.5448 159.954 30.6831 159.95C30.8215 159.945 30.9517 159.883 31.0428 159.779L35.7095 154.446Z" fill="#A0A0A1"/>
<path d="M54.1443 162.959C50.8483 162.959 48.6562 160.591 48.6562 157.007C48.6562 153.439 50.9123 151.023 54.2243 151.023C56.8323 151.023 58.8323 152.575 59.2643 154.943H57.5843C57.1523 153.439 55.8563 152.527 54.1763 152.527C51.8403 152.527 50.3043 154.287 50.3043 156.991C50.3043 159.695 51.8403 161.455 54.1763 161.455C55.8723 161.455 57.2163 160.543 57.6483 159.119H59.3123C58.8163 161.423 56.7523 162.959 54.1443 162.959ZM63.1107 162.975C61.4307 162.975 60.4387 162.031 60.4387 160.607C60.4387 159.167 61.5107 158.271 63.3507 158.127L65.8147 157.935V157.711C65.8147 156.399 65.0307 155.935 63.9747 155.935C62.7107 155.935 61.9907 156.495 61.9907 157.439H60.6786C60.6786 155.807 62.0227 154.735 64.0387 154.735C65.9747 154.735 67.2867 155.759 67.2867 157.871V162.783H66.0067L65.8466 161.519C65.4466 162.415 64.3747 162.975 63.1107 162.975ZM63.5427 161.807C64.9667 161.807 65.8307 160.879 65.8307 159.407V158.991L63.8307 159.151C62.5027 159.279 61.9587 159.791 61.9587 160.559C61.9587 161.391 62.5667 161.807 63.5427 161.807ZM68.7296 160.511H70.1695C70.1695 161.311 70.7776 161.791 71.7696 161.791C72.8256 161.791 73.4335 161.359 73.4335 160.639C73.4335 160.111 73.1775 159.791 72.3615 159.583L70.9855 159.263C69.5935 158.927 68.9376 158.239 68.9376 157.087C68.9376 155.647 70.1536 154.735 71.8816 154.735C73.5936 154.735 74.7136 155.695 74.7456 157.183H73.3055C73.2735 156.399 72.7455 155.903 71.8335 155.903C70.8895 155.903 70.3615 156.319 70.3615 157.039C70.3615 157.567 70.7455 157.919 71.5135 158.111L72.8895 158.447C74.2175 158.767 74.8736 159.375 74.8736 160.543C74.8736 162.031 73.5935 162.975 71.7375 162.975C69.8975 162.975 68.7296 161.999 68.7296 160.511ZM78.0453 162.767H76.5414V151.007H78.0453V156.159C78.5413 155.311 79.4854 154.735 80.7014 154.735C82.7014 154.735 83.6614 155.999 83.6614 157.999V162.783H82.1573V158.335C82.1573 156.751 81.4054 156.111 80.2854 156.111C78.8294 156.111 78.0453 157.167 78.0453 158.511V162.767ZM92.4006 162.783H90.9126V156.223H87.5686V162.783H86.0646V156.223H84.9126V154.959H86.0646V153.711C86.0646 151.791 87.0886 151.007 88.4486 151.007C88.7366 151.007 89.0725 151.023 89.3765 151.071V152.367H88.7046C87.7926 152.367 87.5686 152.863 87.5686 153.711V154.959H90.9126V151.007H92.4006V162.783ZM94.0919 158.863C94.0919 156.447 95.8199 154.751 98.1719 154.751C100.508 154.751 102.236 156.447 102.236 158.863C102.236 161.279 100.508 162.975 98.1719 162.975C95.8199 162.975 94.0919 161.279 94.0919 158.863ZM95.6119 158.863C95.6119 160.495 96.6519 161.631 98.1719 161.631C99.6759 161.631 100.732 160.495 100.732 158.863C100.732 157.231 99.6759 156.095 98.1719 156.095C96.6519 156.095 95.6119 157.231 95.6119 158.863ZM105.221 162.783L102.661 154.959H104.213L105.509 159.023C105.685 159.599 105.845 160.191 105.989 160.879C106.117 160.191 106.325 159.535 106.501 159.023L107.813 154.959H109.349L110.645 159.023C110.773 159.407 111.029 160.319 111.157 160.879C111.285 160.255 111.429 159.711 111.653 159.023L112.965 154.959H114.533L111.861 162.783H110.437L109.077 158.591C108.821 157.807 108.661 157.199 108.581 156.767C108.501 157.151 108.357 157.663 108.069 158.607L106.709 162.783H105.221ZM121.989 162.783H120.453V151.215H121.989L125.973 160.943L129.957 151.215H131.525V162.783H129.989V158.207C129.989 156.047 130.005 155.263 130.085 154.447L126.709 162.783H125.237L121.877 154.479C121.957 155.039 121.989 156.223 121.989 157.839V162.783ZM136.251 162.975C134.571 162.975 133.579 162.031 133.579 160.607C133.579 159.167 134.651 158.271 136.491 158.127L138.955 157.935V157.711C138.955 156.399 138.171 155.935 137.115 155.935C135.851 155.935 135.131 156.495 135.131 157.439H133.819C133.819 155.807 135.163 154.735 137.179 154.735C139.115 154.735 140.427 155.759 140.427 157.871V162.783H139.147L138.987 161.519C138.587 162.415 137.515 162.975 136.251 162.975ZM136.683 161.807C138.107 161.807 138.971 160.879 138.971 159.407V158.991L136.971 159.151C135.643 159.279 135.099 159.791 135.099 160.559C135.099 161.391 135.707 161.807 136.683 161.807ZM144.014 162.783H142.51V154.959H143.87L144.03 156.159C144.526 155.263 145.518 154.735 146.622 154.735C148.686 154.735 149.63 155.999 149.63 157.999V162.783H148.126V158.335C148.126 156.751 147.39 156.111 146.238 156.111C144.83 156.111 144.014 157.119 144.014 158.639V162.783ZM154.001 162.975C152.321 162.975 151.329 162.031 151.329 160.607C151.329 159.167 152.401 158.271 154.241 158.127L156.705 157.935V157.711C156.705 156.399 155.921 155.935 154.865 155.935C153.601 155.935 152.881 156.495 152.881 157.439H151.569C151.569 155.807 152.913 154.735 154.929 154.735C156.865 154.735 158.177 155.759 158.177 157.871V162.783H156.897L156.737 161.519C156.337 162.415 155.265 162.975 154.001 162.975ZM154.433 161.807C155.857 161.807 156.721 160.879 156.721 159.407V158.991L154.721 159.151C153.393 159.279 152.849 159.791 152.849 160.559C152.849 161.391 153.457 161.807 154.433 161.807ZM159.764 158.671C159.764 156.463 161.188 154.735 163.46 154.735C164.724 154.735 165.7 155.311 166.196 156.287L166.308 154.959H167.652V162.463C167.652 164.927 166.132 166.495 163.732 166.495C161.604 166.495 160.148 165.295 159.86 163.311H161.364C161.556 164.463 162.42 165.135 163.732 165.135C165.204 165.135 166.164 164.175 166.164 162.687V161.119C165.652 162.031 164.628 162.575 163.396 162.575C161.172 162.575 159.764 160.863 159.764 158.671ZM161.268 158.639C161.268 160.111 162.18 161.263 163.652 161.263C165.172 161.263 166.1 160.175 166.1 158.639C166.1 157.135 165.204 156.047 163.668 156.047C162.164 156.047 161.268 157.199 161.268 158.639ZM173.198 162.975C170.894 162.975 169.31 161.311 169.31 158.879C169.31 156.431 170.862 154.735 173.134 154.735C175.358 154.735 176.814 156.271 176.814 158.591V159.151L170.766 159.167C170.878 160.815 171.742 161.727 173.23 161.727C174.398 161.727 175.166 161.247 175.422 160.351H176.83C176.446 162.031 175.134 162.975 173.198 162.975ZM173.134 155.999C171.822 155.999 170.99 156.783 170.798 158.159H175.31C175.31 156.863 174.462 155.999 173.134 155.999ZM179.998 162.783H178.494V154.959H179.838L179.982 155.983C180.382 155.247 181.214 154.735 182.318 154.735C183.534 154.735 184.398 155.343 184.798 156.319C185.166 155.343 186.11 154.735 187.326 154.735C189.118 154.735 190.206 155.855 190.206 157.663V162.783H188.734V158.031C188.734 156.799 188.046 156.095 186.99 156.095C185.854 156.095 185.102 156.895 185.102 158.143V162.783H183.614V158.015C183.614 156.783 182.942 156.111 181.886 156.111C180.75 156.111 179.998 156.895 179.998 158.143V162.783ZM195.667 162.975C193.363 162.975 191.779 161.311 191.779 158.879C191.779 156.431 193.331 154.735 195.603 154.735C197.827 154.735 199.283 156.271 199.283 158.591V159.151L193.235 159.167C193.347 160.815 194.211 161.727 195.699 161.727C196.867 161.727 197.635 161.247 197.891 160.351H199.299C198.915 162.031 197.603 162.975 195.667 162.975ZM195.603 155.999C194.291 155.999 193.459 156.783 193.267 158.159H197.779C197.779 156.863 196.931 155.999 195.603 155.999ZM202.467 162.783H200.963V154.959H202.323L202.483 156.159C202.979 155.263 203.971 154.735 205.075 154.735C207.139 154.735 208.083 155.999 208.083 157.999V162.783H206.579V158.335C206.579 156.751 205.843 156.111 204.691 156.111C203.283 156.111 202.467 157.119 202.467 158.639V162.783ZM212.374 162.783H210.87V156.223H209.334V154.959H210.87V152.511H212.374V154.959H213.91V156.223H212.374V162.783ZM223.011 165.551H221.763C220.291 163.711 219.315 160.927 219.315 158.031C219.315 155.311 220.195 152.463 221.763 150.527H223.011C221.747 152.287 220.851 155.039 220.851 158.031C220.851 160.863 221.651 163.679 223.011 165.551ZM223.688 154.335C223.688 152.351 225.288 151.007 227.672 151.007C229.88 151.007 231.304 152.239 231.432 154.239H229.848C229.768 153.087 228.952 152.415 227.656 152.415C226.2 152.415 225.256 153.151 225.256 154.287C225.256 155.215 225.784 155.775 226.872 156.031L228.776 156.479C230.664 156.911 231.624 157.935 231.624 159.567C231.624 161.647 230.008 162.975 227.544 162.975C225.192 162.975 223.624 161.743 223.528 159.759H225.128C225.16 160.863 226.088 161.567 227.544 161.567C229.08 161.567 230.056 160.847 230.056 159.695C230.056 158.783 229.56 158.207 228.456 157.951L226.552 157.519C224.664 157.087 223.688 155.999 223.688 154.335ZM232.826 158.863C232.826 156.447 234.554 154.751 236.906 154.751C239.242 154.751 240.97 156.447 240.97 158.863C240.97 161.279 239.242 162.975 236.906 162.975C234.554 162.975 232.826 161.279 232.826 158.863ZM234.346 158.863C234.346 160.495 235.386 161.631 236.906 161.631C238.41 161.631 239.466 160.495 239.466 158.863C239.466 157.231 238.41 156.095 236.906 156.095C235.386 156.095 234.346 157.231 234.346 158.863ZM244.171 162.783H242.667V151.007H244.171V162.783ZM248.673 162.975C246.993 162.975 246.001 162.031 246.001 160.607C246.001 159.167 247.073 158.271 248.913 158.127L251.377 157.935V157.711C251.377 156.399 250.593 155.935 249.537 155.935C248.273 155.935 247.553 156.495 247.553 157.439H246.241C246.241 155.807 247.585 154.735 249.601 154.735C251.537 154.735 252.849 155.759 252.849 157.871V162.783H251.569L251.409 161.519C251.009 162.415 249.937 162.975 248.673 162.975ZM249.105 161.807C250.529 161.807 251.393 160.879 251.393 159.407V158.991L249.393 159.151C248.065 159.279 247.521 159.791 247.521 160.559C247.521 161.391 248.129 161.807 249.105 161.807ZM256.436 162.783H254.932V154.959H256.292L256.452 156.159C256.948 155.263 257.94 154.735 259.044 154.735C261.108 154.735 262.052 155.999 262.052 157.999V162.783H260.548V158.335C260.548 156.751 259.812 156.111 258.66 156.111C257.252 156.111 256.436 157.119 256.436 158.639V162.783ZM266.423 162.975C264.743 162.975 263.751 162.031 263.751 160.607C263.751 159.167 264.823 158.271 266.663 158.127L269.127 157.935V157.711C269.127 156.399 268.343 155.935 267.287 155.935C266.023 155.935 265.303 156.495 265.303 157.439H263.991C263.991 155.807 265.335 154.735 267.351 154.735C269.287 154.735 270.599 155.759 270.599 157.871V162.783H269.319L269.159 161.519C268.759 162.415 267.687 162.975 266.423 162.975ZM266.855 161.807C268.279 161.807 269.143 160.879 269.143 159.407V158.991L267.143 159.151C265.815 159.279 265.271 159.791 265.271 160.559C265.271 161.391 265.879 161.807 266.855 161.807ZM272.858 165.551H271.594C272.954 163.679 273.754 160.863 273.754 158.031C273.754 155.039 272.874 152.287 271.594 150.527H272.858C274.41 152.463 275.29 155.311 275.29 158.031C275.29 160.927 274.314 163.711 272.858 165.551Z" fill="#A0A0A1"/>
<path fill-rule="evenodd" clip-rule="evenodd" d="M32 200.783C36.4183 200.783 40 197.201 40 192.783C40 188.365 36.4183 184.783 32 184.783C27.5817 184.783 24 188.365 24 192.783C24 197.201 27.5817 200.783 32 200.783ZM35.7095 190.446C35.8913 190.238 35.8702 189.922 35.6624 189.74C35.4546 189.558 35.1387 189.579 34.9569 189.787L30.6421 194.718L29.0201 193.096C28.8248 192.901 28.5082 192.901 28.313 193.096C28.1177 193.292 28.1177 193.608 28.313 193.803L30.313 195.803C30.4108 195.901 30.5448 195.954 30.6831 195.95C30.8215 195.945 30.9517 195.883 31.0428 195.779L35.7095 190.446Z" fill="#A0A0A1"/>
<path d="M49.8234 198.784H48.1914L52.4154 187.216H54.1594L58.3994 198.784H56.7514L55.7114 195.904H50.8474L49.8234 198.784ZM53.0874 189.712L51.3274 194.544H55.2474L53.4714 189.712C53.3914 189.488 53.3114 189.216 53.2794 189.04C53.2474 189.2 53.1674 189.472 53.0874 189.712ZM59.0412 196.512H60.4812C60.4812 197.312 61.0892 197.792 62.0812 197.792C63.1372 197.792 63.7452 197.36 63.7452 196.64C63.7452 196.112 63.4892 195.792 62.6732 195.584L61.2972 195.264C59.9052 194.928 59.2492 194.24 59.2492 193.088C59.2492 191.648 60.4652 190.736 62.1932 190.736C63.9052 190.736 65.0252 191.696 65.0572 193.184H63.6172C63.5852 192.4 63.0572 191.904 62.1452 191.904C61.2012 191.904 60.6732 192.32 60.6732 193.04C60.6732 193.568 61.0572 193.92 61.8252 194.112L63.2012 194.448C64.5292 194.768 65.1852 195.376 65.1852 196.544C65.1852 198.032 63.9052 198.976 62.0492 198.976C60.2092 198.976 59.0412 198 59.0412 196.512ZM66.213 196.512H67.653C67.653 197.312 68.261 197.792 69.253 197.792C70.309 197.792 70.917 197.36 70.917 196.64C70.917 196.112 70.661 195.792 69.845 195.584L68.469 195.264C67.077 194.928 66.421 194.24 66.421 193.088C66.421 191.648 67.637 190.736 69.365 190.736C71.077 190.736 72.197 191.696 72.229 193.184H70.789C70.757 192.4 70.229 191.904 69.317 191.904C68.373 191.904 67.845 192.32 67.845 193.04C67.845 193.568 68.229 193.92 68.997 194.112L70.373 194.448C71.701 194.768 72.357 195.376 72.357 196.544C72.357 198.032 71.077 198.976 69.221 198.976C67.381 198.976 66.213 198 66.213 196.512ZM77.4009 198.976C75.0969 198.976 73.5129 197.312 73.5129 194.88C73.5129 192.432 75.0649 190.736 77.3369 190.736C79.5609 190.736 81.0169 192.272 81.0169 194.592V195.152L74.9689 195.168C75.0809 196.816 75.9449 197.728 77.4329 197.728C78.6009 197.728 79.3689 197.248 79.6249 196.352H81.0329C80.6489 198.032 79.3369 198.976 77.4009 198.976ZM77.3369 192C76.0249 192 75.1929 192.784 75.0009 194.16H79.5129C79.5129 192.864 78.6649 192 77.3369 192ZM84.8267 198.784H83.3227V192.224H81.7867V190.96H83.3227V188.512H84.8267V190.96H86.3627V192.224H84.8267V198.784ZM87.0724 196.512H88.5124C88.5124 197.312 89.1204 197.792 90.1124 197.792C91.1684 197.792 91.7764 197.36 91.7764 196.64C91.7764 196.112 91.5204 195.792 90.7044 195.584L89.3284 195.264C87.9364 194.928 87.2804 194.24 87.2804 193.088C87.2804 191.648 88.4964 190.736 90.2244 190.736C91.9364 190.736 93.0564 191.696 93.0884 193.184H91.6484C91.6164 192.4 91.0884 191.904 90.1764 191.904C89.2324 191.904 88.7044 192.32 88.7044 193.04C88.7044 193.568 89.0884 193.92 89.8564 194.112L91.2324 194.448C92.5604 194.768 93.2164 195.376 93.2164 196.544C93.2164 198.032 91.9364 198.976 90.0804 198.976C88.2404 198.976 87.0724 198 87.0724 196.512ZM100.763 198.784H99.2593V190.96H100.603L100.747 191.984C101.147 191.248 101.979 190.736 103.083 190.736C104.299 190.736 105.163 191.344 105.563 192.32C105.931 191.344 106.875 190.736 108.091 190.736C109.883 190.736 110.971 191.856 110.971 193.664V198.784H109.499V194.032C109.499 192.8 108.811 192.096 107.755 192.096C106.619 192.096 105.867 192.896 105.867 194.144V198.784H104.379V194.016C104.379 192.784 103.707 192.112 102.651 192.112C101.515 192.112 100.763 192.896 100.763 194.144V198.784ZM112.544 194.864C112.544 192.448 114.272 190.752 116.624 190.752C118.96 190.752 120.688 192.448 120.688 194.864C120.688 197.28 118.96 198.976 116.624 198.976C114.272 198.976 112.544 197.28 112.544 194.864ZM114.064 194.864C114.064 196.496 115.104 197.632 116.624 197.632C118.128 197.632 119.184 196.496 119.184 194.864C119.184 193.232 118.128 192.096 116.624 192.096C115.104 192.096 114.064 193.232 114.064 194.864ZM124.185 198.784L121.033 190.96H122.633L124.345 195.328C124.617 196.064 124.841 196.72 124.969 197.2C125.097 196.688 125.353 196.016 125.625 195.328L127.369 190.96H128.937L125.673 198.784H124.185ZM133.151 198.976C130.847 198.976 129.263 197.312 129.263 194.88C129.263 192.432 130.815 190.736 133.087 190.736C135.311 190.736 136.766 192.272 136.766 194.592V195.152L130.719 195.168C130.831 196.816 131.695 197.728 133.183 197.728C134.351 197.728 135.119 197.248 135.375 196.352H136.783C136.399 198.032 135.087 198.976 133.151 198.976ZM133.087 192C131.775 192 130.943 192.784 130.751 194.16H135.263C135.263 192.864 134.415 192 133.087 192ZM142.181 196.512H143.621C143.621 197.312 144.229 197.792 145.221 197.792C146.277 197.792 146.885 197.36 146.885 196.64C146.885 196.112 146.629 195.792 145.813 195.584L144.437 195.264C143.045 194.928 142.389 194.24 142.389 193.088C142.389 191.648 143.605 190.736 145.333 190.736C147.045 190.736 148.165 191.696 148.197 193.184H146.757C146.725 192.4 146.197 191.904 145.285 191.904C144.341 191.904 143.813 192.32 143.813 193.04C143.813 193.568 144.197 193.92 144.965 194.112L146.341 194.448C147.669 194.768 148.325 195.376 148.325 196.544C148.325 198.032 147.045 198.976 145.189 198.976C143.349 198.976 142.181 198 142.181 196.512ZM153.369 198.976C151.065 198.976 149.481 197.312 149.481 194.88C149.481 192.432 151.033 190.736 153.305 190.736C155.529 190.736 156.985 192.272 156.985 194.592V195.152L150.937 195.168C151.049 196.816 151.913 197.728 153.401 197.728C154.569 197.728 155.337 197.248 155.593 196.352H157.001C156.617 198.032 155.305 198.976 153.369 198.976ZM153.305 192C151.993 192 151.161 192.784 150.969 194.16H155.481C155.481 192.864 154.633 192 153.305 192ZM160.875 198.976C159.195 198.976 158.203 198.032 158.203 196.608C158.203 195.168 159.275 194.272 161.115 194.128L163.579 193.936V193.712C163.579 192.4 162.795 191.936 161.739 191.936C160.475 191.936 159.755 192.496 159.755 193.44H158.443C158.443 191.808 159.787 190.736 161.803 190.736C163.739 190.736 165.051 191.76 165.051 193.872V198.784H163.771L163.611 197.52C163.211 198.416 162.139 198.976 160.875 198.976ZM161.307 197.808C162.731 197.808 163.595 196.88 163.595 195.408V194.992L161.595 195.152C160.267 195.28 159.723 195.792 159.723 196.56C159.723 197.392 160.331 197.808 161.307 197.808ZM168.638 198.784H167.134V190.96H168.478L168.622 191.984C169.022 191.248 169.854 190.736 170.958 190.736C172.174 190.736 173.038 191.344 173.438 192.32C173.806 191.344 174.75 190.736 175.966 190.736C177.758 190.736 178.846 191.856 178.846 193.664V198.784H177.374V194.032C177.374 192.8 176.686 192.096 175.63 192.096C174.494 192.096 173.742 192.896 173.742 194.144V198.784H172.254V194.016C172.254 192.784 171.582 192.112 170.526 192.112C169.39 192.112 168.638 192.896 168.638 194.144V198.784ZM182.467 198.784H180.963V187.008H182.467V198.784ZM188.057 198.976C185.753 198.976 184.169 197.312 184.169 194.88C184.169 192.432 185.721 190.736 187.993 190.736C190.217 190.736 191.673 192.272 191.673 194.592V195.152L185.625 195.168C185.737 196.816 186.601 197.728 188.089 197.728C189.257 197.728 190.025 197.248 190.281 196.352H191.689C191.305 198.032 189.993 198.976 188.057 198.976ZM187.993 192C186.681 192 185.849 192.784 185.657 194.16H190.169C190.169 192.864 189.321 192 187.993 192ZM192.713 196.512H194.153C194.153 197.312 194.761 197.792 195.753 197.792C196.809 197.792 197.417 197.36 197.417 196.64C197.417 196.112 197.161 195.792 196.345 195.584L194.969 195.264C193.577 194.928 192.921 194.24 192.921 193.088C192.921 191.648 194.137 190.736 195.865 190.736C197.577 190.736 198.697 191.696 198.729 193.184H197.289C197.257 192.4 196.729 191.904 195.817 191.904C194.873 191.904 194.345 192.32 194.345 193.04C194.345 193.568 194.729 193.92 195.497 194.112L196.873 194.448C198.201 194.768 198.857 195.376 198.857 196.544C198.857 198.032 197.577 198.976 195.721 198.976C193.881 198.976 192.713 198 192.713 196.512ZM199.885 196.512H201.325C201.325 197.312 201.933 197.792 202.925 197.792C203.981 197.792 204.589 197.36 204.589 196.64C204.589 196.112 204.333 195.792 203.517 195.584L202.141 195.264C200.749 194.928 200.093 194.24 200.093 193.088C200.093 191.648 201.309 190.736 203.037 190.736C204.749 190.736 205.869 191.696 205.901 193.184H204.461C204.429 192.4 203.901 191.904 202.989 191.904C202.045 191.904 201.517 192.32 201.517 193.04C201.517 193.568 201.901 193.92 202.669 194.112L204.045 194.448C205.373 194.768 206.029 195.376 206.029 196.544C206.029 198.032 204.749 198.976 202.893 198.976C201.053 198.976 199.885 198 199.885 196.512ZM209.232 198.784H207.728V187.008H209.232V198.784ZM210.694 202.288V201.056H211.702C212.422 201.056 212.998 200.944 213.366 199.952L213.638 199.2L210.486 190.96H212.07L214.342 197.264L216.662 190.96H218.214L214.518 200.544C213.99 201.888 213.206 202.448 212.006 202.448C211.51 202.448 211.094 202.384 210.694 202.288ZM226.078 198.976C224.398 198.976 223.406 198.032 223.406 196.608C223.406 195.168 224.478 194.272 226.318 194.128L228.782 193.936V193.712C228.782 192.4 227.998 191.936 226.942 191.936C225.678 191.936 224.958 192.496 224.958 193.44H223.646C223.646 191.808 224.99 190.736 227.006 190.736C228.942 190.736 230.254 191.76 230.254 193.872V198.784H228.974L228.814 197.52C228.414 198.416 227.342 198.976 226.078 198.976ZM226.51 197.808C227.934 197.808 228.798 196.88 228.798 195.408V194.992L226.798 195.152C225.47 195.28 224.926 195.792 224.926 196.56C224.926 197.392 225.534 197.808 226.51 197.808ZM231.825 194.88C231.825 192.432 233.377 190.736 235.665 190.736C237.633 190.736 239.009 191.856 239.281 193.6H237.777C237.521 192.608 236.721 192.08 235.713 192.08C234.289 192.08 233.313 193.168 233.313 194.864C233.313 196.544 234.225 197.632 235.649 197.632C236.721 197.632 237.521 197.072 237.793 196.144H239.297C238.993 197.84 237.537 198.976 235.649 198.976C233.345 198.976 231.825 197.344 231.825 194.88ZM245.364 190.896V192.272H244.692C243.268 192.272 242.388 193.136 242.388 194.64V198.784H240.884V190.976H242.292L242.388 192.16C242.708 191.344 243.492 190.8 244.564 190.8C244.836 190.8 245.06 190.832 245.364 190.896ZM245.981 194.864C245.981 192.448 247.709 190.752 250.061 190.752C252.397 190.752 254.125 192.448 254.125 194.864C254.125 197.28 252.397 198.976 250.061 198.976C247.709 198.976 245.981 197.28 245.981 194.864ZM247.501 194.864C247.501 196.496 248.541 197.632 250.061 197.632C251.565 197.632 252.621 196.496 252.621 194.864C252.621 193.232 251.565 192.096 250.061 192.096C248.541 192.096 247.501 193.232 247.501 194.864ZM255.15 196.512H256.59C256.59 197.312 257.198 197.792 258.19 197.792C259.246 197.792 259.854 197.36 259.854 196.64C259.854 196.112 259.598 195.792 258.782 195.584L257.406 195.264C256.014 194.928 255.358 194.24 255.358 193.088C255.358 191.648 256.574 190.736 258.302 190.736C260.014 190.736 261.134 191.696 261.166 193.184H259.726C259.694 192.4 259.166 191.904 258.254 191.904C257.31 191.904 256.782 192.32 256.782 193.04C256.782 193.568 257.166 193.92 257.934 194.112L259.31 194.448C260.638 194.768 261.294 195.376 261.294 196.544C261.294 198.032 260.014 198.976 258.158 198.976C256.318 198.976 255.15 198 255.15 196.512ZM262.322 196.512H263.762C263.762 197.312 264.37 197.792 265.362 197.792C266.418 197.792 267.026 197.36 267.026 196.64C267.026 196.112 266.77 195.792 265.954 195.584L264.578 195.264C263.186 194.928 262.53 194.24 262.53 193.088C262.53 191.648 263.746 190.736 265.474 190.736C267.186 190.736 268.306 191.696 268.338 193.184H266.898C266.866 192.4 266.338 191.904 265.426 191.904C264.482 191.904 263.954 192.32 263.954 193.04C263.954 193.568 264.338 193.92 265.106 194.112L266.482 194.448C267.81 194.768 268.466 195.376 268.466 196.544C268.466 198.032 267.186 198.976 265.33 198.976C263.49 198.976 262.322 198 262.322 196.512ZM273.997 194.88C273.997 192.432 275.549 190.736 277.837 190.736C279.805 190.736 281.181 191.856 281.453 193.6H279.949C279.693 192.608 278.893 192.08 277.885 192.08C276.461 192.08 275.485 193.168 275.485 194.864C275.485 196.544 276.397 197.632 277.821 197.632C278.893 197.632 279.693 197.072 279.965 196.144H281.469C281.165 197.84 279.709 198.976 277.821 198.976C275.517 198.976 273.997 197.344 273.997 194.88ZM284.56 198.768H283.056V187.008H284.56V192.16C285.056 191.312 286 190.736 287.216 190.736C289.216 190.736 290.176 192 290.176 194V198.784H288.672V194.336C288.672 192.752 287.92 192.112 286.8 192.112C285.344 192.112 284.56 193.168 284.56 194.512V198.768ZM294.547 198.976C292.867 198.976 291.875 198.032 291.875 196.608C291.875 195.168 292.947 194.272 294.787 194.128L297.251 193.936V193.712C297.251 192.4 296.467 191.936 295.411 191.936C294.147 191.936 293.427 192.496 293.427 193.44H292.115C292.115 191.808 293.459 190.736 295.475 190.736C297.411 190.736 298.723 191.76 298.723 193.872V198.784H297.443L297.283 197.52C296.883 198.416 295.811 198.976 294.547 198.976ZM294.979 197.808C296.403 197.808 297.267 196.88 297.267 195.408V194.992L295.267 195.152C293.939 195.28 293.395 195.792 293.395 196.56C293.395 197.392 294.003 197.808 294.979 197.808ZM301.542 189.104C300.998 189.104 300.55 188.656 300.55 188.112C300.55 187.552 300.998 187.12 301.542 187.12C302.086 187.12 302.534 187.552 302.534 188.112C302.534 188.656 302.086 189.104 301.542 189.104ZM300.806 198.784V190.96H302.31V198.784H300.806ZM305.997 198.784H304.493V190.96H305.853L306.013 192.16C306.509 191.264 307.501 190.736 308.605 190.736C310.669 190.736 311.613 192 311.613 194V198.784H310.109V194.336C310.109 192.752 309.373 192.112 308.221 192.112C306.813 192.112 305.997 193.12 305.997 194.64V198.784ZM312.963 196.512H314.403C314.403 197.312 315.011 197.792 316.003 197.792C317.059 197.792 317.667 197.36 317.667 196.64C317.667 196.112 317.411 195.792 316.595 195.584L315.219 195.264C313.827 194.928 313.171 194.24 313.171 193.088C313.171 191.648 314.387 190.736 316.115 190.736C317.827 190.736 318.947 191.696 318.979 193.184H317.539C317.507 192.4 316.979 191.904 316.067 191.904C315.123 191.904 314.595 192.32 314.595 193.04C314.595 193.568 314.979 193.92 315.747 194.112L317.123 194.448C318.451 194.768 319.107 195.376 319.107 196.544C319.107 198.032 317.827 198.976 315.971 198.976C314.131 198.976 312.963 198 312.963 196.512Z" fill="#A0A0A1"/>
</g>
<defs>
<linearGradient id="paint0_linear_10312_10563" x1="3.92726e-06" y1="288.783" x2="394.132" y2="176.046" gradientUnits="userSpaceOnUse">
<stop stop-color="white" stop-opacity="0.1"/>
<stop offset="1" stop-color="white" stop-opacity="0.05"/>
</linearGradient>
<clipPath id="clip0_10312_10563">
<rect width="344" height="288" fill="white" transform="translate(0 0.783203)"/>
</clipPath>
</defs>
</svg>
