<svg width="327" height="264" viewBox="0 0 327 264" fill="none" xmlns="http://www.w3.org/2000/svg">
<rect x="0.5" y="0.5" width="326" height="263" rx="19.5" fill="#252238"/>
<rect x="0.5" y="0.5" width="326" height="263" rx="19.5" stroke="url(#paint0_linear_10085_39714)"/>
<path d="M37.08 46.96L35.52 45.2C34.44 45.86 33.16 46.24 31.74 46.24C27.66 46.24 24.82 43.16 24.82 38.76C24.82 34.38 27.68 31.28 31.76 31.28C35.86 31.28 38.72 34.36 38.72 38.76C38.72 40.92 38.02 42.76 36.84 44.08L38.36 45.8L37.08 46.96ZM36.66 38.76C36.66 35.4 34.7 33.18 31.76 33.18C28.82 33.18 26.88 35.4 26.88 38.76C26.88 42.12 28.82 44.36 31.76 44.36C32.68 44.36 33.5 44.14 34.2 43.72L32.3 41.58L33.58 40.42L35.5 42.58C36.24 41.62 36.66 40.3 36.66 38.76ZM44.6669 38.52H43.2269V37.22L47.3269 33.28H40.8269V31.54H49.8069V33.12L45.8469 36.9C48.3069 37.2 50.1669 38.86 50.1669 41.46C50.1669 44.38 47.9669 46.24 45.0269 46.24C42.1869 46.24 40.1469 44.5 40.1469 41.5H42.0869C42.0869 43.38 43.2469 44.48 45.0669 44.48C46.9469 44.48 48.1669 43.28 48.1669 41.42C48.1669 39.68 46.9669 38.52 44.6669 38.52ZM57.6428 41.54V39.86H63.7428V41.54H57.6428ZM81.1448 45.98L71.3848 46V44.5L76.0448 40.48C78.3848 38.46 79.0448 37.48 79.0448 35.94C79.0448 34.12 78.0048 33.04 76.2648 33.04C74.4848 33.04 73.3248 34.34 73.2848 36.4H71.3248C71.3848 33.3 73.3448 31.28 76.2848 31.28C79.1848 31.28 81.0448 33.04 81.0448 35.82C81.0448 37.88 80.0248 39.34 77.4648 41.56L74.4648 44.16H81.1448V45.98ZM82.9488 38.78C82.9488 34.3 85.2688 31.26 88.9088 31.26C92.5287 31.26 94.8488 34.3 94.8488 38.78C94.8488 43.28 92.6288 46.26 88.9088 46.26C85.1688 46.26 82.9488 43.28 82.9488 38.78ZM84.8888 38.78C84.8888 42.34 86.3688 44.5 88.9088 44.5C91.4488 44.5 92.9088 42.34 92.9088 38.78C92.9088 35.18 91.4488 33.02 88.9088 33.02C86.3688 33.02 84.8888 35.18 84.8888 38.78ZM106.516 45.98L96.7559 46V44.5L101.416 40.48C103.756 38.46 104.416 37.48 104.416 35.94C104.416 34.12 103.376 33.04 101.636 33.04C99.8559 33.04 98.6959 34.34 98.6559 36.4H96.6959C96.7559 33.3 98.7159 31.28 101.656 31.28C104.556 31.28 106.416 33.04 106.416 35.82C106.416 37.88 105.396 39.34 102.836 41.56L99.8359 44.16H106.516V45.98ZM118.709 43.08H116.989V46H115.109V43.08H107.629V41.34L114.449 31.54H116.989V41.34H118.709V43.08ZM109.749 41.34H115.109V33.62L109.749 41.34Z" fill="#F3F3F3"/>
<path fill-rule="evenodd" clip-rule="evenodd" d="M32 92C36.4183 92 40 88.4183 40 84C40 79.5817 36.4183 76 32 76C27.5817 76 24 79.5817 24 84C24 88.4183 27.5817 92 32 92ZM35.7095 81.6627C35.8913 81.4549 35.8702 81.139 35.6624 80.9572C35.4546 80.7754 35.1387 80.7964 34.9569 81.0042L30.6421 85.9354L29.0201 84.3133C28.8248 84.118 28.5082 84.118 28.313 84.3133C28.1177 84.5085 28.1177 84.8251 28.313 85.0204L30.313 87.0204C30.4108 87.1182 30.5448 87.1712 30.6831 87.1666C30.8215 87.1619 30.9517 87.1002 31.0428 86.9961L35.7095 81.6627Z" fill="#A0A0A1"/>
<path d="M50.88 90H49.344V78.432H50.88L54.864 88.16L58.848 78.432H60.416V90H58.88V85.424C58.88 83.264 58.896 82.48 58.976 81.664L55.6 90H54.128L50.768 81.696C50.848 82.256 50.88 83.44 50.88 85.056V90ZM68.2616 82.176H69.7496V90H68.4056L68.2456 88.816C67.7976 89.632 66.7576 90.192 65.6056 90.192C63.7816 90.192 62.7576 88.96 62.7576 87.04V82.176H64.2616V86.544C64.2616 88.224 64.9816 88.864 66.1336 88.864C67.5096 88.864 68.2616 87.984 68.2616 86.304V82.176ZM73.4678 90H71.9638V78.224H73.4678V90ZM77.8898 90H76.3858V83.44H74.8498V82.176H76.3858V79.728H77.8898V82.176H79.4258V83.44H77.8898V90ZM81.5115 80.32C80.9675 80.32 80.5195 79.872 80.5195 79.328C80.5195 78.768 80.9675 78.336 81.5115 78.336C82.0555 78.336 82.5035 78.768 82.5035 79.328C82.5035 79.872 82.0555 80.32 81.5115 80.32ZM80.7755 90V82.176H82.2795V90H80.7755ZM83.823 87.728H85.263C85.263 88.528 85.871 89.008 86.863 89.008C87.919 89.008 88.527 88.576 88.527 87.856C88.527 87.328 88.271 87.008 87.455 86.8L86.079 86.48C84.687 86.144 84.031 85.456 84.031 84.304C84.031 82.864 85.247 81.952 86.975 81.952C88.687 81.952 89.807 82.912 89.839 84.4H88.399C88.367 83.616 87.839 83.12 86.927 83.12C85.983 83.12 85.455 83.536 85.455 84.256C85.455 84.784 85.839 85.136 86.607 85.328L87.983 85.664C89.311 85.984 89.967 86.592 89.967 87.76C89.967 89.248 88.687 90.192 86.831 90.192C84.991 90.192 83.823 89.216 83.823 87.728ZM92.3709 80.32C91.8269 80.32 91.3789 79.872 91.3789 79.328C91.3789 78.768 91.8269 78.336 92.3709 78.336C92.9149 78.336 93.3629 78.768 93.3629 79.328C93.3629 79.872 92.9149 80.32 92.3709 80.32ZM91.6349 90V82.176H93.1389V90H91.6349ZM94.8264 85.888C94.8264 83.68 96.2504 81.952 98.5224 81.952C99.7864 81.952 100.762 82.528 101.258 83.504L101.37 82.176H102.714V89.68C102.714 92.144 101.194 93.712 98.7944 93.712C96.6664 93.712 95.2104 92.512 94.9224 90.528H96.4264C96.6184 91.68 97.4824 92.352 98.7944 92.352C100.266 92.352 101.226 91.392 101.226 89.904V88.336C100.714 89.248 99.6904 89.792 98.4584 89.792C96.2344 89.792 94.8264 88.08 94.8264 85.888ZM96.3304 85.856C96.3304 87.328 97.2424 88.48 98.7144 88.48C100.234 88.48 101.162 87.392 101.162 85.856C101.162 84.352 100.266 83.264 98.7304 83.264C97.2264 83.264 96.3304 84.416 96.3304 85.856ZM111.548 90.192C109.868 90.192 108.876 89.248 108.876 87.824C108.876 86.384 109.948 85.488 111.788 85.344L114.252 85.152V84.928C114.252 83.616 113.468 83.152 112.412 83.152C111.148 83.152 110.428 83.712 110.428 84.656H109.116C109.116 83.024 110.46 81.952 112.476 81.952C114.412 81.952 115.724 82.976 115.724 85.088V90H114.444L114.284 88.736C113.884 89.632 112.812 90.192 111.548 90.192ZM111.98 89.024C113.404 89.024 114.268 88.096 114.268 86.624V86.208L112.268 86.368C110.94 86.496 110.396 87.008 110.396 87.776C110.396 88.608 111.004 89.024 111.98 89.024ZM117.167 87.728H118.607C118.607 88.528 119.215 89.008 120.207 89.008C121.263 89.008 121.871 88.576 121.871 87.856C121.871 87.328 121.615 87.008 120.799 86.8L119.423 86.48C118.031 86.144 117.375 85.456 117.375 84.304C117.375 82.864 118.591 81.952 120.319 81.952C122.031 81.952 123.151 82.912 123.183 84.4H121.743C121.711 83.616 121.183 83.12 120.271 83.12C119.327 83.12 118.799 83.536 118.799 84.256C118.799 84.784 119.183 85.136 119.951 85.328L121.327 85.664C122.655 85.984 123.311 86.592 123.311 87.76C123.311 89.248 122.031 90.192 120.175 90.192C118.335 90.192 117.167 89.216 117.167 87.728ZM131.642 90.192C129.962 90.192 128.97 89.248 128.97 87.824C128.97 86.384 130.042 85.488 131.882 85.344L134.346 85.152V84.928C134.346 83.616 133.562 83.152 132.506 83.152C131.242 83.152 130.522 83.712 130.522 84.656H129.21C129.21 83.024 130.554 81.952 132.57 81.952C134.506 81.952 135.818 82.976 135.818 85.088V90H134.538L134.378 88.736C133.978 89.632 132.906 90.192 131.642 90.192ZM132.074 89.024C133.498 89.024 134.362 88.096 134.362 86.624V86.208L132.362 86.368C131.034 86.496 130.49 87.008 130.49 87.776C130.49 88.608 131.098 89.024 132.074 89.024ZM141.636 87.728H143.076C143.076 88.528 143.684 89.008 144.676 89.008C145.732 89.008 146.34 88.576 146.34 87.856C146.34 87.328 146.084 87.008 145.268 86.8L143.892 86.48C142.5 86.144 141.844 85.456 141.844 84.304C141.844 82.864 143.06 81.952 144.788 81.952C146.5 81.952 147.62 82.912 147.652 84.4H146.212C146.18 83.616 145.652 83.12 144.74 83.12C143.796 83.12 143.268 83.536 143.268 84.256C143.268 84.784 143.652 85.136 144.42 85.328L145.796 85.664C147.124 85.984 147.78 86.592 147.78 87.76C147.78 89.248 146.5 90.192 144.644 90.192C142.804 90.192 141.636 89.216 141.636 87.728ZM152.823 90.192C150.519 90.192 148.935 88.528 148.935 86.096C148.935 83.648 150.487 81.952 152.759 81.952C154.983 81.952 156.439 83.488 156.439 85.808V86.368L150.391 86.384C150.503 88.032 151.367 88.944 152.855 88.944C154.023 88.944 154.791 88.464 155.047 87.568H156.455C156.071 89.248 154.759 90.192 152.823 90.192ZM152.759 83.216C151.447 83.216 150.615 84 150.423 85.376H154.935C154.935 84.08 154.087 83.216 152.759 83.216ZM162.599 82.112V83.488H161.927C160.503 83.488 159.623 84.352 159.623 85.856V90H158.119V82.192H159.527L159.623 83.376C159.943 82.56 160.727 82.016 161.799 82.016C162.071 82.016 162.295 82.048 162.599 82.112ZM166.436 90L163.284 82.176H164.884L166.596 86.544C166.868 87.28 167.092 87.936 167.22 88.416C167.348 87.904 167.604 87.232 167.876 86.544L169.62 82.176H171.188L167.924 90H166.436ZM173.121 80.32C172.577 80.32 172.129 79.872 172.129 79.328C172.129 78.768 172.577 78.336 173.121 78.336C173.665 78.336 174.113 78.768 174.113 79.328C174.113 79.872 173.665 80.32 173.121 80.32ZM172.385 90V82.176H173.889V90H172.385ZM175.56 86.096C175.56 83.648 177.112 81.952 179.4 81.952C181.368 81.952 182.744 83.072 183.016 84.816H181.512C181.256 83.824 180.456 83.296 179.448 83.296C178.024 83.296 177.048 84.384 177.048 86.08C177.048 87.76 177.96 88.848 179.384 88.848C180.456 88.848 181.256 88.288 181.528 87.36H183.032C182.728 89.056 181.272 90.192 179.384 90.192C177.08 90.192 175.56 88.56 175.56 86.096ZM187.995 90.192C185.691 90.192 184.107 88.528 184.107 86.096C184.107 83.648 185.659 81.952 187.931 81.952C190.155 81.952 191.611 83.488 191.611 85.808V86.368L185.563 86.384C185.675 88.032 186.539 88.944 188.027 88.944C189.195 88.944 189.963 88.464 190.219 87.568H191.627C191.243 89.248 189.931 90.192 187.995 90.192ZM187.931 83.216C186.619 83.216 185.787 84 185.595 85.376H190.107C190.107 84.08 189.259 83.216 187.931 83.216ZM197.25 81.552C197.25 79.568 198.85 78.224 201.234 78.224C203.442 78.224 204.866 79.456 204.994 81.456H203.41C203.33 80.304 202.514 79.632 201.218 79.632C199.762 79.632 198.818 80.368 198.818 81.504C198.818 82.432 199.346 82.992 200.434 83.248L202.338 83.696C204.226 84.128 205.186 85.152 205.186 86.784C205.186 88.864 203.57 90.192 201.106 90.192C198.754 90.192 197.186 88.96 197.09 86.976H198.69C198.722 88.08 199.65 88.784 201.106 88.784C202.642 88.784 203.618 88.064 203.618 86.912C203.618 86 203.122 85.424 202.018 85.168L200.114 84.736C198.226 84.304 197.25 83.216 197.25 81.552ZM210.981 90H207.157V78.432H210.917C214.373 78.432 216.709 80.768 216.709 84.224C216.709 87.664 214.405 90 210.981 90ZM210.805 79.872H208.725V88.544H210.869C213.445 88.544 215.077 86.88 215.077 84.224C215.077 81.536 213.445 79.872 210.805 79.872ZM220.271 78.432V84.992L225.423 78.432H227.295L223.423 83.344L227.359 90H225.535L222.383 84.672L220.271 87.344V90H218.703V78.432H220.271Z" fill="#A0A0A1"/>
<path fill-rule="evenodd" clip-rule="evenodd" d="M32 128C36.4183 128 40 124.418 40 120C40 115.582 36.4183 112 32 112C27.5817 112 24 115.582 24 120C24 124.418 27.5817 128 32 128ZM35.7095 117.663C35.8913 117.455 35.8702 117.139 35.6624 116.957C35.4546 116.775 35.1387 116.796 34.9569 117.004L30.6421 121.935L29.0201 120.313C28.8248 120.118 28.5082 120.118 28.313 120.313C28.1177 120.509 28.1177 120.825 28.313 121.02L30.313 123.02C30.4108 123.118 30.5448 123.171 30.6831 123.167C30.8215 123.162 30.9517 123.1 31.0428 122.996L35.7095 117.663Z" fill="#A0A0A1"/>
<path d="M48.672 117.552C48.672 115.568 50.272 114.224 52.656 114.224C54.864 114.224 56.288 115.456 56.416 117.456H54.832C54.752 116.304 53.936 115.632 52.64 115.632C51.184 115.632 50.24 116.368 50.24 117.504C50.24 118.432 50.768 118.992 51.856 119.248L53.76 119.696C55.648 120.128 56.608 121.152 56.608 122.784C56.608 124.864 54.992 126.192 52.528 126.192C50.176 126.192 48.608 124.96 48.512 122.976H50.112C50.144 124.08 51.072 124.784 52.528 124.784C54.064 124.784 55.04 124.064 55.04 122.912C55.04 122 54.544 121.424 53.44 121.168L51.536 120.736C49.648 120.304 48.672 119.216 48.672 117.552ZM60.5304 126H59.0264V119.44H57.4904V118.176H59.0264V115.728H60.5304V118.176H62.0664V119.44H60.5304V126ZM65.6104 126.192C63.9304 126.192 62.9384 125.248 62.9384 123.824C62.9384 122.384 64.0104 121.488 65.8504 121.344L68.3144 121.152V120.928C68.3144 119.616 67.5304 119.152 66.4744 119.152C65.2104 119.152 64.4904 119.712 64.4904 120.656H63.1784C63.1784 119.024 64.5224 117.952 66.5384 117.952C68.4744 117.952 69.7864 118.976 69.7864 121.088V126H68.5064L68.3464 124.736C67.9464 125.632 66.8744 126.192 65.6104 126.192ZM66.0424 125.024C67.4664 125.024 68.3304 124.096 68.3304 122.624V122.208L66.3304 122.368C65.0024 122.496 64.4584 123.008 64.4584 123.776C64.4584 124.608 65.0664 125.024 66.0424 125.024ZM73.4053 126H71.9013V114.224H73.4053V121.856L76.8773 118.176H78.7653L75.7733 121.296L78.7493 126H77.0213L74.7333 122.384L73.4053 123.776V126ZM80.7303 116.32C80.1863 116.32 79.7383 115.872 79.7383 115.328C79.7383 114.768 80.1863 114.336 80.7303 114.336C81.2743 114.336 81.7223 114.768 81.7223 115.328C81.7223 115.872 81.2743 116.32 80.7303 116.32ZM79.9943 126V118.176H81.4983V126H79.9943ZM85.1858 126H83.6818V118.176H85.0418L85.2018 119.376C85.6978 118.48 86.6898 117.952 87.7938 117.952C89.8578 117.952 90.8018 119.216 90.8018 121.216V126H89.2978V121.552C89.2978 119.968 88.5618 119.328 87.4098 119.328C86.0018 119.328 85.1858 120.336 85.1858 121.856V126ZM92.3889 121.888C92.3889 119.68 93.8129 117.952 96.0849 117.952C97.3489 117.952 98.3249 118.528 98.8209 119.504L98.9329 118.176H100.277V125.68C100.277 128.144 98.7569 129.712 96.3569 129.712C94.2289 129.712 92.7729 128.512 92.4849 126.528H93.9889C94.1809 127.68 95.0449 128.352 96.3569 128.352C97.8289 128.352 98.7889 127.392 98.7889 125.904V124.336C98.2769 125.248 97.2529 125.792 96.0209 125.792C93.7969 125.792 92.3889 124.08 92.3889 121.888ZM93.8929 121.856C93.8929 123.328 94.8049 124.48 96.2769 124.48C97.7969 124.48 98.7249 123.392 98.7249 121.856C98.7249 120.352 97.8289 119.264 96.2929 119.264C94.7889 119.264 93.8929 120.416 93.8929 121.856ZM107.558 126H105.926L110.15 114.432H111.894L116.134 126H114.486L113.446 123.12H108.582L107.558 126ZM110.822 116.928L109.062 121.76H112.982L111.206 116.928C111.126 116.704 111.046 116.432 111.014 116.256C110.982 116.416 110.902 116.688 110.822 116.928ZM116.78 121.888C116.78 119.68 118.204 117.952 120.476 117.952C121.74 117.952 122.716 118.528 123.212 119.504L123.324 118.176H124.668V125.68C124.668 128.144 123.148 129.712 120.748 129.712C118.62 129.712 117.164 128.512 116.876 126.528H118.38C118.572 127.68 119.436 128.352 120.748 128.352C122.22 128.352 123.18 127.392 123.18 125.904V124.336C122.668 125.248 121.644 125.792 120.411 125.792C118.188 125.792 116.78 124.08 116.78 121.888ZM118.284 121.856C118.284 123.328 119.196 124.48 120.668 124.48C122.188 124.48 123.116 123.392 123.116 121.856C123.116 120.352 122.22 119.264 120.684 119.264C119.18 119.264 118.284 120.416 118.284 121.856ZM126.342 121.888C126.342 119.68 127.766 117.952 130.038 117.952C131.302 117.952 132.278 118.528 132.774 119.504L132.886 118.176H134.23V125.68C134.23 128.144 132.71 129.712 130.31 129.712C128.182 129.712 126.726 128.512 126.438 126.528H127.942C128.134 127.68 128.998 128.352 130.31 128.352C131.782 128.352 132.742 127.392 132.742 125.904V124.336C132.23 125.248 131.206 125.792 129.974 125.792C127.75 125.792 126.342 124.08 126.342 121.888ZM127.846 121.856C127.846 123.328 128.758 124.48 130.23 124.48C131.75 124.48 132.678 123.392 132.678 121.856C132.678 120.352 131.782 119.264 130.246 119.264C128.742 119.264 127.846 120.416 127.846 121.856ZM140.881 118.112V119.488H140.209C138.785 119.488 137.905 120.352 137.905 121.856V126H136.401V118.192H137.809L137.905 119.376C138.225 118.56 139.009 118.016 140.081 118.016C140.353 118.016 140.577 118.048 140.881 118.112ZM145.386 126.192C143.082 126.192 141.498 124.528 141.498 122.096C141.498 119.648 143.05 117.952 145.322 117.952C147.546 117.952 149.002 119.488 149.002 121.808V122.368L142.954 122.384C143.066 124.032 143.93 124.944 145.418 124.944C146.586 124.944 147.354 124.464 147.61 123.568H149.018C148.634 125.248 147.322 126.192 145.386 126.192ZM145.322 119.216C144.01 119.216 143.178 120 142.986 121.376H147.498C147.498 120.08 146.65 119.216 145.322 119.216ZM150.186 121.888C150.186 119.68 151.61 117.952 153.882 117.952C155.146 117.952 156.122 118.528 156.618 119.504L156.73 118.176H158.074V125.68C158.074 128.144 156.554 129.712 154.154 129.712C152.026 129.712 150.57 128.512 150.282 126.528H151.786C151.978 127.68 152.842 128.352 154.154 128.352C155.626 128.352 156.586 127.392 156.586 125.904V124.336C156.074 125.248 155.05 125.792 153.818 125.792C151.594 125.792 150.186 124.08 150.186 121.888ZM151.69 121.856C151.69 123.328 152.602 124.48 154.074 124.48C155.594 124.48 156.522 123.392 156.522 121.856C156.522 120.352 155.626 119.264 154.09 119.264C152.586 119.264 151.69 120.416 151.69 121.856ZM162.532 126.192C160.852 126.192 159.86 125.248 159.86 123.824C159.86 122.384 160.932 121.488 162.772 121.344L165.236 121.152V120.928C165.236 119.616 164.452 119.152 163.396 119.152C162.132 119.152 161.412 119.712 161.412 120.656H160.1C160.1 119.024 161.444 117.952 163.46 117.952C165.396 117.952 166.708 118.976 166.708 121.088V126H165.428L165.268 124.736C164.868 125.632 163.796 126.192 162.532 126.192ZM162.964 125.024C164.388 125.024 165.252 124.096 165.252 122.624V122.208L163.252 122.368C161.924 122.496 161.38 123.008 161.38 123.776C161.38 124.608 161.988 125.024 162.964 125.024ZM170.874 126H169.37V119.44H167.834V118.176H169.37V115.728H170.874V118.176H172.41V119.44H170.874V126ZM173.17 122.08C173.17 119.664 174.898 117.968 177.25 117.968C179.586 117.968 181.314 119.664 181.314 122.08C181.314 124.496 179.586 126.192 177.25 126.192C174.898 126.192 173.17 124.496 173.17 122.08ZM174.69 122.08C174.69 123.712 175.73 124.848 177.25 124.848C178.754 124.848 179.81 123.712 179.81 122.08C179.81 120.448 178.754 119.312 177.25 119.312C175.73 119.312 174.69 120.448 174.69 122.08ZM187.459 118.112V119.488H186.787C185.363 119.488 184.483 120.352 184.483 121.856V126H182.979V118.192H184.387L184.483 119.376C184.803 118.56 185.587 118.016 186.659 118.016C186.931 118.016 187.155 118.048 187.459 118.112ZM196.62 128.768H195.372C193.9 126.928 192.924 124.144 192.924 121.248C192.924 118.528 193.804 115.68 195.372 113.744H196.62C195.356 115.504 194.46 118.256 194.46 121.248C194.46 124.08 195.26 126.896 196.62 128.768ZM198.449 126H196.817L201.041 114.432H202.785L207.025 126H205.377L204.337 123.12H199.473L198.449 126ZM201.713 116.928L199.953 121.76H203.873L202.097 116.928C202.017 116.704 201.937 116.432 201.905 116.256C201.873 116.416 201.793 116.688 201.713 116.928ZM210.216 126L205.816 114.432H207.496L210.312 121.824C210.568 122.48 210.792 123.136 211.032 124C211.304 123.088 211.576 122.32 211.768 121.808L214.568 114.432H216.2L211.848 126H210.216ZM216.621 126H214.989L219.213 114.432H220.957L225.197 126H223.549L222.509 123.12H217.645L216.621 126ZM219.885 116.928L218.125 121.76H222.045L220.269 116.928C220.189 116.704 220.109 116.432 220.077 116.256C220.045 116.416 219.965 116.688 219.885 116.928ZM229.615 120.224L225.663 114.432H227.535L229.343 117.008C229.855 117.76 230.239 118.4 230.575 119.04L233.631 114.432H235.439L231.567 120.208L235.487 126H233.631L231.855 123.456C231.407 122.8 230.975 122.096 230.591 121.424L227.487 126H225.647L229.615 120.224ZM239.047 125.376C239.047 126.528 238.183 127.488 237.047 127.632V126.96C237.703 126.848 238.167 126.416 238.167 125.92C238.055 125.984 237.927 126.016 237.735 126.016C237.207 126.016 236.759 125.632 236.759 125.04C236.759 124.4 237.191 123.936 237.831 123.936C238.503 123.936 239.047 124.496 239.047 125.376ZM245.844 126V114.432H250.26C252.516 114.432 253.892 115.584 253.892 117.488C253.892 118.816 253.316 119.712 252.164 120.192C253.444 120.608 254.1 121.536 254.1 122.912C254.1 124.832 252.708 126 250.42 126H245.844ZM250.164 115.824H247.412V119.536H250.26C251.556 119.536 252.292 118.832 252.292 117.632C252.292 116.48 251.524 115.824 250.164 115.824ZM250.388 120.896H247.412V124.608H250.388C251.732 124.608 252.484 123.92 252.484 122.72C252.484 121.568 251.716 120.896 250.388 120.896ZM257.631 126H256.063V114.432H257.631L263.551 123.376V114.432H265.119V126H263.551L257.631 117.056V126ZM267.813 126V114.432H272.229C274.485 114.432 275.861 115.584 275.861 117.488C275.861 118.816 275.285 119.712 274.133 120.192C275.413 120.608 276.069 121.536 276.069 122.912C276.069 124.832 274.677 126 272.389 126H267.813ZM272.133 115.824H269.381V119.536H272.229C273.525 119.536 274.261 118.832 274.261 117.632C274.261 116.48 273.493 115.824 272.133 115.824ZM272.357 120.896H269.381V124.608H272.357C273.701 124.608 274.453 123.92 274.453 122.72C274.453 121.568 273.685 120.896 272.357 120.896ZM277.952 128.768H276.688C278.048 126.896 278.848 124.08 278.848 121.248C278.848 118.256 277.968 115.504 276.688 113.744H277.952C279.504 115.68 280.384 118.528 280.384 121.248C280.384 124.144 279.408 126.928 277.952 128.768Z" fill="#A0A0A1"/>
<path fill-rule="evenodd" clip-rule="evenodd" d="M32 164C36.4183 164 40 160.418 40 156C40 151.582 36.4183 148 32 148C27.5817 148 24 151.582 24 156C24 160.418 27.5817 164 32 164ZM35.7095 153.663C35.8913 153.455 35.8702 153.139 35.6624 152.957C35.4546 152.775 35.1387 152.796 34.9569 153.004L30.6421 157.935L29.0201 156.313C28.8248 156.118 28.5082 156.118 28.313 156.313C28.1177 156.509 28.1177 156.825 28.313 157.02L30.313 159.02C30.4108 159.118 30.5448 159.171 30.6831 159.167C30.8215 159.162 30.9517 159.1 31.0428 158.996L35.7095 153.663Z" fill="#A0A0A1"/>
<path d="M48.672 153.552C48.672 151.568 50.272 150.224 52.656 150.224C54.864 150.224 56.288 151.456 56.416 153.456H54.832C54.752 152.304 53.936 151.632 52.64 151.632C51.184 151.632 50.24 152.368 50.24 153.504C50.24 154.432 50.768 154.992 51.856 155.248L53.76 155.696C55.648 156.128 56.608 157.152 56.608 158.784C56.608 160.864 54.992 162.192 52.528 162.192C50.176 162.192 48.608 160.96 48.512 158.976H50.112C50.144 160.08 51.072 160.784 52.528 160.784C54.064 160.784 55.04 160.064 55.04 158.912C55.04 158 54.544 157.424 53.44 157.168L51.536 156.736C49.648 156.304 48.672 155.216 48.672 153.552ZM57.8104 158.096C57.8104 155.648 59.3624 153.952 61.6504 153.952C63.6184 153.952 64.9944 155.072 65.2664 156.816H63.7624C63.5064 155.824 62.7064 155.296 61.6984 155.296C60.2744 155.296 59.2984 156.384 59.2984 158.08C59.2984 159.76 60.2104 160.848 61.6344 160.848C62.7064 160.848 63.5064 160.288 63.7784 159.36H65.2824C64.9784 161.056 63.5224 162.192 61.6344 162.192C59.3304 162.192 57.8104 160.56 57.8104 158.096ZM68.3733 161.984H66.8693V150.224H68.3733V155.376C68.8693 154.528 69.8133 153.952 71.0293 153.952C73.0293 153.952 73.9893 155.216 73.9893 157.216V162H72.4853V157.552C72.4853 155.968 71.7333 155.328 70.6133 155.328C69.1573 155.328 68.3733 156.384 68.3733 157.728V161.984ZM79.4484 162.192C77.1444 162.192 75.5604 160.528 75.5604 158.096C75.5604 155.648 77.1124 153.952 79.3844 153.952C81.6084 153.952 83.0644 155.488 83.0644 157.808V158.368L77.0164 158.384C77.1284 160.032 77.9924 160.944 79.4804 160.944C80.6484 160.944 81.4164 160.464 81.6724 159.568H83.0804C82.6964 161.248 81.3844 162.192 79.4484 162.192ZM79.3844 155.216C78.0724 155.216 77.2404 156 77.0484 157.376H81.5604C81.5604 156.08 80.7124 155.216 79.3844 155.216ZM87.8802 162.192C85.6083 162.192 84.2323 160.496 84.2323 158.112C84.2323 155.712 85.6243 153.952 87.9443 153.952C89.1443 153.952 90.1523 154.48 90.6803 155.44V150.224H92.1683V162H90.8243L90.6963 160.576C90.1843 161.648 89.1283 162.192 87.8802 162.192ZM88.1843 160.832C89.7203 160.832 90.6643 159.696 90.6643 158.064C90.6643 156.464 89.7203 155.312 88.1843 155.312C86.6483 155.312 85.7523 156.464 85.7523 158.064C85.7523 159.68 86.6483 160.832 88.1843 160.832ZM99.746 154.176H101.234V162H99.89L99.73 160.816C99.282 161.632 98.242 162.192 97.09 162.192C95.266 162.192 94.242 160.96 94.242 159.04V154.176H95.746V158.544C95.746 160.224 96.466 160.864 97.618 160.864C98.994 160.864 99.746 159.984 99.746 158.304V154.176ZM104.952 162H103.448V150.224H104.952V162ZM110.542 162.192C108.238 162.192 106.654 160.528 106.654 158.096C106.654 155.648 108.206 153.952 110.478 153.952C112.702 153.952 114.158 155.488 114.158 157.808V158.368L108.11 158.384C108.222 160.032 109.086 160.944 110.574 160.944C111.742 160.944 112.51 160.464 112.766 159.568H114.174C113.79 161.248 112.478 162.192 110.542 162.192ZM110.478 155.216C109.166 155.216 108.334 156 108.142 157.376H112.654C112.654 156.08 111.806 155.216 110.478 155.216ZM118.974 162.192C116.702 162.192 115.326 160.496 115.326 158.112C115.326 155.712 116.718 153.952 119.038 153.952C120.238 153.952 121.246 154.48 121.774 155.44V150.224H123.262V162H121.918L121.79 160.576C121.278 161.648 120.222 162.192 118.974 162.192ZM119.278 160.832C120.814 160.832 121.758 159.696 121.758 158.064C121.758 156.464 120.814 155.312 119.278 155.312C117.742 155.312 116.846 156.464 116.846 158.064C116.846 159.68 117.742 160.832 119.278 160.832ZM128.943 151.872V150.432H137.471V151.872H133.999V162H132.431V151.872H128.943ZM142.318 154.112V155.488H141.646C140.222 155.488 139.342 156.352 139.342 157.856V162H137.838V154.192H139.246L139.342 155.376C139.662 154.56 140.446 154.016 141.518 154.016C141.79 154.016 142.014 154.048 142.318 154.112ZM145.704 162.192C144.024 162.192 143.032 161.248 143.032 159.824C143.032 158.384 144.104 157.488 145.944 157.344L148.408 157.152V156.928C148.408 155.616 147.624 155.152 146.568 155.152C145.304 155.152 144.584 155.712 144.584 156.656H143.272C143.272 155.024 144.616 153.952 146.632 153.952C148.568 153.952 149.88 154.976 149.88 157.088V162H148.6L148.44 160.736C148.04 161.632 146.968 162.192 145.704 162.192ZM146.136 161.024C147.56 161.024 148.424 160.096 148.424 158.624V158.208L146.424 158.368C145.096 158.496 144.552 159.008 144.552 159.776C144.552 160.608 145.16 161.024 146.136 161.024ZM153.467 162H151.963V154.176H153.323L153.483 155.376C153.979 154.48 154.971 153.952 156.075 153.952C158.139 153.952 159.083 155.216 159.083 157.216V162H157.579V157.552C157.579 155.968 156.843 155.328 155.691 155.328C154.283 155.328 153.467 156.336 153.467 157.856V162ZM160.432 159.728H161.872C161.872 160.528 162.48 161.008 163.472 161.008C164.528 161.008 165.136 160.576 165.136 159.856C165.136 159.328 164.88 159.008 164.064 158.8L162.688 158.48C161.296 158.144 160.64 157.456 160.64 156.304C160.64 154.864 161.856 153.952 163.584 153.952C165.296 153.952 166.416 154.912 166.448 156.4H165.008C164.976 155.616 164.448 155.12 163.536 155.12C162.592 155.12 162.064 155.536 162.064 156.256C162.064 156.784 162.448 157.136 163.216 157.328L164.592 157.664C165.92 157.984 166.576 158.592 166.576 159.76C166.576 161.248 165.296 162.192 163.44 162.192C161.6 162.192 160.432 161.216 160.432 159.728ZM170.532 162.192C168.852 162.192 167.86 161.248 167.86 159.824C167.86 158.384 168.932 157.488 170.772 157.344L173.236 157.152V156.928C173.236 155.616 172.452 155.152 171.396 155.152C170.132 155.152 169.412 155.712 169.412 156.656H168.1C168.1 155.024 169.444 153.952 171.46 153.952C173.396 153.952 174.708 154.976 174.708 157.088V162H173.428L173.268 160.736C172.868 161.632 171.796 162.192 170.532 162.192ZM170.964 161.024C172.388 161.024 173.252 160.096 173.252 158.624V158.208L171.252 158.368C169.924 158.496 169.38 159.008 169.38 159.776C169.38 160.608 169.988 161.024 170.964 161.024ZM176.279 158.096C176.279 155.648 177.831 153.952 180.119 153.952C182.087 153.952 183.463 155.072 183.735 156.816H182.231C181.975 155.824 181.175 155.296 180.167 155.296C178.743 155.296 177.767 156.384 177.767 158.08C177.767 159.76 178.679 160.848 180.103 160.848C181.175 160.848 181.975 160.288 182.247 159.36H183.751C183.447 161.056 181.991 162.192 180.103 162.192C177.799 162.192 176.279 160.56 176.279 158.096ZM187.546 162H186.042V155.44H184.506V154.176H186.042V151.728H187.546V154.176H189.082V155.44H187.546V162ZM191.168 152.32C190.624 152.32 190.176 151.872 190.176 151.328C190.176 150.768 190.624 150.336 191.168 150.336C191.712 150.336 192.16 150.768 192.16 151.328C192.16 151.872 191.712 152.32 191.168 152.32ZM190.432 162V154.176H191.936V162H190.432ZM193.607 158.08C193.607 155.664 195.335 153.968 197.687 153.968C200.023 153.968 201.751 155.664 201.751 158.08C201.751 160.496 200.023 162.192 197.687 162.192C195.335 162.192 193.607 160.496 193.607 158.08ZM195.127 158.08C195.127 159.712 196.167 160.848 197.687 160.848C199.191 160.848 200.247 159.712 200.247 158.08C200.247 156.448 199.191 155.312 197.687 155.312C196.167 155.312 195.127 156.448 195.127 158.08ZM204.92 162H203.416V154.176H204.776L204.936 155.376C205.432 154.48 206.424 153.952 207.528 153.952C209.592 153.952 210.536 155.216 210.536 157.216V162H209.032V157.552C209.032 155.968 208.296 155.328 207.144 155.328C205.736 155.328 204.92 156.336 204.92 157.856V162Z" fill="#A0A0A1"/>
<path fill-rule="evenodd" clip-rule="evenodd" d="M32 200C36.4183 200 40 196.418 40 192C40 187.582 36.4183 184 32 184C27.5817 184 24 187.582 24 192C24 196.418 27.5817 200 32 200ZM35.7095 189.663C35.8913 189.455 35.8702 189.139 35.6624 188.957C35.4546 188.775 35.1387 188.796 34.9569 189.004L30.6421 193.935L29.0201 192.313C28.8248 192.118 28.5082 192.118 28.313 192.313C28.1177 192.509 28.1177 192.825 28.313 193.02L30.313 195.02C30.4108 195.118 30.5448 195.171 30.6831 195.167C30.8215 195.162 30.9517 195.1 31.0428 194.996L35.7095 189.663Z" fill="#A0A0A1"/>
<path d="M49.824 198H48.192L52.416 186.432H54.16L58.4 198H56.752L55.712 195.12H50.848L49.824 198ZM53.088 188.928L51.328 193.76H55.248L53.472 188.928C53.392 188.704 53.312 188.432 53.28 188.256C53.248 188.416 53.168 188.688 53.088 188.928ZM64.871 190.176H66.359V198H65.015L64.855 196.816C64.407 197.632 63.367 198.192 62.215 198.192C60.391 198.192 59.367 196.96 59.367 195.04V190.176H60.871V194.544C60.871 196.224 61.591 196.864 62.743 196.864C64.119 196.864 64.871 195.984 64.871 194.304V190.176ZM70.7491 198H69.2451V191.44H67.7091V190.176H69.2451V187.728H70.7491V190.176H72.2851V191.44H70.7491V198ZM73.0448 194.08C73.0448 191.664 74.7728 189.968 77.1248 189.968C79.4608 189.968 81.1888 191.664 81.1888 194.08C81.1888 196.496 79.4608 198.192 77.1248 198.192C74.7728 198.192 73.0448 196.496 73.0448 194.08ZM74.5648 194.08C74.5648 195.712 75.6048 196.848 77.1248 196.848C78.6288 196.848 79.6848 195.712 79.6848 194.08C79.6848 192.448 78.6288 191.312 77.1248 191.312C75.6048 191.312 74.5648 192.448 74.5648 194.08ZM82.7736 194.432V193.088H87.6536V194.432H82.7736ZM90.4803 188.32C89.9363 188.32 89.4883 187.872 89.4883 187.328C89.4883 186.768 89.9363 186.336 90.4803 186.336C91.0243 186.336 91.4723 186.768 91.4723 187.328C91.4723 187.872 91.0243 188.32 90.4803 188.32ZM89.7443 198V190.176H91.2483V198H89.7443ZM94.9358 198H93.4318V190.176H94.7918L94.9518 191.376C95.4478 190.48 96.4398 189.952 97.5438 189.952C99.6078 189.952 100.552 191.216 100.552 193.216V198H99.0478V193.552C99.0478 191.968 98.3118 191.328 97.1598 191.328C95.7518 191.328 94.9358 192.336 94.9358 193.856V198ZM104.671 198L101.519 190.176H103.119L104.831 194.544C105.103 195.28 105.327 195.936 105.455 196.416C105.583 195.904 105.839 195.232 106.111 194.544L107.855 190.176H109.423L106.159 198H104.671ZM113.636 198.192C111.332 198.192 109.748 196.528 109.748 194.096C109.748 191.648 111.3 189.952 113.572 189.952C115.796 189.952 117.252 191.488 117.252 193.808V194.368L111.204 194.384C111.316 196.032 112.18 196.944 113.668 196.944C114.836 196.944 115.604 196.464 115.86 195.568H117.268C116.884 197.248 115.572 198.192 113.636 198.192ZM113.572 191.216C112.26 191.216 111.428 192 111.236 193.376H115.748C115.748 192.08 114.9 191.216 113.572 191.216ZM118.292 195.728H119.732C119.732 196.528 120.34 197.008 121.332 197.008C122.388 197.008 122.996 196.576 122.996 195.856C122.996 195.328 122.74 195.008 121.924 194.8L120.548 194.48C119.156 194.144 118.5 193.456 118.5 192.304C118.5 190.864 119.716 189.952 121.444 189.952C123.156 189.952 124.276 190.912 124.308 192.4H122.868C122.836 191.616 122.308 191.12 121.396 191.12C120.452 191.12 119.924 191.536 119.924 192.256C119.924 192.784 120.308 193.136 121.076 193.328L122.452 193.664C123.78 193.984 124.436 194.592 124.436 195.76C124.436 197.248 123.156 198.192 121.3 198.192C119.46 198.192 118.292 197.216 118.292 195.728ZM128.312 198H126.808V191.44H125.272V190.176H126.808V187.728H128.312V190.176H129.848V191.44H128.312V198Z" fill="#A0A0A1"/>
<path fill-rule="evenodd" clip-rule="evenodd" d="M32 236C36.4183 236 40 232.418 40 228C40 223.582 36.4183 220 32 220C27.5817 220 24 223.582 24 228C24 232.418 27.5817 236 32 236ZM35.7095 225.663C35.8913 225.455 35.8702 225.139 35.6624 224.957C35.4546 224.775 35.1387 224.796 34.9569 225.004L30.6421 229.935L29.0201 228.313C28.8248 228.118 28.5082 228.118 28.313 228.313C28.1177 228.509 28.1177 228.825 28.313 229.02L30.313 231.02C30.4108 231.118 30.5448 231.171 30.6831 231.167C30.8215 231.162 30.9517 231.1 31.0428 230.996L35.7095 225.663Z" fill="#A0A0A1"/>
<path d="M53.168 234H49.344V222.432H53.104C56.56 222.432 58.896 224.768 58.896 228.224C58.896 231.664 56.592 234 53.168 234ZM52.992 223.872H50.912V232.544H53.056C55.632 232.544 57.264 230.88 57.264 228.224C57.264 225.536 55.632 223.872 52.992 223.872ZM64.0109 234.192C61.7069 234.192 60.1229 232.528 60.1229 230.096C60.1229 227.648 61.6749 225.952 63.9469 225.952C66.1709 225.952 67.6269 227.488 67.6269 229.808V230.368L61.5789 230.384C61.6909 232.032 62.5549 232.944 64.0429 232.944C65.2109 232.944 65.9789 232.464 66.2349 231.568H67.6429C67.2589 233.248 65.9469 234.192 64.0109 234.192ZM63.9469 227.216C62.6349 227.216 61.8029 228 61.6109 229.376H66.1229C66.1229 228.08 65.2749 227.216 63.9469 227.216ZM68.6668 231.728H70.1068C70.1068 232.528 70.7148 233.008 71.7068 233.008C72.7628 233.008 73.3708 232.576 73.3708 231.856C73.3708 231.328 73.1148 231.008 72.2988 230.8L70.9228 230.48C69.5308 230.144 68.8748 229.456 68.8748 228.304C68.8748 226.864 70.0908 225.952 71.8188 225.952C73.5308 225.952 74.6508 226.912 74.6828 228.4H73.2428C73.2108 227.616 72.6828 227.12 71.7708 227.12C70.8268 227.12 70.2988 227.536 70.2988 228.256C70.2988 228.784 70.6828 229.136 71.4508 229.328L72.8268 229.664C74.1548 229.984 74.8108 230.592 74.8108 231.76C74.8108 233.248 73.5308 234.192 71.6748 234.192C69.8348 234.192 68.6668 233.216 68.6668 231.728ZM77.2146 224.32C76.6706 224.32 76.2226 223.872 76.2226 223.328C76.2226 222.768 76.6706 222.336 77.2146 222.336C77.7586 222.336 78.2066 222.768 78.2066 223.328C78.2066 223.872 77.7586 224.32 77.2146 224.32ZM76.4786 234V226.176H77.9826V234H76.4786ZM79.6701 229.888C79.6701 227.68 81.0941 225.952 83.3661 225.952C84.6301 225.952 85.6061 226.528 86.1021 227.504L86.2141 226.176H87.5581V233.68C87.5581 236.144 86.0381 237.712 83.6381 237.712C81.5101 237.712 80.0541 236.512 79.7661 234.528H81.2701C81.4621 235.68 82.3261 236.352 83.6381 236.352C85.1101 236.352 86.0701 235.392 86.0701 233.904V232.336C85.5581 233.248 84.5341 233.792 83.3021 233.792C81.0781 233.792 79.6701 232.08 79.6701 229.888ZM81.1741 229.856C81.1741 231.328 82.0861 232.48 83.5581 232.48C85.0781 232.48 86.0061 231.392 86.0061 229.856C86.0061 228.352 85.1101 227.264 83.5741 227.264C82.0701 227.264 81.1741 228.416 81.1741 229.856ZM97.5756 234L93.1756 222.432H94.8556L97.6716 229.824C97.9276 230.48 98.1516 231.136 98.3916 232C98.6636 231.088 98.9356 230.32 99.1276 229.808L101.928 222.432H103.56L99.2076 234H97.5756ZM104.427 234.192C103.803 234.192 103.275 233.68 103.275 233.072C103.275 232.448 103.803 231.936 104.427 231.936C105.035 231.936 105.563 232.448 105.563 233.072C105.563 233.68 105.035 234.192 104.427 234.192ZM106.768 228.224C106.768 224.64 108.624 222.208 111.536 222.208C114.432 222.208 116.288 224.64 116.288 228.224C116.288 231.824 114.512 234.208 111.536 234.208C108.544 234.208 106.768 231.824 106.768 228.224ZM108.32 228.224C108.32 231.072 109.504 232.8 111.536 232.8C113.568 232.8 114.736 231.072 114.736 228.224C114.736 225.344 113.568 223.616 111.536 223.616C109.504 223.616 108.32 225.344 108.32 228.224ZM125.622 233.984L117.814 234V232.8L121.542 229.584C123.414 227.968 123.942 227.184 123.942 225.952C123.942 224.496 123.11 223.632 121.718 223.632C120.294 223.632 119.366 224.672 119.334 226.32H117.766C117.814 223.84 119.382 222.224 121.734 222.224C124.054 222.224 125.542 223.632 125.542 225.856C125.542 227.504 124.726 228.672 122.678 230.448L120.278 232.528H125.622V233.984Z" fill="#A0A0A1"/>
<defs>
<linearGradient id="paint0_linear_10085_39714" x1="0" y1="264" x2="372.531" y2="153.499" gradientUnits="userSpaceOnUse">
<stop stop-color="white" stop-opacity="0.1"/>
<stop offset="1" stop-color="white" stop-opacity="0.05"/>
<stop offset="1" stop-color="white" stop-opacity="0.05"/>
</linearGradient>
</defs>
</svg>
