<svg width="327" height="289" viewBox="0 0 327 289" fill="none" xmlns="http://www.w3.org/2000/svg">
<g clip-path="url(#clip0_10312_10575)">
<path d="M307 1.2832H20C9.23045 1.2832 0.5 10.0137 0.5 20.7832V268.783C0.5 279.553 9.23045 288.283 20 288.283H307C317.77 288.283 326.5 279.553 326.5 268.783V20.7832C326.5 10.0137 317.77 1.2832 307 1.2832Z" fill="#252238"/>
<path d="M307 1.2832H20C9.23045 1.2832 0.5 10.0137 0.5 20.7832V268.783C0.5 279.553 9.23045 288.283 20 288.283H307C317.77 288.283 326.5 279.553 326.5 268.783V20.7832C326.5 10.0137 317.77 1.2832 307 1.2832Z" stroke="url(#paint0_linear_10312_10575)"/>
<path d="M37.0803 47.743L35.5203 45.983C34.4403 46.643 33.1603 47.023 31.7403 47.023C27.6603 47.023 24.8203 43.943 24.8203 39.543C24.8203 35.163 27.6803 32.063 31.7603 32.063C35.8603 32.063 38.7203 35.143 38.7203 39.543C38.7203 41.703 38.0203 43.543 36.8403 44.863L38.3603 46.583L37.0803 47.743ZM36.6603 39.543C36.6603 36.183 34.7003 33.963 31.7603 33.963C28.8203 33.963 26.8803 36.183 26.8803 39.543C26.8803 42.903 28.8203 45.143 31.7603 45.143C32.6803 45.143 33.5003 44.923 34.2003 44.503L32.3003 42.363L33.5803 41.203L35.5003 43.363C36.2403 42.403 36.6603 41.083 36.6603 39.543ZM44.6672 39.303H43.2272V38.003L47.3272 34.063H40.8272V32.323H49.8072V33.903L45.8472 37.683C48.3072 37.983 50.1672 39.643 50.1672 42.243C50.1672 45.163 47.9672 47.023 45.0272 47.023C42.1872 47.023 40.1472 45.283 40.1472 42.283H42.0872C42.0872 44.163 43.2472 45.263 45.0672 45.263C46.9472 45.263 48.1672 44.063 48.1672 42.203C48.1672 40.463 46.9672 39.303 44.6672 39.303ZM57.6431 42.323V40.643H63.7431V42.323H57.6431ZM81.1451 46.763L71.3851 46.783V45.283L76.0451 41.263C78.3851 39.243 79.0451 38.263 79.0451 36.723C79.0451 34.903 78.0051 33.823 76.2651 33.823C74.4851 33.823 73.3251 35.123 73.2851 37.183H71.3251C71.3851 34.083 73.3451 32.063 76.2851 32.063C79.1851 32.063 81.0451 33.823 81.0451 36.603C81.0451 38.663 80.0251 40.123 77.4651 42.343L74.4651 44.943H81.1451V46.763ZM82.9491 39.563C82.9491 35.083 85.2691 32.043 88.9091 32.043C92.529 32.043 94.8491 35.083 94.8491 39.563C94.8491 44.063 92.6291 47.043 88.9091 47.043C85.1691 47.043 82.9491 44.063 82.9491 39.563ZM84.8891 39.563C84.8891 43.123 86.3691 45.283 88.9091 45.283C91.4491 45.283 92.9091 43.123 92.9091 39.563C92.9091 35.963 91.4491 33.803 88.9091 33.803C86.3691 33.803 84.8891 35.963 84.8891 39.563ZM106.516 46.763L96.7562 46.783V45.283L101.416 41.263C103.756 39.243 104.416 38.263 104.416 36.723C104.416 34.903 103.376 33.823 101.636 33.823C99.8562 33.823 98.6962 35.123 98.6562 37.183H96.6962C96.7562 34.083 98.7162 32.063 101.656 32.063C104.556 32.063 106.416 33.823 106.416 36.603C106.416 38.663 105.396 40.123 102.836 42.343L99.8362 44.943H106.516V46.763ZM118.709 43.863H116.989V46.783H115.109V43.863H107.629V42.123L114.449 32.323H116.989V42.123H118.709V43.863ZM109.749 42.123H115.109V34.403L109.749 42.123Z" fill="#F3F3F3"/>
<path fill-rule="evenodd" clip-rule="evenodd" d="M32 92.7832C36.4183 92.7832 40 89.2015 40 84.7832C40 80.3649 36.4183 76.7832 32 76.7832C27.5817 76.7832 24 80.3649 24 84.7832C24 89.2015 27.5817 92.7832 32 92.7832ZM35.7095 82.4459C35.8913 82.2381 35.8702 81.9222 35.6624 81.7404C35.4546 81.5586 35.1387 81.5796 34.9569 81.7874L30.6421 86.7186L29.0201 85.0965C28.8248 84.9012 28.5082 84.9012 28.313 85.0965C28.1177 85.2917 28.1177 85.6083 28.313 85.8036L30.313 87.8036C30.4108 87.9014 30.5448 87.9544 30.6831 87.9498C30.8215 87.9451 30.9517 87.8834 31.0428 87.7793L35.7095 82.4459Z" fill="#A0A0A1"/>
<path d="M50.8797 90.7838H49.3438V79.2158H50.8797L54.8637 88.9438L58.8477 79.2158H60.4157V90.7838H58.8797V86.2078C58.8797 84.0478 58.8957 83.2638 58.9757 82.4478L55.5997 90.7838H54.1277L50.7677 82.4798C50.8477 83.0398 50.8797 84.2238 50.8797 85.8398V90.7838ZM68.2613 82.9598H69.7494V90.7838H68.4053L68.2453 89.5998C67.7973 90.4158 66.7573 90.9758 65.6053 90.9758C63.7813 90.9758 62.7573 89.7438 62.7573 87.8238V82.9598H64.2613V87.3278C64.2613 89.0078 64.9813 89.6478 66.1333 89.6478C67.5093 89.6478 68.2613 88.7678 68.2613 87.0878V82.9598ZM73.4675 90.7838H71.9635V79.0078H73.4675V90.7838ZM77.8895 90.7838H76.3856V84.2238H74.8495V82.9598H76.3856V80.5118H77.8895V82.9598H79.4255V84.2238H77.8895V90.7838ZM81.5112 81.1038C80.9672 81.1038 80.5192 80.6558 80.5192 80.1118C80.5192 79.5518 80.9672 79.1198 81.5112 79.1198C82.0552 79.1198 82.5033 79.5518 82.5033 80.1118C82.5033 80.6558 82.0552 81.1038 81.5112 81.1038ZM80.7752 90.7838V82.9598H82.2793V90.7838H80.7752ZM83.8227 88.5118H85.2627C85.2627 89.3118 85.8707 89.7918 86.8627 89.7918C87.9187 89.7918 88.5267 89.3598 88.5267 88.6398C88.5267 88.1118 88.2708 87.7918 87.4548 87.5838L86.0788 87.2638C84.6868 86.9278 84.0307 86.2398 84.0307 85.0878C84.0307 83.6478 85.2467 82.7358 86.9747 82.7358C88.6867 82.7358 89.8067 83.6958 89.8387 85.1838H88.3988C88.3668 84.3998 87.8388 83.9038 86.9268 83.9038C85.9828 83.9038 85.4548 84.3198 85.4548 85.0398C85.4548 85.5678 85.8388 85.9198 86.6068 86.1118L87.9827 86.4478C89.3107 86.7678 89.9668 87.3758 89.9668 88.5438C89.9668 90.0318 88.6867 90.9758 86.8307 90.9758C84.9907 90.9758 83.8227 89.9998 83.8227 88.5118ZM92.3707 81.1038C91.8267 81.1038 91.3786 80.6558 91.3786 80.1118C91.3786 79.5518 91.8267 79.1198 92.3707 79.1198C92.9147 79.1198 93.3626 79.5518 93.3626 80.1118C93.3626 80.6558 92.9147 81.1038 92.3707 81.1038ZM91.6347 90.7838V82.9598H93.1386V90.7838H91.6347ZM94.8261 86.6718C94.8261 84.4638 96.2501 82.7358 98.5221 82.7358C99.7861 82.7358 100.762 83.3118 101.258 84.2878L101.37 82.9598H102.714V90.4638C102.714 92.9278 101.194 94.4958 98.7942 94.4958C96.6662 94.4958 95.2101 93.2958 94.9221 91.3118H96.4261C96.6181 92.4638 97.4822 93.1358 98.7942 93.1358C100.266 93.1358 101.226 92.1758 101.226 90.6878V89.1198C100.714 90.0318 99.6901 90.5758 98.4581 90.5758C96.2341 90.5758 94.8261 88.8638 94.8261 86.6718ZM96.3301 86.6398C96.3301 88.1118 97.2421 89.2638 98.7141 89.2638C100.234 89.2638 101.162 88.1758 101.162 86.6398C101.162 85.1358 100.266 84.0478 98.7301 84.0478C97.2261 84.0478 96.3301 85.1998 96.3301 86.6398ZM111.548 90.9758C109.868 90.9758 108.876 90.0318 108.876 88.6078C108.876 87.1678 109.948 86.2718 111.788 86.1278L114.252 85.9358V85.7118C114.252 84.3998 113.468 83.9358 112.412 83.9358C111.148 83.9358 110.428 84.4958 110.428 85.4398H109.116C109.116 83.8078 110.46 82.7358 112.476 82.7358C114.412 82.7358 115.724 83.7598 115.724 85.8718V90.7838H114.444L114.284 89.5198C113.884 90.4158 112.812 90.9758 111.548 90.9758ZM111.98 89.8078C113.404 89.8078 114.268 88.8798 114.268 87.4078V86.9918L112.268 87.1518C110.94 87.2798 110.396 87.7918 110.396 88.5598C110.396 89.3918 111.004 89.8078 111.98 89.8078ZM117.167 88.5118H118.607C118.607 89.3118 119.215 89.7918 120.207 89.7918C121.263 89.7918 121.871 89.3598 121.871 88.6398C121.871 88.1118 121.615 87.7918 120.799 87.5838L119.423 87.2638C118.031 86.9278 117.375 86.2398 117.375 85.0878C117.375 83.6478 118.591 82.7358 120.319 82.7358C122.031 82.7358 123.151 83.6958 123.183 85.1838H121.743C121.711 84.3998 121.183 83.9038 120.271 83.9038C119.327 83.9038 118.799 84.3198 118.799 85.0398C118.799 85.5678 119.183 85.9198 119.951 86.1118L121.327 86.4478C122.655 86.7678 123.311 87.3758 123.311 88.5438C123.311 90.0318 122.031 90.9758 120.175 90.9758C118.335 90.9758 117.167 89.9998 117.167 88.5118ZM131.642 90.9758C129.962 90.9758 128.97 90.0318 128.97 88.6078C128.97 87.1678 130.042 86.2718 131.882 86.1278L134.346 85.9358V85.7118C134.346 84.3998 133.562 83.9358 132.506 83.9358C131.242 83.9358 130.522 84.4958 130.522 85.4398H129.21C129.21 83.8078 130.554 82.7358 132.57 82.7358C134.506 82.7358 135.818 83.7598 135.818 85.8718V90.7838H134.538L134.378 89.5198C133.978 90.4158 132.906 90.9758 131.642 90.9758ZM132.074 89.8078C133.498 89.8078 134.362 88.8798 134.362 87.4078V86.9918L132.362 87.1518C131.034 87.2798 130.49 87.7918 130.49 88.5598C130.49 89.3918 131.098 89.8078 132.074 89.8078ZM141.636 88.5118H143.076C143.076 89.3118 143.684 89.7918 144.676 89.7918C145.732 89.7918 146.34 89.3598 146.34 88.6398C146.34 88.1118 146.084 87.7918 145.268 87.5838L143.892 87.2638C142.5 86.9278 141.844 86.2398 141.844 85.0878C141.844 83.6478 143.06 82.7358 144.788 82.7358C146.5 82.7358 147.62 83.6958 147.652 85.1838H146.212C146.18 84.3998 145.652 83.9038 144.74 83.9038C143.796 83.9038 143.268 84.3198 143.268 85.0398C143.268 85.5678 143.652 85.9198 144.42 86.1118L145.796 86.4478C147.124 86.7678 147.78 87.3758 147.78 88.5438C147.78 90.0318 146.5 90.9758 144.644 90.9758C142.804 90.9758 141.636 89.9998 141.636 88.5118ZM152.823 90.9758C150.519 90.9758 148.935 89.3118 148.935 86.8798C148.935 84.4318 150.487 82.7358 152.759 82.7358C154.983 82.7358 156.439 84.2718 156.439 86.5918V87.1518L150.391 87.1678C150.503 88.8158 151.367 89.7278 152.855 89.7278C154.023 89.7278 154.791 89.2478 155.047 88.3518H156.455C156.071 90.0318 154.759 90.9758 152.823 90.9758ZM152.759 83.9998C151.447 83.9998 150.615 84.7838 150.423 86.1598H154.935C154.935 84.8638 154.087 83.9998 152.759 83.9998ZM162.599 82.8958V84.2718H161.927C160.503 84.2718 159.623 85.1358 159.623 86.6398V90.7838H158.119V82.9758H159.527L159.623 84.1598C159.943 83.3438 160.727 82.7998 161.799 82.7998C162.071 82.7998 162.295 82.8318 162.599 82.8958ZM166.436 90.7838L163.284 82.9598H164.884L166.596 87.3278C166.868 88.0638 167.092 88.7198 167.22 89.1998C167.348 88.6878 167.604 88.0158 167.876 87.3278L169.62 82.9598H171.188L167.924 90.7838H166.436ZM173.121 81.1038C172.577 81.1038 172.129 80.6558 172.129 80.1118C172.129 79.5518 172.577 79.1198 173.121 79.1198C173.665 79.1198 174.113 79.5518 174.113 80.1118C174.113 80.6558 173.665 81.1038 173.121 81.1038ZM172.385 90.7838V82.9598H173.889V90.7838H172.385ZM175.56 86.8798C175.56 84.4318 177.112 82.7358 179.4 82.7358C181.368 82.7358 182.744 83.8558 183.016 85.5998H181.512C181.256 84.6078 180.456 84.0798 179.448 84.0798C178.024 84.0798 177.048 85.1678 177.048 86.8638C177.048 88.5438 177.96 89.6318 179.384 89.6318C180.456 89.6318 181.256 89.0718 181.528 88.1438H183.032C182.728 89.8398 181.272 90.9758 179.384 90.9758C177.08 90.9758 175.56 89.3438 175.56 86.8798ZM187.995 90.9758C185.691 90.9758 184.107 89.3118 184.107 86.8798C184.107 84.4318 185.659 82.7358 187.931 82.7358C190.155 82.7358 191.611 84.2718 191.611 86.5918V87.1518L185.563 87.1678C185.675 88.8158 186.539 89.7278 188.027 89.7278C189.195 89.7278 189.963 89.2478 190.219 88.3518H191.627C191.243 90.0318 189.931 90.9758 187.995 90.9758ZM187.931 83.9998C186.619 83.9998 185.787 84.7838 185.595 86.1598H190.107C190.107 84.8638 189.259 83.9998 187.931 83.9998ZM197.25 82.3358C197.25 80.3518 198.85 79.0078 201.234 79.0078C203.442 79.0078 204.866 80.2398 204.994 82.2398H203.41C203.33 81.0878 202.514 80.4158 201.218 80.4158C199.762 80.4158 198.818 81.1518 198.818 82.2878C198.818 83.2158 199.346 83.7758 200.434 84.0318L202.338 84.4798C204.226 84.9118 205.186 85.9358 205.186 87.5678C205.186 89.6478 203.57 90.9758 201.106 90.9758C198.754 90.9758 197.186 89.7438 197.09 87.7598H198.69C198.722 88.8638 199.65 89.5678 201.106 89.5678C202.642 89.5678 203.618 88.8478 203.618 87.6958C203.618 86.7838 203.122 86.2078 202.018 85.9518L200.114 85.5198C198.226 85.0878 197.25 83.9998 197.25 82.3358ZM210.981 90.7838H207.157V79.2158H210.917C214.373 79.2158 216.709 81.5518 216.709 85.0078C216.709 88.4478 214.405 90.7838 210.981 90.7838ZM210.805 80.6558H208.725V89.3278H210.869C213.445 89.3278 215.077 87.6638 215.077 85.0078C215.077 82.3198 213.445 80.6558 210.805 80.6558ZM220.271 79.2158V85.7758L225.423 79.2158H227.295L223.423 84.1278L227.359 90.7838H225.535L222.383 85.4558L220.271 88.1278V90.7838H218.703V79.2158H220.271Z" fill="#A0A0A1"/>
<path fill-rule="evenodd" clip-rule="evenodd" d="M32 128.783C36.4183 128.783 40 125.201 40 120.783C40 116.365 36.4183 112.783 32 112.783C27.5817 112.783 24 116.365 24 120.783C24 125.201 27.5817 128.783 32 128.783ZM35.7095 118.446C35.8913 118.238 35.8702 117.922 35.6624 117.74C35.4546 117.558 35.1387 117.579 34.9569 117.787L30.6421 122.718L29.0201 121.096C28.8248 120.901 28.5082 120.901 28.313 121.096C28.1177 121.292 28.1177 121.608 28.313 121.803L30.313 123.803C30.4108 123.901 30.5448 123.954 30.6831 123.95C30.8215 123.945 30.9517 123.883 31.0428 123.779L35.7095 118.446Z" fill="#A0A0A1"/>
<path d="M48.6717 118.335C48.6717 116.351 50.2717 115.007 52.6557 115.007C54.8637 115.007 56.2877 116.239 56.4157 118.239H54.8317C54.7517 117.087 53.9357 116.415 52.6397 116.415C51.1837 116.415 50.2397 117.151 50.2397 118.287C50.2397 119.215 50.7677 119.775 51.8557 120.031L53.7597 120.479C55.6477 120.911 56.6077 121.935 56.6077 123.567C56.6077 125.647 54.9917 126.975 52.5277 126.975C50.1757 126.975 48.6077 125.743 48.5117 123.759H50.1117C50.1437 124.863 51.0717 125.567 52.5277 125.567C54.0637 125.567 55.0397 124.847 55.0397 123.695C55.0397 122.783 54.5437 122.207 53.4397 121.951L51.5357 121.519C49.6477 121.087 48.6717 119.999 48.6717 118.335ZM60.5301 126.783H59.0261V120.223H57.4901V118.959H59.0261V116.511H60.5301V118.959H62.0661V120.223H60.5301V126.783ZM65.6101 126.975C63.9301 126.975 62.9381 126.031 62.9381 124.607C62.9381 123.167 64.0101 122.271 65.8501 122.127L68.3141 121.935V121.711C68.3141 120.399 67.5301 119.935 66.4741 119.935C65.2101 119.935 64.4901 120.495 64.4901 121.439H63.1781C63.1781 119.807 64.5221 118.735 66.5381 118.735C68.4741 118.735 69.7861 119.759 69.7861 121.871V126.783H68.5061L68.3461 125.519C67.9461 126.415 66.8741 126.975 65.6101 126.975ZM66.0421 125.807C67.4661 125.807 68.3301 124.879 68.3301 123.407V122.991L66.3301 123.151C65.0021 123.279 64.4581 123.791 64.4581 124.559C64.4581 125.391 65.0661 125.807 66.0421 125.807ZM73.405 126.783H71.901V115.007H73.405V122.639L76.877 118.959H78.765L75.773 122.079L78.749 126.783H77.021L74.733 123.167L73.405 124.559V126.783ZM80.73 117.103C80.186 117.103 79.738 116.655 79.738 116.111C79.738 115.551 80.186 115.119 80.73 115.119C81.274 115.119 81.722 115.551 81.722 116.111C81.722 116.655 81.274 117.103 80.73 117.103ZM79.994 126.783V118.959H81.498V126.783H79.994ZM85.1855 126.783H83.6815V118.959H85.0415L85.2015 120.159C85.6975 119.263 86.6895 118.735 87.7935 118.735C89.8575 118.735 90.8015 119.999 90.8015 121.999V126.783H89.2975V122.335C89.2975 120.751 88.5615 120.111 87.4095 120.111C86.0015 120.111 85.1855 121.119 85.1855 122.639V126.783ZM92.3886 122.671C92.3886 120.463 93.8126 118.735 96.0846 118.735C97.3486 118.735 98.3246 119.311 98.8206 120.287L98.9326 118.959H100.277V126.463C100.277 128.927 98.7566 130.495 96.3566 130.495C94.2286 130.495 92.7726 129.295 92.4846 127.311H93.9886C94.1806 128.463 95.0446 129.135 96.3566 129.135C97.8286 129.135 98.7886 128.175 98.7886 126.687V125.119C98.2766 126.031 97.2526 126.575 96.0206 126.575C93.7966 126.575 92.3886 124.863 92.3886 122.671ZM93.8926 122.639C93.8926 124.111 94.8046 125.263 96.2766 125.263C97.7966 125.263 98.7246 124.175 98.7246 122.639C98.7246 121.135 97.8286 120.047 96.2926 120.047C94.7886 120.047 93.8926 121.199 93.8926 122.639ZM107.558 126.783H105.926L110.15 115.215H111.894L116.134 126.783H114.486L113.446 123.903H108.582L107.558 126.783ZM110.822 117.711L109.062 122.543H112.982L111.206 117.711C111.126 117.487 111.046 117.215 111.014 117.039C110.982 117.199 110.902 117.471 110.822 117.711ZM116.78 122.671C116.78 120.463 118.204 118.735 120.476 118.735C121.74 118.735 122.716 119.311 123.212 120.287L123.324 118.959H124.668V126.463C124.668 128.927 123.148 130.495 120.748 130.495C118.62 130.495 117.164 129.295 116.876 127.311H118.38C118.572 128.463 119.436 129.135 120.748 129.135C122.22 129.135 123.18 128.175 123.18 126.687V125.119C122.668 126.031 121.644 126.575 120.411 126.575C118.188 126.575 116.78 124.863 116.78 122.671ZM118.284 122.639C118.284 124.111 119.196 125.263 120.668 125.263C122.188 125.263 123.116 124.175 123.116 122.639C123.116 121.135 122.22 120.047 120.684 120.047C119.18 120.047 118.284 121.199 118.284 122.639ZM126.342 122.671C126.342 120.463 127.766 118.735 130.038 118.735C131.302 118.735 132.278 119.311 132.774 120.287L132.886 118.959H134.23V126.463C134.23 128.927 132.71 130.495 130.31 130.495C128.182 130.495 126.726 129.295 126.438 127.311H127.942C128.134 128.463 128.998 129.135 130.31 129.135C131.782 129.135 132.742 128.175 132.742 126.687V125.119C132.23 126.031 131.206 126.575 129.974 126.575C127.75 126.575 126.342 124.863 126.342 122.671ZM127.846 122.639C127.846 124.111 128.758 125.263 130.23 125.263C131.75 125.263 132.678 124.175 132.678 122.639C132.678 121.135 131.782 120.047 130.246 120.047C128.742 120.047 127.846 121.199 127.846 122.639ZM140.881 118.895V120.271H140.209C138.785 120.271 137.905 121.135 137.905 122.639V126.783H136.401V118.975H137.809L137.905 120.159C138.225 119.343 139.009 118.799 140.081 118.799C140.353 118.799 140.577 118.831 140.881 118.895ZM145.386 126.975C143.082 126.975 141.498 125.311 141.498 122.879C141.498 120.431 143.05 118.735 145.322 118.735C147.546 118.735 149.002 120.271 149.002 122.591V123.151L142.954 123.167C143.066 124.815 143.93 125.727 145.418 125.727C146.586 125.727 147.354 125.247 147.61 124.351H149.018C148.634 126.031 147.322 126.975 145.386 126.975ZM145.322 119.999C144.01 119.999 143.178 120.783 142.986 122.159H147.498C147.498 120.863 146.65 119.999 145.322 119.999ZM150.186 122.671C150.186 120.463 151.61 118.735 153.882 118.735C155.146 118.735 156.122 119.311 156.618 120.287L156.73 118.959H158.074V126.463C158.074 128.927 156.554 130.495 154.154 130.495C152.026 130.495 150.57 129.295 150.282 127.311H151.786C151.978 128.463 152.842 129.135 154.154 129.135C155.626 129.135 156.586 128.175 156.586 126.687V125.119C156.074 126.031 155.05 126.575 153.818 126.575C151.594 126.575 150.186 124.863 150.186 122.671ZM151.69 122.639C151.69 124.111 152.602 125.263 154.074 125.263C155.594 125.263 156.522 124.175 156.522 122.639C156.522 121.135 155.626 120.047 154.09 120.047C152.586 120.047 151.69 121.199 151.69 122.639ZM162.532 126.975C160.852 126.975 159.86 126.031 159.86 124.607C159.86 123.167 160.932 122.271 162.772 122.127L165.236 121.935V121.711C165.236 120.399 164.452 119.935 163.396 119.935C162.132 119.935 161.412 120.495 161.412 121.439H160.1C160.1 119.807 161.444 118.735 163.46 118.735C165.396 118.735 166.708 119.759 166.708 121.871V126.783H165.428L165.268 125.519C164.868 126.415 163.796 126.975 162.532 126.975ZM162.964 125.807C164.388 125.807 165.252 124.879 165.252 123.407V122.991L163.252 123.151C161.924 123.279 161.38 123.791 161.38 124.559C161.38 125.391 161.988 125.807 162.964 125.807ZM170.874 126.783H169.37V120.223H167.834V118.959H169.37V116.511H170.874V118.959H172.41V120.223H170.874V126.783ZM173.17 122.863C173.17 120.447 174.898 118.751 177.25 118.751C179.586 118.751 181.314 120.447 181.314 122.863C181.314 125.279 179.586 126.975 177.25 126.975C174.898 126.975 173.17 125.279 173.17 122.863ZM174.69 122.863C174.69 124.495 175.73 125.631 177.25 125.631C178.754 125.631 179.81 124.495 179.81 122.863C179.81 121.231 178.754 120.095 177.25 120.095C175.73 120.095 174.69 121.231 174.69 122.863ZM187.459 118.895V120.271H186.787C185.363 120.271 184.483 121.135 184.483 122.639V126.783H182.979V118.975H184.387L184.483 120.159C184.803 119.343 185.587 118.799 186.659 118.799C186.931 118.799 187.155 118.831 187.459 118.895ZM196.62 129.551H195.372C193.9 127.711 192.924 124.927 192.924 122.031C192.924 119.311 193.804 116.463 195.372 114.527H196.62C195.356 116.287 194.46 119.039 194.46 122.031C194.46 124.863 195.26 127.679 196.62 129.551ZM198.449 126.783H196.817L201.041 115.215H202.785L207.025 126.783H205.377L204.337 123.903H199.473L198.449 126.783ZM201.713 117.711L199.953 122.543H203.873L202.097 117.711C202.017 117.487 201.937 117.215 201.905 117.039C201.873 117.199 201.793 117.471 201.713 117.711ZM210.216 126.783L205.816 115.215H207.496L210.312 122.607C210.568 123.263 210.792 123.919 211.032 124.783C211.304 123.871 211.576 123.103 211.768 122.591L214.568 115.215H216.2L211.848 126.783H210.216ZM216.621 126.783H214.989L219.213 115.215H220.957L225.197 126.783H223.549L222.509 123.903H217.645L216.621 126.783ZM219.885 117.711L218.125 122.543H222.045L220.269 117.711C220.189 117.487 220.109 117.215 220.077 117.039C220.045 117.199 219.965 117.471 219.885 117.711ZM229.615 121.007L225.663 115.215H227.535L229.343 117.791C229.855 118.543 230.239 119.183 230.575 119.823L233.631 115.215H235.439L231.567 120.991L235.487 126.783H233.631L231.855 124.239C231.407 123.583 230.975 122.879 230.591 122.207L227.487 126.783H225.647L229.615 121.007ZM239.047 126.159C239.047 127.311 238.183 128.271 237.047 128.415V127.743C237.703 127.631 238.167 127.199 238.167 126.703C238.055 126.767 237.927 126.799 237.735 126.799C237.207 126.799 236.759 126.415 236.759 125.823C236.759 125.183 237.191 124.719 237.831 124.719C238.503 124.719 239.047 125.279 239.047 126.159ZM245.844 126.783V115.215H250.26C252.516 115.215 253.892 116.367 253.892 118.271C253.892 119.599 253.316 120.495 252.164 120.975C253.444 121.391 254.1 122.319 254.1 123.695C254.1 125.615 252.708 126.783 250.42 126.783H245.844ZM250.164 116.607H247.412V120.319H250.26C251.556 120.319 252.292 119.615 252.292 118.415C252.292 117.263 251.524 116.607 250.164 116.607ZM250.388 121.679H247.412V125.391H250.388C251.732 125.391 252.484 124.703 252.484 123.503C252.484 122.351 251.716 121.679 250.388 121.679ZM257.631 126.783H256.063V115.215H257.631L263.551 124.159V115.215H265.119V126.783H263.551L257.631 117.839V126.783ZM267.813 126.783V115.215H272.229C274.485 115.215 275.861 116.367 275.861 118.271C275.861 119.599 275.285 120.495 274.133 120.975C275.413 121.391 276.069 122.319 276.069 123.695C276.069 125.615 274.677 126.783 272.389 126.783H267.813ZM272.133 116.607H269.381V120.319H272.229C273.525 120.319 274.261 119.615 274.261 118.415C274.261 117.263 273.493 116.607 272.133 116.607ZM272.357 121.679H269.381V125.391H272.357C273.701 125.391 274.453 124.703 274.453 123.503C274.453 122.351 273.685 121.679 272.357 121.679ZM277.952 129.551H276.688C278.048 127.679 278.848 124.863 278.848 122.031C278.848 119.039 277.968 116.287 276.688 114.527H277.952C279.504 116.463 280.384 119.311 280.384 122.031C280.384 124.927 279.408 127.711 277.952 129.551Z" fill="#A0A0A1"/>
<path fill-rule="evenodd" clip-rule="evenodd" d="M32 164.783C36.4183 164.783 40 161.201 40 156.783C40 152.365 36.4183 148.783 32 148.783C27.5817 148.783 24 152.365 24 156.783C24 161.201 27.5817 164.783 32 164.783ZM35.7095 154.446C35.8913 154.238 35.8702 153.922 35.6624 153.74C35.4546 153.558 35.1387 153.579 34.9569 153.787L30.6421 158.718L29.0201 157.096C28.8248 156.901 28.5082 156.901 28.313 157.096C28.1177 157.292 28.1177 157.608 28.313 157.803L30.313 159.803C30.4108 159.901 30.5448 159.954 30.6831 159.95C30.8215 159.945 30.9517 159.883 31.0428 159.779L35.7095 154.446Z" fill="#A0A0A1"/>
<path d="M48.6717 154.336C48.6717 152.352 50.2717 151.008 52.6557 151.008C54.8637 151.008 56.2877 152.24 56.4157 154.24H54.8317C54.7517 153.088 53.9357 152.416 52.6397 152.416C51.1837 152.416 50.2397 153.152 50.2397 154.288C50.2397 155.216 50.7677 155.776 51.8557 156.032L53.7597 156.48C55.6477 156.912 56.6077 157.936 56.6077 159.568C56.6077 161.648 54.9917 162.976 52.5277 162.976C50.1757 162.976 48.6077 161.744 48.5117 159.76H50.1117C50.1437 160.864 51.0717 161.568 52.5277 161.568C54.0637 161.568 55.0397 160.848 55.0397 159.696C55.0397 158.784 54.5437 158.208 53.4397 157.952L51.5357 157.52C49.6477 157.088 48.6717 156 48.6717 154.336ZM57.8101 158.88C57.8101 156.432 59.3621 154.736 61.6501 154.736C63.6181 154.736 64.9941 155.856 65.2661 157.6H63.7621C63.5061 156.608 62.7061 156.08 61.6981 156.08C60.2741 156.08 59.2981 157.168 59.2981 158.864C59.2981 160.544 60.2101 161.632 61.6341 161.632C62.7061 161.632 63.5061 161.072 63.7781 160.144H65.2821C64.9781 161.84 63.5221 162.976 61.6341 162.976C59.3301 162.976 57.8101 161.344 57.8101 158.88ZM68.373 162.768H66.869V151.008H68.373V156.16C68.869 155.312 69.813 154.736 71.029 154.736C73.029 154.736 73.989 156 73.989 158V162.784H72.485V158.336C72.485 156.752 71.733 156.112 70.613 156.112C69.157 156.112 68.373 157.168 68.373 158.512V162.768ZM79.4481 162.976C77.1441 162.976 75.5601 161.312 75.5601 158.88C75.5601 156.432 77.1121 154.736 79.3841 154.736C81.6081 154.736 83.0641 156.272 83.0641 158.592V159.152L77.0161 159.168C77.1281 160.816 77.9921 161.728 79.4801 161.728C80.6481 161.728 81.4161 161.248 81.6721 160.352H83.0801C82.6961 162.032 81.3841 162.976 79.4481 162.976ZM79.3841 156C78.0721 156 77.2401 156.784 77.0481 158.16H81.5601C81.5601 156.864 80.7121 156 79.3841 156ZM87.8799 162.976C85.608 162.976 84.232 161.28 84.232 158.896C84.232 156.496 85.624 154.736 87.944 154.736C89.144 154.736 90.152 155.264 90.68 156.224V151.008H92.168V162.784H90.824L90.696 161.36C90.184 162.432 89.128 162.976 87.8799 162.976ZM88.184 161.616C89.72 161.616 90.664 160.48 90.664 158.848C90.664 157.248 89.72 156.096 88.184 156.096C86.648 156.096 85.752 157.248 85.752 158.848C85.752 160.464 86.648 161.616 88.184 161.616ZM99.7457 154.96H101.234V162.784H99.8897L99.7297 161.6C99.2817 162.416 98.2417 162.976 97.0897 162.976C95.2657 162.976 94.2417 161.744 94.2417 159.824V154.96H95.7457V159.328C95.7457 161.008 96.4657 161.648 97.6177 161.648C98.9937 161.648 99.7457 160.768 99.7457 159.088V154.96ZM104.952 162.784H103.448V151.008H104.952V162.784ZM110.542 162.976C108.238 162.976 106.654 161.312 106.654 158.88C106.654 156.432 108.206 154.736 110.478 154.736C112.702 154.736 114.158 156.272 114.158 158.592V159.152L108.11 159.168C108.222 160.816 109.086 161.728 110.574 161.728C111.742 161.728 112.51 161.248 112.766 160.352H114.174C113.79 162.032 112.478 162.976 110.542 162.976ZM110.478 156C109.166 156 108.334 156.784 108.142 158.16H112.654C112.654 156.864 111.806 156 110.478 156ZM118.974 162.976C116.702 162.976 115.326 161.28 115.326 158.896C115.326 156.496 116.718 154.736 119.038 154.736C120.238 154.736 121.246 155.264 121.774 156.224V151.008H123.262V162.784H121.918L121.79 161.36C121.278 162.432 120.222 162.976 118.974 162.976ZM119.278 161.616C120.814 161.616 121.758 160.48 121.758 158.848C121.758 157.248 120.814 156.096 119.278 156.096C117.742 156.096 116.846 157.248 116.846 158.848C116.846 160.464 117.742 161.616 119.278 161.616ZM128.943 152.656V151.216H137.471V152.656H133.999V162.784H132.431V152.656H128.943ZM142.318 154.896V156.272H141.646C140.222 156.272 139.342 157.136 139.342 158.64V162.784H137.838V154.976H139.246L139.342 156.16C139.662 155.344 140.446 154.8 141.518 154.8C141.79 154.8 142.014 154.832 142.318 154.896ZM145.704 162.976C144.024 162.976 143.032 162.032 143.032 160.608C143.032 159.168 144.104 158.272 145.944 158.128L148.408 157.936V157.712C148.408 156.4 147.624 155.936 146.568 155.936C145.304 155.936 144.584 156.496 144.584 157.44H143.272C143.272 155.808 144.616 154.736 146.632 154.736C148.568 154.736 149.88 155.76 149.88 157.872V162.784H148.6L148.44 161.52C148.04 162.416 146.968 162.976 145.704 162.976ZM146.136 161.808C147.56 161.808 148.424 160.88 148.424 159.408V158.992L146.424 159.152C145.096 159.28 144.552 159.792 144.552 160.56C144.552 161.392 145.16 161.808 146.136 161.808ZM153.467 162.784H151.963V154.96H153.323L153.483 156.16C153.979 155.264 154.971 154.736 156.075 154.736C158.139 154.736 159.083 156 159.083 158V162.784H157.579V158.336C157.579 156.752 156.843 156.112 155.691 156.112C154.283 156.112 153.467 157.12 153.467 158.64V162.784ZM160.432 160.512H161.872C161.872 161.312 162.48 161.792 163.472 161.792C164.528 161.792 165.136 161.36 165.136 160.64C165.136 160.112 164.88 159.792 164.064 159.584L162.688 159.264C161.296 158.928 160.64 158.24 160.64 157.088C160.64 155.648 161.856 154.736 163.584 154.736C165.296 154.736 166.416 155.696 166.448 157.184H165.008C164.976 156.4 164.448 155.904 163.536 155.904C162.592 155.904 162.064 156.32 162.064 157.04C162.064 157.568 162.448 157.92 163.216 158.112L164.592 158.448C165.92 158.768 166.576 159.376 166.576 160.544C166.576 162.032 165.296 162.976 163.44 162.976C161.6 162.976 160.432 162 160.432 160.512ZM170.532 162.976C168.852 162.976 167.86 162.032 167.86 160.608C167.86 159.168 168.932 158.272 170.772 158.128L173.236 157.936V157.712C173.236 156.4 172.452 155.936 171.396 155.936C170.132 155.936 169.412 156.496 169.412 157.44H168.1C168.1 155.808 169.444 154.736 171.46 154.736C173.396 154.736 174.708 155.76 174.708 157.872V162.784H173.428L173.268 161.52C172.868 162.416 171.796 162.976 170.532 162.976ZM170.964 161.808C172.388 161.808 173.252 160.88 173.252 159.408V158.992L171.252 159.152C169.924 159.28 169.38 159.792 169.38 160.56C169.38 161.392 169.988 161.808 170.964 161.808ZM176.279 158.88C176.279 156.432 177.831 154.736 180.119 154.736C182.087 154.736 183.463 155.856 183.735 157.6H182.231C181.975 156.608 181.175 156.08 180.167 156.08C178.743 156.08 177.767 157.168 177.767 158.864C177.767 160.544 178.679 161.632 180.103 161.632C181.175 161.632 181.975 161.072 182.247 160.144H183.751C183.447 161.84 181.991 162.976 180.103 162.976C177.799 162.976 176.279 161.344 176.279 158.88ZM187.546 162.784H186.042V156.224H184.506V154.96H186.042V152.512H187.546V154.96H189.082V156.224H187.546V162.784ZM191.168 153.104C190.624 153.104 190.176 152.656 190.176 152.112C190.176 151.552 190.624 151.12 191.168 151.12C191.712 151.12 192.16 151.552 192.16 152.112C192.16 152.656 191.712 153.104 191.168 153.104ZM190.432 162.784V154.96H191.936V162.784H190.432ZM193.607 158.864C193.607 156.448 195.335 154.752 197.687 154.752C200.023 154.752 201.751 156.448 201.751 158.864C201.751 161.28 200.023 162.976 197.687 162.976C195.335 162.976 193.607 161.28 193.607 158.864ZM195.127 158.864C195.127 160.496 196.167 161.632 197.687 161.632C199.191 161.632 200.247 160.496 200.247 158.864C200.247 157.232 199.191 156.096 197.687 156.096C196.167 156.096 195.127 157.232 195.127 158.864ZM204.92 162.784H203.416V154.96H204.776L204.936 156.16C205.432 155.264 206.424 154.736 207.528 154.736C209.592 154.736 210.536 156 210.536 158V162.784H209.032V158.336C209.032 156.752 208.296 156.112 207.144 156.112C205.736 156.112 204.92 157.12 204.92 158.64V162.784Z" fill="#A0A0A1"/>
<path fill-rule="evenodd" clip-rule="evenodd" d="M32 200.783C36.4183 200.783 40 197.201 40 192.783C40 188.365 36.4183 184.783 32 184.783C27.5817 184.783 24 188.365 24 192.783C24 197.201 27.5817 200.783 32 200.783ZM35.7095 190.446C35.8913 190.238 35.8702 189.922 35.6624 189.74C35.4546 189.558 35.1387 189.579 34.9569 189.787L30.6421 194.718L29.0201 193.096C28.8248 192.901 28.5082 192.901 28.313 193.096C28.1177 193.292 28.1177 193.608 28.313 193.803L30.313 195.803C30.4108 195.901 30.5448 195.954 30.6831 195.95C30.8215 195.945 30.9517 195.883 31.0428 195.779L35.7095 190.446Z" fill="#A0A0A1"/>
<path d="M49.8234 198.783H48.1914L52.4154 187.215H54.1594L58.3994 198.783H56.7514L55.7114 195.903H50.8474L49.8234 198.783ZM53.0874 189.711L51.3274 194.543H55.2474L53.4714 189.711C53.3914 189.487 53.3114 189.215 53.2794 189.039C53.2474 189.199 53.1674 189.471 53.0874 189.711ZM64.8704 190.959H66.3584V198.783H65.0144L64.8544 197.599C64.4064 198.415 63.3664 198.975 62.2144 198.975C60.3904 198.975 59.3664 197.743 59.3664 195.823V190.959H60.8704V195.327C60.8704 197.007 61.5904 197.647 62.7424 197.647C64.1184 197.647 64.8704 196.767 64.8704 195.087V190.959ZM70.7485 198.783H69.2445V192.223H67.7085V190.959H69.2445V188.511H70.7485V190.959H72.2845V192.223H70.7485V198.783ZM73.0442 194.863C73.0442 192.447 74.7722 190.751 77.1242 190.751C79.4602 190.751 81.1882 192.447 81.1882 194.863C81.1882 197.279 79.4602 198.975 77.1242 198.975C74.7722 198.975 73.0442 197.279 73.0442 194.863ZM74.5642 194.863C74.5642 196.495 75.6042 197.631 77.1242 197.631C78.6282 197.631 79.6842 196.495 79.6842 194.863C79.6842 193.231 78.6282 192.095 77.1242 192.095C75.6042 192.095 74.5642 193.231 74.5642 194.863ZM82.773 195.215V193.871H87.653V195.215H82.773ZM90.4797 189.103C89.9357 189.103 89.4877 188.655 89.4877 188.111C89.4877 187.551 89.9357 187.119 90.4797 187.119C91.0237 187.119 91.4717 187.551 91.4717 188.111C91.4717 188.655 91.0237 189.103 90.4797 189.103ZM89.7437 198.783V190.959H91.2477V198.783H89.7437ZM94.9352 198.783H93.4312V190.959H94.7912L94.9512 192.159C95.4472 191.263 96.4392 190.735 97.5432 190.735C99.6072 190.735 100.551 191.999 100.551 193.999V198.783H99.0472V194.335C99.0472 192.751 98.3112 192.111 97.1592 192.111C95.7512 192.111 94.9352 193.119 94.9352 194.639V198.783ZM104.67 198.783L101.518 190.959H103.118L104.83 195.327C105.102 196.063 105.326 196.719 105.454 197.199C105.582 196.687 105.838 196.015 106.11 195.327L107.854 190.959H109.422L106.158 198.783H104.67ZM113.635 198.975C111.331 198.975 109.747 197.311 109.747 194.879C109.747 192.431 111.299 190.735 113.571 190.735C115.795 190.735 117.251 192.271 117.251 194.591V195.151L111.203 195.167C111.315 196.815 112.179 197.727 113.667 197.727C114.835 197.727 115.603 197.247 115.859 196.351H117.267C116.883 198.031 115.571 198.975 113.635 198.975ZM113.571 191.999C112.259 191.999 111.427 192.783 111.235 194.159H115.747C115.747 192.863 114.899 191.999 113.571 191.999ZM118.291 196.511H119.731C119.731 197.311 120.339 197.791 121.331 197.791C122.387 197.791 122.995 197.359 122.995 196.639C122.995 196.111 122.739 195.791 121.923 195.583L120.547 195.263C119.155 194.927 118.499 194.239 118.499 193.087C118.499 191.647 119.715 190.735 121.443 190.735C123.155 190.735 124.275 191.695 124.307 193.183H122.867C122.835 192.399 122.307 191.903 121.395 191.903C120.451 191.903 119.923 192.319 119.923 193.039C119.923 193.567 120.307 193.919 121.075 194.111L122.451 194.447C123.779 194.767 124.435 195.375 124.435 196.543C124.435 198.031 123.155 198.975 121.299 198.975C119.459 198.975 118.291 197.999 118.291 196.511ZM128.311 198.783H126.807V192.223H125.271V190.959H126.807V188.511H128.311V190.959H129.847V192.223H128.311V198.783Z" fill="#A0A0A1"/>
<path fill-rule="evenodd" clip-rule="evenodd" d="M32 236.783C36.4183 236.783 40 233.201 40 228.783C40 224.365 36.4183 220.783 32 220.783C27.5817 220.783 24 224.365 24 228.783C24 233.201 27.5817 236.783 32 236.783ZM35.7095 226.446C35.8913 226.238 35.8702 225.922 35.6624 225.74C35.4546 225.558 35.1387 225.579 34.9569 225.787L30.6421 230.718L29.0201 229.096C28.8248 228.901 28.5082 228.901 28.313 229.096C28.1177 229.292 28.1177 229.608 28.313 229.803L30.313 231.803C30.4108 231.901 30.5448 231.954 30.6831 231.95C30.8215 231.945 30.9517 231.883 31.0428 231.779L35.7095 226.446Z" fill="#A0A0A1"/>
<path d="M53.1677 234.782H49.3438V223.214H53.1037C56.5597 223.214 58.8957 225.55 58.8957 229.006C58.8957 232.446 56.5917 234.782 53.1677 234.782ZM52.9917 224.654H50.9117V233.326H53.0557C55.6317 233.326 57.2637 231.662 57.2637 229.006C57.2637 226.318 55.6317 224.654 52.9917 224.654ZM64.0107 234.974C61.7067 234.974 60.1226 233.31 60.1226 230.878C60.1226 228.43 61.6746 226.734 63.9466 226.734C66.1706 226.734 67.6266 228.27 67.6266 230.59V231.15L61.5786 231.166C61.6906 232.814 62.5546 233.726 64.0426 233.726C65.2106 233.726 65.9786 233.246 66.2346 232.35H67.6426C67.2586 234.03 65.9467 234.974 64.0107 234.974ZM63.9466 227.998C62.6346 227.998 61.8026 228.782 61.6106 230.158H66.1227C66.1227 228.862 65.2746 227.998 63.9466 227.998ZM68.6665 232.51H70.1065C70.1065 233.31 70.7146 233.79 71.7066 233.79C72.7626 233.79 73.3705 233.358 73.3705 232.638C73.3705 232.11 73.1145 231.79 72.2985 231.582L70.9225 231.262C69.5305 230.926 68.8745 230.238 68.8745 229.086C68.8745 227.646 70.0906 226.734 71.8186 226.734C73.5306 226.734 74.6505 227.694 74.6825 229.182H73.2425C73.2105 228.398 72.6825 227.902 71.7705 227.902C70.8265 227.902 70.2985 228.318 70.2985 229.038C70.2985 229.566 70.6825 229.918 71.4505 230.11L72.8265 230.446C74.1545 230.766 74.8105 231.374 74.8105 232.542C74.8105 234.03 73.5305 234.974 71.6745 234.974C69.8345 234.974 68.6665 233.998 68.6665 232.51ZM77.2143 225.102C76.6703 225.102 76.2224 224.654 76.2224 224.11C76.2224 223.55 76.6703 223.118 77.2143 223.118C77.7583 223.118 78.2063 223.55 78.2063 224.11C78.2063 224.654 77.7583 225.102 77.2143 225.102ZM76.4783 234.782V226.958H77.9823V234.782H76.4783ZM79.6698 230.67C79.6698 228.462 81.0938 226.734 83.3658 226.734C84.6298 226.734 85.6058 227.31 86.1018 228.286L86.2139 226.958H87.5578V234.462C87.5578 236.926 86.0378 238.494 83.6378 238.494C81.5098 238.494 80.0538 237.294 79.7658 235.31H81.2699C81.4619 236.462 82.3258 237.134 83.6378 237.134C85.1098 237.134 86.0698 236.174 86.0698 234.686V233.118C85.5578 234.03 84.5338 234.574 83.3018 234.574C81.0778 234.574 79.6698 232.862 79.6698 230.67ZM81.1739 230.638C81.1739 232.11 82.0858 233.262 83.5578 233.262C85.0778 233.262 86.0059 232.174 86.0059 230.638C86.0059 229.134 85.1098 228.046 83.5738 228.046C82.0698 228.046 81.1739 229.198 81.1739 230.638ZM97.5753 234.782L93.1753 223.214H94.8553L97.6713 230.606C97.9273 231.262 98.1513 231.918 98.3913 232.782C98.6633 231.87 98.9353 231.102 99.1273 230.59L101.928 223.214H103.56L99.2074 234.782H97.5753ZM104.427 234.974C103.803 234.974 103.275 234.462 103.275 233.854C103.275 233.23 103.803 232.718 104.427 232.718C105.035 232.718 105.563 233.23 105.563 233.854C105.563 234.462 105.035 234.974 104.427 234.974ZM106.768 229.006C106.768 225.422 108.624 222.99 111.536 222.99C114.432 222.99 116.288 225.422 116.288 229.006C116.288 232.606 114.512 234.99 111.536 234.99C108.544 234.99 106.768 232.606 106.768 229.006ZM108.32 229.006C108.32 231.854 109.504 233.582 111.536 233.582C113.568 233.582 114.736 231.854 114.736 229.006C114.736 226.126 113.568 224.398 111.536 224.398C109.504 224.398 108.32 226.126 108.32 229.006ZM125.622 234.766L117.814 234.782V233.582L121.542 230.366C123.414 228.75 123.942 227.966 123.942 226.734C123.942 225.278 123.11 224.414 121.718 224.414C120.294 224.414 119.366 225.454 119.334 227.102H117.766C117.814 224.622 119.382 223.006 121.734 223.006C124.054 223.006 125.542 224.414 125.542 226.638C125.542 228.286 124.726 229.454 122.678 231.23L120.278 233.31H125.622V234.766Z" fill="#A0A0A1"/>
</g>
<defs>
<linearGradient id="paint0_linear_10312_10575" x1="-8.33662e-07" y1="288.783" x2="377.406" y2="186.165" gradientUnits="userSpaceOnUse">
<stop stop-color="white" stop-opacity="0.1"/>
<stop offset="1" stop-color="white" stop-opacity="0.05"/>
</linearGradient>
<clipPath id="clip0_10312_10575">
<rect width="327" height="288" fill="white" transform="translate(0 0.783203)"/>
</clipPath>
</defs>
</svg>
