<svg width="371" height="288" viewBox="0 0 371 288" fill="none" xmlns="http://www.w3.org/2000/svg">
<rect x="0.5" y="0.5" width="370" height="287" rx="19.5" fill="#252238"/>
<rect x="0.5" y="0.5" width="370" height="287" rx="19.5" stroke="url(#paint0_linear_10085_39734)"/>
<path d="M37.08 46.96L35.52 45.2C34.44 45.86 33.16 46.24 31.74 46.24C27.66 46.24 24.82 43.16 24.82 38.76C24.82 34.38 27.68 31.28 31.76 31.28C35.86 31.28 38.72 34.36 38.72 38.76C38.72 40.92 38.02 42.76 36.84 44.08L38.36 45.8L37.08 46.96ZM36.66 38.76C36.66 35.4 34.7 33.18 31.76 33.18C28.82 33.18 26.88 35.4 26.88 38.76C26.88 42.12 28.82 44.36 31.76 44.36C32.68 44.36 33.5 44.14 34.2 43.72L32.3 41.58L33.58 40.42L35.5 42.58C36.24 41.62 36.66 40.3 36.66 38.76ZM51.3069 43.08H49.5869V46H47.7069V43.08H40.2269V41.34L47.0469 31.54H49.5869V41.34H51.3069V43.08ZM42.3469 41.34H47.7069V33.62L42.3469 41.34ZM58.9905 41.54V39.86H65.0905V41.54H58.9905ZM82.4925 45.98L72.7325 46V44.5L77.3925 40.48C79.7325 38.46 80.3925 37.48 80.3925 35.94C80.3925 34.12 79.3525 33.04 77.6125 33.04C75.8325 33.04 74.6725 34.34 74.6325 36.4H72.6725C72.7325 33.3 74.6925 31.28 77.6325 31.28C80.5325 31.28 82.3925 33.04 82.3925 35.82C82.3925 37.88 81.3725 39.34 78.8125 41.56L75.8125 44.16H82.4925V45.98ZM84.2964 38.78C84.2964 34.3 86.6164 31.26 90.2564 31.26C93.8764 31.26 96.1964 34.3 96.1964 38.78C96.1964 43.28 93.9764 46.26 90.2564 46.26C86.5164 46.26 84.2964 43.28 84.2964 38.78ZM86.2364 38.78C86.2364 42.34 87.7164 44.5 90.2564 44.5C92.7964 44.5 94.2564 42.34 94.2564 38.78C94.2564 35.18 92.7964 33.02 90.2564 33.02C87.7164 33.02 86.2364 35.18 86.2364 38.78ZM107.864 45.98L98.1036 46V44.5L102.764 40.48C105.104 38.46 105.764 37.48 105.764 35.94C105.764 34.12 104.724 33.04 102.984 33.04C101.204 33.04 100.044 34.34 100.004 36.4H98.0436C98.1036 33.3 100.064 31.28 103.004 31.28C105.904 31.28 107.764 33.04 107.764 35.82C107.764 37.88 106.744 39.34 104.184 41.56L101.184 44.16H107.864V45.98ZM120.057 43.08H118.337V46H116.457V43.08H108.977V41.34L115.797 31.54H118.337V41.34H120.057V43.08ZM111.097 41.34H116.457V33.62L111.097 41.34Z" fill="#F3F3F3"/>
<path fill-rule="evenodd" clip-rule="evenodd" d="M32 92C36.4183 92 40 88.4183 40 84C40 79.5817 36.4183 76 32 76C27.5817 76 24 79.5817 24 84C24 88.4183 27.5817 92 32 92ZM35.7095 81.6627C35.8913 81.4549 35.8702 81.139 35.6624 80.9572C35.4546 80.7754 35.1387 80.7964 34.9569 81.0042L30.6421 85.9354L29.0201 84.3133C28.8248 84.118 28.5082 84.118 28.313 84.3133C28.1177 84.5085 28.1177 84.8251 28.313 85.0204L30.313 87.0204C30.4108 87.1182 30.5448 87.1712 30.6831 87.1666C30.8215 87.1619 30.9517 87.1002 31.0428 86.9961L35.7095 81.6627Z" fill="#A0A0A1"/>
<path d="M50.88 90H49.344V78.432H50.88L54.864 88.16L58.848 78.432H60.416V90H58.88V85.424C58.88 83.264 58.896 82.48 58.976 81.664L55.6 90H54.128L50.768 81.696C50.848 82.256 50.88 83.44 50.88 85.056V90ZM68.2616 82.176H69.7496V90H68.4056L68.2456 88.816C67.7976 89.632 66.7576 90.192 65.6056 90.192C63.7816 90.192 62.7576 88.96 62.7576 87.04V82.176H64.2616V86.544C64.2616 88.224 64.9816 88.864 66.1336 88.864C67.5096 88.864 68.2616 87.984 68.2616 86.304V82.176ZM73.4678 90H71.9638V78.224H73.4678V90ZM77.8898 90H76.3858V83.44H74.8498V82.176H76.3858V79.728H77.8898V82.176H79.4258V83.44H77.8898V90ZM81.5115 80.32C80.9675 80.32 80.5195 79.872 80.5195 79.328C80.5195 78.768 80.9675 78.336 81.5115 78.336C82.0555 78.336 82.5035 78.768 82.5035 79.328C82.5035 79.872 82.0555 80.32 81.5115 80.32ZM80.7755 90V82.176H82.2795V90H80.7755ZM83.823 87.728H85.263C85.263 88.528 85.871 89.008 86.863 89.008C87.919 89.008 88.527 88.576 88.527 87.856C88.527 87.328 88.271 87.008 87.455 86.8L86.079 86.48C84.687 86.144 84.031 85.456 84.031 84.304C84.031 82.864 85.247 81.952 86.975 81.952C88.687 81.952 89.807 82.912 89.839 84.4H88.399C88.367 83.616 87.839 83.12 86.927 83.12C85.983 83.12 85.455 83.536 85.455 84.256C85.455 84.784 85.839 85.136 86.607 85.328L87.983 85.664C89.311 85.984 89.967 86.592 89.967 87.76C89.967 89.248 88.687 90.192 86.831 90.192C84.991 90.192 83.823 89.216 83.823 87.728ZM92.3709 80.32C91.8269 80.32 91.3789 79.872 91.3789 79.328C91.3789 78.768 91.8269 78.336 92.3709 78.336C92.9149 78.336 93.3629 78.768 93.3629 79.328C93.3629 79.872 92.9149 80.32 92.3709 80.32ZM91.6349 90V82.176H93.1389V90H91.6349ZM94.8264 85.888C94.8264 83.68 96.2504 81.952 98.5224 81.952C99.7864 81.952 100.762 82.528 101.258 83.504L101.37 82.176H102.714V89.68C102.714 92.144 101.194 93.712 98.7944 93.712C96.6664 93.712 95.2104 92.512 94.9224 90.528H96.4264C96.6184 91.68 97.4824 92.352 98.7944 92.352C100.266 92.352 101.226 91.392 101.226 89.904V88.336C100.714 89.248 99.6904 89.792 98.4584 89.792C96.2344 89.792 94.8264 88.08 94.8264 85.888ZM96.3304 85.856C96.3304 87.328 97.2424 88.48 98.7144 88.48C100.234 88.48 101.162 87.392 101.162 85.856C101.162 84.352 100.266 83.264 98.7304 83.264C97.2264 83.264 96.3304 84.416 96.3304 85.856ZM111.548 90.192C109.868 90.192 108.876 89.248 108.876 87.824C108.876 86.384 109.948 85.488 111.788 85.344L114.252 85.152V84.928C114.252 83.616 113.468 83.152 112.412 83.152C111.148 83.152 110.428 83.712 110.428 84.656H109.116C109.116 83.024 110.46 81.952 112.476 81.952C114.412 81.952 115.724 82.976 115.724 85.088V90H114.444L114.284 88.736C113.884 89.632 112.812 90.192 111.548 90.192ZM111.98 89.024C113.404 89.024 114.268 88.096 114.268 86.624V86.208L112.268 86.368C110.94 86.496 110.396 87.008 110.396 87.776C110.396 88.608 111.004 89.024 111.98 89.024ZM117.167 87.728H118.607C118.607 88.528 119.215 89.008 120.207 89.008C121.263 89.008 121.871 88.576 121.871 87.856C121.871 87.328 121.615 87.008 120.799 86.8L119.423 86.48C118.031 86.144 117.375 85.456 117.375 84.304C117.375 82.864 118.591 81.952 120.319 81.952C122.031 81.952 123.151 82.912 123.183 84.4H121.743C121.711 83.616 121.183 83.12 120.271 83.12C119.327 83.12 118.799 83.536 118.799 84.256C118.799 84.784 119.183 85.136 119.951 85.328L121.327 85.664C122.655 85.984 123.311 86.592 123.311 87.76C123.311 89.248 122.031 90.192 120.175 90.192C118.335 90.192 117.167 89.216 117.167 87.728ZM131.642 90.192C129.962 90.192 128.97 89.248 128.97 87.824C128.97 86.384 130.042 85.488 131.882 85.344L134.346 85.152V84.928C134.346 83.616 133.562 83.152 132.506 83.152C131.242 83.152 130.522 83.712 130.522 84.656H129.21C129.21 83.024 130.554 81.952 132.57 81.952C134.506 81.952 135.818 82.976 135.818 85.088V90H134.538L134.378 88.736C133.978 89.632 132.906 90.192 131.642 90.192ZM132.074 89.024C133.498 89.024 134.362 88.096 134.362 86.624V86.208L132.362 86.368C131.034 86.496 130.49 87.008 130.49 87.776C130.49 88.608 131.098 89.024 132.074 89.024ZM141.636 87.728H143.076C143.076 88.528 143.684 89.008 144.676 89.008C145.732 89.008 146.34 88.576 146.34 87.856C146.34 87.328 146.084 87.008 145.268 86.8L143.892 86.48C142.5 86.144 141.844 85.456 141.844 84.304C141.844 82.864 143.06 81.952 144.788 81.952C146.5 81.952 147.62 82.912 147.652 84.4H146.212C146.18 83.616 145.652 83.12 144.74 83.12C143.796 83.12 143.268 83.536 143.268 84.256C143.268 84.784 143.652 85.136 144.42 85.328L145.796 85.664C147.124 85.984 147.78 86.592 147.78 87.76C147.78 89.248 146.5 90.192 144.644 90.192C142.804 90.192 141.636 89.216 141.636 87.728ZM152.823 90.192C150.519 90.192 148.935 88.528 148.935 86.096C148.935 83.648 150.487 81.952 152.759 81.952C154.983 81.952 156.439 83.488 156.439 85.808V86.368L150.391 86.384C150.503 88.032 151.367 88.944 152.855 88.944C154.023 88.944 154.791 88.464 155.047 87.568H156.455C156.071 89.248 154.759 90.192 152.823 90.192ZM152.759 83.216C151.447 83.216 150.615 84 150.423 85.376H154.935C154.935 84.08 154.087 83.216 152.759 83.216ZM162.599 82.112V83.488H161.927C160.503 83.488 159.623 84.352 159.623 85.856V90H158.119V82.192H159.527L159.623 83.376C159.943 82.56 160.727 82.016 161.799 82.016C162.071 82.016 162.295 82.048 162.599 82.112ZM166.436 90L163.284 82.176H164.884L166.596 86.544C166.868 87.28 167.092 87.936 167.22 88.416C167.348 87.904 167.604 87.232 167.876 86.544L169.62 82.176H171.188L167.924 90H166.436ZM173.121 80.32C172.577 80.32 172.129 79.872 172.129 79.328C172.129 78.768 172.577 78.336 173.121 78.336C173.665 78.336 174.113 78.768 174.113 79.328C174.113 79.872 173.665 80.32 173.121 80.32ZM172.385 90V82.176H173.889V90H172.385ZM175.56 86.096C175.56 83.648 177.112 81.952 179.4 81.952C181.368 81.952 182.744 83.072 183.016 84.816H181.512C181.256 83.824 180.456 83.296 179.448 83.296C178.024 83.296 177.048 84.384 177.048 86.08C177.048 87.76 177.96 88.848 179.384 88.848C180.456 88.848 181.256 88.288 181.528 87.36H183.032C182.728 89.056 181.272 90.192 179.384 90.192C177.08 90.192 175.56 88.56 175.56 86.096ZM187.995 90.192C185.691 90.192 184.107 88.528 184.107 86.096C184.107 83.648 185.659 81.952 187.931 81.952C190.155 81.952 191.611 83.488 191.611 85.808V86.368L185.563 86.384C185.675 88.032 186.539 88.944 188.027 88.944C189.195 88.944 189.963 88.464 190.219 87.568H191.627C191.243 89.248 189.931 90.192 187.995 90.192ZM187.931 83.216C186.619 83.216 185.787 84 185.595 85.376H190.107C190.107 84.08 189.259 83.216 187.931 83.216ZM199.202 90H197.698V78.224H199.202V90ZM202.152 80.32C201.608 80.32 201.16 79.872 201.16 79.328C201.16 78.768 201.608 78.336 202.152 78.336C202.696 78.336 203.144 78.768 203.144 79.328C203.144 79.872 202.696 80.32 202.152 80.32ZM201.416 90V82.176H202.92V90H201.416ZM207.296 90L204.144 82.176H205.744L207.456 86.544C207.728 87.28 207.952 87.936 208.08 88.416C208.208 87.904 208.464 87.232 208.736 86.544L210.48 82.176H212.048L208.784 90H207.296ZM216.261 90.192C213.957 90.192 212.373 88.528 212.373 86.096C212.373 83.648 213.925 81.952 216.197 81.952C218.421 81.952 219.877 83.488 219.877 85.808V86.368L213.829 86.384C213.941 88.032 214.805 88.944 216.293 88.944C217.461 88.944 218.229 88.464 218.485 87.568H219.893C219.509 89.248 218.197 90.192 216.261 90.192ZM216.197 83.216C214.885 83.216 214.053 84 213.861 85.376H218.373C218.373 84.08 217.525 83.216 216.197 83.216ZM225.932 93.504V82.176H227.292L227.404 83.584C227.932 82.512 228.988 81.952 230.236 81.952C232.476 81.952 233.868 83.632 233.868 86.032C233.868 88.416 232.556 90.208 230.236 90.208C228.988 90.208 227.948 89.68 227.436 88.72V93.504H225.932ZM227.452 86.096C227.452 87.696 228.38 88.848 229.916 88.848C231.452 88.848 232.364 87.696 232.364 86.096C232.364 84.48 231.452 83.328 229.916 83.328C228.38 83.328 227.452 84.464 227.452 86.096ZM237.062 90H235.558V78.224H237.062V90ZM241.564 90.192C239.884 90.192 238.892 89.248 238.892 87.824C238.892 86.384 239.964 85.488 241.804 85.344L244.268 85.152V84.928C244.268 83.616 243.484 83.152 242.428 83.152C241.164 83.152 240.444 83.712 240.444 84.656H239.132C239.132 83.024 240.476 81.952 242.492 81.952C244.428 81.952 245.74 82.976 245.74 85.088V90H244.46L244.3 88.736C243.9 89.632 242.828 90.192 241.564 90.192ZM241.996 89.024C243.42 89.024 244.284 88.096 244.284 86.624V86.208L242.284 86.368C240.956 86.496 240.412 87.008 240.412 87.776C240.412 88.608 241.02 89.024 241.996 89.024ZM249.905 90H248.401V83.44H246.865V82.176H248.401V79.728H249.905V82.176H251.441V83.44H249.905V90ZM252.1 82.176H253.252V80.928C253.252 79.008 254.308 78.224 255.732 78.224C256.02 78.224 256.356 78.24 256.66 78.288V79.584H255.988C255.012 79.584 254.756 80.08 254.756 80.928V82.176H256.612V83.44H254.756V90H253.252V83.44H252.1V82.176ZM257.264 86.08C257.264 83.664 258.992 81.968 261.344 81.968C263.68 81.968 265.408 83.664 265.408 86.08C265.408 88.496 263.68 90.192 261.344 90.192C258.992 90.192 257.264 88.496 257.264 86.08ZM258.784 86.08C258.784 87.712 259.824 88.848 261.344 88.848C262.848 88.848 263.904 87.712 263.904 86.08C263.904 84.448 262.848 83.312 261.344 83.312C259.824 83.312 258.784 84.448 258.784 86.08ZM271.552 82.112V83.488H270.88C269.456 83.488 268.576 84.352 268.576 85.856V90H267.072V82.192H268.48L268.576 83.376C268.896 82.56 269.68 82.016 270.752 82.016C271.024 82.016 271.248 82.048 271.552 82.112ZM274.467 90H272.963V82.176H274.307L274.451 83.2C274.851 82.464 275.683 81.952 276.787 81.952C278.003 81.952 278.867 82.56 279.267 83.536C279.635 82.56 280.579 81.952 281.795 81.952C283.587 81.952 284.675 83.072 284.675 84.88V90H283.203V85.248C283.203 84.016 282.515 83.312 281.459 83.312C280.323 83.312 279.571 84.112 279.571 85.36V90H278.083V85.232C278.083 84 277.411 83.328 276.355 83.328C275.219 83.328 274.467 84.112 274.467 85.36V90Z" fill="#A0A0A1"/>
<path fill-rule="evenodd" clip-rule="evenodd" d="M32 136C36.4183 136 40 132.418 40 128C40 123.582 36.4183 120 32 120C27.5817 120 24 123.582 24 128C24 132.418 27.5817 136 32 136ZM35.7095 125.663C35.8913 125.455 35.8702 125.139 35.6624 124.957C35.4546 124.775 35.1387 124.796 34.9569 125.004L30.6421 129.935L29.0201 128.313C28.8248 128.118 28.5082 128.118 28.313 128.313C28.1177 128.509 28.1177 128.825 28.313 129.02L30.313 131.02C30.4108 131.118 30.5448 131.171 30.6831 131.167C30.8215 131.162 30.9517 131.1 31.0428 130.996L35.7095 125.663Z" fill="#A0A0A1"/>
<path d="M48.672 125.552C48.672 123.568 50.272 122.224 52.656 122.224C54.864 122.224 56.288 123.456 56.416 125.456H54.832C54.752 124.304 53.936 123.632 52.64 123.632C51.184 123.632 50.24 124.368 50.24 125.504C50.24 126.432 50.768 126.992 51.856 127.248L53.76 127.696C55.648 128.128 56.608 129.152 56.608 130.784C56.608 132.864 54.992 134.192 52.528 134.192C50.176 134.192 48.608 132.96 48.512 130.976H50.112C50.144 132.08 51.072 132.784 52.528 132.784C54.064 132.784 55.04 132.064 55.04 130.912C55.04 130 54.544 129.424 53.44 129.168L51.536 128.736C49.648 128.304 48.672 127.216 48.672 125.552ZM60.5304 134H59.0264V127.44H57.4904V126.176H59.0264V123.728H60.5304V126.176H62.0664V127.44H60.5304V134ZM65.6104 134.192C63.9304 134.192 62.9384 133.248 62.9384 131.824C62.9384 130.384 64.0104 129.488 65.8504 129.344L68.3144 129.152V128.928C68.3144 127.616 67.5304 127.152 66.4744 127.152C65.2104 127.152 64.4904 127.712 64.4904 128.656H63.1784C63.1784 127.024 64.5224 125.952 66.5384 125.952C68.4744 125.952 69.7864 126.976 69.7864 129.088V134H68.5064L68.3464 132.736C67.9464 133.632 66.8744 134.192 65.6104 134.192ZM66.0424 133.024C67.4664 133.024 68.3304 132.096 68.3304 130.624V130.208L66.3304 130.368C65.0024 130.496 64.4584 131.008 64.4584 131.776C64.4584 132.608 65.0664 133.024 66.0424 133.024ZM73.4053 134H71.9013V122.224H73.4053V129.856L76.8773 126.176H78.7653L75.7733 129.296L78.7493 134H77.0213L74.7333 130.384L73.4053 131.776V134ZM80.7303 124.32C80.1863 124.32 79.7383 123.872 79.7383 123.328C79.7383 122.768 80.1863 122.336 80.7303 122.336C81.2743 122.336 81.7223 122.768 81.7223 123.328C81.7223 123.872 81.2743 124.32 80.7303 124.32ZM79.9943 134V126.176H81.4983V134H79.9943ZM85.1858 134H83.6818V126.176H85.0418L85.2018 127.376C85.6978 126.48 86.6898 125.952 87.7938 125.952C89.8578 125.952 90.8018 127.216 90.8018 129.216V134H89.2978V129.552C89.2978 127.968 88.5618 127.328 87.4098 127.328C86.0018 127.328 85.1858 128.336 85.1858 129.856V134ZM92.3889 129.888C92.3889 127.68 93.8129 125.952 96.0849 125.952C97.3489 125.952 98.3249 126.528 98.8209 127.504L98.9329 126.176H100.277V133.68C100.277 136.144 98.7569 137.712 96.3569 137.712C94.2289 137.712 92.7729 136.512 92.4849 134.528H93.9889C94.1809 135.68 95.0449 136.352 96.3569 136.352C97.8289 136.352 98.7889 135.392 98.7889 133.904V132.336C98.2769 133.248 97.2529 133.792 96.0209 133.792C93.7969 133.792 92.3889 132.08 92.3889 129.888ZM93.8929 129.856C93.8929 131.328 94.8049 132.48 96.2769 132.48C97.7969 132.48 98.7249 131.392 98.7249 129.856C98.7249 128.352 97.8289 127.264 96.2929 127.264C94.7889 127.264 93.8929 128.416 93.8929 129.856ZM107.558 134H105.926L110.15 122.432H111.894L116.134 134H114.486L113.446 131.12H108.582L107.558 134ZM110.822 124.928L109.062 129.76H112.982L111.206 124.928C111.126 124.704 111.046 124.432 111.014 124.256C110.982 124.416 110.902 124.688 110.822 124.928ZM116.78 129.888C116.78 127.68 118.204 125.952 120.476 125.952C121.74 125.952 122.716 126.528 123.212 127.504L123.324 126.176H124.668V133.68C124.668 136.144 123.148 137.712 120.748 137.712C118.62 137.712 117.164 136.512 116.876 134.528H118.38C118.572 135.68 119.436 136.352 120.748 136.352C122.22 136.352 123.18 135.392 123.18 133.904V132.336C122.668 133.248 121.644 133.792 120.411 133.792C118.188 133.792 116.78 132.08 116.78 129.888ZM118.284 129.856C118.284 131.328 119.196 132.48 120.668 132.48C122.188 132.48 123.116 131.392 123.116 129.856C123.116 128.352 122.22 127.264 120.684 127.264C119.18 127.264 118.284 128.416 118.284 129.856ZM126.342 129.888C126.342 127.68 127.766 125.952 130.038 125.952C131.302 125.952 132.278 126.528 132.774 127.504L132.886 126.176H134.23V133.68C134.23 136.144 132.71 137.712 130.31 137.712C128.182 137.712 126.726 136.512 126.438 134.528H127.942C128.134 135.68 128.998 136.352 130.31 136.352C131.782 136.352 132.742 135.392 132.742 133.904V132.336C132.23 133.248 131.206 133.792 129.974 133.792C127.75 133.792 126.342 132.08 126.342 129.888ZM127.846 129.856C127.846 131.328 128.758 132.48 130.23 132.48C131.75 132.48 132.678 131.392 132.678 129.856C132.678 128.352 131.782 127.264 130.246 127.264C128.742 127.264 127.846 128.416 127.846 129.856ZM140.881 126.112V127.488H140.209C138.785 127.488 137.905 128.352 137.905 129.856V134H136.401V126.192H137.809L137.905 127.376C138.225 126.56 139.009 126.016 140.081 126.016C140.353 126.016 140.577 126.048 140.881 126.112ZM145.386 134.192C143.082 134.192 141.498 132.528 141.498 130.096C141.498 127.648 143.05 125.952 145.322 125.952C147.546 125.952 149.002 127.488 149.002 129.808V130.368L142.954 130.384C143.066 132.032 143.93 132.944 145.418 132.944C146.586 132.944 147.354 132.464 147.61 131.568H149.018C148.634 133.248 147.322 134.192 145.386 134.192ZM145.322 127.216C144.01 127.216 143.178 128 142.986 129.376H147.498C147.498 128.08 146.65 127.216 145.322 127.216ZM150.186 129.888C150.186 127.68 151.61 125.952 153.882 125.952C155.146 125.952 156.122 126.528 156.618 127.504L156.73 126.176H158.074V133.68C158.074 136.144 156.554 137.712 154.154 137.712C152.026 137.712 150.57 136.512 150.282 134.528H151.786C151.978 135.68 152.842 136.352 154.154 136.352C155.626 136.352 156.586 135.392 156.586 133.904V132.336C156.074 133.248 155.05 133.792 153.818 133.792C151.594 133.792 150.186 132.08 150.186 129.888ZM151.69 129.856C151.69 131.328 152.602 132.48 154.074 132.48C155.594 132.48 156.522 131.392 156.522 129.856C156.522 128.352 155.626 127.264 154.09 127.264C152.586 127.264 151.69 128.416 151.69 129.856ZM162.532 134.192C160.852 134.192 159.86 133.248 159.86 131.824C159.86 130.384 160.932 129.488 162.772 129.344L165.236 129.152V128.928C165.236 127.616 164.452 127.152 163.396 127.152C162.132 127.152 161.412 127.712 161.412 128.656H160.1C160.1 127.024 161.444 125.952 163.46 125.952C165.396 125.952 166.708 126.976 166.708 129.088V134H165.428L165.268 132.736C164.868 133.632 163.796 134.192 162.532 134.192ZM162.964 133.024C164.388 133.024 165.252 132.096 165.252 130.624V130.208L163.252 130.368C161.924 130.496 161.38 131.008 161.38 131.776C161.38 132.608 161.988 133.024 162.964 133.024ZM170.874 134H169.37V127.44H167.834V126.176H169.37V123.728H170.874V126.176H172.41V127.44H170.874V134ZM173.17 130.08C173.17 127.664 174.898 125.968 177.25 125.968C179.586 125.968 181.314 127.664 181.314 130.08C181.314 132.496 179.586 134.192 177.25 134.192C174.898 134.192 173.17 132.496 173.17 130.08ZM174.69 130.08C174.69 131.712 175.73 132.848 177.25 132.848C178.754 132.848 179.81 131.712 179.81 130.08C179.81 128.448 178.754 127.312 177.25 127.312C175.73 127.312 174.69 128.448 174.69 130.08ZM187.459 126.112V127.488H186.787C185.363 127.488 184.483 128.352 184.483 129.856V134H182.979V126.192H184.387L184.483 127.376C184.803 126.56 185.587 126.016 186.659 126.016C186.931 126.016 187.155 126.048 187.459 126.112ZM196.62 136.768H195.372C193.9 134.928 192.924 132.144 192.924 129.248C192.924 126.528 193.804 123.68 195.372 121.744H196.62C195.356 123.504 194.46 126.256 194.46 129.248C194.46 132.08 195.26 134.896 196.62 136.768ZM202.465 129.872H199.537V134H197.969V122.432H202.465C204.737 122.432 206.193 123.92 206.193 126.144C206.193 128.304 204.721 129.872 202.465 129.872ZM202.193 123.84H199.537V128.464H202.129C203.681 128.464 204.545 127.552 204.545 126.128C204.545 124.672 203.665 123.84 202.193 123.84ZM206.842 130.08C206.842 127.664 208.57 125.968 210.922 125.968C213.258 125.968 214.986 127.664 214.986 130.08C214.986 132.496 213.258 134.192 210.922 134.192C208.57 134.192 206.842 132.496 206.842 130.08ZM208.362 130.08C208.362 131.712 209.402 132.848 210.922 132.848C212.426 132.848 213.482 131.712 213.482 130.08C213.482 128.448 212.426 127.312 210.922 127.312C209.402 127.312 208.362 128.448 208.362 130.08ZM218.187 134H216.683V122.224H218.187V134ZM219.649 137.504V136.272H220.657C221.377 136.272 221.953 136.16 222.321 135.168L222.593 134.416L219.441 126.176H221.025L223.297 132.48L225.617 126.176H227.169L223.473 135.76C222.945 137.104 222.161 137.664 220.961 137.664C220.465 137.664 220.049 137.6 219.649 137.504ZM227.514 129.888C227.514 127.68 228.938 125.952 231.21 125.952C232.474 125.952 233.45 126.528 233.946 127.504L234.058 126.176H235.402V133.68C235.402 136.144 233.882 137.712 231.482 137.712C229.354 137.712 227.898 136.512 227.61 134.528H229.114C229.306 135.68 230.17 136.352 231.482 136.352C232.954 136.352 233.914 135.392 233.914 133.904V132.336C233.402 133.248 232.378 133.792 231.146 133.792C228.922 133.792 227.514 132.08 227.514 129.888ZM229.018 129.856C229.018 131.328 229.93 132.48 231.402 132.48C232.922 132.48 233.85 131.392 233.85 129.856C233.85 128.352 232.954 127.264 231.418 127.264C229.914 127.264 229.018 128.416 229.018 129.856ZM237.06 130.08C237.06 127.664 238.788 125.968 241.14 125.968C243.476 125.968 245.204 127.664 245.204 130.08C245.204 132.496 243.476 134.192 241.14 134.192C238.788 134.192 237.06 132.496 237.06 130.08ZM238.58 130.08C238.58 131.712 239.62 132.848 241.14 132.848C242.644 132.848 243.7 131.712 243.7 130.08C243.7 128.448 242.644 127.312 241.14 127.312C239.62 127.312 238.58 128.448 238.58 130.08ZM248.373 134H246.869V126.176H248.229L248.389 127.376C248.885 126.48 249.877 125.952 250.981 125.952C253.045 125.952 253.989 127.216 253.989 129.216V134H252.485V129.552C252.485 127.968 251.749 127.328 250.597 127.328C249.189 127.328 248.373 128.336 248.373 129.856V134ZM258.328 133.376C258.328 134.528 257.464 135.488 256.328 135.632V134.96C256.984 134.848 257.448 134.416 257.448 133.92C257.336 133.984 257.208 134.016 257.016 134.016C256.488 134.016 256.04 133.632 256.04 133.04C256.04 132.4 256.472 131.936 257.112 131.936C257.784 131.936 258.328 132.496 258.328 133.376ZM269.925 134.176C266.629 134.176 264.437 131.808 264.437 128.224C264.437 124.656 266.693 122.24 270.005 122.24C272.613 122.24 274.613 123.792 275.045 126.16H273.365C272.933 124.656 271.637 123.744 269.957 123.744C267.621 123.744 266.085 125.504 266.085 128.208C266.085 130.912 267.621 132.672 269.957 132.672C271.653 132.672 272.997 131.76 273.429 130.336H275.093C274.597 132.64 272.533 134.176 269.925 134.176ZM276.248 130.08C276.248 127.664 277.976 125.968 280.328 125.968C282.664 125.968 284.392 127.664 284.392 130.08C284.392 132.496 282.664 134.192 280.328 134.192C277.976 134.192 276.248 132.496 276.248 130.08ZM277.768 130.08C277.768 131.712 278.808 132.848 280.328 132.848C281.832 132.848 282.888 131.712 282.888 130.08C282.888 128.448 281.832 127.312 280.328 127.312C278.808 127.312 277.768 128.448 277.768 130.08ZM285.417 131.728H286.857C286.857 132.528 287.465 133.008 288.457 133.008C289.513 133.008 290.121 132.576 290.121 131.856C290.121 131.328 289.865 131.008 289.049 130.8L287.673 130.48C286.281 130.144 285.625 129.456 285.625 128.304C285.625 126.864 286.841 125.952 288.569 125.952C290.281 125.952 291.401 126.912 291.433 128.4H289.993C289.961 127.616 289.433 127.12 288.521 127.12C287.577 127.12 287.049 127.536 287.049 128.256C287.049 128.784 287.433 129.136 288.201 129.328L289.577 129.664C290.905 129.984 291.561 130.592 291.561 131.76C291.561 133.248 290.281 134.192 288.425 134.192C286.585 134.192 285.417 133.216 285.417 131.728ZM294.733 134H293.229V126.176H294.573L294.717 127.2C295.117 126.464 295.949 125.952 297.053 125.952C298.269 125.952 299.133 126.56 299.533 127.536C299.901 126.56 300.845 125.952 302.061 125.952C303.853 125.952 304.941 127.072 304.941 128.88V134H303.469V129.248C303.469 128.016 302.781 127.312 301.725 127.312C300.589 127.312 299.837 128.112 299.837 129.36V134H298.349V129.232C298.349 128 297.677 127.328 296.621 127.328C295.485 127.328 294.733 128.112 294.733 129.36V134ZM306.514 130.08C306.514 127.664 308.242 125.968 310.594 125.968C312.93 125.968 314.658 127.664 314.658 130.08C314.658 132.496 312.93 134.192 310.594 134.192C308.242 134.192 306.514 132.496 306.514 130.08ZM308.034 130.08C308.034 131.712 309.074 132.848 310.594 132.848C312.098 132.848 313.154 131.712 313.154 130.08C313.154 128.448 312.098 127.312 310.594 127.312C309.074 127.312 308.034 128.448 308.034 130.08ZM315.682 131.728H317.122C317.122 132.528 317.73 133.008 318.722 133.008C319.778 133.008 320.386 132.576 320.386 131.856C320.386 131.328 320.13 131.008 319.314 130.8L317.938 130.48C316.546 130.144 315.89 129.456 315.89 128.304C315.89 126.864 317.106 125.952 318.834 125.952C320.546 125.952 321.666 126.912 321.698 128.4H320.258C320.226 127.616 319.698 127.12 318.786 127.12C317.842 127.12 317.314 127.536 317.314 128.256C317.314 128.784 317.698 129.136 318.466 129.328L319.842 129.664C321.17 129.984 321.826 130.592 321.826 131.76C321.826 133.248 320.546 134.192 318.69 134.192C316.85 134.192 315.682 133.216 315.682 131.728ZM323.67 136.768H322.406C323.766 134.896 324.566 132.08 324.566 129.248C324.566 126.256 323.686 123.504 322.406 121.744H323.67C325.222 123.68 326.102 126.528 326.102 129.248C326.102 132.144 325.126 134.928 323.67 136.768Z" fill="#A0A0A1"/>
<path fill-rule="evenodd" clip-rule="evenodd" d="M32 180C36.4183 180 40 176.418 40 172C40 167.582 36.4183 164 32 164C27.5817 164 24 167.582 24 172C24 176.418 27.5817 180 32 180ZM35.7095 169.663C35.8913 169.455 35.8702 169.139 35.6624 168.957C35.4546 168.775 35.1387 168.796 34.9569 169.004L30.6421 173.935L29.0201 172.313C28.8248 172.118 28.5082 172.118 28.313 172.313C28.1177 172.509 28.1177 172.825 28.313 173.02L30.313 175.02C30.4108 175.118 30.5448 175.171 30.6831 175.167C30.8215 175.162 30.9517 175.1 31.0428 174.996L35.7095 169.663Z" fill="#A0A0A1"/>
<path d="M50.912 178H49.344V166.432H53.712C56.192 166.432 57.664 167.744 57.664 169.904C57.664 171.504 56.864 172.656 55.424 173.12L57.776 178H56.032L53.872 173.424H50.912V178ZM50.912 167.84V172.032H53.728C55.184 172.032 56.016 171.248 56.016 169.92C56.016 168.576 55.152 167.84 53.712 167.84H50.912ZM62.1175 178L58.6775 166.432H60.3095L62.4215 173.504C62.5815 174.112 62.7415 174.72 62.9015 175.6C63.0935 174.672 63.2695 174.112 63.4455 173.504L65.6375 166.432H67.3335L69.5095 173.504C69.7015 174.128 69.8615 174.736 70.0375 175.6C70.2295 174.624 70.3895 174.032 70.5495 173.52L72.6775 166.432H74.2775L70.7895 178H69.2855L66.4855 168.848L63.6535 178H62.1175ZM75.1521 178H73.5201L77.7441 166.432H79.4881L83.7281 178H82.0801L81.0401 175.12H76.1761L75.1521 178ZM78.4161 168.928L76.6561 173.76H80.5761L78.8001 168.928C78.7201 168.704 78.6401 168.432 78.6081 168.256C78.5761 168.416 78.4961 168.688 78.4161 168.928ZM90.1209 178H88.4889L92.7129 166.432H94.4569L98.6969 178H97.0489L96.0089 175.12H91.1449L90.1209 178ZM93.3849 168.928L91.6249 173.76H95.5449L93.7689 168.928C93.6889 168.704 93.6089 168.432 93.5769 168.256C93.5449 168.416 93.4649 168.688 93.3849 168.928ZM99.342 173.888C99.342 171.68 100.766 169.952 103.038 169.952C104.302 169.952 105.278 170.528 105.774 171.504L105.886 170.176H107.23V177.68C107.23 180.144 105.71 181.712 103.31 181.712C101.182 181.712 99.726 180.512 99.438 178.528H100.942C101.134 179.68 101.998 180.352 103.31 180.352C104.782 180.352 105.742 179.392 105.742 177.904V176.336C105.23 177.248 104.206 177.792 102.974 177.792C100.75 177.792 99.342 176.08 99.342 173.888ZM100.846 173.856C100.846 175.328 101.758 176.48 103.23 176.48C104.75 176.48 105.678 175.392 105.678 173.856C105.678 172.352 104.782 171.264 103.246 171.264C101.742 171.264 100.846 172.416 100.846 173.856ZM108.905 173.888C108.905 171.68 110.329 169.952 112.601 169.952C113.865 169.952 114.841 170.528 115.337 171.504L115.449 170.176H116.793V177.68C116.793 180.144 115.273 181.712 112.873 181.712C110.745 181.712 109.289 180.512 109.001 178.528H110.505C110.697 179.68 111.561 180.352 112.873 180.352C114.345 180.352 115.305 179.392 115.305 177.904V176.336C114.793 177.248 113.769 177.792 112.536 177.792C110.312 177.792 108.905 176.08 108.905 173.888ZM110.409 173.856C110.409 175.328 111.321 176.48 112.793 176.48C114.313 176.48 115.241 175.392 115.241 173.856C115.241 172.352 114.345 171.264 112.809 171.264C111.305 171.264 110.409 172.416 110.409 173.856ZM123.443 170.112V171.488H122.771C121.347 171.488 120.467 172.352 120.467 173.856V178H118.963V170.192H120.371L120.467 171.376C120.787 170.56 121.571 170.016 122.643 170.016C122.915 170.016 123.139 170.048 123.443 170.112ZM127.948 178.192C125.644 178.192 124.06 176.528 124.06 174.096C124.06 171.648 125.612 169.952 127.884 169.952C130.108 169.952 131.564 171.488 131.564 173.808V174.368L125.516 174.384C125.628 176.032 126.492 176.944 127.98 176.944C129.148 176.944 129.916 176.464 130.172 175.568H131.58C131.196 177.248 129.884 178.192 127.948 178.192ZM127.884 171.216C126.572 171.216 125.74 172 125.548 173.376H130.06C130.06 172.08 129.212 171.216 127.884 171.216ZM132.748 173.888C132.748 171.68 134.172 169.952 136.444 169.952C137.708 169.952 138.684 170.528 139.18 171.504L139.292 170.176H140.636V177.68C140.636 180.144 139.116 181.712 136.716 181.712C134.588 181.712 133.132 180.512 132.844 178.528H134.348C134.54 179.68 135.404 180.352 136.716 180.352C138.188 180.352 139.148 179.392 139.148 177.904V176.336C138.636 177.248 137.612 177.792 136.38 177.792C134.156 177.792 132.748 176.08 132.748 173.888ZM134.252 173.856C134.252 175.328 135.164 176.48 136.636 176.48C138.156 176.48 139.084 175.392 139.084 173.856C139.084 172.352 138.188 171.264 136.652 171.264C135.148 171.264 134.252 172.416 134.252 173.856ZM145.095 178.192C143.415 178.192 142.423 177.248 142.423 175.824C142.423 174.384 143.495 173.488 145.335 173.344L147.799 173.152V172.928C147.799 171.616 147.015 171.152 145.959 171.152C144.695 171.152 143.975 171.712 143.975 172.656H142.663C142.663 171.024 144.007 169.952 146.023 169.952C147.959 169.952 149.271 170.976 149.271 173.088V178H147.991L147.831 176.736C147.431 177.632 146.359 178.192 145.095 178.192ZM145.527 177.024C146.951 177.024 147.815 176.096 147.815 174.624V174.208L145.815 174.368C144.487 174.496 143.943 175.008 143.943 175.776C143.943 176.608 144.551 177.024 145.527 177.024ZM153.437 178H151.933V171.44H150.397V170.176H151.933V167.728H153.437V170.176H154.973V171.44H153.437V178ZM155.732 174.08C155.732 171.664 157.46 169.968 159.812 169.968C162.148 169.968 163.876 171.664 163.876 174.08C163.876 176.496 162.148 178.192 159.812 178.192C157.46 178.192 155.732 176.496 155.732 174.08ZM157.252 174.08C157.252 175.712 158.292 176.848 159.812 176.848C161.316 176.848 162.372 175.712 162.372 174.08C162.372 172.448 161.316 171.312 159.812 171.312C158.292 171.312 157.252 172.448 157.252 174.08ZM170.021 170.112V171.488H169.349C167.925 171.488 167.045 172.352 167.045 173.856V178H165.541V170.192H166.949L167.045 171.376C167.365 170.56 168.149 170.016 169.221 170.016C169.493 170.016 169.717 170.048 170.021 170.112ZM179.183 180.768H177.935C176.463 178.928 175.487 176.144 175.487 173.248C175.487 170.528 176.367 167.68 177.935 165.744H179.183C177.919 167.504 177.023 170.256 177.023 173.248C177.023 176.08 177.823 178.896 179.183 180.768ZM182.068 178H180.532V166.432H182.068L186.052 176.16L190.036 166.432H191.604V178H190.068V173.424C190.068 171.264 190.084 170.48 190.164 169.664L186.788 178H185.316L181.956 169.696C182.036 170.256 182.068 171.44 182.068 173.056V178ZM197.513 178L193.113 166.432H194.793L197.609 173.824C197.865 174.48 198.089 175.136 198.329 176C198.601 175.088 198.873 174.32 199.065 173.808L201.865 166.432H203.497L199.145 178H197.513ZM209.496 173.872H206.568V178H205V166.432H209.496C211.768 166.432 213.224 167.92 213.224 170.144C213.224 172.304 211.752 173.872 209.496 173.872ZM209.224 167.84H206.568V172.464H209.16C210.712 172.464 211.576 171.552 211.576 170.128C211.576 168.672 210.696 167.84 209.224 167.84ZM214.92 180.768H213.656C215.016 178.896 215.816 176.08 215.816 173.248C215.816 170.256 214.936 167.504 213.656 165.744H214.92C216.472 167.68 217.352 170.528 217.352 173.248C217.352 176.144 216.376 178.928 214.92 180.768Z" fill="#A0A0A1"/>
<defs>
<linearGradient id="paint0_linear_10085_39734" x1="0" y1="288" x2="419.886" y2="158.469" gradientUnits="userSpaceOnUse">
<stop stop-color="white" stop-opacity="0.1"/>
<stop offset="1" stop-color="white" stop-opacity="0.05"/>
<stop offset="1" stop-color="white" stop-opacity="0.05"/>
</linearGradient>
</defs>
</svg>
