<svg width="345" height="289" viewBox="0 0 345 289" fill="none" xmlns="http://www.w3.org/2000/svg">
<g clip-path="url(#clip0_10312_10589)">
<path d="M326.842 1.2832H18.6228C8.59443 1.2832 0.464844 10.0137 0.464844 20.7832V268.783C0.464844 279.553 8.59443 288.283 18.6228 288.283H326.842C336.87 288.283 345 279.553 345 268.783V20.7832C345 10.0137 336.87 1.2832 326.842 1.2832Z" fill="#252238"/>
<path d="M34.4828 47.743L33.0322 45.983C32.0279 46.643 30.8376 47.023 29.5171 47.023C25.723 47.023 23.082 43.943 23.082 39.543C23.082 35.163 25.7416 32.063 29.5357 32.063C33.3483 32.063 36.0079 35.143 36.0079 39.543C36.0079 41.703 35.357 43.543 34.2597 44.863L35.6731 46.583L34.4828 47.743ZM34.0923 39.543C34.0923 36.183 32.2696 33.963 29.5357 33.963C26.8017 33.963 24.9977 36.183 24.9977 39.543C24.9977 42.903 26.8017 45.143 29.5357 45.143C30.3912 45.143 31.1537 44.923 31.8047 44.503L30.0378 42.363L31.2281 41.203L33.0136 43.363C33.7017 42.403 34.0923 41.083 34.0923 39.543ZM47.7127 43.863H46.1132V46.783H44.365V43.863H37.4092V42.123L43.7513 32.323H46.1132V42.123H47.7127V43.863ZM39.3806 42.123H44.365V34.403L39.3806 42.123ZM54.8578 42.323V40.643H60.5303V42.323H54.8578ZM76.7128 46.763L67.6368 46.783V45.283L71.9702 41.263C74.1462 39.243 74.76 38.263 74.76 36.723C74.76 34.903 73.7928 33.823 72.1748 33.823C70.5195 33.823 69.4408 35.123 69.4036 37.183H67.581C67.6368 34.083 69.4594 32.063 72.1934 32.063C74.8902 32.063 76.6198 33.823 76.6198 36.603C76.6198 38.663 75.6713 40.123 73.2907 42.343L70.5009 44.943H76.7128V46.763ZM78.3903 39.563C78.3903 35.083 80.5477 32.043 83.9326 32.043C87.2989 32.043 89.4563 35.083 89.4563 39.563C89.4563 44.063 87.3919 47.043 83.9326 47.043C80.4547 47.043 78.3903 44.063 78.3903 39.563ZM80.1943 39.563C80.1943 43.123 81.5706 45.283 83.9326 45.283C86.2946 45.283 87.6523 43.123 87.6523 39.563C87.6523 35.963 86.2946 33.803 83.9326 33.803C81.5706 33.803 80.1943 35.963 80.1943 39.563ZM100.306 46.763L91.2299 46.783V45.283L95.5636 41.263C97.7397 39.243 98.3534 38.263 98.3534 36.723C98.3534 34.903 97.3863 33.823 95.7682 33.823C94.113 33.823 93.0343 35.123 92.9971 37.183H91.1741C91.2299 34.083 93.0529 32.063 95.7868 32.063C98.4836 32.063 100.213 33.823 100.213 36.603C100.213 38.663 99.2647 40.123 96.8841 42.343L94.0944 44.943H100.306V46.763ZM111.645 43.863H110.045V46.783H108.297V43.863H101.341V42.123L107.683 32.323H110.045V42.123H111.645V43.863ZM103.313 42.123H108.297V34.403L103.313 42.123Z" fill="#F3F3F3"/>
<path fill-rule="evenodd" clip-rule="evenodd" d="M29.7558 92.7832C33.8644 92.7832 37.1951 89.2015 37.1951 84.7832C37.1951 80.3649 33.8644 76.7832 29.7558 76.7832C25.6471 76.7832 22.3164 80.3649 22.3164 84.7832C22.3164 89.2015 25.6471 92.7832 29.7558 92.7832ZM33.2053 82.4459C33.3744 82.2381 33.3547 81.9222 33.1615 81.7404C32.9683 81.5586 32.6745 81.5796 32.5054 81.7874L28.493 86.7186L26.9847 85.0965C26.8031 84.9012 26.5087 84.9012 26.3271 85.0965C26.1455 85.2917 26.1455 85.6083 26.3271 85.8036L28.187 87.8036C28.2779 87.9014 28.4025 87.9544 28.5311 87.9498C28.6598 87.9451 28.7809 87.8834 28.8656 87.7793L33.2053 82.4459Z" fill="#A0A0A1"/>
<path d="M47.3151 90.7838H45.8867V79.2158H47.3151L51.0199 88.9438L54.7247 79.2158H56.1828V90.7838H54.7544V86.2078C54.7544 84.0478 54.7693 83.2638 54.8437 82.4478L51.7043 90.7838H50.3354L47.2109 82.4798C47.2853 83.0398 47.3151 84.2238 47.3151 85.8398V90.7838ZM63.4786 82.9598H64.8623V90.7838H63.6125L63.4637 89.5998C63.0471 90.4158 62.08 90.9758 61.0087 90.9758C59.3125 90.9758 58.3603 89.7438 58.3603 87.8238V82.9598H59.7589V87.3278C59.7589 89.0078 60.4284 89.6478 61.4997 89.6478C62.7793 89.6478 63.4786 88.7678 63.4786 87.0878V82.9598ZM68.3199 90.7838H66.9213V79.0078H68.3199V90.7838ZM72.432 90.7838H71.0334V84.2238H69.605V82.9598H71.0334V80.5118H72.432V82.9598H73.8604V84.2238H72.432V90.7838ZM75.7999 81.1038C75.294 81.1038 74.8774 80.6558 74.8774 80.1118C74.8774 79.5518 75.294 79.1198 75.7999 79.1198C76.3058 79.1198 76.7224 79.5518 76.7224 80.1118C76.7224 80.6558 76.3058 81.1038 75.7999 81.1038ZM75.1155 90.7838V82.9598H76.5141V90.7838H75.1155ZM77.9494 88.5118H79.2885C79.2885 89.3118 79.8539 89.7918 80.7764 89.7918C81.7583 89.7918 82.3237 89.3598 82.3237 88.6398C82.3237 88.1118 82.0857 87.7918 81.3269 87.5838L80.0473 87.2638C78.7529 86.9278 78.1428 86.2398 78.1428 85.0878C78.1428 83.6478 79.2736 82.7358 80.8805 82.7358C82.4725 82.7358 83.514 83.6958 83.5438 85.1838H82.2047C82.175 84.3998 81.684 83.9038 80.8359 83.9038C79.958 83.9038 79.467 84.3198 79.467 85.0398C79.467 85.5678 79.8241 85.9198 80.5383 86.1118L81.8179 86.4478C83.0528 86.7678 83.6628 87.3758 83.6628 88.5438C83.6628 90.0318 82.4725 90.9758 80.7466 90.9758C79.0355 90.9758 77.9494 89.9998 77.9494 88.5118ZM85.8983 81.1038C85.3924 81.1038 84.9758 80.6558 84.9758 80.1118C84.9758 79.5518 85.3924 79.1198 85.8983 79.1198C86.4041 79.1198 86.8207 79.5518 86.8207 80.1118C86.8207 80.6558 86.4041 81.1038 85.8983 81.1038ZM85.2138 90.7838V82.9598H86.6124V90.7838H85.2138ZM88.1817 86.6718C88.1817 84.4638 89.5059 82.7358 91.6187 82.7358C92.7941 82.7358 93.7013 83.3118 94.1625 84.2878L94.2667 82.9598H95.5165V90.4638C95.5165 92.9278 94.103 94.4958 91.8716 94.4958C89.8927 94.4958 88.5388 93.2958 88.2709 91.3118H89.6695C89.8481 92.4638 90.6515 93.1358 91.8716 93.1358C93.2401 93.1358 94.1328 92.1758 94.1328 90.6878V89.1198C93.6567 90.0318 92.7048 90.5758 91.5591 90.5758C89.491 90.5758 88.1817 88.8638 88.1817 86.6718ZM89.5803 86.6398C89.5803 88.1118 90.4284 89.2638 91.7972 89.2638C93.2103 89.2638 94.0733 88.1758 94.0733 86.6398C94.0733 85.1358 93.2401 84.0478 91.8121 84.0478C90.4135 84.0478 89.5803 85.1998 89.5803 86.6398ZM103.731 90.9758C102.169 90.9758 101.247 90.0318 101.247 88.6078C101.247 87.1678 102.244 86.2718 103.955 86.1278L106.246 85.9358V85.7118C106.246 84.3998 105.517 83.9358 104.535 83.9358C103.359 83.9358 102.69 84.4958 102.69 85.4398H101.47C101.47 83.8078 102.72 82.7358 104.594 82.7358C106.395 82.7358 107.615 83.7598 107.615 85.8718V90.7838H106.424L106.276 89.5198C105.904 90.4158 104.907 90.9758 103.731 90.9758ZM104.133 89.8078C105.457 89.8078 106.261 88.8798 106.261 87.4078V86.9918L104.401 87.1518C103.166 87.2798 102.66 87.7918 102.66 88.5598C102.66 89.3918 103.226 89.8078 104.133 89.8078ZM108.957 88.5118H110.296C110.296 89.3118 110.861 89.7918 111.784 89.7918C112.766 89.7918 113.331 89.3598 113.331 88.6398C113.331 88.1118 113.093 87.7918 112.334 87.5838L111.055 87.2638C109.76 86.9278 109.15 86.2398 109.15 85.0878C109.15 83.6478 110.281 82.7358 111.888 82.7358C113.48 82.7358 114.521 83.6958 114.551 85.1838H113.212C113.182 84.3998 112.691 83.9038 111.843 83.9038C110.965 83.9038 110.474 84.3198 110.474 85.0398C110.474 85.5678 110.831 85.9198 111.546 86.1118L112.825 86.4478C114.06 86.7678 114.67 87.3758 114.67 88.5438C114.67 90.0318 113.48 90.9758 111.754 90.9758C110.043 90.9758 108.957 89.9998 108.957 88.5118ZM122.417 90.9758C120.855 90.9758 119.932 90.0318 119.932 88.6078C119.932 87.1678 120.929 86.2718 122.64 86.1278L124.932 85.9358V85.7118C124.932 84.3998 124.203 83.9358 123.221 83.9358C122.045 83.9358 121.376 84.4958 121.376 85.4398H120.156C120.156 83.8078 121.405 82.7358 123.28 82.7358C125.08 82.7358 126.301 83.7598 126.301 85.8718V90.7838H125.11L124.961 89.5198C124.589 90.4158 123.593 90.9758 122.417 90.9758ZM122.819 89.8078C124.143 89.8078 124.947 88.8798 124.947 87.4078V86.9918L123.087 87.1518C121.852 87.2798 121.346 87.7918 121.346 88.5598C121.346 89.3918 121.911 89.8078 122.819 89.8078ZM131.711 88.5118H133.05C133.05 89.3118 133.615 89.7918 134.538 89.7918C135.52 89.7918 136.085 89.3598 136.085 88.6398C136.085 88.1118 135.847 87.7918 135.088 87.5838L133.809 87.2638C132.514 86.9278 131.904 86.2398 131.904 85.0878C131.904 83.6478 133.035 82.7358 134.642 82.7358C136.234 82.7358 137.275 83.6958 137.305 85.1838H135.966C135.936 84.3998 135.445 83.9038 134.597 83.9038C133.719 83.9038 133.228 84.3198 133.228 85.0398C133.228 85.5678 133.586 85.9198 134.3 86.1118L135.579 86.4478C136.814 86.7678 137.424 87.3758 137.424 88.5438C137.424 90.0318 136.234 90.9758 134.508 90.9758C132.797 90.9758 131.711 89.9998 131.711 88.5118ZM142.114 90.9758C139.971 90.9758 138.498 89.3118 138.498 86.8798C138.498 84.4318 139.942 82.7358 142.054 82.7358C144.122 82.7358 145.476 84.2718 145.476 86.5918V87.1518L139.852 87.1678C139.956 88.8158 140.76 89.7278 142.144 89.7278C143.23 89.7278 143.944 89.2478 144.182 88.3518H145.491C145.134 90.0318 143.914 90.9758 142.114 90.9758ZM142.054 83.9998C140.834 83.9998 140.061 84.7838 139.882 86.1598H144.078C144.078 84.8638 143.289 83.9998 142.054 83.9998ZM151.205 82.8958V84.2718H150.58C149.256 84.2718 148.437 85.1358 148.437 86.6398V90.7838H147.039V82.9758H148.348L148.437 84.1598C148.735 83.3438 149.464 82.7998 150.461 82.7998C150.714 82.7998 150.922 82.8318 151.205 82.8958ZM154.773 90.7838L151.842 82.9598H153.33L154.922 87.3278C155.175 88.0638 155.383 88.7198 155.502 89.1998C155.621 88.6878 155.859 88.0158 156.112 87.3278L157.734 82.9598H159.192L156.157 90.7838H154.773ZM160.989 81.1038C160.483 81.1038 160.067 80.6558 160.067 80.1118C160.067 79.5518 160.483 79.1198 160.989 79.1198C161.495 79.1198 161.912 79.5518 161.912 80.1118C161.912 80.6558 161.495 81.1038 160.989 81.1038ZM160.305 90.7838V82.9598H161.704V90.7838H160.305ZM163.257 86.8798C163.257 84.4318 164.701 82.7358 166.828 82.7358C168.658 82.7358 169.938 83.8558 170.191 85.5998H168.792C168.554 84.6078 167.81 84.0798 166.873 84.0798C165.549 84.0798 164.641 85.1678 164.641 86.8638C164.641 88.5438 165.489 89.6318 166.813 89.6318C167.81 89.6318 168.554 89.0718 168.807 88.1438H170.206C169.923 89.8398 168.569 90.9758 166.813 90.9758C164.671 90.9758 163.257 89.3438 163.257 86.8798ZM174.821 90.9758C172.678 90.9758 171.205 89.3118 171.205 86.8798C171.205 84.4318 172.649 82.7358 174.761 82.7358C176.83 82.7358 178.184 84.2718 178.184 86.5918V87.1518L172.559 87.1678C172.664 88.8158 173.467 89.7278 174.851 89.7278C175.937 89.7278 176.651 89.2478 176.889 88.3518H178.198C177.841 90.0318 176.621 90.9758 174.821 90.9758ZM174.761 83.9998C173.541 83.9998 172.768 84.7838 172.589 86.1598H176.785C176.785 84.8638 175.996 83.9998 174.761 83.9998ZM185.243 90.7838H183.844V79.0078H185.243V90.7838ZM187.986 81.1038C187.48 81.1038 187.063 80.6558 187.063 80.1118C187.063 79.5518 187.48 79.1198 187.986 79.1198C188.492 79.1198 188.908 79.5518 188.908 80.1118C188.908 80.6558 188.492 81.1038 187.986 81.1038ZM187.301 90.7838V82.9598H188.7V90.7838H187.301ZM192.769 90.7838L189.838 82.9598H191.326L192.918 87.3278C193.171 88.0638 193.379 88.7198 193.498 89.1998C193.617 88.6878 193.855 88.0158 194.108 87.3278L195.73 82.9598H197.188L194.153 90.7838H192.769ZM201.106 90.9758C198.963 90.9758 197.49 89.3118 197.49 86.8798C197.49 84.4318 198.934 82.7358 201.047 82.7358C203.115 82.7358 204.469 84.2718 204.469 86.5918V87.1518L198.844 87.1678C198.949 88.8158 199.752 89.7278 201.136 89.7278C202.222 89.7278 202.936 89.2478 203.174 88.3518H204.484C204.126 90.0318 202.906 90.9758 201.106 90.9758ZM201.047 83.9998C199.826 83.9998 199.053 84.7838 198.874 86.1598H203.07C203.07 84.8638 202.281 83.9998 201.047 83.9998ZM210.099 94.2878V82.9598H211.364L211.468 84.3678C211.959 83.2958 212.941 82.7358 214.102 82.7358C216.185 82.7358 217.479 84.4158 217.479 86.8158C217.479 89.1998 216.259 90.9918 214.102 90.9918C212.941 90.9918 211.974 90.4638 211.498 89.5038V94.2878H210.099ZM211.513 86.8798C211.513 88.4798 212.376 89.6318 213.804 89.6318C215.232 89.6318 216.081 88.4798 216.081 86.8798C216.081 85.2638 215.232 84.1118 213.804 84.1118C212.376 84.1118 211.513 85.2478 211.513 86.8798ZM220.449 90.7838H219.051V79.0078H220.449V90.7838ZM224.636 90.9758C223.074 90.9758 222.151 90.0318 222.151 88.6078C222.151 87.1678 223.148 86.2718 224.859 86.1278L227.15 85.9358V85.7118C227.15 84.3998 226.421 83.9358 225.439 83.9358C224.264 83.9358 223.594 84.4958 223.594 85.4398H222.374C222.374 83.8078 223.624 82.7358 225.499 82.7358C227.299 82.7358 228.519 83.7598 228.519 85.8718V90.7838H227.329L227.18 89.5198C226.808 90.4158 225.811 90.9758 224.636 90.9758ZM225.038 89.8078C226.362 89.8078 227.165 88.8798 227.165 87.4078V86.9918L225.305 87.1518C224.07 87.2798 223.564 87.7918 223.564 88.5598C223.564 89.3918 224.13 89.8078 225.038 89.8078ZM232.392 90.7838H230.994V84.2238H229.565V82.9598H230.994V80.5118H232.392V82.9598H233.821V84.2238H232.392V90.7838ZM234.433 82.9598H235.505V81.7118C235.505 79.7918 236.487 79.0078 237.811 79.0078C238.079 79.0078 238.391 79.0238 238.674 79.0718V80.3678H238.049C237.141 80.3678 236.903 80.8638 236.903 81.7118V82.9598H238.629V84.2238H236.903V90.7838H235.505V84.2238H234.433V82.9598ZM239.236 86.8638C239.236 84.4478 240.842 82.7518 243.03 82.7518C245.202 82.7518 246.809 84.4478 246.809 86.8638C246.809 89.2798 245.202 90.9758 243.03 90.9758C240.842 90.9758 239.236 89.2798 239.236 86.8638ZM240.649 86.8638C240.649 88.4958 241.616 89.6318 243.03 89.6318C244.428 89.6318 245.41 88.4958 245.41 86.8638C245.41 85.2318 244.428 84.0958 243.03 84.0958C241.616 84.0958 240.649 85.2318 240.649 86.8638ZM252.522 82.8958V84.2718H251.897C250.573 84.2718 249.755 85.1358 249.755 86.6398V90.7838H248.356V82.9758H249.665L249.755 84.1598C250.052 83.3438 250.781 82.7998 251.778 82.7998C252.031 82.7998 252.239 82.8318 252.522 82.8958ZM255.233 90.7838H253.834V82.9598H255.084L255.218 83.9838C255.59 83.2478 256.364 82.7358 257.39 82.7358C258.521 82.7358 259.325 83.3438 259.697 84.3198C260.039 83.3438 260.917 82.7358 262.047 82.7358C263.714 82.7358 264.726 83.8558 264.726 85.6638V90.7838H263.357V86.0318C263.357 84.7998 262.717 84.0958 261.735 84.0958C260.679 84.0958 259.979 84.8958 259.979 86.1438V90.7838H258.596V86.0158C258.596 84.7838 257.971 84.1118 256.989 84.1118C255.932 84.1118 255.233 84.8958 255.233 86.1438V90.7838Z" fill="#A0A0A1"/>
<path fill-rule="evenodd" clip-rule="evenodd" d="M29.7558 136.783C33.8644 136.783 37.1951 133.201 37.1951 128.783C37.1951 124.365 33.8644 120.783 29.7558 120.783C25.6471 120.783 22.3164 124.365 22.3164 128.783C22.3164 133.201 25.6471 136.783 29.7558 136.783ZM33.2053 126.446C33.3744 126.238 33.3547 125.922 33.1615 125.74C32.9683 125.558 32.6745 125.579 32.5054 125.787L28.493 130.718L26.9847 129.096C26.8031 128.901 26.5087 128.901 26.3271 129.096C26.1455 129.292 26.1455 129.608 26.3271 129.803L28.187 131.803C28.2779 131.901 28.4025 131.954 28.5311 131.95C28.6598 131.945 28.7809 131.883 28.8656 131.779L33.2053 126.446Z" fill="#A0A0A1"/>
<path d="M45.2621 126.335C45.2621 124.351 46.7499 123.007 48.9669 123.007C51.0201 123.007 52.3443 124.239 52.4634 126.239H50.9904C50.916 125.087 50.1572 124.415 48.952 124.415C47.598 124.415 46.7202 125.151 46.7202 126.287C46.7202 127.215 47.2112 127.775 48.2229 128.031L49.9935 128.479C51.7492 128.911 52.6419 129.935 52.6419 131.567C52.6419 133.647 51.1392 134.975 48.8478 134.975C46.6607 134.975 45.2026 133.743 45.1133 131.759H46.6012C46.6309 132.863 47.4939 133.567 48.8478 133.567C50.2762 133.567 51.1838 132.847 51.1838 131.695C51.1838 130.783 50.7226 130.207 49.6959 129.951L47.9254 129.519C46.1697 129.087 45.2621 127.999 45.2621 126.335ZM56.2894 134.783H54.8908V128.223H53.4625V126.959H54.8908V124.511H56.2894V126.959H57.7178V128.223H56.2894V134.783ZM61.0134 134.975C59.4511 134.975 58.5287 134.031 58.5287 132.607C58.5287 131.167 59.5255 130.271 61.2366 130.127L63.5279 129.935V129.711C63.5279 128.399 62.7989 127.935 61.8169 127.935C60.6414 127.935 59.9719 128.495 59.9719 129.439H58.7518C58.7518 127.807 60.0017 126.735 61.8764 126.735C63.6767 126.735 64.8968 127.759 64.8968 129.871V134.783H63.7065L63.5577 133.519C63.1857 134.415 62.1888 134.975 61.0134 134.975ZM61.4151 133.807C62.7393 133.807 63.5428 132.879 63.5428 131.407V130.991L61.683 131.151C60.448 131.279 59.9421 131.791 59.9421 132.559C59.9421 133.391 60.5075 133.807 61.4151 133.807ZM68.262 134.783H66.8634V123.007H68.262V130.639L71.4907 126.959H73.2464L70.4641 130.079L73.2315 134.783H71.6246L69.497 131.167L68.262 132.559V134.783ZM75.0737 125.103C74.5678 125.103 74.1512 124.655 74.1512 124.111C74.1512 123.551 74.5678 123.119 75.0737 123.119C75.5796 123.119 75.9962 123.551 75.9962 124.111C75.9962 124.655 75.5796 125.103 75.0737 125.103ZM74.3893 134.783V126.959H75.7879V134.783H74.3893ZM79.2169 134.783H77.8184V126.959H79.083L79.2318 128.159C79.6931 127.263 80.6155 126.735 81.6422 126.735C83.5615 126.735 84.4394 127.999 84.4394 129.999V134.783H83.0408V130.335C83.0408 128.751 82.3564 128.111 81.2851 128.111C79.9758 128.111 79.2169 129.119 79.2169 130.639V134.783ZM85.9153 130.671C85.9153 128.463 87.2395 126.735 89.3522 126.735C90.5277 126.735 91.4353 127.311 91.8965 128.287L92.0006 126.959H93.2505V134.463C93.2505 136.927 91.837 138.495 89.6052 138.495C87.6263 138.495 86.2723 137.295 86.0045 135.311H87.4031C87.5817 136.463 88.3851 137.135 89.6052 137.135C90.974 137.135 91.8667 136.175 91.8667 134.687V133.119C91.3906 134.031 90.4384 134.575 89.2927 134.575C87.2246 134.575 85.9153 132.863 85.9153 130.671ZM87.3138 130.639C87.3138 132.111 88.1619 133.263 89.5308 133.263C90.9443 133.263 91.8072 132.175 91.8072 130.639C91.8072 129.135 90.974 128.047 89.5457 128.047C88.1471 128.047 87.3138 129.199 87.3138 130.639ZM100.021 134.783H98.5037L102.432 123.215H104.053L107.996 134.783H106.464L105.497 131.903H100.974L100.021 134.783ZM103.057 125.711L101.42 130.543H105.065L103.414 125.711C103.339 125.487 103.265 125.215 103.235 125.039C103.205 125.199 103.131 125.471 103.057 125.711ZM108.597 130.671C108.597 128.463 109.921 126.735 112.034 126.735C113.209 126.735 114.117 127.311 114.578 128.287L114.682 126.959H115.932V134.463C115.932 136.927 114.519 138.495 112.287 138.495C110.308 138.495 108.954 137.295 108.686 135.311H110.085C110.263 136.463 111.067 137.135 112.287 137.135C113.656 137.135 114.548 136.175 114.548 134.687V133.119C114.072 134.031 113.12 134.575 111.974 134.575C109.906 134.575 108.597 132.863 108.597 130.671ZM109.996 130.639C109.996 132.111 110.844 133.263 112.213 133.263C113.626 133.263 114.489 132.175 114.489 130.639C114.489 129.135 113.656 128.047 112.227 128.047C110.829 128.047 109.996 129.199 109.996 130.639ZM117.489 130.671C117.489 128.463 118.813 126.735 120.926 126.735C122.101 126.735 123.009 127.311 123.47 128.287L123.574 126.959H124.824V134.463C124.824 136.927 123.411 138.495 121.179 138.495C119.2 138.495 117.846 137.295 117.578 135.311H118.977C119.155 136.463 119.959 137.135 121.179 137.135C122.548 137.135 123.44 136.175 123.44 134.687V133.119C122.964 134.031 122.012 134.575 120.866 134.575C118.798 134.575 117.489 132.863 117.489 130.671ZM118.887 130.639C118.887 132.111 119.736 133.263 121.104 133.263C122.518 133.263 123.381 132.175 123.381 130.639C123.381 129.135 122.548 128.047 121.119 128.047C119.721 128.047 118.887 129.199 118.887 130.639ZM131.009 126.895V128.271H130.384C129.06 128.271 128.242 129.135 128.242 130.639V134.783H126.843V126.975H128.152L128.242 128.159C128.539 127.343 129.268 126.799 130.265 126.799C130.518 126.799 130.726 126.831 131.009 126.895ZM135.198 134.975C133.056 134.975 131.583 133.311 131.583 130.879C131.583 128.431 133.026 126.735 135.139 126.735C137.207 126.735 138.561 128.271 138.561 130.591V131.151L132.937 131.167C133.041 132.815 133.844 133.727 135.228 133.727C136.314 133.727 137.028 133.247 137.266 132.351H138.576C138.219 134.031 136.999 134.975 135.198 134.975ZM135.139 127.999C133.919 127.999 133.145 128.783 132.966 130.159H137.162C137.162 128.863 136.374 127.999 135.139 127.999ZM139.662 130.671C139.662 128.463 140.986 126.735 143.099 126.735C144.274 126.735 145.182 127.311 145.643 128.287L145.747 126.959H146.997V134.463C146.997 136.927 145.584 138.495 143.352 138.495C141.373 138.495 140.019 137.295 139.751 135.311H141.15C141.328 136.463 142.132 137.135 143.352 137.135C144.721 137.135 145.613 136.175 145.613 134.687V133.119C145.137 134.031 144.185 134.575 143.039 134.575C140.971 134.575 139.662 132.863 139.662 130.671ZM141.06 130.639C141.06 132.111 141.909 133.263 143.277 133.263C144.691 133.263 145.554 132.175 145.554 130.639C145.554 129.135 144.721 128.047 143.292 128.047C141.894 128.047 141.06 129.199 141.06 130.639ZM151.143 134.975C149.58 134.975 148.658 134.031 148.658 132.607C148.658 131.167 149.655 130.271 151.366 130.127L153.657 129.935V129.711C153.657 128.399 152.928 127.935 151.946 127.935C150.771 127.935 150.101 128.495 150.101 129.439H148.881C148.881 127.807 150.131 126.735 152.006 126.735C153.806 126.735 155.026 127.759 155.026 129.871V134.783H153.836L153.687 133.519C153.315 134.415 152.318 134.975 151.143 134.975ZM151.544 133.807C152.869 133.807 153.672 132.879 153.672 131.407V130.991L151.812 131.151C150.577 131.279 150.071 131.791 150.071 132.559C150.071 133.391 150.637 133.807 151.544 133.807ZM158.9 134.783H157.501V128.223H156.073V126.959H157.501V124.511H158.9V126.959H160.328V128.223H158.9V134.783ZM161.035 130.863C161.035 128.447 162.642 126.751 164.829 126.751C167.002 126.751 168.608 128.447 168.608 130.863C168.608 133.279 167.002 134.975 164.829 134.975C162.642 134.975 161.035 133.279 161.035 130.863ZM162.449 130.863C162.449 132.495 163.416 133.631 164.829 133.631C166.228 133.631 167.21 132.495 167.21 130.863C167.21 129.231 166.228 128.095 164.829 128.095C163.416 128.095 162.449 129.231 162.449 130.863ZM174.323 126.895V128.271H173.698C172.374 128.271 171.555 129.135 171.555 130.639V134.783H170.157V126.975H171.466L171.555 128.159C171.853 127.343 172.582 126.799 173.579 126.799C173.832 126.799 174.04 126.831 174.323 126.895ZM182.842 137.551H181.681C180.312 135.711 179.405 132.927 179.405 130.031C179.405 127.311 180.223 124.463 181.681 122.527H182.842C181.666 124.287 180.833 127.039 180.833 130.031C180.833 132.863 181.577 135.679 182.842 137.551ZM188.277 130.655H185.554V134.783H184.096V123.215H188.277C190.39 123.215 191.744 124.703 191.744 126.927C191.744 129.087 190.375 130.655 188.277 130.655ZM188.024 124.623H185.554V129.247H187.965C189.408 129.247 190.211 128.335 190.211 126.911C190.211 125.455 189.393 124.623 188.024 124.623ZM192.347 130.863C192.347 128.447 193.954 126.751 196.141 126.751C198.314 126.751 199.921 128.447 199.921 130.863C199.921 133.279 198.314 134.975 196.141 134.975C193.954 134.975 192.347 133.279 192.347 130.863ZM193.761 130.863C193.761 132.495 194.728 133.631 196.141 133.631C197.54 133.631 198.522 132.495 198.522 130.863C198.522 129.231 197.54 128.095 196.141 128.095C194.728 128.095 193.761 129.231 193.761 130.863ZM202.897 134.783H201.499V123.007H202.897V134.783ZM204.257 138.287V137.055H205.194C205.864 137.055 206.399 136.943 206.742 135.951L206.995 135.199L204.063 126.959H205.536L207.649 133.263L209.807 126.959H211.25L207.813 136.543C207.322 137.887 206.593 138.447 205.477 138.447C205.016 138.447 204.629 138.383 204.257 138.287ZM211.571 130.671C211.571 128.463 212.895 126.735 215.008 126.735C216.183 126.735 217.091 127.311 217.552 128.287L217.656 126.959H218.906V134.463C218.906 136.927 217.492 138.495 215.261 138.495C213.282 138.495 211.928 137.295 211.66 135.311H213.059C213.237 136.463 214.041 137.135 215.261 137.135C216.629 137.135 217.522 136.175 217.522 134.687V133.119C217.046 134.031 216.094 134.575 214.948 134.575C212.88 134.575 211.571 132.863 211.571 130.671ZM212.969 130.639C212.969 132.111 213.817 133.263 215.186 133.263C216.6 133.263 217.463 132.175 217.463 130.639C217.463 129.135 216.629 128.047 215.201 128.047C213.802 128.047 212.969 129.199 212.969 130.639ZM220.448 130.863C220.448 128.447 222.055 126.751 224.242 126.751C226.414 126.751 228.021 128.447 228.021 130.863C228.021 133.279 226.414 134.975 224.242 134.975C222.055 134.975 220.448 133.279 220.448 130.863ZM221.861 130.863C221.861 132.495 222.828 133.631 224.242 133.631C225.64 133.631 226.622 132.495 226.622 130.863C226.622 129.231 225.64 128.095 224.242 128.095C222.828 128.095 221.861 129.231 221.861 130.863ZM230.968 134.783H229.569V126.959H230.834L230.983 128.159C231.444 127.263 232.366 126.735 233.393 126.735C235.312 126.735 236.19 127.999 236.19 129.999V134.783H234.792V130.335C234.792 128.751 234.107 128.111 233.036 128.111C231.727 128.111 230.968 129.119 230.968 130.639V134.783ZM240.225 134.159C240.225 135.311 239.422 136.271 238.365 136.415V135.743C238.975 135.631 239.407 135.199 239.407 134.703C239.303 134.767 239.184 134.799 239.005 134.799C238.514 134.799 238.098 134.415 238.098 133.823C238.098 133.183 238.499 132.719 239.094 132.719C239.719 132.719 240.225 133.279 240.225 134.159ZM251.009 134.959C247.944 134.959 245.906 132.591 245.906 129.007C245.906 125.439 248.004 123.023 251.084 123.023C253.509 123.023 255.369 124.575 255.771 126.943H254.208C253.807 125.439 252.602 124.527 251.039 124.527C248.867 124.527 247.439 126.287 247.439 128.991C247.439 131.695 248.867 133.455 251.039 133.455C252.616 133.455 253.866 132.543 254.268 131.119H255.815C255.354 133.423 253.435 134.959 251.009 134.959ZM256.889 130.863C256.889 128.447 258.496 126.751 260.683 126.751C262.856 126.751 264.463 128.447 264.463 130.863C264.463 133.279 262.856 134.975 260.683 134.975C258.496 134.975 256.889 133.279 256.889 130.863ZM258.303 130.863C258.303 132.495 259.27 133.631 260.683 133.631C262.082 133.631 263.064 132.495 263.064 130.863C263.064 129.231 262.082 128.095 260.683 128.095C259.27 128.095 258.303 129.231 258.303 130.863ZM265.416 132.511H266.755C266.755 133.311 267.32 133.791 268.243 133.791C269.225 133.791 269.79 133.359 269.79 132.639C269.79 132.111 269.552 131.791 268.793 131.583L267.514 131.263C266.219 130.927 265.609 130.239 265.609 129.087C265.609 127.647 266.74 126.735 268.347 126.735C269.939 126.735 270.98 127.695 271.01 129.183H269.671C269.641 128.399 269.15 127.903 268.302 127.903C267.424 127.903 266.933 128.319 266.933 129.039C266.933 129.567 267.29 129.919 268.005 130.111L269.284 130.447C270.519 130.767 271.129 131.375 271.129 132.543C271.129 134.031 269.939 134.975 268.213 134.975C266.502 134.975 265.416 133.999 265.416 132.511ZM274.079 134.783H272.68V126.959H273.93L274.064 127.983C274.436 127.247 275.21 126.735 276.236 126.735C277.367 126.735 278.171 127.343 278.543 128.319C278.885 127.343 279.763 126.735 280.893 126.735C282.56 126.735 283.572 127.855 283.572 129.663V134.783H282.203V130.031C282.203 128.799 281.563 128.095 280.581 128.095C279.525 128.095 278.825 128.895 278.825 130.143V134.783H277.442V130.015C277.442 128.783 276.817 128.111 275.835 128.111C274.778 128.111 274.079 128.895 274.079 130.143V134.783ZM285.034 130.863C285.034 128.447 286.641 126.751 288.828 126.751C291.001 126.751 292.608 128.447 292.608 130.863C292.608 133.279 291.001 134.975 288.828 134.975C286.641 134.975 285.034 133.279 285.034 130.863ZM286.448 130.863C286.448 132.495 287.415 133.631 288.828 133.631C290.227 133.631 291.209 132.495 291.209 130.863C291.209 129.231 290.227 128.095 288.828 128.095C287.415 128.095 286.448 129.231 286.448 130.863ZM293.56 132.511H294.899C294.899 133.311 295.464 133.791 296.387 133.791C297.369 133.791 297.934 133.359 297.934 132.639C297.934 132.111 297.696 131.791 296.937 131.583L295.658 131.263C294.363 130.927 293.753 130.239 293.753 129.087C293.753 127.647 294.884 126.735 296.491 126.735C298.083 126.735 299.124 127.695 299.154 129.183H297.815C297.785 128.399 297.294 127.903 296.446 127.903C295.568 127.903 295.077 128.319 295.077 129.039C295.077 129.567 295.435 129.919 296.149 130.111L297.428 130.447C298.663 130.767 299.273 131.375 299.273 132.543C299.273 134.031 298.083 134.975 296.357 134.975C294.646 134.975 293.56 133.999 293.56 132.511ZM300.988 137.551H299.813C301.077 135.679 301.821 132.863 301.821 130.031C301.821 127.039 301.003 124.287 299.813 122.527H300.988C302.431 124.463 303.25 127.311 303.25 130.031C303.25 132.927 302.342 135.711 300.988 137.551Z" fill="#A0A0A1"/>
<path fill-rule="evenodd" clip-rule="evenodd" d="M29.7558 180.783C33.8644 180.783 37.1951 177.201 37.1951 172.783C37.1951 168.365 33.8644 164.783 29.7558 164.783C25.6471 164.783 22.3164 168.365 22.3164 172.783C22.3164 177.201 25.6471 180.783 29.7558 180.783ZM33.2053 170.446C33.3744 170.238 33.3547 169.922 33.1615 169.74C32.9683 169.558 32.6745 169.579 32.5054 169.787L28.493 174.718L26.9847 173.096C26.8031 172.901 26.5087 172.901 26.3271 173.096C26.1455 173.292 26.1455 173.608 26.3271 173.803L28.187 175.803C28.2779 175.901 28.4025 175.954 28.5311 175.95C28.6598 175.945 28.7809 175.883 28.8656 175.779L33.2053 170.446Z" fill="#A0A0A1"/>
<path d="M47.3448 178.783H45.8867V167.215H49.9486C52.2548 167.215 53.6236 168.527 53.6236 170.687C53.6236 172.287 52.8797 173.439 51.5406 173.903L53.7278 178.783H52.106L50.0974 174.207H47.3448V178.783ZM47.3448 168.623V172.815H49.9635C51.3174 172.815 52.0911 172.031 52.0911 170.703C52.0911 169.359 51.2877 168.623 49.9486 168.623H47.3448ZM57.765 178.783L54.5661 167.215H56.0837L58.0477 174.287C58.1965 174.895 58.3453 175.503 58.4941 176.383C58.6726 175.455 58.8363 174.895 59 174.287L61.0384 167.215H62.6155L64.639 174.287C64.8175 174.911 64.9663 175.519 65.13 176.383C65.3085 175.407 65.4573 174.815 65.6061 174.303L67.585 167.215H69.0729L65.8293 178.783H64.4307L61.8269 169.631L59.1934 178.783H57.765ZM69.8862 178.783H68.3685L72.2965 167.215H73.9183L77.8612 178.783H76.3286L75.3615 175.903H70.8384L69.8862 178.783ZM72.9214 169.711L71.2848 174.543H74.93L73.2785 169.711C73.2041 169.487 73.1297 169.215 73.1 169.039C73.0702 169.199 72.9958 169.471 72.9214 169.711ZM83.8059 178.783H82.2883L86.2163 167.215H87.8381L91.7809 178.783H90.2484L89.2813 175.903H84.7582L83.8059 178.783ZM86.8412 169.711L85.2045 174.543H88.8498L87.1983 169.711C87.1239 169.487 87.0495 169.215 87.0197 169.039C86.99 169.199 86.9156 169.471 86.8412 169.711ZM92.3808 174.671C92.3808 172.463 93.705 170.735 95.8178 170.735C96.9932 170.735 97.9008 171.311 98.3621 172.287L98.4662 170.959H99.716V178.463C99.716 180.927 98.3025 182.495 96.0707 182.495C94.0919 182.495 92.7379 181.295 92.4701 179.311H93.8687C94.0472 180.463 94.8507 181.135 96.0707 181.135C97.4396 181.135 98.3323 180.175 98.3323 178.687V177.119C97.8562 178.031 96.9039 178.575 95.7583 178.575C93.6901 178.575 92.3808 176.863 92.3808 174.671ZM93.7794 174.639C93.7794 176.111 94.6275 177.263 95.9963 177.263C97.4098 177.263 98.2728 176.175 98.2728 174.639C98.2728 173.135 97.4396 172.047 96.0112 172.047C94.6126 172.047 93.7794 173.199 93.7794 174.639ZM101.274 174.671C101.274 172.463 102.598 170.735 104.711 170.735C105.886 170.735 106.794 171.311 107.255 172.287L107.359 170.959H108.609V178.463C108.609 180.927 107.195 182.495 104.964 182.495C102.985 182.495 101.631 181.295 101.363 179.311H102.762C102.94 180.463 103.743 181.135 104.964 181.135C106.332 181.135 107.225 180.175 107.225 178.687V177.119C106.749 178.031 105.797 178.575 104.65 178.575C102.582 178.575 101.274 176.863 101.274 174.671ZM102.672 174.639C102.672 176.111 103.52 177.263 104.889 177.263C106.303 177.263 107.166 176.175 107.166 174.639C107.166 173.135 106.332 172.047 104.904 172.047C103.505 172.047 102.672 173.199 102.672 174.639ZM114.793 170.895V172.271H114.168C112.844 172.271 112.025 173.135 112.025 174.639V178.783H110.627V170.975H111.936L112.025 172.159C112.323 171.343 113.052 170.799 114.049 170.799C114.302 170.799 114.51 170.831 114.793 170.895ZM118.982 178.975C116.84 178.975 115.367 177.311 115.367 174.879C115.367 172.431 116.81 170.735 118.923 170.735C120.991 170.735 122.345 172.271 122.345 174.591V175.151L116.721 175.167C116.825 176.815 117.628 177.727 119.012 177.727C120.098 177.727 120.812 177.247 121.05 176.351H122.36C122.002 178.031 120.782 178.975 118.982 178.975ZM118.923 171.999C117.703 171.999 116.929 172.783 116.75 174.159H120.946C120.946 172.863 120.158 171.999 118.923 171.999ZM123.446 174.671C123.446 172.463 124.77 170.735 126.883 170.735C128.058 170.735 128.966 171.311 129.427 172.287L129.531 170.959H130.781V178.463C130.781 180.927 129.367 182.495 127.136 182.495C125.157 182.495 123.803 181.295 123.535 179.311H124.934C125.112 180.463 125.916 181.135 127.136 181.135C128.504 181.135 129.397 180.175 129.397 178.687V177.119C128.921 178.031 127.969 178.575 126.823 178.575C124.755 178.575 123.446 176.863 123.446 174.671ZM124.844 174.639C124.844 176.111 125.692 177.263 127.061 177.263C128.475 177.263 129.338 176.175 129.338 174.639C129.338 173.135 128.504 172.047 127.076 172.047C125.677 172.047 124.844 173.199 124.844 174.639ZM134.927 178.975C133.365 178.975 132.443 178.031 132.443 176.607C132.443 175.167 133.44 174.271 135.151 174.127L137.442 173.935V173.711C137.442 172.399 136.713 171.935 135.731 171.935C134.555 171.935 133.886 172.495 133.886 173.439H132.666C132.666 171.807 133.916 170.735 135.79 170.735C137.591 170.735 138.811 171.759 138.811 173.871V178.783H137.62L137.472 177.519C137.1 178.415 136.103 178.975 134.927 178.975ZM135.329 177.807C136.653 177.807 137.457 176.879 137.457 175.407V174.991L135.597 175.151C134.362 175.279 133.856 175.791 133.856 176.559C133.856 177.391 134.422 177.807 135.329 177.807ZM142.685 178.783H141.286V172.223H139.858V170.959H141.286V168.511H142.685V170.959H144.113V172.223H142.685V178.783ZM144.819 174.863C144.819 172.447 146.426 170.751 148.613 170.751C150.785 170.751 152.392 172.447 152.392 174.863C152.392 177.279 150.785 178.975 148.613 178.975C146.426 178.975 144.819 177.279 144.819 174.863ZM146.232 174.863C146.232 176.495 147.2 177.631 148.613 177.631C150.012 177.631 150.994 176.495 150.994 174.863C150.994 173.231 150.012 172.095 148.613 172.095C147.2 172.095 146.232 173.231 146.232 174.863ZM158.107 170.895V172.271H157.482C156.157 172.271 155.339 173.135 155.339 174.639V178.783H153.941V170.975H155.25L155.339 172.159C155.637 171.343 156.366 170.799 157.363 170.799C157.616 170.799 157.824 170.831 158.107 170.895ZM166.626 181.551H165.466C164.097 179.711 163.19 176.927 163.19 174.031C163.19 171.311 164.008 168.463 165.466 166.527H166.626C165.451 168.287 164.618 171.039 164.618 174.031C164.618 176.863 165.362 179.679 166.626 181.551ZM169.309 178.783H167.881V167.215H169.309L173.014 176.943L176.719 167.215H178.177V178.783H176.749V174.207C176.749 172.047 176.764 171.263 176.838 170.447L173.699 178.783H172.33L169.205 170.479C169.28 171.039 169.309 172.223 169.309 173.839V178.783ZM183.672 178.783L179.58 167.215H181.143L183.761 174.607C183.999 175.263 184.208 175.919 184.431 176.783C184.684 175.871 184.937 175.103 185.115 174.591L187.719 167.215H189.237L185.19 178.783H183.672ZM194.815 174.655H192.092V178.783H190.634V167.215H194.815C196.928 167.215 198.282 168.703 198.282 170.927C198.282 173.087 196.913 174.655 194.815 174.655ZM194.562 168.623H192.092V173.247H194.503C195.946 173.247 196.749 172.335 196.749 170.911C196.749 169.455 195.931 168.623 194.562 168.623ZM199.859 181.551H198.684C199.948 179.679 200.692 176.863 200.692 174.031C200.692 171.039 199.874 168.287 198.684 166.527H199.859C201.302 168.463 202.121 171.311 202.121 174.031C202.121 176.927 201.213 179.711 199.859 181.551Z" fill="#A0A0A1"/>
</g>
<defs>
<clipPath id="clip0_10312_10589">
<rect width="345" height="288" fill="white" transform="translate(0 0.783203)"/>
</clipPath>
</defs>
</svg>
