<svg width="308" height="288" viewBox="0 0 308 288" fill="none" xmlns="http://www.w3.org/2000/svg">
<rect x="0.5" y="0.5" width="307" height="287" rx="19.5" fill="#252238"/>
<rect x="0.5" y="0.5" width="307" height="287" rx="19.5" stroke="url(#paint0_linear_10085_39660)"/>
<path d="M37.08 46.96L35.52 45.2C34.44 45.86 33.16 46.24 31.74 46.24C27.66 46.24 24.82 43.16 24.82 38.76C24.82 34.38 27.68 31.28 31.76 31.28C35.86 31.28 38.72 34.36 38.72 38.76C38.72 40.92 38.02 42.76 36.84 44.08L38.36 45.8L37.08 46.96ZM36.66 38.76C36.66 35.4 34.7 33.18 31.76 33.18C28.82 33.18 26.88 35.4 26.88 38.76C26.88 42.12 28.82 44.36 31.76 44.36C32.68 44.36 33.5 44.14 34.2 43.72L32.3 41.58L33.58 40.42L35.5 42.58C36.24 41.62 36.66 40.3 36.66 38.76ZM51.3069 43.08H49.5869V46H47.7069V43.08H40.2269V41.34L47.0469 31.54H49.5869V41.34H51.3069V43.08ZM42.3469 41.34H47.7069V33.62L42.3469 41.34ZM58.9905 41.54V39.86H65.0905V41.54H58.9905ZM82.4925 45.98L72.7325 46V44.5L77.3925 40.48C79.7325 38.46 80.3925 37.48 80.3925 35.94C80.3925 34.12 79.3525 33.04 77.6125 33.04C75.8325 33.04 74.6725 34.34 74.6325 36.4H72.6725C72.7325 33.3 74.6925 31.28 77.6325 31.28C80.5325 31.28 82.3925 33.04 82.3925 35.82C82.3925 37.88 81.3725 39.34 78.8125 41.56L75.8125 44.16H82.4925V45.98ZM84.2964 38.78C84.2964 34.3 86.6164 31.26 90.2564 31.26C93.8764 31.26 96.1964 34.3 96.1964 38.78C96.1964 43.28 93.9764 46.26 90.2564 46.26C86.5164 46.26 84.2964 43.28 84.2964 38.78ZM86.2364 38.78C86.2364 42.34 87.7164 44.5 90.2564 44.5C92.7964 44.5 94.2564 42.34 94.2564 38.78C94.2564 35.18 92.7964 33.02 90.2564 33.02C87.7164 33.02 86.2364 35.18 86.2364 38.78ZM107.864 45.98L98.1036 46V44.5L102.764 40.48C105.104 38.46 105.764 37.48 105.764 35.94C105.764 34.12 104.724 33.04 102.984 33.04C101.204 33.04 100.044 34.34 100.004 36.4H98.0436C98.1036 33.3 100.064 31.28 103.004 31.28C105.904 31.28 107.764 33.04 107.764 35.82C107.764 37.88 106.744 39.34 104.184 41.56L101.184 44.16H107.864V45.98ZM113.886 38.52H112.446V37.22L116.546 33.28H110.046V31.54H119.026V33.12L115.066 36.9C117.526 37.2 119.386 38.86 119.386 41.46C119.386 44.38 117.186 46.24 114.246 46.24C111.406 46.24 109.366 44.5 109.366 41.5H111.306C111.306 43.38 112.466 44.48 114.286 44.48C116.166 44.48 117.386 43.28 117.386 41.42C117.386 39.68 116.186 38.52 113.886 38.52Z" fill="#F3F3F3"/>
<path fill-rule="evenodd" clip-rule="evenodd" d="M32 92C36.4183 92 40 88.4183 40 84C40 79.5817 36.4183 76 32 76C27.5817 76 24 79.5817 24 84C24 88.4183 27.5817 92 32 92ZM35.7095 81.6627C35.8913 81.4549 35.8702 81.139 35.6624 80.9572C35.4546 80.7754 35.1387 80.7964 34.9569 81.0042L30.6421 85.9354L29.0201 84.3133C28.8248 84.118 28.5082 84.118 28.313 84.3133C28.1177 84.5085 28.1177 84.8251 28.313 85.0204L30.313 87.0204C30.4108 87.1182 30.5448 87.1712 30.6831 87.1666C30.8215 87.1619 30.9517 87.1002 31.0428 86.9961L35.7095 81.6627Z" fill="#7767F6"/>
<path d="M53.84 85.872H50.912V90H49.344V78.432H53.84C56.112 78.432 57.568 79.92 57.568 82.144C57.568 84.304 56.096 85.872 53.84 85.872ZM53.568 79.84H50.912V84.464H53.504C55.056 84.464 55.92 83.552 55.92 82.128C55.92 80.672 55.04 79.84 53.568 79.84ZM64.496 82.176H65.984V90H64.64L64.48 88.816C64.032 89.632 62.992 90.192 61.84 90.192C60.016 90.192 58.992 88.96 58.992 87.04V82.176H60.496V86.544C60.496 88.224 61.216 88.864 62.368 88.864C63.744 88.864 64.496 87.984 64.496 86.304V82.176ZM67.3699 87.728H68.8099C68.8099 88.528 69.4179 89.008 70.4099 89.008C71.4659 89.008 72.0739 88.576 72.0739 87.856C72.0739 87.328 71.8179 87.008 71.0019 86.8L69.6259 86.48C68.2339 86.144 67.5779 85.456 67.5779 84.304C67.5779 82.864 68.7939 81.952 70.5219 81.952C72.2339 81.952 73.3539 82.912 73.3859 84.4H71.9459C71.9139 83.616 71.3859 83.12 70.4739 83.12C69.5299 83.12 69.0019 83.536 69.0019 84.256C69.0019 84.784 69.3859 85.136 70.1539 85.328L71.5299 85.664C72.8579 85.984 73.5139 86.592 73.5139 87.76C73.5139 89.248 72.2339 90.192 70.3779 90.192C68.5379 90.192 67.3699 89.216 67.3699 87.728ZM76.6858 89.984H75.1818V78.224H76.6858V83.376C77.1818 82.528 78.1258 81.952 79.3418 81.952C81.3418 81.952 82.3018 83.216 82.3018 85.216V90H80.7978V85.552C80.7978 83.968 80.0458 83.328 78.9258 83.328C77.4698 83.328 76.6858 84.384 76.6858 85.728V89.984ZM90.5839 90H89.0159V78.432H90.5839L96.5039 87.376V78.432H98.0719V90H96.5039L90.5839 81.056V90ZM99.9979 86.08C99.9979 83.664 101.726 81.968 104.078 81.968C106.414 81.968 108.142 83.664 108.142 86.08C108.142 88.496 106.414 90.192 104.078 90.192C101.726 90.192 99.9979 88.496 99.9979 86.08ZM101.518 86.08C101.518 87.712 102.558 88.848 104.078 88.848C105.582 88.848 106.638 87.712 106.638 86.08C106.638 84.448 105.582 83.312 104.078 83.312C102.558 83.312 101.518 84.448 101.518 86.08ZM111.937 90H110.433V83.44H108.897V82.176H110.433V79.728H111.937V82.176H113.473V83.44H111.937V90ZM115.558 80.32C115.014 80.32 114.566 79.872 114.566 79.328C114.566 78.768 115.014 78.336 115.558 78.336C116.102 78.336 116.55 78.768 116.55 79.328C116.55 79.872 116.102 80.32 115.558 80.32ZM114.822 90V82.176H116.326V90H114.822ZM123.806 90V83.44H120.334V90H118.83V83.44H117.678V82.176H118.83V80.928C118.83 79.008 119.87 78.224 121.23 78.224C121.518 78.224 121.87 78.24 122.158 78.288V79.584H121.486C120.574 79.584 120.334 80.08 120.334 80.928V82.176H125.31V90H123.806ZM124.558 80.256C124.014 80.256 123.598 79.84 123.598 79.296C123.598 78.752 124.014 78.336 124.558 78.336C125.086 78.336 125.502 78.752 125.502 79.296C125.502 79.84 125.086 80.256 124.558 80.256ZM126.935 86.096C126.935 83.648 128.487 81.952 130.775 81.952C132.743 81.952 134.119 83.072 134.391 84.816H132.887C132.631 83.824 131.831 83.296 130.823 83.296C129.399 83.296 128.423 84.384 128.423 86.08C128.423 87.76 129.335 88.848 130.759 88.848C131.831 88.848 132.631 88.288 132.903 87.36H134.407C134.103 89.056 132.647 90.192 130.759 90.192C128.455 90.192 126.935 88.56 126.935 86.096ZM138.282 90.192C136.602 90.192 135.61 89.248 135.61 87.824C135.61 86.384 136.682 85.488 138.522 85.344L140.986 85.152V84.928C140.986 83.616 140.202 83.152 139.146 83.152C137.882 83.152 137.162 83.712 137.162 84.656H135.85C135.85 83.024 137.194 81.952 139.21 81.952C141.146 81.952 142.458 82.976 142.458 85.088V90H141.178L141.018 88.736C140.618 89.632 139.546 90.192 138.282 90.192ZM138.714 89.024C140.138 89.024 141.002 88.096 141.002 86.624V86.208L139.002 86.368C137.674 86.496 137.13 87.008 137.13 87.776C137.13 88.608 137.738 89.024 138.714 89.024ZM146.624 90H145.12V83.44H143.584V82.176H145.12V79.728H146.624V82.176H148.16V83.44H146.624V90ZM150.246 80.32C149.702 80.32 149.254 79.872 149.254 79.328C149.254 78.768 149.702 78.336 150.246 78.336C150.79 78.336 151.238 78.768 151.238 79.328C151.238 79.872 150.79 80.32 150.246 80.32ZM149.51 90V82.176H151.014V90H149.51ZM152.685 86.08C152.685 83.664 154.413 81.968 156.765 81.968C159.101 81.968 160.829 83.664 160.829 86.08C160.829 88.496 159.101 90.192 156.765 90.192C154.413 90.192 152.685 88.496 152.685 86.08ZM154.205 86.08C154.205 87.712 155.245 88.848 156.765 88.848C158.269 88.848 159.325 87.712 159.325 86.08C159.325 84.448 158.269 83.312 156.765 83.312C155.245 83.312 154.205 84.448 154.205 86.08ZM163.998 90H162.494V82.176H163.854L164.014 83.376C164.51 82.48 165.502 81.952 166.606 81.952C168.67 81.952 169.614 83.216 169.614 85.216V90H168.11V85.552C168.11 83.968 167.374 83.328 166.222 83.328C164.814 83.328 163.998 84.336 163.998 85.856V90ZM170.964 87.728H172.404C172.404 88.528 173.012 89.008 174.004 89.008C175.06 89.008 175.668 88.576 175.668 87.856C175.668 87.328 175.412 87.008 174.596 86.8L173.22 86.48C171.828 86.144 171.172 85.456 171.172 84.304C171.172 82.864 172.388 81.952 174.116 81.952C175.828 81.952 176.948 82.912 176.98 84.4H175.54C175.508 83.616 174.98 83.12 174.068 83.12C173.124 83.12 172.596 83.536 172.596 84.256C172.596 84.784 172.98 85.136 173.748 85.328L175.124 85.664C176.452 85.984 177.108 86.592 177.108 87.76C177.108 89.248 175.828 90.192 173.972 90.192C172.132 90.192 170.964 89.216 170.964 87.728Z" fill="#A0A0A1"/>
<path fill-rule="evenodd" clip-rule="evenodd" d="M32 128C36.4183 128 40 124.418 40 120C40 115.582 36.4183 112 32 112C27.5817 112 24 115.582 24 120C24 124.418 27.5817 128 32 128ZM35.7095 117.663C35.8913 117.455 35.8702 117.139 35.6624 116.957C35.4546 116.775 35.1387 116.796 34.9569 117.004L30.6421 121.935L29.0201 120.313C28.8248 120.118 28.5082 120.118 28.313 120.313C28.1177 120.509 28.1177 120.825 28.313 121.02L30.313 123.02C30.4108 123.118 30.5448 123.171 30.6831 123.167C30.8215 123.162 30.9517 123.1 31.0428 122.996L35.7095 117.663Z" fill="#7767F6"/>
<path d="M50.912 114.432V126H49.344V114.432H50.912ZM54.8576 126H53.3536V118.176H54.7136L54.8736 119.376C55.3696 118.48 56.3616 117.952 57.4656 117.952C59.5296 117.952 60.4736 119.216 60.4736 121.216V126H58.9696V121.552C58.9696 119.968 58.2336 119.328 57.0816 119.328C55.6736 119.328 54.8576 120.336 54.8576 121.856V126ZM64.7648 126H63.2608V119.44H61.7248V118.176H63.2608V115.728H64.7648V118.176H66.3008V119.44H64.7648V126ZM70.9484 126.192C68.6444 126.192 67.0604 124.528 67.0604 122.096C67.0604 119.648 68.6124 117.952 70.8844 117.952C73.1084 117.952 74.5644 119.488 74.5644 121.808V122.368L68.5164 122.384C68.6284 124.032 69.4924 124.944 70.9804 124.944C72.1484 124.944 72.9164 124.464 73.1724 123.568H74.5804C74.1964 125.248 72.8844 126.192 70.9484 126.192ZM70.8844 119.216C69.5724 119.216 68.7404 120 68.5484 121.376H73.0604C73.0604 120.08 72.2124 119.216 70.8844 119.216ZM77.7803 126H76.2763V114.224H77.7803V126ZM79.9143 122.432V121.088H84.7943V122.432H79.9143ZM90.0209 126.192C87.7489 126.192 86.3729 124.496 86.3729 122.112C86.3729 119.712 87.7649 117.952 90.0849 117.952C91.2849 117.952 92.2929 118.48 92.8209 119.44V114.224H94.3089V126H92.9649L92.8369 124.576C92.3249 125.648 91.2689 126.192 90.0209 126.192ZM90.3249 124.832C91.8609 124.832 92.8049 123.696 92.8049 122.064C92.8049 120.464 91.8609 119.312 90.3249 119.312C88.7889 119.312 87.8929 120.464 87.8929 122.064C87.8929 123.68 88.7889 124.832 90.3249 124.832ZM100.959 118.112V119.488H100.287C98.8626 119.488 97.9826 120.352 97.9826 121.856V126H96.4786V118.192H97.8866L97.9826 119.376C98.3026 118.56 99.0866 118.016 100.159 118.016C100.431 118.016 100.655 118.048 100.959 118.112ZM103.105 116.32C102.561 116.32 102.113 115.872 102.113 115.328C102.113 114.768 102.561 114.336 103.105 114.336C103.649 114.336 104.097 114.768 104.097 115.328C104.097 115.872 103.649 116.32 103.105 116.32ZM102.369 126V118.176H103.873V126H102.369ZM108.249 126L105.097 118.176H106.697L108.409 122.544C108.681 123.28 108.905 123.936 109.033 124.416C109.161 123.904 109.417 123.232 109.689 122.544L111.433 118.176H113.001L109.737 126H108.249ZM117.214 126.192C114.91 126.192 113.326 124.528 113.326 122.096C113.326 119.648 114.878 117.952 117.15 117.952C119.374 117.952 120.83 119.488 120.83 121.808V122.368L114.782 122.384C114.894 124.032 115.758 124.944 117.246 124.944C118.414 124.944 119.182 124.464 119.438 123.568H120.846C120.462 125.248 119.15 126.192 117.214 126.192ZM117.15 119.216C115.838 119.216 115.006 120 114.814 121.376H119.326C119.326 120.08 118.478 119.216 117.15 119.216ZM124.014 126H122.51V118.176H123.87L124.03 119.376C124.526 118.48 125.518 117.952 126.622 117.952C128.686 117.952 129.63 119.216 129.63 121.216V126H128.126V121.552C128.126 119.968 127.39 119.328 126.238 119.328C124.83 119.328 124.014 120.336 124.014 121.856V126ZM135.672 117.552C135.672 115.568 137.272 114.224 139.656 114.224C141.864 114.224 143.288 115.456 143.416 117.456H141.832C141.752 116.304 140.936 115.632 139.64 115.632C138.184 115.632 137.24 116.368 137.24 117.504C137.24 118.432 137.768 118.992 138.856 119.248L140.76 119.696C142.648 120.128 143.608 121.152 143.608 122.784C143.608 124.864 141.992 126.192 139.528 126.192C137.176 126.192 135.608 124.96 135.512 122.976H137.112C137.144 124.08 138.072 124.784 139.528 124.784C141.064 124.784 142.04 124.064 142.04 122.912C142.04 122 141.544 121.424 140.44 121.168L138.536 120.736C136.648 120.304 135.672 119.216 135.672 117.552ZM147.002 126L144.442 118.176H145.994L147.29 122.24C147.466 122.816 147.626 123.408 147.77 124.096C147.898 123.408 148.106 122.752 148.282 122.24L149.594 118.176H151.13L152.426 122.24C152.554 122.624 152.81 123.536 152.938 124.096C153.066 123.472 153.21 122.928 153.434 122.24L154.746 118.176H156.314L153.642 126H152.218L150.858 121.808C150.602 121.024 150.442 120.416 150.362 119.984C150.282 120.368 150.138 120.88 149.85 121.824L148.49 126H147.002ZM159.532 126.192C157.852 126.192 156.86 125.248 156.86 123.824C156.86 122.384 157.932 121.488 159.772 121.344L162.236 121.152V120.928C162.236 119.616 161.452 119.152 160.396 119.152C159.132 119.152 158.412 119.712 158.412 120.656H157.1C157.1 119.024 158.444 117.952 160.46 117.952C162.396 117.952 163.708 118.976 163.708 121.088V126H162.428L162.268 124.736C161.868 125.632 160.796 126.192 159.532 126.192ZM159.964 125.024C161.388 125.024 162.252 124.096 162.252 122.624V122.208L160.252 122.368C158.924 122.496 158.38 123.008 158.38 123.776C158.38 124.608 158.988 125.024 159.964 125.024ZM165.791 129.504V118.176H167.151L167.263 119.584C167.791 118.512 168.847 117.952 170.095 117.952C172.335 117.952 173.727 119.632 173.727 122.032C173.727 124.416 172.415 126.208 170.095 126.208C168.847 126.208 167.807 125.68 167.295 124.72V129.504H165.791ZM167.311 122.096C167.311 123.696 168.239 124.848 169.775 124.848C171.311 124.848 172.223 123.696 172.223 122.096C172.223 120.48 171.311 119.328 169.775 119.328C168.239 119.328 167.311 120.464 167.311 122.096Z" fill="#A0A0A1"/>
<path fill-rule="evenodd" clip-rule="evenodd" d="M32 164C36.4183 164 40 160.418 40 156C40 151.582 36.4183 148 32 148C27.5817 148 24 151.582 24 156C24 160.418 27.5817 164 32 164ZM35.7095 153.663C35.8913 153.455 35.8702 153.139 35.6624 152.957C35.4546 152.775 35.1387 152.796 34.9569 153.004L30.6421 157.935L29.0201 156.313C28.8248 156.118 28.5082 156.118 28.313 156.313C28.1177 156.509 28.1177 156.825 28.313 157.02L30.313 159.02C30.4108 159.118 30.5448 159.171 30.6831 159.167C30.8215 159.162 30.9517 159.1 31.0428 158.996L35.7095 153.663Z" fill="#7767F6"/>
<path d="M48.672 153.552C48.672 151.568 50.272 150.224 52.656 150.224C54.864 150.224 56.288 151.456 56.416 153.456H54.832C54.752 152.304 53.936 151.632 52.64 151.632C51.184 151.632 50.24 152.368 50.24 153.504C50.24 154.432 50.768 154.992 51.856 155.248L53.76 155.696C55.648 156.128 56.608 157.152 56.608 158.784C56.608 160.864 54.992 162.192 52.528 162.192C50.176 162.192 48.608 160.96 48.512 158.976H50.112C50.144 160.08 51.072 160.784 52.528 160.784C54.064 160.784 55.04 160.064 55.04 158.912C55.04 158 54.544 157.424 53.44 157.168L51.536 156.736C49.648 156.304 48.672 155.216 48.672 153.552ZM60.5304 162H59.0264V155.44H57.4904V154.176H59.0264V151.728H60.5304V154.176H62.0664V155.44H60.5304V162ZM65.6104 162.192C63.9304 162.192 62.9384 161.248 62.9384 159.824C62.9384 158.384 64.0104 157.488 65.8504 157.344L68.3144 157.152V156.928C68.3144 155.616 67.5304 155.152 66.4744 155.152C65.2104 155.152 64.4904 155.712 64.4904 156.656H63.1784C63.1784 155.024 64.5224 153.952 66.5384 153.952C68.4744 153.952 69.7864 154.976 69.7864 157.088V162H68.5064L68.3464 160.736C67.9464 161.632 66.8744 162.192 65.6104 162.192ZM66.0424 161.024C67.4664 161.024 68.3304 160.096 68.3304 158.624V158.208L66.3304 158.368C65.0024 158.496 64.4584 159.008 64.4584 159.776C64.4584 160.608 65.0664 161.024 66.0424 161.024ZM73.4053 162H71.9013V150.224H73.4053V157.856L76.8773 154.176H78.7653L75.7733 157.296L78.7493 162H77.0213L74.7333 158.384L73.4053 159.776V162ZM80.7303 152.32C80.1863 152.32 79.7383 151.872 79.7383 151.328C79.7383 150.768 80.1863 150.336 80.7303 150.336C81.2743 150.336 81.7223 150.768 81.7223 151.328C81.7223 151.872 81.2743 152.32 80.7303 152.32ZM79.9943 162V154.176H81.4983V162H79.9943ZM85.1858 162H83.6818V154.176H85.0418L85.2018 155.376C85.6978 154.48 86.6898 153.952 87.7938 153.952C89.8578 153.952 90.8018 155.216 90.8018 157.216V162H89.2978V157.552C89.2978 155.968 88.5618 155.328 87.4098 155.328C86.0018 155.328 85.1858 156.336 85.1858 157.856V162ZM92.3889 157.888C92.3889 155.68 93.8129 153.952 96.0849 153.952C97.3489 153.952 98.3249 154.528 98.8209 155.504L98.9329 154.176H100.277V161.68C100.277 164.144 98.7569 165.712 96.3569 165.712C94.2289 165.712 92.7729 164.512 92.4849 162.528H93.9889C94.1809 163.68 95.0449 164.352 96.3569 164.352C97.8289 164.352 98.7889 163.392 98.7889 161.904V160.336C98.2769 161.248 97.2529 161.792 96.0209 161.792C93.7969 161.792 92.3889 160.08 92.3889 157.888ZM93.8929 157.856C93.8929 159.328 94.8049 160.48 96.2769 160.48C97.7969 160.48 98.7249 159.392 98.7249 157.856C98.7249 156.352 97.8289 155.264 96.2929 155.264C94.7889 155.264 93.8929 156.416 93.8929 157.856ZM107.558 162H105.926L110.15 150.432H111.894L116.134 162H114.486L113.446 159.12H108.582L107.558 162ZM110.822 152.928L109.062 157.76H112.982L111.206 152.928C111.126 152.704 111.046 152.432 111.014 152.256C110.982 152.416 110.902 152.688 110.822 152.928ZM116.78 157.888C116.78 155.68 118.204 153.952 120.476 153.952C121.74 153.952 122.716 154.528 123.212 155.504L123.324 154.176H124.668V161.68C124.668 164.144 123.148 165.712 120.748 165.712C118.62 165.712 117.164 164.512 116.876 162.528H118.38C118.572 163.68 119.436 164.352 120.748 164.352C122.22 164.352 123.18 163.392 123.18 161.904V160.336C122.668 161.248 121.644 161.792 120.411 161.792C118.188 161.792 116.78 160.08 116.78 157.888ZM118.284 157.856C118.284 159.328 119.196 160.48 120.668 160.48C122.188 160.48 123.116 159.392 123.116 157.856C123.116 156.352 122.22 155.264 120.684 155.264C119.18 155.264 118.284 156.416 118.284 157.856ZM126.342 157.888C126.342 155.68 127.766 153.952 130.038 153.952C131.302 153.952 132.278 154.528 132.774 155.504L132.886 154.176H134.23V161.68C134.23 164.144 132.71 165.712 130.31 165.712C128.182 165.712 126.726 164.512 126.438 162.528H127.942C128.134 163.68 128.998 164.352 130.31 164.352C131.782 164.352 132.742 163.392 132.742 161.904V160.336C132.23 161.248 131.206 161.792 129.974 161.792C127.75 161.792 126.342 160.08 126.342 157.888ZM127.846 157.856C127.846 159.328 128.758 160.48 130.23 160.48C131.75 160.48 132.678 159.392 132.678 157.856C132.678 156.352 131.782 155.264 130.246 155.264C128.742 155.264 127.846 156.416 127.846 157.856ZM140.881 154.112V155.488H140.209C138.785 155.488 137.905 156.352 137.905 157.856V162H136.401V154.192H137.809L137.905 155.376C138.225 154.56 139.009 154.016 140.081 154.016C140.353 154.016 140.577 154.048 140.881 154.112ZM145.386 162.192C143.082 162.192 141.498 160.528 141.498 158.096C141.498 155.648 143.05 153.952 145.322 153.952C147.546 153.952 149.002 155.488 149.002 157.808V158.368L142.954 158.384C143.066 160.032 143.93 160.944 145.418 160.944C146.586 160.944 147.354 160.464 147.61 159.568H149.018C148.634 161.248 147.322 162.192 145.386 162.192ZM145.322 155.216C144.01 155.216 143.178 156 142.986 157.376H147.498C147.498 156.08 146.65 155.216 145.322 155.216ZM155.162 154.112V155.488H154.49C153.066 155.488 152.186 156.352 152.186 157.856V162H150.682V154.192H152.09L152.186 155.376C152.506 154.56 153.29 154.016 154.362 154.016C154.634 154.016 154.858 154.048 155.162 154.112ZM158.548 162.192C156.868 162.192 155.876 161.248 155.876 159.824C155.876 158.384 156.948 157.488 158.788 157.344L161.252 157.152V156.928C161.252 155.616 160.468 155.152 159.412 155.152C158.148 155.152 157.428 155.712 157.428 156.656H156.116C156.116 155.024 157.46 153.952 159.476 153.952C161.412 153.952 162.724 154.976 162.724 157.088V162H161.444L161.284 160.736C160.884 161.632 159.812 162.192 158.548 162.192ZM158.98 161.024C160.404 161.024 161.268 160.096 161.268 158.624V158.208L159.268 158.368C157.94 158.496 157.396 159.008 157.396 159.776C157.396 160.608 158.004 161.024 158.98 161.024ZM166.89 162H165.386V155.44H163.85V154.176H165.386V151.728H166.89V154.176H168.426V155.44H166.89V162ZM169.185 158.08C169.185 155.664 170.913 153.968 173.265 153.968C175.601 153.968 177.329 155.664 177.329 158.08C177.329 160.496 175.601 162.192 173.265 162.192C170.913 162.192 169.185 160.496 169.185 158.08ZM170.705 158.08C170.705 159.712 171.745 160.848 173.265 160.848C174.769 160.848 175.825 159.712 175.825 158.08C175.825 156.448 174.769 155.312 173.265 155.312C171.745 155.312 170.705 156.448 170.705 158.08ZM183.474 154.112V155.488H182.802C181.378 155.488 180.498 156.352 180.498 157.856V162H178.994V154.192H180.402L180.498 155.376C180.818 154.56 181.602 154.016 182.674 154.016C182.946 154.016 183.17 154.048 183.474 154.112ZM192.636 164.768H191.388C189.916 162.928 188.94 160.144 188.94 157.248C188.94 154.528 189.82 151.68 191.388 149.744H192.636C191.372 151.504 190.476 154.256 190.476 157.248C190.476 160.08 191.276 162.896 192.636 164.768ZM193.313 153.552C193.313 151.568 194.913 150.224 197.297 150.224C199.505 150.224 200.929 151.456 201.057 153.456H199.473C199.393 152.304 198.577 151.632 197.281 151.632C195.825 151.632 194.881 152.368 194.881 153.504C194.881 154.432 195.409 154.992 196.497 155.248L198.401 155.696C200.289 156.128 201.249 157.152 201.249 158.784C201.249 160.864 199.633 162.192 197.169 162.192C194.817 162.192 193.249 160.96 193.153 158.976H194.753C194.785 160.08 195.713 160.784 197.169 160.784C198.705 160.784 199.681 160.064 199.681 158.912C199.681 158 199.185 157.424 198.081 157.168L196.177 156.736C194.289 156.304 193.313 155.216 193.313 153.552ZM208.371 154.176H209.859V162H208.515L208.355 160.816C207.907 161.632 206.867 162.192 205.715 162.192C203.891 162.192 202.867 160.96 202.867 159.04V154.176H204.371V158.544C204.371 160.224 205.091 160.864 206.243 160.864C207.619 160.864 208.371 159.984 208.371 158.304V154.176ZM212.777 152.32C212.233 152.32 211.785 151.872 211.785 151.328C211.785 150.768 212.233 150.336 212.777 150.336C213.321 150.336 213.769 150.768 213.769 151.328C213.769 151.872 213.321 152.32 212.777 152.32ZM212.041 162V154.176H213.545V162H212.041ZM216.045 164.768H214.781C216.141 162.896 216.941 160.08 216.941 157.248C216.941 154.256 216.061 151.504 214.781 149.744H216.045C217.597 151.68 218.477 154.528 218.477 157.248C218.477 160.144 217.501 162.928 216.045 164.768Z" fill="#A0A0A1"/>
<path fill-rule="evenodd" clip-rule="evenodd" d="M32 200C36.4183 200 40 196.418 40 192C40 187.582 36.4183 184 32 184C27.5817 184 24 187.582 24 192C24 196.418 27.5817 200 32 200ZM35.7095 189.663C35.8913 189.455 35.8702 189.139 35.6624 188.957C35.4546 188.775 35.1387 188.796 34.9569 189.004L30.6421 193.935L29.0201 192.313C28.8248 192.118 28.5082 192.118 28.313 192.313C28.1177 192.509 28.1177 192.825 28.313 193.02L30.313 195.02C30.4108 195.118 30.5448 195.171 30.6831 195.167C30.8215 195.162 30.9517 195.1 31.0428 194.996L35.7095 189.663Z" fill="#7767F6"/>
<path d="M54.144 198.176C50.848 198.176 48.656 195.808 48.656 192.224C48.656 188.656 50.912 186.24 54.224 186.24C56.832 186.24 58.832 187.792 59.264 190.16H57.584C57.152 188.656 55.856 187.744 54.176 187.744C51.84 187.744 50.304 189.504 50.304 192.208C50.304 194.912 51.84 196.672 54.176 196.672C55.872 196.672 57.216 195.76 57.648 194.336H59.312C58.816 196.64 56.752 198.176 54.144 198.176ZM63.1104 198.192C61.4304 198.192 60.4384 197.248 60.4384 195.824C60.4384 194.384 61.5104 193.488 63.3504 193.344L65.8144 193.152V192.928C65.8144 191.616 65.0304 191.152 63.9744 191.152C62.7104 191.152 61.9904 191.712 61.9904 192.656H60.6784C60.6784 191.024 62.0224 189.952 64.0384 189.952C65.9744 189.952 67.2864 190.976 67.2864 193.088V198H66.0064L65.8464 196.736C65.4464 197.632 64.3744 198.192 63.1104 198.192ZM63.5424 197.024C64.9664 197.024 65.8304 196.096 65.8304 194.624V194.208L63.8304 194.368C62.5024 194.496 61.9584 195.008 61.9584 195.776C61.9584 196.608 62.5664 197.024 63.5424 197.024ZM68.7293 195.728H70.1693C70.1693 196.528 70.7773 197.008 71.7693 197.008C72.8253 197.008 73.4333 196.576 73.4333 195.856C73.4333 195.328 73.1773 195.008 72.3613 194.8L70.9853 194.48C69.5933 194.144 68.9373 193.456 68.9373 192.304C68.9373 190.864 70.1533 189.952 71.8813 189.952C73.5933 189.952 74.7133 190.912 74.7453 192.4H73.3053C73.2733 191.616 72.7453 191.12 71.8333 191.12C70.8893 191.12 70.3613 191.536 70.3613 192.256C70.3613 192.784 70.7453 193.136 71.5133 193.328L72.8893 193.664C74.2173 193.984 74.8733 194.592 74.8733 195.76C74.8733 197.248 73.5933 198.192 71.7373 198.192C69.8973 198.192 68.7293 197.216 68.7293 195.728ZM78.0451 197.984H76.5411V186.224H78.0451V191.376C78.5411 190.528 79.4851 189.952 80.7011 189.952C82.7011 189.952 83.6611 191.216 83.6611 193.216V198H82.1571V193.552C82.1571 191.968 81.4051 191.328 80.2851 191.328C78.8291 191.328 78.0451 192.384 78.0451 193.728V197.984ZM92.4003 198H90.9123V191.44H87.5683V198H86.0643V191.44H84.9123V190.176H86.0643V188.928C86.0643 187.008 87.0883 186.224 88.4483 186.224C88.7363 186.224 89.0723 186.24 89.3763 186.288V187.584H88.7043C87.7923 187.584 87.5683 188.08 87.5683 188.928V190.176H90.9123V186.224H92.4003V198ZM94.0916 194.08C94.0916 191.664 95.8196 189.968 98.1716 189.968C100.508 189.968 102.236 191.664 102.236 194.08C102.236 196.496 100.508 198.192 98.1716 198.192C95.8196 198.192 94.0916 196.496 94.0916 194.08ZM95.6116 194.08C95.6116 195.712 96.6516 196.848 98.1716 196.848C99.6756 196.848 100.732 195.712 100.732 194.08C100.732 192.448 99.6756 191.312 98.1716 191.312C96.6516 191.312 95.6116 192.448 95.6116 194.08ZM105.221 198L102.661 190.176H104.213L105.509 194.24C105.685 194.816 105.845 195.408 105.989 196.096C106.117 195.408 106.325 194.752 106.501 194.24L107.813 190.176H109.349L110.645 194.24C110.773 194.624 111.029 195.536 111.157 196.096C111.285 195.472 111.429 194.928 111.653 194.24L112.965 190.176H114.533L111.861 198H110.437L109.077 193.808C108.821 193.024 108.661 192.416 108.581 191.984C108.501 192.368 108.357 192.88 108.069 193.824L106.709 198H105.221ZM121.989 198H120.453V186.432H121.989L125.973 196.16L129.957 186.432H131.525V198H129.989V193.424C129.989 191.264 130.005 190.48 130.085 189.664L126.709 198H125.237L121.877 189.696C121.957 190.256 121.989 191.44 121.989 193.056V198ZM136.251 198.192C134.571 198.192 133.579 197.248 133.579 195.824C133.579 194.384 134.651 193.488 136.491 193.344L138.955 193.152V192.928C138.955 191.616 138.171 191.152 137.115 191.152C135.851 191.152 135.131 191.712 135.131 192.656H133.819C133.819 191.024 135.163 189.952 137.179 189.952C139.115 189.952 140.427 190.976 140.427 193.088V198H139.147L138.987 196.736C138.587 197.632 137.515 198.192 136.251 198.192ZM136.683 197.024C138.107 197.024 138.971 196.096 138.971 194.624V194.208L136.971 194.368C135.643 194.496 135.099 195.008 135.099 195.776C135.099 196.608 135.707 197.024 136.683 197.024ZM144.014 198H142.51V190.176H143.87L144.03 191.376C144.526 190.48 145.518 189.952 146.622 189.952C148.686 189.952 149.63 191.216 149.63 193.216V198H148.126V193.552C148.126 191.968 147.39 191.328 146.238 191.328C144.83 191.328 144.014 192.336 144.014 193.856V198ZM154.001 198.192C152.321 198.192 151.329 197.248 151.329 195.824C151.329 194.384 152.401 193.488 154.241 193.344L156.705 193.152V192.928C156.705 191.616 155.921 191.152 154.865 191.152C153.601 191.152 152.881 191.712 152.881 192.656H151.569C151.569 191.024 152.913 189.952 154.929 189.952C156.865 189.952 158.177 190.976 158.177 193.088V198H156.897L156.737 196.736C156.337 197.632 155.265 198.192 154.001 198.192ZM154.433 197.024C155.857 197.024 156.721 196.096 156.721 194.624V194.208L154.721 194.368C153.393 194.496 152.849 195.008 152.849 195.776C152.849 196.608 153.457 197.024 154.433 197.024ZM159.764 193.888C159.764 191.68 161.188 189.952 163.46 189.952C164.724 189.952 165.7 190.528 166.196 191.504L166.308 190.176H167.652V197.68C167.652 200.144 166.132 201.712 163.732 201.712C161.604 201.712 160.148 200.512 159.86 198.528H161.364C161.556 199.68 162.42 200.352 163.732 200.352C165.204 200.352 166.164 199.392 166.164 197.904V196.336C165.652 197.248 164.628 197.792 163.396 197.792C161.172 197.792 159.764 196.08 159.764 193.888ZM161.268 193.856C161.268 195.328 162.18 196.48 163.652 196.48C165.172 196.48 166.1 195.392 166.1 193.856C166.1 192.352 165.204 191.264 163.668 191.264C162.164 191.264 161.268 192.416 161.268 193.856ZM173.198 198.192C170.894 198.192 169.31 196.528 169.31 194.096C169.31 191.648 170.862 189.952 173.134 189.952C175.358 189.952 176.814 191.488 176.814 193.808V194.368L170.766 194.384C170.878 196.032 171.742 196.944 173.23 196.944C174.398 196.944 175.166 196.464 175.422 195.568H176.83C176.446 197.248 175.134 198.192 173.198 198.192ZM173.134 191.216C171.822 191.216 170.99 192 170.798 193.376H175.31C175.31 192.08 174.462 191.216 173.134 191.216ZM179.998 198H178.494V190.176H179.838L179.982 191.2C180.382 190.464 181.214 189.952 182.318 189.952C183.534 189.952 184.398 190.56 184.798 191.536C185.166 190.56 186.11 189.952 187.326 189.952C189.118 189.952 190.206 191.072 190.206 192.88V198H188.734V193.248C188.734 192.016 188.046 191.312 186.99 191.312C185.854 191.312 185.102 192.112 185.102 193.36V198H183.614V193.232C183.614 192 182.942 191.328 181.886 191.328C180.75 191.328 179.998 192.112 179.998 193.36V198ZM195.667 198.192C193.363 198.192 191.779 196.528 191.779 194.096C191.779 191.648 193.331 189.952 195.603 189.952C197.827 189.952 199.283 191.488 199.283 193.808V194.368L193.235 194.384C193.347 196.032 194.211 196.944 195.699 196.944C196.867 196.944 197.635 196.464 197.891 195.568H199.299C198.915 197.248 197.603 198.192 195.667 198.192ZM195.603 191.216C194.291 191.216 193.459 192 193.267 193.376H197.779C197.779 192.08 196.931 191.216 195.603 191.216ZM202.467 198H200.963V190.176H202.323L202.483 191.376C202.979 190.48 203.971 189.952 205.075 189.952C207.139 189.952 208.083 191.216 208.083 193.216V198H206.579V193.552C206.579 191.968 205.843 191.328 204.691 191.328C203.283 191.328 202.467 192.336 202.467 193.856V198ZM212.374 198H210.87V191.44H209.334V190.176H210.87V187.728H212.374V190.176H213.91V191.44H212.374V198ZM223.011 200.768H221.763C220.291 198.928 219.315 196.144 219.315 193.248C219.315 190.528 220.195 187.68 221.763 185.744H223.011C221.747 187.504 220.851 190.256 220.851 193.248C220.851 196.08 221.651 198.896 223.011 200.768ZM224.84 198H223.208L227.432 186.432H229.176L233.416 198H231.768L230.728 195.12H225.864L224.84 198ZM228.104 188.928L226.344 193.76H230.264L228.488 188.928C228.408 188.704 228.328 188.432 228.296 188.256C228.264 188.416 228.184 188.688 228.104 188.928ZM236.233 198H234.729V186.224H236.233V198ZM239.983 198H238.479V186.224H239.983V198ZM253.884 198H246.828V186.432H253.884V187.872H248.396V191.488H253.34V192.88H248.396V196.544H253.884V198ZM259.373 198L254.973 186.432H256.653L259.469 193.824C259.725 194.48 259.949 195.136 260.189 196C260.461 195.088 260.733 194.32 260.925 193.808L263.725 186.432H265.357L261.005 198H259.373ZM268.396 198H266.86V186.432H268.396L272.38 196.16L276.364 186.432H277.932V198H276.396V193.424C276.396 191.264 276.412 190.48 276.492 189.664L273.116 198H271.644L268.284 189.696C268.364 190.256 268.396 191.44 268.396 193.056V198ZM280.545 200.768H279.281C280.641 198.896 281.441 196.08 281.441 193.248C281.441 190.256 280.561 187.504 279.281 185.744H280.545C282.097 187.68 282.977 190.528 282.977 193.248C282.977 196.144 282.001 198.928 280.545 200.768Z" fill="#A0A0A1"/>
<defs>
<linearGradient id="paint0_linear_10085_39660" x1="99.0133" y1="73.031" x2="39.8851" y2="79.1257" gradientUnits="userSpaceOnUse">
<stop offset="0.0833333" stop-color="#FAE2B6"/>
<stop offset="0.630208" stop-color="#EF90B8"/>
<stop offset="0.958333" stop-color="#B684F0"/>
</linearGradient>
</defs>
</svg>
