<svg width="308" height="289" viewBox="0 0 308 289" fill="none" xmlns="http://www.w3.org/2000/svg">
<g clip-path="url(#clip0_10312_10611)">
<path d="M288 1.2832H20C9.23045 1.2832 0.5 10.0137 0.5 20.7832V268.783C0.5 279.553 9.23045 288.283 20 288.283H288C298.77 288.283 307.5 279.553 307.5 268.783V20.7832C307.5 10.0137 298.77 1.2832 288 1.2832Z" fill="#252238"/>
<path d="M288 1.2832H20C9.23045 1.2832 0.5 10.0137 0.5 20.7832V268.783C0.5 279.553 9.23045 288.283 20 288.283H288C298.77 288.283 307.5 279.553 307.5 268.783V20.7832C307.5 10.0137 298.77 1.2832 288 1.2832Z" stroke="url(#paint0_linear_10312_10611)"/>
<path d="M37.0803 47.743L35.5203 45.983C34.4403 46.643 33.1603 47.023 31.7403 47.023C27.6603 47.023 24.8203 43.943 24.8203 39.543C24.8203 35.163 27.6803 32.063 31.7603 32.063C35.8603 32.063 38.7203 35.143 38.7203 39.543C38.7203 41.703 38.0203 43.543 36.8403 44.863L38.3603 46.583L37.0803 47.743ZM36.6603 39.543C36.6603 36.183 34.7003 33.963 31.7603 33.963C28.8203 33.963 26.8803 36.183 26.8803 39.543C26.8803 42.903 28.8203 45.143 31.7603 45.143C32.6803 45.143 33.5003 44.923 34.2003 44.503L32.3003 42.363L33.5803 41.203L35.5003 43.363C36.2403 42.403 36.6603 41.083 36.6603 39.543ZM51.3072 43.863H49.5872V46.783H47.7072V43.863H40.2272V42.123L47.0472 32.323H49.5872V42.123H51.3072V43.863ZM42.3472 42.123H47.7072V34.403L42.3472 42.123ZM58.9908 42.323V40.643H65.0908V42.323H58.9908ZM82.4928 46.763L72.7328 46.783V45.283L77.3928 41.263C79.7328 39.243 80.3928 38.263 80.3928 36.723C80.3928 34.903 79.3528 33.823 77.6128 33.823C75.8328 33.823 74.6728 35.123 74.6328 37.183H72.6728C72.7328 34.083 74.6928 32.063 77.6328 32.063C80.5328 32.063 82.3928 33.823 82.3928 36.603C82.3928 38.663 81.3728 40.123 78.8128 42.343L75.8128 44.943H82.4928V46.763ZM84.2967 39.563C84.2967 35.083 86.6167 32.043 90.2567 32.043C93.8767 32.043 96.1967 35.083 96.1967 39.563C96.1967 44.063 93.9767 47.043 90.2567 47.043C86.5167 47.043 84.2967 44.063 84.2967 39.563ZM86.2367 39.563C86.2367 43.123 87.7167 45.283 90.2567 45.283C92.7967 45.283 94.2567 43.123 94.2567 39.563C94.2567 35.963 92.7967 33.803 90.2567 33.803C87.7167 33.803 86.2367 35.963 86.2367 39.563ZM107.864 46.763L98.1039 46.783V45.283L102.764 41.263C105.104 39.243 105.764 38.263 105.764 36.723C105.764 34.903 104.724 33.823 102.984 33.823C101.204 33.823 100.044 35.123 100.004 37.183H98.0439C98.1039 34.083 100.064 32.063 103.004 32.063C105.904 32.063 107.764 33.823 107.764 36.603C107.764 38.663 106.744 40.123 104.184 42.343L101.184 44.943H107.864V46.763ZM113.886 39.303H112.446V38.003L116.546 34.063H110.046V32.323H119.026V33.903L115.066 37.683C117.526 37.983 119.386 39.643 119.386 42.243C119.386 45.163 117.186 47.023 114.246 47.023C111.406 47.023 109.366 45.283 109.366 42.283H111.306C111.306 44.163 112.466 45.263 114.286 45.263C116.166 45.263 117.386 44.063 117.386 42.203C117.386 40.463 116.186 39.303 113.886 39.303Z" fill="#F3F3F3"/>
<path fill-rule="evenodd" clip-rule="evenodd" d="M32 92.7832C36.4183 92.7832 40 89.2015 40 84.7832C40 80.3649 36.4183 76.7832 32 76.7832C27.5817 76.7832 24 80.3649 24 84.7832C24 89.2015 27.5817 92.7832 32 92.7832ZM35.7095 82.4459C35.8913 82.2381 35.8702 81.9222 35.6624 81.7404C35.4546 81.5586 35.1387 81.5796 34.9569 81.7874L30.6421 86.7186L29.0201 85.0965C28.8248 84.9012 28.5082 84.9012 28.313 85.0965C28.1177 85.2917 28.1177 85.6083 28.313 85.8036L30.313 87.8036C30.4108 87.9014 30.5448 87.9544 30.6831 87.9498C30.8215 87.9451 30.9517 87.8834 31.0428 87.7793L35.7095 82.4459Z" fill="#7767F6"/>
<path d="M53.8397 86.6558H50.9117V90.7838H49.3438V79.2158H53.8397C56.1117 79.2158 57.5677 80.7038 57.5677 82.9278C57.5677 85.0878 56.0957 86.6558 53.8397 86.6558ZM53.5677 80.6238H50.9117V85.2478H53.5037C55.0557 85.2478 55.9197 84.3358 55.9197 82.9118C55.9197 81.4558 55.0397 80.6238 53.5677 80.6238ZM64.4958 82.9598H65.9837V90.7838H64.6397L64.4798 89.5998C64.0318 90.4158 62.9917 90.9758 61.8397 90.9758C60.0157 90.9758 58.9917 89.7438 58.9917 87.8238V82.9598H60.4957V87.3278C60.4957 89.0078 61.2157 89.6478 62.3677 89.6478C63.7437 89.6478 64.4958 88.7678 64.4958 87.0878V82.9598ZM67.3697 88.5118H68.8096C68.8096 89.3118 69.4176 89.7918 70.4096 89.7918C71.4656 89.7918 72.0736 89.3598 72.0736 88.6398C72.0736 88.1118 71.8176 87.7918 71.0016 87.5838L69.6256 87.2638C68.2336 86.9278 67.5777 86.2398 67.5777 85.0878C67.5777 83.6478 68.7936 82.7358 70.5216 82.7358C72.2336 82.7358 73.3537 83.6958 73.3857 85.1838H71.9456C71.9136 84.3998 71.3856 83.9038 70.4736 83.9038C69.5296 83.9038 69.0016 84.3198 69.0016 85.0398C69.0016 85.5678 69.3856 85.9198 70.1536 86.1118L71.5296 86.4478C72.8576 86.7678 73.5136 87.3758 73.5136 88.5438C73.5136 90.0318 72.2336 90.9758 70.3776 90.9758C68.5376 90.9758 67.3697 89.9998 67.3697 88.5118ZM76.6855 90.7678H75.1815V79.0078H76.6855V84.1598C77.1815 83.3118 78.1255 82.7358 79.3415 82.7358C81.3415 82.7358 82.3016 83.9998 82.3016 85.9998V90.7838H80.7975V86.3358C80.7975 84.7518 80.0455 84.1118 78.9255 84.1118C77.4695 84.1118 76.6855 85.1678 76.6855 86.5118V90.7678ZM90.5836 90.7838H89.0156V79.2158H90.5836L96.5036 88.1598V79.2158H98.0716V90.7838H96.5036L90.5836 81.8398V90.7838ZM99.9977 86.8638C99.9977 84.4478 101.726 82.7518 104.078 82.7518C106.414 82.7518 108.142 84.4478 108.142 86.8638C108.142 89.2798 106.414 90.9758 104.078 90.9758C101.726 90.9758 99.9977 89.2798 99.9977 86.8638ZM101.518 86.8638C101.518 88.4958 102.558 89.6318 104.078 89.6318C105.582 89.6318 106.638 88.4958 106.638 86.8638C106.638 85.2318 105.582 84.0958 104.078 84.0958C102.558 84.0958 101.518 85.2318 101.518 86.8638ZM111.937 90.7838H110.433V84.2238H108.897V82.9598H110.433V80.5118H111.937V82.9598H113.473V84.2238H111.937V90.7838ZM115.558 81.1038C115.014 81.1038 114.566 80.6558 114.566 80.1118C114.566 79.5518 115.014 79.1198 115.558 79.1198C116.102 79.1198 116.55 79.5518 116.55 80.1118C116.55 80.6558 116.102 81.1038 115.558 81.1038ZM114.822 90.7838V82.9598H116.326V90.7838H114.822ZM123.806 90.7838V84.2238H120.334V90.7838H118.83V84.2238H117.678V82.9598H118.83V81.7118C118.83 79.7918 119.87 79.0078 121.23 79.0078C121.518 79.0078 121.87 79.0238 122.158 79.0718V80.3678H121.486C120.574 80.3678 120.334 80.8638 120.334 81.7118V82.9598H125.31V90.7838H123.806ZM124.558 81.0398C124.014 81.0398 123.598 80.6238 123.598 80.0798C123.598 79.5358 124.014 79.1198 124.558 79.1198C125.086 79.1198 125.502 79.5358 125.502 80.0798C125.502 80.6238 125.086 81.0398 124.558 81.0398ZM126.935 86.8798C126.935 84.4318 128.487 82.7358 130.775 82.7358C132.743 82.7358 134.119 83.8558 134.391 85.5998H132.887C132.631 84.6078 131.831 84.0798 130.823 84.0798C129.399 84.0798 128.423 85.1678 128.423 86.8638C128.423 88.5438 129.335 89.6318 130.759 89.6318C131.831 89.6318 132.631 89.0718 132.903 88.1438H134.407C134.103 89.8398 132.647 90.9758 130.759 90.9758C128.455 90.9758 126.935 89.3438 126.935 86.8798ZM138.282 90.9758C136.602 90.9758 135.61 90.0318 135.61 88.6078C135.61 87.1678 136.682 86.2718 138.522 86.1278L140.986 85.9358V85.7118C140.986 84.3998 140.202 83.9358 139.146 83.9358C137.882 83.9358 137.162 84.4958 137.162 85.4398H135.85C135.85 83.8078 137.194 82.7358 139.21 82.7358C141.146 82.7358 142.458 83.7598 142.458 85.8718V90.7838H141.178L141.018 89.5198C140.618 90.4158 139.546 90.9758 138.282 90.9758ZM138.714 89.8078C140.138 89.8078 141.002 88.8798 141.002 87.4078V86.9918L139.002 87.1518C137.674 87.2798 137.13 87.7918 137.13 88.5598C137.13 89.3918 137.738 89.8078 138.714 89.8078ZM146.624 90.7838H145.12V84.2238H143.584V82.9598H145.12V80.5118H146.624V82.9598H148.16V84.2238H146.624V90.7838ZM150.246 81.1038C149.702 81.1038 149.254 80.6558 149.254 80.1118C149.254 79.5518 149.702 79.1198 150.246 79.1198C150.79 79.1198 151.238 79.5518 151.238 80.1118C151.238 80.6558 150.79 81.1038 150.246 81.1038ZM149.51 90.7838V82.9598H151.014V90.7838H149.51ZM152.685 86.8638C152.685 84.4478 154.413 82.7518 156.765 82.7518C159.101 82.7518 160.829 84.4478 160.829 86.8638C160.829 89.2798 159.101 90.9758 156.765 90.9758C154.413 90.9758 152.685 89.2798 152.685 86.8638ZM154.205 86.8638C154.205 88.4958 155.245 89.6318 156.765 89.6318C158.269 89.6318 159.325 88.4958 159.325 86.8638C159.325 85.2318 158.269 84.0958 156.765 84.0958C155.245 84.0958 154.205 85.2318 154.205 86.8638ZM163.998 90.7838H162.494V82.9598H163.854L164.014 84.1598C164.51 83.2638 165.502 82.7358 166.606 82.7358C168.67 82.7358 169.614 83.9998 169.614 85.9998V90.7838H168.11V86.3358C168.11 84.7518 167.374 84.1118 166.222 84.1118C164.814 84.1118 163.998 85.1198 163.998 86.6398V90.7838ZM170.964 88.5118H172.404C172.404 89.3118 173.012 89.7918 174.004 89.7918C175.06 89.7918 175.668 89.3598 175.668 88.6398C175.668 88.1118 175.412 87.7918 174.596 87.5838L173.22 87.2638C171.828 86.9278 171.172 86.2398 171.172 85.0878C171.172 83.6478 172.388 82.7358 174.116 82.7358C175.828 82.7358 176.948 83.6958 176.98 85.1838H175.54C175.508 84.3998 174.98 83.9038 174.068 83.9038C173.124 83.9038 172.596 84.3198 172.596 85.0398C172.596 85.5678 172.98 85.9198 173.748 86.1118L175.124 86.4478C176.452 86.7678 177.108 87.3758 177.108 88.5438C177.108 90.0318 175.828 90.9758 173.972 90.9758C172.132 90.9758 170.964 89.9998 170.964 88.5118Z" fill="#A0A0A1"/>
<path fill-rule="evenodd" clip-rule="evenodd" d="M32 128.783C36.4183 128.783 40 125.201 40 120.783C40 116.365 36.4183 112.783 32 112.783C27.5817 112.783 24 116.365 24 120.783C24 125.201 27.5817 128.783 32 128.783ZM35.7095 118.446C35.8913 118.238 35.8702 117.922 35.6624 117.74C35.4546 117.558 35.1387 117.579 34.9569 117.787L30.6421 122.718L29.0201 121.096C28.8248 120.901 28.5082 120.901 28.313 121.096C28.1177 121.292 28.1177 121.608 28.313 121.803L30.313 123.803C30.4108 123.901 30.5448 123.954 30.6831 123.95C30.8215 123.945 30.9517 123.883 31.0428 123.779L35.7095 118.446Z" fill="#7767F6"/>
<path d="M50.9117 115.216V126.784H49.3438V115.216H50.9117ZM54.8573 126.784H53.3533V118.96H54.7133L54.8733 120.16C55.3693 119.264 56.3613 118.736 57.4653 118.736C59.5293 118.736 60.4733 120 60.4733 122V126.784H58.9693V122.336C58.9693 120.752 58.2333 120.112 57.0813 120.112C55.6733 120.112 54.8573 121.12 54.8573 122.64V126.784ZM64.7645 126.784H63.2605V120.224H61.7245V118.96H63.2605V116.512H64.7645V118.96H66.3005V120.224H64.7645V126.784ZM70.9482 126.976C68.6442 126.976 67.0602 125.312 67.0602 122.88C67.0602 120.432 68.6121 118.736 70.8841 118.736C73.1081 118.736 74.5641 120.272 74.5641 122.592V123.152L68.5162 123.168C68.6282 124.816 69.4921 125.728 70.9801 125.728C72.1481 125.728 72.9161 125.248 73.1721 124.352H74.5801C74.1961 126.032 72.8842 126.976 70.9482 126.976ZM70.8841 120C69.5721 120 68.7401 120.784 68.5481 122.16H73.0602C73.0602 120.864 72.2121 120 70.8841 120ZM77.78 126.784H76.276V115.008H77.78V126.784ZM79.914 123.216V121.872H84.794V123.216H79.914ZM90.0206 126.976C87.7486 126.976 86.3727 125.28 86.3727 122.896C86.3727 120.496 87.7646 118.736 90.0846 118.736C91.2846 118.736 92.2926 119.264 92.8206 120.224V115.008H94.3086V126.784H92.9646L92.8366 125.36C92.3246 126.432 91.2686 126.976 90.0206 126.976ZM90.3246 125.616C91.8606 125.616 92.8046 124.48 92.8046 122.848C92.8046 121.248 91.8606 120.096 90.3246 120.096C88.7886 120.096 87.8926 121.248 87.8926 122.848C87.8926 124.464 88.7886 125.616 90.3246 125.616ZM100.959 118.896V120.272H100.287C98.8624 120.272 97.9823 121.136 97.9823 122.64V126.784H96.4783V118.976H97.8863L97.9823 120.16C98.3023 119.344 99.0863 118.8 100.159 118.8C100.431 118.8 100.655 118.832 100.959 118.896ZM103.105 117.104C102.561 117.104 102.113 116.656 102.113 116.112C102.113 115.552 102.561 115.12 103.105 115.12C103.649 115.12 104.097 115.552 104.097 116.112C104.097 116.656 103.649 117.104 103.105 117.104ZM102.369 126.784V118.96H103.873V126.784H102.369ZM108.249 126.784L105.097 118.96H106.697L108.409 123.328C108.681 124.064 108.905 124.72 109.033 125.2C109.161 124.688 109.417 124.016 109.689 123.328L111.433 118.96H113.001L109.737 126.784H108.249ZM117.214 126.976C114.91 126.976 113.326 125.312 113.326 122.88C113.326 120.432 114.878 118.736 117.15 118.736C119.374 118.736 120.83 120.272 120.83 122.592V123.152L114.782 123.168C114.894 124.816 115.758 125.728 117.246 125.728C118.414 125.728 119.182 125.248 119.438 124.352H120.846C120.462 126.032 119.15 126.976 117.214 126.976ZM117.15 120C115.838 120 115.006 120.784 114.814 122.16H119.326C119.326 120.864 118.478 120 117.15 120ZM124.014 126.784H122.51V118.96H123.87L124.03 120.16C124.526 119.264 125.518 118.736 126.622 118.736C128.686 118.736 129.63 120 129.63 122V126.784H128.126V122.336C128.126 120.752 127.39 120.112 126.238 120.112C124.83 120.112 124.014 121.12 124.014 122.64V126.784ZM135.672 118.336C135.672 116.352 137.272 115.008 139.656 115.008C141.864 115.008 143.288 116.24 143.416 118.24H141.832C141.752 117.088 140.936 116.416 139.64 116.416C138.184 116.416 137.24 117.152 137.24 118.288C137.24 119.216 137.768 119.776 138.856 120.032L140.76 120.48C142.648 120.912 143.608 121.936 143.608 123.568C143.608 125.648 141.992 126.976 139.528 126.976C137.176 126.976 135.608 125.744 135.512 123.76H137.112C137.144 124.864 138.072 125.568 139.528 125.568C141.064 125.568 142.04 124.848 142.04 123.696C142.04 122.784 141.544 122.208 140.44 121.952L138.536 121.52C136.648 121.088 135.672 120 135.672 118.336ZM147.002 126.784L144.442 118.96H145.994L147.29 123.024C147.466 123.6 147.626 124.192 147.77 124.88C147.898 124.192 148.106 123.536 148.282 123.024L149.594 118.96H151.13L152.426 123.024C152.554 123.408 152.81 124.32 152.938 124.88C153.066 124.256 153.21 123.712 153.434 123.024L154.746 118.96H156.314L153.642 126.784H152.218L150.858 122.592C150.602 121.808 150.442 121.2 150.362 120.768C150.282 121.152 150.138 121.664 149.85 122.608L148.49 126.784H147.002ZM159.532 126.976C157.852 126.976 156.86 126.032 156.86 124.608C156.86 123.168 157.932 122.272 159.772 122.128L162.236 121.936V121.712C162.236 120.4 161.452 119.936 160.396 119.936C159.132 119.936 158.412 120.496 158.412 121.44H157.1C157.1 119.808 158.444 118.736 160.46 118.736C162.396 118.736 163.708 119.76 163.708 121.872V126.784H162.428L162.268 125.52C161.868 126.416 160.796 126.976 159.532 126.976ZM159.964 125.808C161.388 125.808 162.252 124.88 162.252 123.408V122.992L160.252 123.152C158.924 123.28 158.38 123.792 158.38 124.56C158.38 125.392 158.988 125.808 159.964 125.808ZM165.791 130.288V118.96H167.151L167.263 120.368C167.791 119.296 168.847 118.736 170.095 118.736C172.335 118.736 173.727 120.416 173.727 122.816C173.727 125.2 172.415 126.992 170.095 126.992C168.847 126.992 167.807 126.464 167.295 125.504V130.288H165.791ZM167.311 122.88C167.311 124.48 168.239 125.632 169.775 125.632C171.311 125.632 172.223 124.48 172.223 122.88C172.223 121.264 171.311 120.112 169.775 120.112C168.239 120.112 167.311 121.248 167.311 122.88Z" fill="#A0A0A1"/>
<path fill-rule="evenodd" clip-rule="evenodd" d="M32 164.783C36.4183 164.783 40 161.201 40 156.783C40 152.365 36.4183 148.783 32 148.783C27.5817 148.783 24 152.365 24 156.783C24 161.201 27.5817 164.783 32 164.783ZM35.7095 154.446C35.8913 154.238 35.8702 153.922 35.6624 153.74C35.4546 153.558 35.1387 153.579 34.9569 153.787L30.6421 158.718L29.0201 157.096C28.8248 156.901 28.5082 156.901 28.313 157.096C28.1177 157.292 28.1177 157.608 28.313 157.803L30.313 159.803C30.4108 159.901 30.5448 159.954 30.6831 159.95C30.8215 159.945 30.9517 159.883 31.0428 159.779L35.7095 154.446Z" fill="#7767F6"/>
<path d="M48.6717 154.335C48.6717 152.351 50.2717 151.007 52.6557 151.007C54.8637 151.007 56.2877 152.239 56.4157 154.239H54.8317C54.7517 153.087 53.9357 152.415 52.6397 152.415C51.1837 152.415 50.2397 153.151 50.2397 154.287C50.2397 155.215 50.7677 155.775 51.8557 156.031L53.7597 156.479C55.6477 156.911 56.6077 157.935 56.6077 159.567C56.6077 161.647 54.9917 162.975 52.5277 162.975C50.1757 162.975 48.6077 161.743 48.5117 159.759H50.1117C50.1437 160.863 51.0717 161.567 52.5277 161.567C54.0637 161.567 55.0397 160.847 55.0397 159.695C55.0397 158.783 54.5437 158.207 53.4397 157.951L51.5357 157.519C49.6477 157.087 48.6717 155.999 48.6717 154.335ZM60.5301 162.783H59.0261V156.223H57.4901V154.959H59.0261V152.511H60.5301V154.959H62.0661V156.223H60.5301V162.783ZM65.6101 162.975C63.9301 162.975 62.9381 162.031 62.9381 160.607C62.9381 159.167 64.0101 158.271 65.8501 158.127L68.3141 157.935V157.711C68.3141 156.399 67.5301 155.935 66.4741 155.935C65.2101 155.935 64.4901 156.495 64.4901 157.439H63.1781C63.1781 155.807 64.5221 154.735 66.5381 154.735C68.4741 154.735 69.7861 155.759 69.7861 157.871V162.783H68.5061L68.3461 161.519C67.9461 162.415 66.8741 162.975 65.6101 162.975ZM66.0421 161.807C67.4661 161.807 68.3301 160.879 68.3301 159.407V158.991L66.3301 159.151C65.0021 159.279 64.4581 159.791 64.4581 160.559C64.4581 161.391 65.0661 161.807 66.0421 161.807ZM73.405 162.783H71.901V151.007H73.405V158.639L76.877 154.959H78.765L75.773 158.079L78.749 162.783H77.021L74.733 159.167L73.405 160.559V162.783ZM80.73 153.103C80.186 153.103 79.738 152.655 79.738 152.111C79.738 151.551 80.186 151.119 80.73 151.119C81.274 151.119 81.722 151.551 81.722 152.111C81.722 152.655 81.274 153.103 80.73 153.103ZM79.994 162.783V154.959H81.498V162.783H79.994ZM85.1855 162.783H83.6815V154.959H85.0415L85.2015 156.159C85.6975 155.263 86.6895 154.735 87.7935 154.735C89.8575 154.735 90.8015 155.999 90.8015 157.999V162.783H89.2975V158.335C89.2975 156.751 88.5615 156.111 87.4095 156.111C86.0015 156.111 85.1855 157.119 85.1855 158.639V162.783ZM92.3886 158.671C92.3886 156.463 93.8126 154.735 96.0846 154.735C97.3486 154.735 98.3246 155.311 98.8206 156.287L98.9326 154.959H100.277V162.463C100.277 164.927 98.7566 166.495 96.3566 166.495C94.2286 166.495 92.7726 165.295 92.4846 163.311H93.9886C94.1806 164.463 95.0446 165.135 96.3566 165.135C97.8286 165.135 98.7886 164.175 98.7886 162.687V161.119C98.2766 162.031 97.2526 162.575 96.0206 162.575C93.7966 162.575 92.3886 160.863 92.3886 158.671ZM93.8926 158.639C93.8926 160.111 94.8046 161.263 96.2766 161.263C97.7966 161.263 98.7246 160.175 98.7246 158.639C98.7246 157.135 97.8286 156.047 96.2926 156.047C94.7886 156.047 93.8926 157.199 93.8926 158.639ZM107.558 162.783H105.926L110.15 151.215H111.894L116.134 162.783H114.486L113.446 159.903H108.582L107.558 162.783ZM110.822 153.711L109.062 158.543H112.982L111.206 153.711C111.126 153.487 111.046 153.215 111.014 153.039C110.982 153.199 110.902 153.471 110.822 153.711ZM116.78 158.671C116.78 156.463 118.204 154.735 120.476 154.735C121.74 154.735 122.716 155.311 123.212 156.287L123.324 154.959H124.668V162.463C124.668 164.927 123.148 166.495 120.748 166.495C118.62 166.495 117.164 165.295 116.876 163.311H118.38C118.572 164.463 119.436 165.135 120.748 165.135C122.22 165.135 123.18 164.175 123.18 162.687V161.119C122.668 162.031 121.644 162.575 120.411 162.575C118.188 162.575 116.78 160.863 116.78 158.671ZM118.284 158.639C118.284 160.111 119.196 161.263 120.668 161.263C122.188 161.263 123.116 160.175 123.116 158.639C123.116 157.135 122.22 156.047 120.684 156.047C119.18 156.047 118.284 157.199 118.284 158.639ZM126.342 158.671C126.342 156.463 127.766 154.735 130.038 154.735C131.302 154.735 132.278 155.311 132.774 156.287L132.886 154.959H134.23V162.463C134.23 164.927 132.71 166.495 130.31 166.495C128.182 166.495 126.726 165.295 126.438 163.311H127.942C128.134 164.463 128.998 165.135 130.31 165.135C131.782 165.135 132.742 164.175 132.742 162.687V161.119C132.23 162.031 131.206 162.575 129.974 162.575C127.75 162.575 126.342 160.863 126.342 158.671ZM127.846 158.639C127.846 160.111 128.758 161.263 130.23 161.263C131.75 161.263 132.678 160.175 132.678 158.639C132.678 157.135 131.782 156.047 130.246 156.047C128.742 156.047 127.846 157.199 127.846 158.639ZM140.881 154.895V156.271H140.209C138.785 156.271 137.905 157.135 137.905 158.639V162.783H136.401V154.975H137.809L137.905 156.159C138.225 155.343 139.009 154.799 140.081 154.799C140.353 154.799 140.577 154.831 140.881 154.895ZM145.386 162.975C143.082 162.975 141.498 161.311 141.498 158.879C141.498 156.431 143.05 154.735 145.322 154.735C147.546 154.735 149.002 156.271 149.002 158.591V159.151L142.954 159.167C143.066 160.815 143.93 161.727 145.418 161.727C146.586 161.727 147.354 161.247 147.61 160.351H149.018C148.634 162.031 147.322 162.975 145.386 162.975ZM145.322 155.999C144.01 155.999 143.178 156.783 142.986 158.159H147.498C147.498 156.863 146.65 155.999 145.322 155.999ZM155.162 154.895V156.271H154.49C153.066 156.271 152.186 157.135 152.186 158.639V162.783H150.682V154.975H152.09L152.186 156.159C152.506 155.343 153.29 154.799 154.362 154.799C154.634 154.799 154.858 154.831 155.162 154.895ZM158.548 162.975C156.868 162.975 155.876 162.031 155.876 160.607C155.876 159.167 156.948 158.271 158.788 158.127L161.252 157.935V157.711C161.252 156.399 160.468 155.935 159.412 155.935C158.148 155.935 157.428 156.495 157.428 157.439H156.116C156.116 155.807 157.46 154.735 159.476 154.735C161.412 154.735 162.724 155.759 162.724 157.871V162.783H161.444L161.284 161.519C160.884 162.415 159.812 162.975 158.548 162.975ZM158.98 161.807C160.404 161.807 161.268 160.879 161.268 159.407V158.991L159.268 159.151C157.94 159.279 157.396 159.791 157.396 160.559C157.396 161.391 158.004 161.807 158.98 161.807ZM166.89 162.783H165.386V156.223H163.85V154.959H165.386V152.511H166.89V154.959H168.426V156.223H166.89V162.783ZM169.185 158.863C169.185 156.447 170.913 154.751 173.265 154.751C175.601 154.751 177.329 156.447 177.329 158.863C177.329 161.279 175.601 162.975 173.265 162.975C170.913 162.975 169.185 161.279 169.185 158.863ZM170.705 158.863C170.705 160.495 171.745 161.631 173.265 161.631C174.769 161.631 175.825 160.495 175.825 158.863C175.825 157.231 174.769 156.095 173.265 156.095C171.745 156.095 170.705 157.231 170.705 158.863ZM183.474 154.895V156.271H182.802C181.378 156.271 180.498 157.135 180.498 158.639V162.783H178.994V154.975H180.402L180.498 156.159C180.818 155.343 181.602 154.799 182.674 154.799C182.946 154.799 183.17 154.831 183.474 154.895ZM192.636 165.551H191.388C189.916 163.711 188.94 160.927 188.94 158.031C188.94 155.311 189.82 152.463 191.388 150.527H192.636C191.372 152.287 190.476 155.039 190.476 158.031C190.476 160.863 191.276 163.679 192.636 165.551ZM193.313 154.335C193.313 152.351 194.913 151.007 197.297 151.007C199.505 151.007 200.929 152.239 201.057 154.239H199.473C199.393 153.087 198.577 152.415 197.281 152.415C195.825 152.415 194.881 153.151 194.881 154.287C194.881 155.215 195.409 155.775 196.497 156.031L198.401 156.479C200.289 156.911 201.249 157.935 201.249 159.567C201.249 161.647 199.633 162.975 197.169 162.975C194.817 162.975 193.249 161.743 193.153 159.759H194.753C194.785 160.863 195.713 161.567 197.169 161.567C198.705 161.567 199.681 160.847 199.681 159.695C199.681 158.783 199.185 158.207 198.081 157.951L196.177 157.519C194.289 157.087 193.313 155.999 193.313 154.335ZM208.371 154.959H209.859V162.783H208.515L208.355 161.599C207.907 162.415 206.867 162.975 205.715 162.975C203.891 162.975 202.867 161.743 202.867 159.823V154.959H204.371V159.327C204.371 161.007 205.091 161.647 206.243 161.647C207.619 161.647 208.371 160.767 208.371 159.087V154.959ZM212.777 153.103C212.233 153.103 211.785 152.655 211.785 152.111C211.785 151.551 212.233 151.119 212.777 151.119C213.321 151.119 213.769 151.551 213.769 152.111C213.769 152.655 213.321 153.103 212.777 153.103ZM212.041 162.783V154.959H213.545V162.783H212.041ZM216.045 165.551H214.781C216.141 163.679 216.941 160.863 216.941 158.031C216.941 155.039 216.061 152.287 214.781 150.527H216.045C217.597 152.463 218.477 155.311 218.477 158.031C218.477 160.927 217.501 163.711 216.045 165.551Z" fill="#A0A0A1"/>
<path fill-rule="evenodd" clip-rule="evenodd" d="M32 200.783C36.4183 200.783 40 197.201 40 192.783C40 188.365 36.4183 184.783 32 184.783C27.5817 184.783 24 188.365 24 192.783C24 197.201 27.5817 200.783 32 200.783ZM35.7095 190.446C35.8913 190.238 35.8702 189.922 35.6624 189.74C35.4546 189.558 35.1387 189.579 34.9569 189.787L30.6421 194.718L29.0201 193.096C28.8248 192.901 28.5082 192.901 28.313 193.096C28.1177 193.292 28.1177 193.608 28.313 193.803L30.313 195.803C30.4108 195.901 30.5448 195.954 30.6831 195.95C30.8215 195.945 30.9517 195.883 31.0428 195.779L35.7095 190.446Z" fill="#7767F6"/>
<path d="M54.1443 198.959C50.8483 198.959 48.6562 196.591 48.6562 193.007C48.6562 189.439 50.9123 187.023 54.2243 187.023C56.8323 187.023 58.8323 188.575 59.2643 190.943H57.5843C57.1523 189.439 55.8563 188.527 54.1763 188.527C51.8403 188.527 50.3043 190.287 50.3043 192.991C50.3043 195.695 51.8403 197.455 54.1763 197.455C55.8723 197.455 57.2163 196.543 57.6483 195.119H59.3123C58.8163 197.423 56.7523 198.959 54.1443 198.959ZM63.1107 198.975C61.4307 198.975 60.4387 198.031 60.4387 196.607C60.4387 195.167 61.5107 194.271 63.3507 194.127L65.8147 193.935V193.711C65.8147 192.399 65.0307 191.935 63.9747 191.935C62.7107 191.935 61.9907 192.495 61.9907 193.439H60.6786C60.6786 191.807 62.0227 190.735 64.0387 190.735C65.9747 190.735 67.2867 191.759 67.2867 193.871V198.783H66.0067L65.8466 197.519C65.4466 198.415 64.3747 198.975 63.1107 198.975ZM63.5427 197.807C64.9667 197.807 65.8307 196.879 65.8307 195.407V194.991L63.8307 195.151C62.5027 195.279 61.9587 195.791 61.9587 196.559C61.9587 197.391 62.5667 197.807 63.5427 197.807ZM68.7296 196.511H70.1695C70.1695 197.311 70.7776 197.791 71.7696 197.791C72.8256 197.791 73.4335 197.359 73.4335 196.639C73.4335 196.111 73.1775 195.791 72.3615 195.583L70.9855 195.263C69.5935 194.927 68.9376 194.239 68.9376 193.087C68.9376 191.647 70.1536 190.735 71.8816 190.735C73.5936 190.735 74.7136 191.695 74.7456 193.183H73.3055C73.2735 192.399 72.7455 191.903 71.8335 191.903C70.8895 191.903 70.3615 192.319 70.3615 193.039C70.3615 193.567 70.7455 193.919 71.5135 194.111L72.8895 194.447C74.2175 194.767 74.8736 195.375 74.8736 196.543C74.8736 198.031 73.5935 198.975 71.7375 198.975C69.8975 198.975 68.7296 197.999 68.7296 196.511ZM78.0453 198.767H76.5414V187.007H78.0453V192.159C78.5413 191.311 79.4854 190.735 80.7014 190.735C82.7014 190.735 83.6614 191.999 83.6614 193.999V198.783H82.1573V194.335C82.1573 192.751 81.4054 192.111 80.2854 192.111C78.8294 192.111 78.0453 193.167 78.0453 194.511V198.767ZM92.4006 198.783H90.9126V192.223H87.5686V198.783H86.0646V192.223H84.9126V190.959H86.0646V189.711C86.0646 187.791 87.0886 187.007 88.4486 187.007C88.7366 187.007 89.0725 187.023 89.3765 187.071V188.367H88.7046C87.7926 188.367 87.5686 188.863 87.5686 189.711V190.959H90.9126V187.007H92.4006V198.783ZM94.0919 194.863C94.0919 192.447 95.8199 190.751 98.1719 190.751C100.508 190.751 102.236 192.447 102.236 194.863C102.236 197.279 100.508 198.975 98.1719 198.975C95.8199 198.975 94.0919 197.279 94.0919 194.863ZM95.6119 194.863C95.6119 196.495 96.6519 197.631 98.1719 197.631C99.6759 197.631 100.732 196.495 100.732 194.863C100.732 193.231 99.6759 192.095 98.1719 192.095C96.6519 192.095 95.6119 193.231 95.6119 194.863ZM105.221 198.783L102.661 190.959H104.213L105.509 195.023C105.685 195.599 105.845 196.191 105.989 196.879C106.117 196.191 106.325 195.535 106.501 195.023L107.813 190.959H109.349L110.645 195.023C110.773 195.407 111.029 196.319 111.157 196.879C111.285 196.255 111.429 195.711 111.653 195.023L112.965 190.959H114.533L111.861 198.783H110.437L109.077 194.591C108.821 193.807 108.661 193.199 108.581 192.767C108.501 193.151 108.357 193.663 108.069 194.607L106.709 198.783H105.221ZM121.989 198.783H120.453V187.215H121.989L125.973 196.943L129.957 187.215H131.525V198.783H129.989V194.207C129.989 192.047 130.005 191.263 130.085 190.447L126.709 198.783H125.237L121.877 190.479C121.957 191.039 121.989 192.223 121.989 193.839V198.783ZM136.251 198.975C134.571 198.975 133.579 198.031 133.579 196.607C133.579 195.167 134.651 194.271 136.491 194.127L138.955 193.935V193.711C138.955 192.399 138.171 191.935 137.115 191.935C135.851 191.935 135.131 192.495 135.131 193.439H133.819C133.819 191.807 135.163 190.735 137.179 190.735C139.115 190.735 140.427 191.759 140.427 193.871V198.783H139.147L138.987 197.519C138.587 198.415 137.515 198.975 136.251 198.975ZM136.683 197.807C138.107 197.807 138.971 196.879 138.971 195.407V194.991L136.971 195.151C135.643 195.279 135.099 195.791 135.099 196.559C135.099 197.391 135.707 197.807 136.683 197.807ZM144.014 198.783H142.51V190.959H143.87L144.03 192.159C144.526 191.263 145.518 190.735 146.622 190.735C148.686 190.735 149.63 191.999 149.63 193.999V198.783H148.126V194.335C148.126 192.751 147.39 192.111 146.238 192.111C144.83 192.111 144.014 193.119 144.014 194.639V198.783ZM154.001 198.975C152.321 198.975 151.329 198.031 151.329 196.607C151.329 195.167 152.401 194.271 154.241 194.127L156.705 193.935V193.711C156.705 192.399 155.921 191.935 154.865 191.935C153.601 191.935 152.881 192.495 152.881 193.439H151.569C151.569 191.807 152.913 190.735 154.929 190.735C156.865 190.735 158.177 191.759 158.177 193.871V198.783H156.897L156.737 197.519C156.337 198.415 155.265 198.975 154.001 198.975ZM154.433 197.807C155.857 197.807 156.721 196.879 156.721 195.407V194.991L154.721 195.151C153.393 195.279 152.849 195.791 152.849 196.559C152.849 197.391 153.457 197.807 154.433 197.807ZM159.764 194.671C159.764 192.463 161.188 190.735 163.46 190.735C164.724 190.735 165.7 191.311 166.196 192.287L166.308 190.959H167.652V198.463C167.652 200.927 166.132 202.495 163.732 202.495C161.604 202.495 160.148 201.295 159.86 199.311H161.364C161.556 200.463 162.42 201.135 163.732 201.135C165.204 201.135 166.164 200.175 166.164 198.687V197.119C165.652 198.031 164.628 198.575 163.396 198.575C161.172 198.575 159.764 196.863 159.764 194.671ZM161.268 194.639C161.268 196.111 162.18 197.263 163.652 197.263C165.172 197.263 166.1 196.175 166.1 194.639C166.1 193.135 165.204 192.047 163.668 192.047C162.164 192.047 161.268 193.199 161.268 194.639ZM173.198 198.975C170.894 198.975 169.31 197.311 169.31 194.879C169.31 192.431 170.862 190.735 173.134 190.735C175.358 190.735 176.814 192.271 176.814 194.591V195.151L170.766 195.167C170.878 196.815 171.742 197.727 173.23 197.727C174.398 197.727 175.166 197.247 175.422 196.351H176.83C176.446 198.031 175.134 198.975 173.198 198.975ZM173.134 191.999C171.822 191.999 170.99 192.783 170.798 194.159H175.31C175.31 192.863 174.462 191.999 173.134 191.999ZM179.998 198.783H178.494V190.959H179.838L179.982 191.983C180.382 191.247 181.214 190.735 182.318 190.735C183.534 190.735 184.398 191.343 184.798 192.319C185.166 191.343 186.11 190.735 187.326 190.735C189.118 190.735 190.206 191.855 190.206 193.663V198.783H188.734V194.031C188.734 192.799 188.046 192.095 186.99 192.095C185.854 192.095 185.102 192.895 185.102 194.143V198.783H183.614V194.015C183.614 192.783 182.942 192.111 181.886 192.111C180.75 192.111 179.998 192.895 179.998 194.143V198.783ZM195.667 198.975C193.363 198.975 191.779 197.311 191.779 194.879C191.779 192.431 193.331 190.735 195.603 190.735C197.827 190.735 199.283 192.271 199.283 194.591V195.151L193.235 195.167C193.347 196.815 194.211 197.727 195.699 197.727C196.867 197.727 197.635 197.247 197.891 196.351H199.299C198.915 198.031 197.603 198.975 195.667 198.975ZM195.603 191.999C194.291 191.999 193.459 192.783 193.267 194.159H197.779C197.779 192.863 196.931 191.999 195.603 191.999ZM202.467 198.783H200.963V190.959H202.323L202.483 192.159C202.979 191.263 203.971 190.735 205.075 190.735C207.139 190.735 208.083 191.999 208.083 193.999V198.783H206.579V194.335C206.579 192.751 205.843 192.111 204.691 192.111C203.283 192.111 202.467 193.119 202.467 194.639V198.783ZM212.374 198.783H210.87V192.223H209.334V190.959H210.87V188.511H212.374V190.959H213.91V192.223H212.374V198.783ZM223.011 201.551H221.763C220.291 199.711 219.315 196.927 219.315 194.031C219.315 191.311 220.195 188.463 221.763 186.527H223.011C221.747 188.287 220.851 191.039 220.851 194.031C220.851 196.863 221.651 199.679 223.011 201.551ZM224.84 198.783H223.208L227.432 187.215H229.176L233.416 198.783H231.768L230.728 195.903H225.864L224.84 198.783ZM228.104 189.711L226.344 194.543H230.264L228.488 189.711C228.408 189.487 228.328 189.215 228.296 189.039C228.264 189.199 228.184 189.471 228.104 189.711ZM236.233 198.783H234.729V187.007H236.233V198.783ZM239.983 198.783H238.479V187.007H239.983V198.783ZM253.884 198.783H246.828V187.215H253.884V188.655H248.396V192.271H253.34V193.663H248.396V197.327H253.884V198.783ZM259.373 198.783L254.973 187.215H256.653L259.469 194.607C259.725 195.263 259.949 195.919 260.189 196.783C260.461 195.871 260.733 195.103 260.925 194.591L263.725 187.215H265.357L261.005 198.783H259.373ZM268.396 198.783H266.86V187.215H268.396L272.38 196.943L276.364 187.215H277.932V198.783H276.396V194.207C276.396 192.047 276.412 191.263 276.492 190.447L273.116 198.783H271.644L268.284 190.479C268.364 191.039 268.396 192.223 268.396 193.839V198.783ZM280.545 201.551H279.281C280.641 199.679 281.441 196.863 281.441 194.031C281.441 191.039 280.561 188.287 279.281 186.527H280.545C282.097 188.463 282.977 191.311 282.977 194.031C282.977 196.927 282.001 199.711 280.545 201.551Z" fill="#A0A0A1"/>
</g>
<defs>
<linearGradient id="paint0_linear_10312_10611" x1="99.0133" y1="73.8142" x2="39.8851" y2="79.9089" gradientUnits="userSpaceOnUse">
<stop offset="0.0833333" stop-color="#FAE2B6"/>
<stop offset="0.630208" stop-color="#EF90B8"/>
<stop offset="0.958333" stop-color="#B684F0"/>
</linearGradient>
<clipPath id="clip0_10312_10611">
<rect width="308" height="288" fill="white" transform="translate(0 0.783203)"/>
</clipPath>
</defs>
</svg>
