<svg width="327" height="212" viewBox="0 0 327 212" fill="none" xmlns="http://www.w3.org/2000/svg">
<rect x="0.5" y="0.5" width="307" height="211" rx="19.5" fill="#252238"/>
<rect x="0.5" y="0.5" width="307" height="211" rx="19.5" stroke="url(#paint0_linear_10085_39660)"/>
<path d="M37.08 38.96L35.52 37.2C34.44 37.86 33.16 38.24 31.74 38.24C27.66 38.24 24.82 35.16 24.82 30.76C24.82 26.38 27.68 23.28 31.76 23.28C35.86 23.28 38.72 26.36 38.72 30.76C38.72 32.92 38.02 34.76 36.84 36.08L38.36 37.8L37.08 38.96ZM36.66 30.76C36.66 27.4 34.7 25.18 31.76 25.18C28.82 25.18 26.88 27.4 26.88 30.76C26.88 34.12 28.82 36.36 31.76 36.36C32.68 36.36 33.5 36.14 34.2 35.72L32.3 33.58L33.58 32.42L35.5 34.58C36.24 33.62 36.66 32.3 36.66 30.76ZM51.3069 35.08H49.5869V38H47.7069V35.08H40.2269V33.34L47.0469 23.54H49.5869V33.34H51.3069V35.08ZM42.3469 33.34H47.7069V25.62L42.3469 33.34ZM58.9905 33.54V31.86H65.0905V33.54H58.9905ZM82.4925 37.98L72.7325 38V36.5L77.3925 32.48C79.7325 30.46 80.3925 29.48 80.3925 27.94C80.3925 26.12 79.3525 25.04 77.6125 25.04C75.8325 25.04 74.6725 26.34 74.6325 28.4H72.6725C72.7325 25.3 74.6925 23.28 77.6325 23.28C80.5325 23.28 82.3925 25.04 82.3925 27.82C82.3925 29.88 81.3725 31.34 78.8125 33.56L75.8125 36.16H82.4925V37.98ZM84.2964 30.78C84.2964 26.3 86.6164 23.26 90.2564 23.26C93.8764 23.26 96.1964 26.3 96.1964 30.78C96.1964 35.28 93.9764 38.26 90.2564 38.26C86.5164 38.26 84.2964 35.28 84.2964 30.78ZM86.2364 30.78C86.2364 34.34 87.7164 36.5 90.2564 36.5C92.7964 36.5 94.2564 34.34 94.2564 30.78C94.2564 27.18 92.7964 25.02 90.2564 25.02C87.7164 25.02 86.2364 27.18 86.2364 30.78ZM107.864 37.98L98.1036 38V36.5L102.764 32.48C105.104 30.46 105.764 29.48 105.764 27.94C105.764 26.12 104.724 25.04 102.984 25.04C101.204 25.04 100.044 26.34 100.004 28.4H98.0436C98.1036 25.3 100.064 23.28 103.004 23.28C105.904 23.28 107.764 25.04 107.764 27.82C107.764 29.88 106.744 31.34 104.184 33.56L101.184 36.16H107.864V37.98ZM113.886 30.52H112.446V29.22L116.546 25.28H110.046V23.54H119.026V25.12L115.066 28.9C117.526 29.2 119.386 30.86 119.386 33.46C119.386 36.38 117.186 38.24 114.246 38.24C111.406 38.24 109.366 36.5 109.366 33.5H111.306C111.306 35.38 112.466 36.48 114.286 36.48C116.166 36.48 117.386 35.28 117.386 33.42C117.386 31.68 116.186 30.52 113.886 30.52Z" fill="#F3F3F3"/>
<path fill-rule="evenodd" clip-rule="evenodd" d="M32 84C36.4183 84 40 80.4183 40 76C40 71.5817 36.4183 68 32 68C27.5817 68 24 71.5817 24 76C24 80.4183 27.5817 84 32 84ZM35.7095 73.6627C35.8913 73.4549 35.8702 73.139 35.6624 72.9572C35.4546 72.7754 35.1387 72.7964 34.9569 73.0042L30.6421 77.9354L29.0201 76.3133C28.8248 76.118 28.5082 76.118 28.313 76.3133C28.1177 76.5085 28.1177 76.8251 28.313 77.0204L30.313 79.0204C30.4108 79.1182 30.5448 79.1712 30.6831 79.1666C30.8215 79.1619 30.9517 79.1002 31.0428 78.9961L35.7095 73.6627Z" fill="#7767F6"/>
<path d="M53.84 77.872H50.912V82H49.344V70.432H53.84C56.112 70.432 57.568 71.92 57.568 74.144C57.568 76.304 56.096 77.872 53.84 77.872ZM53.568 71.84H50.912V76.464H53.504C55.056 76.464 55.92 75.552 55.92 74.128C55.92 72.672 55.04 71.84 53.568 71.84ZM64.496 74.176H65.984V82H64.64L64.48 80.816C64.032 81.632 62.992 82.192 61.84 82.192C60.016 82.192 58.992 80.96 58.992 79.04V74.176H60.496V78.544C60.496 80.224 61.216 80.864 62.368 80.864C63.744 80.864 64.496 79.984 64.496 78.304V74.176ZM67.3699 79.728H68.8099C68.8099 80.528 69.4179 81.008 70.4099 81.008C71.4659 81.008 72.0739 80.576 72.0739 79.856C72.0739 79.328 71.8179 79.008 71.0019 78.8L69.6259 78.48C68.2339 78.144 67.5779 77.456 67.5779 76.304C67.5779 74.864 68.7939 73.952 70.5219 73.952C72.2339 73.952 73.3539 74.912 73.3859 76.4H71.9459C71.9139 75.616 71.3859 75.12 70.4739 75.12C69.5299 75.12 69.0019 75.536 69.0019 76.256C69.0019 76.784 69.3859 77.136 70.1539 77.328L71.5299 77.664C72.8579 77.984 73.5139 78.592 73.5139 79.76C73.5139 81.248 72.2339 82.192 70.3779 82.192C68.5379 82.192 67.3699 81.216 67.3699 79.728ZM76.6858 81.984H75.1818V70.224H76.6858V75.376C77.1818 74.528 78.1258 73.952 79.3418 73.952C81.3418 73.952 82.3018 75.216 82.3018 77.216V82H80.7978V77.552C80.7978 75.968 80.0458 75.328 78.9258 75.328C77.4698 75.328 76.6858 76.384 76.6858 77.728V81.984ZM90.5839 82H89.0159V70.432H90.5839L96.5039 79.376V70.432H98.0719V82H96.5039L90.5839 73.056V82ZM99.9979 78.08C99.9979 75.664 101.726 73.968 104.078 73.968C106.414 73.968 108.142 75.664 108.142 78.08C108.142 80.496 106.414 82.192 104.078 82.192C101.726 82.192 99.9979 80.496 99.9979 78.08ZM101.518 78.08C101.518 79.712 102.558 80.848 104.078 80.848C105.582 80.848 106.638 79.712 106.638 78.08C106.638 76.448 105.582 75.312 104.078 75.312C102.558 75.312 101.518 76.448 101.518 78.08ZM111.937 82H110.433V75.44H108.897V74.176H110.433V71.728H111.937V74.176H113.473V75.44H111.937V82ZM115.558 72.32C115.014 72.32 114.566 71.872 114.566 71.328C114.566 70.768 115.014 70.336 115.558 70.336C116.102 70.336 116.55 70.768 116.55 71.328C116.55 71.872 116.102 72.32 115.558 72.32ZM114.822 82V74.176H116.326V82H114.822ZM123.806 82V75.44H120.334V82H118.83V75.44H117.678V74.176H118.83V72.928C118.83 71.008 119.87 70.224 121.23 70.224C121.518 70.224 121.87 70.24 122.158 70.288V71.584H121.486C120.574 71.584 120.334 72.08 120.334 72.928V74.176H125.31V82H123.806ZM124.558 72.256C124.014 72.256 123.598 71.84 123.598 71.296C123.598 70.752 124.014 70.336 124.558 70.336C125.086 70.336 125.502 70.752 125.502 71.296C125.502 71.84 125.086 72.256 124.558 72.256ZM126.935 78.096C126.935 75.648 128.487 73.952 130.775 73.952C132.743 73.952 134.119 75.072 134.391 76.816H132.887C132.631 75.824 131.831 75.296 130.823 75.296C129.399 75.296 128.423 76.384 128.423 78.08C128.423 79.76 129.335 80.848 130.759 80.848C131.831 80.848 132.631 80.288 132.903 79.36H134.407C134.103 81.056 132.647 82.192 130.759 82.192C128.455 82.192 126.935 80.56 126.935 78.096ZM138.282 82.192C136.602 82.192 135.61 81.248 135.61 79.824C135.61 78.384 136.682 77.488 138.522 77.344L140.986 77.152V76.928C140.986 75.616 140.202 75.152 139.146 75.152C137.882 75.152 137.162 75.712 137.162 76.656H135.85C135.85 75.024 137.194 73.952 139.21 73.952C141.146 73.952 142.458 74.976 142.458 77.088V82H141.178L141.018 80.736C140.618 81.632 139.546 82.192 138.282 82.192ZM138.714 81.024C140.138 81.024 141.002 80.096 141.002 78.624V78.208L139.002 78.368C137.674 78.496 137.13 79.008 137.13 79.776C137.13 80.608 137.738 81.024 138.714 81.024ZM146.624 82H145.12V75.44H143.584V74.176H145.12V71.728H146.624V74.176H148.16V75.44H146.624V82ZM150.246 72.32C149.702 72.32 149.254 71.872 149.254 71.328C149.254 70.768 149.702 70.336 150.246 70.336C150.79 70.336 151.238 70.768 151.238 71.328C151.238 71.872 150.79 72.32 150.246 72.32ZM149.51 82V74.176H151.014V82H149.51ZM152.685 78.08C152.685 75.664 154.413 73.968 156.765 73.968C159.101 73.968 160.829 75.664 160.829 78.08C160.829 80.496 159.101 82.192 156.765 82.192C154.413 82.192 152.685 80.496 152.685 78.08ZM154.205 78.08C154.205 79.712 155.245 80.848 156.765 80.848C158.269 80.848 159.325 79.712 159.325 78.08C159.325 76.448 158.269 75.312 156.765 75.312C155.245 75.312 154.205 76.448 154.205 78.08ZM163.998 82H162.494V74.176H163.854L164.014 75.376C164.51 74.48 165.502 73.952 166.606 73.952C168.67 73.952 169.614 75.216 169.614 77.216V82H168.11V77.552C168.11 75.968 167.374 75.328 166.222 75.328C164.814 75.328 163.998 76.336 163.998 77.856V82ZM170.964 79.728H172.404C172.404 80.528 173.012 81.008 174.004 81.008C175.06 81.008 175.668 80.576 175.668 79.856C175.668 79.328 175.412 79.008 174.596 78.8L173.22 78.48C171.828 78.144 171.172 77.456 171.172 76.304C171.172 74.864 172.388 73.952 174.116 73.952C175.828 73.952 176.948 74.912 176.98 76.4H175.54C175.508 75.616 174.98 75.12 174.068 75.12C173.124 75.12 172.596 75.536 172.596 76.256C172.596 76.784 172.98 77.136 173.748 77.328L175.124 77.664C176.452 77.984 177.108 78.592 177.108 79.76C177.108 81.248 175.828 82.192 173.972 82.192C172.132 82.192 170.964 81.216 170.964 79.728Z" fill="#A0A0A1"/>
<path fill-rule="evenodd" clip-rule="evenodd" d="M32 120C36.4183 120 40 116.418 40 112C40 107.582 36.4183 104 32 104C27.5817 104 24 107.582 24 112C24 116.418 27.5817 120 32 120ZM35.7095 109.663C35.8913 109.455 35.8702 109.139 35.6624 108.957C35.4546 108.775 35.1387 108.796 34.9569 109.004L30.6421 113.935L29.0201 112.313C28.8248 112.118 28.5082 112.118 28.313 112.313C28.1177 112.509 28.1177 112.825 28.313 113.02L30.313 115.02C30.4108 115.118 30.5448 115.171 30.6831 115.167C30.8215 115.162 30.9517 115.1 31.0428 114.996L35.7095 109.663Z" fill="#7767F6"/>
<path d="M50.912 106.432V118H49.344V106.432H50.912ZM54.8576 118H53.3536V110.176H54.7136L54.8736 111.376C55.3696 110.48 56.3616 109.952 57.4656 109.952C59.5296 109.952 60.4736 111.216 60.4736 113.216V118H58.9696V113.552C58.9696 111.968 58.2336 111.328 57.0816 111.328C55.6736 111.328 54.8576 112.336 54.8576 113.856V118ZM64.7648 118H63.2608V111.44H61.7248V110.176H63.2608V107.728H64.7648V110.176H66.3008V111.44H64.7648V118ZM70.9484 118.192C68.6444 118.192 67.0604 116.528 67.0604 114.096C67.0604 111.648 68.6124 109.952 70.8844 109.952C73.1084 109.952 74.5644 111.488 74.5644 113.808V114.368L68.5164 114.384C68.6284 116.032 69.4924 116.944 70.9804 116.944C72.1484 116.944 72.9164 116.464 73.1724 115.568H74.5804C74.1964 117.248 72.8844 118.192 70.9484 118.192ZM70.8844 111.216C69.5724 111.216 68.7404 112 68.5484 113.376H73.0604C73.0604 112.08 72.2124 111.216 70.8844 111.216ZM77.7803 118H76.2763V106.224H77.7803V118ZM79.9143 114.432V113.088H84.7943V114.432H79.9143ZM90.0209 118.192C87.7489 118.192 86.3729 116.496 86.3729 114.112C86.3729 111.712 87.7649 109.952 90.0849 109.952C91.2849 109.952 92.2929 110.48 92.8209 111.44V106.224H94.3089V118H92.9649L92.8369 116.576C92.3249 117.648 91.2689 118.192 90.0209 118.192ZM90.3249 116.832C91.8609 116.832 92.8049 115.696 92.8049 114.064C92.8049 112.464 91.8609 111.312 90.3249 111.312C88.7889 111.312 87.8929 112.464 87.8929 114.064C87.8929 115.68 88.7889 116.832 90.3249 116.832ZM100.959 110.112V111.488H100.287C98.8626 111.488 97.9826 112.352 97.9826 113.856V118H96.4786V110.192H97.8866L97.9826 111.376C98.3026 110.56 99.0866 110.016 100.159 110.016C100.431 110.016 100.655 110.048 100.959 110.112ZM103.105 108.32C102.561 108.32 102.113 107.872 102.113 107.328C102.113 106.768 102.561 106.336 103.105 106.336C103.649 106.336 104.097 106.768 104.097 107.328C104.097 107.872 103.649 108.32 103.105 108.32ZM102.369 118V110.176H103.873V118H102.369ZM108.249 118L105.097 110.176H106.697L108.409 114.544C108.681 115.28 108.905 115.936 109.033 116.416C109.161 115.904 109.417 115.232 109.689 114.544L111.433 110.176H113.001L109.737 118H108.249ZM117.214 118.192C114.91 118.192 113.326 116.528 113.326 114.096C113.326 111.648 114.878 109.952 117.15 109.952C119.374 109.952 120.83 111.488 120.83 113.808V114.368L114.782 114.384C114.894 116.032 115.758 116.944 117.246 116.944C118.414 116.944 119.182 116.464 119.438 115.568H120.846C120.462 117.248 119.15 118.192 117.214 118.192ZM117.15 111.216C115.838 111.216 115.006 112 114.814 113.376H119.326C119.326 112.08 118.478 111.216 117.15 111.216ZM124.014 118H122.51V110.176H123.87L124.03 111.376C124.526 110.48 125.518 109.952 126.622 109.952C128.686 109.952 129.63 111.216 129.63 113.216V118H128.126V113.552C128.126 111.968 127.39 111.328 126.238 111.328C124.83 111.328 124.014 112.336 124.014 113.856V118ZM135.672 109.552C135.672 107.568 137.272 106.224 139.656 106.224C141.864 106.224 143.288 107.456 143.416 109.456H141.832C141.752 108.304 140.936 107.632 139.64 107.632C138.184 107.632 137.24 108.368 137.24 109.504C137.24 110.432 137.768 110.992 138.856 111.248L140.76 111.696C142.648 112.128 143.608 113.152 143.608 114.784C143.608 116.864 141.992 118.192 139.528 118.192C137.176 118.192 135.608 116.96 135.512 114.976H137.112C137.144 116.08 138.072 116.784 139.528 116.784C141.064 116.784 142.04 116.064 142.04 114.912C142.04 114 141.544 113.424 140.44 113.168L138.536 112.736C136.648 112.304 135.672 111.216 135.672 109.552ZM147.002 118L144.442 110.176H145.994L147.29 114.24C147.466 114.816 147.626 115.408 147.77 116.096C147.898 115.408 148.106 114.752 148.282 114.24L149.594 110.176H151.13L152.426 114.24C152.554 114.624 152.81 115.536 152.938 116.096C153.066 115.472 153.21 114.928 153.434 114.24L154.746 110.176H156.314L153.642 118H152.218L150.858 113.808C150.602 113.024 150.442 112.416 150.362 111.984C150.282 112.368 150.138 112.88 149.85 113.824L148.49 118H147.002ZM159.532 118.192C157.852 118.192 156.86 117.248 156.86 115.824C156.86 114.384 157.932 113.488 159.772 113.344L162.236 113.152V112.928C162.236 111.616 161.452 111.152 160.396 111.152C159.132 111.152 158.412 111.712 158.412 112.656H157.1C157.1 111.024 158.444 109.952 160.46 109.952C162.396 109.952 163.708 110.976 163.708 113.088V118H162.428L162.268 116.736C161.868 117.632 160.796 118.192 159.532 118.192ZM159.964 117.024C161.388 117.024 162.252 116.096 162.252 114.624V114.208L160.252 114.368C158.924 114.496 158.38 115.008 158.38 115.776C158.38 116.608 158.988 117.024 159.964 117.024ZM165.791 121.504V110.176H167.151L167.263 111.584C167.791 110.512 168.847 109.952 170.095 109.952C172.335 109.952 173.727 111.632 173.727 114.032C173.727 116.416 172.415 118.208 170.095 118.208C168.847 118.208 167.807 117.68 167.295 116.72V121.504H165.791ZM167.311 114.096C167.311 115.696 168.239 116.848 169.775 116.848C171.311 116.848 172.223 115.696 172.223 114.096C172.223 112.48 171.311 111.328 169.775 111.328C168.239 111.328 167.311 112.464 167.311 114.096Z" fill="#A0A0A1"/>
<path fill-rule="evenodd" clip-rule="evenodd" d="M32 156C36.4183 156 40 152.418 40 148C40 143.582 36.4183 140 32 140C27.5817 140 24 143.582 24 148C24 152.418 27.5817 156 32 156ZM35.7095 145.663C35.8913 145.455 35.8702 145.139 35.6624 144.957C35.4546 144.775 35.1387 144.796 34.9569 145.004L30.6421 149.935L29.0201 148.313C28.8248 148.118 28.5082 148.118 28.313 148.313C28.1177 148.509 28.1177 148.825 28.313 149.02L30.313 151.02C30.4108 151.118 30.5448 151.171 30.6831 151.167C30.8215 151.162 30.9517 151.1 31.0428 150.996L35.7095 145.663Z" fill="#7767F6"/>
<path d="M48.672 145.552C48.672 143.568 50.272 142.224 52.656 142.224C54.864 142.224 56.288 143.456 56.416 145.456H54.832C54.752 144.304 53.936 143.632 52.64 143.632C51.184 143.632 50.24 144.368 50.24 145.504C50.24 146.432 50.768 146.992 51.856 147.248L53.76 147.696C55.648 148.128 56.608 149.152 56.608 150.784C56.608 152.864 54.992 154.192 52.528 154.192C50.176 154.192 48.608 152.96 48.512 150.976H50.112C50.144 152.08 51.072 152.784 52.528 152.784C54.064 152.784 55.04 152.064 55.04 150.912C55.04 150 54.544 149.424 53.44 149.168L51.536 148.736C49.648 148.304 48.672 147.216 48.672 145.552ZM60.5304 154H59.0264V147.44H57.4904V146.176H59.0264V143.728H60.5304V146.176H62.0664V147.44H60.5304V154ZM65.6104 154.192C63.9304 154.192 62.9384 153.248 62.9384 151.824C62.9384 150.384 64.0104 149.488 65.8504 149.344L68.3144 149.152V148.928C68.3144 147.616 67.5304 147.152 66.4744 147.152C65.2104 147.152 64.4904 147.712 64.4904 148.656H63.1784C63.1784 147.024 64.5224 145.952 66.5384 145.952C68.4744 145.952 69.7864 146.976 69.7864 149.088V154H68.5064L68.3464 152.736C67.9464 153.632 66.8744 154.192 65.6104 154.192ZM66.0424 153.024C67.4664 153.024 68.3304 152.096 68.3304 150.624V150.208L66.3304 150.368C65.0024 150.496 64.4584 151.008 64.4584 151.776C64.4584 152.608 65.0664 153.024 66.0424 153.024ZM73.4053 154H71.9013V142.224H73.4053V149.856L76.8773 146.176H78.7653L75.7733 149.296L78.7493 154H77.0213L74.7333 150.384L73.4053 151.776V154ZM80.7303 144.32C80.1863 144.32 79.7383 143.872 79.7383 143.328C79.7383 142.768 80.1863 142.336 80.7303 142.336C81.2743 142.336 81.7223 142.768 81.7223 143.328C81.7223 143.872 81.2743 144.32 80.7303 144.32ZM79.9943 154V146.176H81.4983V154H79.9943ZM85.1858 154H83.6818V146.176H85.0418L85.2018 147.376C85.6978 146.48 86.6898 145.952 87.7938 145.952C89.8578 145.952 90.8018 147.216 90.8018 149.216V154H89.2978V149.552C89.2978 147.968 88.5618 147.328 87.4098 147.328C86.0018 147.328 85.1858 148.336 85.1858 149.856V154ZM92.3889 149.888C92.3889 147.68 93.8129 145.952 96.0849 145.952C97.3489 145.952 98.3249 146.528 98.8209 147.504L98.9329 146.176H100.277V153.68C100.277 156.144 98.7569 157.712 96.3569 157.712C94.2289 157.712 92.7729 156.512 92.4849 154.528H93.9889C94.1809 155.68 95.0449 156.352 96.3569 156.352C97.8289 156.352 98.7889 155.392 98.7889 153.904V152.336C98.2769 153.248 97.2529 153.792 96.0209 153.792C93.7969 153.792 92.3889 152.08 92.3889 149.888ZM93.8929 149.856C93.8929 151.328 94.8049 152.48 96.2769 152.48C97.7969 152.48 98.7249 151.392 98.7249 149.856C98.7249 148.352 97.8289 147.264 96.2929 147.264C94.7889 147.264 93.8929 148.416 93.8929 149.856ZM107.558 154H105.926L110.15 142.432H111.894L116.134 154H114.486L113.446 151.12H108.582L107.558 154ZM110.822 144.928L109.062 149.76H112.982L111.206 144.928C111.126 144.704 111.046 144.432 111.014 144.256C110.982 144.416 110.902 144.688 110.822 144.928ZM116.78 149.888C116.78 147.68 118.204 145.952 120.476 145.952C121.74 145.952 122.716 146.528 123.212 147.504L123.324 146.176H124.668V153.68C124.668 156.144 123.148 157.712 120.748 157.712C118.62 157.712 117.164 156.512 116.876 154.528H118.38C118.572 155.68 119.436 156.352 120.748 156.352C122.22 156.352 123.18 155.392 123.18 153.904V152.336C122.668 153.248 121.644 153.792 120.411 153.792C118.188 153.792 116.78 152.08 116.78 149.888ZM118.284 149.856C118.284 151.328 119.196 152.48 120.668 152.48C122.188 152.48 123.116 151.392 123.116 149.856C123.116 148.352 122.22 147.264 120.684 147.264C119.18 147.264 118.284 148.416 118.284 149.856ZM126.342 149.888C126.342 147.68 127.766 145.952 130.038 145.952C131.302 145.952 132.278 146.528 132.774 147.504L132.886 146.176H134.23V153.68C134.23 156.144 132.71 157.712 130.31 157.712C128.182 157.712 126.726 156.512 126.438 154.528H127.942C128.134 155.68 128.998 156.352 130.31 156.352C131.782 156.352 132.742 155.392 132.742 153.904V152.336C132.23 153.248 131.206 153.792 129.974 153.792C127.75 153.792 126.342 152.08 126.342 149.888ZM127.846 149.856C127.846 151.328 128.758 152.48 130.23 152.48C131.75 152.48 132.678 151.392 132.678 149.856C132.678 148.352 131.782 147.264 130.246 147.264C128.742 147.264 127.846 148.416 127.846 149.856ZM140.881 146.112V147.488H140.209C138.785 147.488 137.905 148.352 137.905 149.856V154H136.401V146.192H137.809L137.905 147.376C138.225 146.56 139.009 146.016 140.081 146.016C140.353 146.016 140.577 146.048 140.881 146.112ZM145.386 154.192C143.082 154.192 141.498 152.528 141.498 150.096C141.498 147.648 143.05 145.952 145.322 145.952C147.546 145.952 149.002 147.488 149.002 149.808V150.368L142.954 150.384C143.066 152.032 143.93 152.944 145.418 152.944C146.586 152.944 147.354 152.464 147.61 151.568H149.018C148.634 153.248 147.322 154.192 145.386 154.192ZM145.322 147.216C144.01 147.216 143.178 148 142.986 149.376H147.498C147.498 148.08 146.65 147.216 145.322 147.216ZM155.162 146.112V147.488H154.49C153.066 147.488 152.186 148.352 152.186 149.856V154H150.682V146.192H152.09L152.186 147.376C152.506 146.56 153.29 146.016 154.362 146.016C154.634 146.016 154.858 146.048 155.162 146.112ZM158.548 154.192C156.868 154.192 155.876 153.248 155.876 151.824C155.876 150.384 156.948 149.488 158.788 149.344L161.252 149.152V148.928C161.252 147.616 160.468 147.152 159.412 147.152C158.148 147.152 157.428 147.712 157.428 148.656H156.116C156.116 147.024 157.46 145.952 159.476 145.952C161.412 145.952 162.724 146.976 162.724 149.088V154H161.444L161.284 152.736C160.884 153.632 159.812 154.192 158.548 154.192ZM158.98 153.024C160.404 153.024 161.268 152.096 161.268 150.624V150.208L159.268 150.368C157.94 150.496 157.396 151.008 157.396 151.776C157.396 152.608 158.004 153.024 158.98 153.024ZM166.89 154H165.386V147.44H163.85V146.176H165.386V143.728H166.89V146.176H168.426V147.44H166.89V154ZM169.185 150.08C169.185 147.664 170.913 145.968 173.265 145.968C175.601 145.968 177.329 147.664 177.329 150.08C177.329 152.496 175.601 154.192 173.265 154.192C170.913 154.192 169.185 152.496 169.185 150.08ZM170.705 150.08C170.705 151.712 171.745 152.848 173.265 152.848C174.769 152.848 175.825 151.712 175.825 150.08C175.825 148.448 174.769 147.312 173.265 147.312C171.745 147.312 170.705 148.448 170.705 150.08ZM183.474 146.112V147.488H182.802C181.378 147.488 180.498 148.352 180.498 149.856V154H178.994V146.192H180.402L180.498 147.376C180.818 146.56 181.602 146.016 182.674 146.016C182.946 146.016 183.17 146.048 183.474 146.112ZM192.636 156.768H191.388C189.916 154.928 188.94 152.144 188.94 149.248C188.94 146.528 189.82 143.68 191.388 141.744H192.636C191.372 143.504 190.476 146.256 190.476 149.248C190.476 152.08 191.276 154.896 192.636 156.768ZM193.313 145.552C193.313 143.568 194.913 142.224 197.297 142.224C199.505 142.224 200.929 143.456 201.057 145.456H199.473C199.393 144.304 198.577 143.632 197.281 143.632C195.825 143.632 194.881 144.368 194.881 145.504C194.881 146.432 195.409 146.992 196.497 147.248L198.401 147.696C200.289 148.128 201.249 149.152 201.249 150.784C201.249 152.864 199.633 154.192 197.169 154.192C194.817 154.192 193.249 152.96 193.153 150.976H194.753C194.785 152.08 195.713 152.784 197.169 152.784C198.705 152.784 199.681 152.064 199.681 150.912C199.681 150 199.185 149.424 198.081 149.168L196.177 148.736C194.289 148.304 193.313 147.216 193.313 145.552ZM208.371 146.176H209.859V154H208.515L208.355 152.816C207.907 153.632 206.867 154.192 205.715 154.192C203.891 154.192 202.867 152.96 202.867 151.04V146.176H204.371V150.544C204.371 152.224 205.091 152.864 206.243 152.864C207.619 152.864 208.371 151.984 208.371 150.304V146.176ZM212.777 144.32C212.233 144.32 211.785 143.872 211.785 143.328C211.785 142.768 212.233 142.336 212.777 142.336C213.321 142.336 213.769 142.768 213.769 143.328C213.769 143.872 213.321 144.32 212.777 144.32ZM212.041 154V146.176H213.545V154H212.041ZM216.045 156.768H214.781C216.141 154.896 216.941 152.08 216.941 149.248C216.941 146.256 216.061 143.504 214.781 141.744H216.045C217.597 143.68 218.477 146.528 218.477 149.248C218.477 152.144 217.501 154.928 216.045 156.768Z" fill="#A0A0A1"/>
<path fill-rule="evenodd" clip-rule="evenodd" d="M32 192C36.4183 192 40 188.418 40 184C40 179.582 36.4183 176 32 176C27.5817 176 24 179.582 24 184C24 188.418 27.5817 192 32 192ZM35.7095 181.663C35.8913 181.455 35.8702 181.139 35.6624 180.957C35.4546 180.775 35.1387 180.796 34.9569 181.004L30.6421 185.935L29.0201 184.313C28.8248 184.118 28.5082 184.118 28.313 184.313C28.1177 184.509 28.1177 184.825 28.313 185.02L30.313 187.02C30.4108 187.118 30.5448 187.171 30.6831 187.167C30.8215 187.162 30.9517 187.1 31.0428 186.996L35.7095 181.663Z" fill="#7767F6"/>
<path d="M54.144 190.176C50.848 190.176 48.656 187.808 48.656 184.224C48.656 180.656 50.912 178.24 54.224 178.24C56.832 178.24 58.832 179.792 59.264 182.16H57.584C57.152 180.656 55.856 179.744 54.176 179.744C51.84 179.744 50.304 181.504 50.304 184.208C50.304 186.912 51.84 188.672 54.176 188.672C55.872 188.672 57.216 187.76 57.648 186.336H59.312C58.816 188.64 56.752 190.176 54.144 190.176ZM63.1104 190.192C61.4304 190.192 60.4384 189.248 60.4384 187.824C60.4384 186.384 61.5104 185.488 63.3504 185.344L65.8144 185.152V184.928C65.8144 183.616 65.0304 183.152 63.9744 183.152C62.7104 183.152 61.9904 183.712 61.9904 184.656H60.6784C60.6784 183.024 62.0224 181.952 64.0384 181.952C65.9744 181.952 67.2864 182.976 67.2864 185.088V190H66.0064L65.8464 188.736C65.4464 189.632 64.3744 190.192 63.1104 190.192ZM63.5424 189.024C64.9664 189.024 65.8304 188.096 65.8304 186.624V186.208L63.8304 186.368C62.5024 186.496 61.9584 187.008 61.9584 187.776C61.9584 188.608 62.5664 189.024 63.5424 189.024ZM68.7293 187.728H70.1693C70.1693 188.528 70.7773 189.008 71.7693 189.008C72.8253 189.008 73.4333 188.576 73.4333 187.856C73.4333 187.328 73.1773 187.008 72.3613 186.8L70.9853 186.48C69.5933 186.144 68.9373 185.456 68.9373 184.304C68.9373 182.864 70.1533 181.952 71.8813 181.952C73.5933 181.952 74.7133 182.912 74.7453 184.4H73.3053C73.2733 183.616 72.7453 183.12 71.8333 183.12C70.8893 183.12 70.3613 183.536 70.3613 184.256C70.3613 184.784 70.7453 185.136 71.5133 185.328L72.8893 185.664C74.2173 185.984 74.8733 186.592 74.8733 187.76C74.8733 189.248 73.5933 190.192 71.7373 190.192C69.8973 190.192 68.7293 189.216 68.7293 187.728ZM78.0451 189.984H76.5411V178.224H78.0451V183.376C78.5411 182.528 79.4851 181.952 80.7011 181.952C82.7011 181.952 83.6611 183.216 83.6611 185.216V190H82.1571V185.552C82.1571 183.968 81.4051 183.328 80.2851 183.328C78.8291 183.328 78.0451 184.384 78.0451 185.728V189.984ZM92.4003 190H90.9123V183.44H87.5683V190H86.0643V183.44H84.9123V182.176H86.0643V180.928C86.0643 179.008 87.0883 178.224 88.4483 178.224C88.7363 178.224 89.0723 178.24 89.3763 178.288V179.584H88.7043C87.7923 179.584 87.5683 180.08 87.5683 180.928V182.176H90.9123V178.224H92.4003V190ZM94.0916 186.08C94.0916 183.664 95.8196 181.968 98.1716 181.968C100.508 181.968 102.236 183.664 102.236 186.08C102.236 188.496 100.508 190.192 98.1716 190.192C95.8196 190.192 94.0916 188.496 94.0916 186.08ZM95.6116 186.08C95.6116 187.712 96.6516 188.848 98.1716 188.848C99.6756 188.848 100.732 187.712 100.732 186.08C100.732 184.448 99.6756 183.312 98.1716 183.312C96.6516 183.312 95.6116 184.448 95.6116 186.08ZM105.221 190L102.661 182.176H104.213L105.509 186.24C105.685 186.816 105.845 187.408 105.989 188.096C106.117 187.408 106.325 186.752 106.501 186.24L107.813 182.176H109.349L110.645 186.24C110.773 186.624 111.029 187.536 111.157 188.096C111.285 187.472 111.429 186.928 111.653 186.24L112.965 182.176H114.533L111.861 190H110.437L109.077 185.808C108.821 185.024 108.661 184.416 108.581 183.984C108.501 184.368 108.357 184.88 108.069 185.824L106.709 190H105.221ZM121.989 190H120.453V178.432H121.989L125.973 188.16L129.957 178.432H131.525V190H129.989V185.424C129.989 183.264 130.005 182.48 130.085 181.664L126.709 190H125.237L121.877 181.696C121.957 182.256 121.989 183.44 121.989 185.056V190ZM136.251 190.192C134.571 190.192 133.579 189.248 133.579 187.824C133.579 186.384 134.651 185.488 136.491 185.344L138.955 185.152V184.928C138.955 183.616 138.171 183.152 137.115 183.152C135.851 183.152 135.131 183.712 135.131 184.656H133.819C133.819 183.024 135.163 181.952 137.179 181.952C139.115 181.952 140.427 182.976 140.427 185.088V190H139.147L138.987 188.736C138.587 189.632 137.515 190.192 136.251 190.192ZM136.683 189.024C138.107 189.024 138.971 188.096 138.971 186.624V186.208L136.971 186.368C135.643 186.496 135.099 187.008 135.099 187.776C135.099 188.608 135.707 189.024 136.683 189.024ZM144.014 190H142.51V182.176H143.87L144.03 183.376C144.526 182.48 145.518 181.952 146.622 181.952C148.686 181.952 149.63 183.216 149.63 185.216V190H148.126V185.552C148.126 183.968 147.39 183.328 146.238 183.328C144.83 183.328 144.014 184.336 144.014 185.856V190ZM154.001 190.192C152.321 190.192 151.329 189.248 151.329 187.824C151.329 186.384 152.401 185.488 154.241 185.344L156.705 185.152V184.928C156.705 183.616 155.921 183.152 154.865 183.152C153.601 183.152 152.881 183.712 152.881 184.656H151.569C151.569 183.024 152.913 181.952 154.929 181.952C156.865 181.952 158.177 182.976 158.177 185.088V190H156.897L156.737 188.736C156.337 189.632 155.265 190.192 154.001 190.192ZM154.433 189.024C155.857 189.024 156.721 188.096 156.721 186.624V186.208L154.721 186.368C153.393 186.496 152.849 187.008 152.849 187.776C152.849 188.608 153.457 189.024 154.433 189.024ZM159.764 185.888C159.764 183.68 161.188 181.952 163.46 181.952C164.724 181.952 165.7 182.528 166.196 183.504L166.308 182.176H167.652V189.68C167.652 192.144 166.132 193.712 163.732 193.712C161.604 193.712 160.148 192.512 159.86 190.528H161.364C161.556 191.68 162.42 192.352 163.732 192.352C165.204 192.352 166.164 191.392 166.164 189.904V188.336C165.652 189.248 164.628 189.792 163.396 189.792C161.172 189.792 159.764 188.08 159.764 185.888ZM161.268 185.856C161.268 187.328 162.18 188.48 163.652 188.48C165.172 188.48 166.1 187.392 166.1 185.856C166.1 184.352 165.204 183.264 163.668 183.264C162.164 183.264 161.268 184.416 161.268 185.856ZM173.198 190.192C170.894 190.192 169.31 188.528 169.31 186.096C169.31 183.648 170.862 181.952 173.134 181.952C175.358 181.952 176.814 183.488 176.814 185.808V186.368L170.766 186.384C170.878 188.032 171.742 188.944 173.23 188.944C174.398 188.944 175.166 188.464 175.422 187.568H176.83C176.446 189.248 175.134 190.192 173.198 190.192ZM173.134 183.216C171.822 183.216 170.99 184 170.798 185.376H175.31C175.31 184.08 174.462 183.216 173.134 183.216ZM179.998 190H178.494V182.176H179.838L179.982 183.2C180.382 182.464 181.214 181.952 182.318 181.952C183.534 181.952 184.398 182.56 184.798 183.536C185.166 182.56 186.11 181.952 187.326 181.952C189.118 181.952 190.206 183.072 190.206 184.88V190H188.734V185.248C188.734 184.016 188.046 183.312 186.99 183.312C185.854 183.312 185.102 184.112 185.102 185.36V190H183.614V185.232C183.614 184 182.942 183.328 181.886 183.328C180.75 183.328 179.998 184.112 179.998 185.36V190ZM195.667 190.192C193.363 190.192 191.779 188.528 191.779 186.096C191.779 183.648 193.331 181.952 195.603 181.952C197.827 181.952 199.283 183.488 199.283 185.808V186.368L193.235 186.384C193.347 188.032 194.211 188.944 195.699 188.944C196.867 188.944 197.635 188.464 197.891 187.568H199.299C198.915 189.248 197.603 190.192 195.667 190.192ZM195.603 183.216C194.291 183.216 193.459 184 193.267 185.376H197.779C197.779 184.08 196.931 183.216 195.603 183.216ZM202.467 190H200.963V182.176H202.323L202.483 183.376C202.979 182.48 203.971 181.952 205.075 181.952C207.139 181.952 208.083 183.216 208.083 185.216V190H206.579V185.552C206.579 183.968 205.843 183.328 204.691 183.328C203.283 183.328 202.467 184.336 202.467 185.856V190ZM212.374 190H210.87V183.44H209.334V182.176H210.87V179.728H212.374V182.176H213.91V183.44H212.374V190ZM223.011 192.768H221.763C220.291 190.928 219.315 188.144 219.315 185.248C219.315 182.528 220.195 179.68 221.763 177.744H223.011C221.747 179.504 220.851 182.256 220.851 185.248C220.851 188.08 221.651 190.896 223.011 192.768ZM224.84 190H223.208L227.432 178.432H229.176L233.416 190H231.768L230.728 187.12H225.864L224.84 190ZM228.104 180.928L226.344 185.76H230.264L228.488 180.928C228.408 180.704 228.328 180.432 228.296 180.256C228.264 180.416 228.184 180.688 228.104 180.928ZM236.233 190H234.729V178.224H236.233V190ZM239.983 190H238.479V178.224H239.983V190ZM253.884 190H246.828V178.432H253.884V179.872H248.396V183.488H253.34V184.88H248.396V188.544H253.884V190ZM259.373 190L254.973 178.432H256.653L259.469 185.824C259.725 186.48 259.949 187.136 260.189 188C260.461 187.088 260.733 186.32 260.925 185.808L263.725 178.432H265.357L261.005 190H259.373ZM268.396 190H266.86V178.432H268.396L272.38 188.16L276.364 178.432H277.932V190H276.396V185.424C276.396 183.264 276.412 182.48 276.492 181.664L273.116 190H271.644L268.284 181.696C268.364 182.256 268.396 183.44 268.396 185.056V190ZM280.545 192.768H279.281C280.641 190.896 281.441 188.08 281.441 185.248C281.441 182.256 280.561 179.504 279.281 177.744H280.545C282.097 179.68 282.977 182.528 282.977 185.248C282.977 188.144 282.001 190.928 280.545 192.768Z" fill="#A0A0A1"/>
<defs>
<linearGradient id="paint0_linear_10085_39660" x1="99.0133" y1="53.7589" x2="40.4061" y2="61.9655" gradientUnits="userSpaceOnUse">
<stop offset="0.0833333" stop-color="#FAE2B6"/>
<stop offset="0.630208" stop-color="#EF90B8"/>
<stop offset="0.958333" stop-color="#B684F0"/>
</linearGradient>
</defs>
</svg>
