<svg width="1194" height="507" viewBox="0 0 1194 507" fill="none" xmlns="http://www.w3.org/2000/svg">
<g clip-path="url(#clip0_10087_39834)">
<path fill-rule="evenodd" clip-rule="evenodd" d="M415.804 91.2671C469.435 60.3029 562.626 42.1883 623.952 50.807C685.278 59.4258 691.515 91.5141 637.883 122.478L247.722 347.738C208.187 370.563 212.785 394.217 257.992 400.571C303.198 406.924 371.894 393.571 411.429 370.746L810.418 140.389C859.174 112.24 943.894 95.7719 999.644 103.607C1055.39 111.442 1061.06 140.614 1012.31 168.763L616.39 397.347C575.16 421.151 579.955 445.82 627.1 452.446C674.246 459.072 745.889 445.146 787.12 421.341L919.732 344.777C959.585 321.768 1028.83 308.308 1074.4 314.712L1224.51 335.807L1215.29 346.24L1059.05 323.576C1023.18 318.534 968.661 329.131 937.288 347.244L804.675 423.808C754.965 452.508 668.589 469.298 611.747 461.31C554.906 453.321 549.125 423.579 598.835 394.879L994.753 166.296C1035.03 143.042 1030.35 118.944 984.291 112.471C938.236 105.999 868.251 119.602 827.974 142.856L428.985 373.213C380.971 400.934 297.541 417.151 242.638 409.435C187.736 401.719 182.152 372.992 230.166 345.271L620.328 120.011C665.48 93.9423 660.229 66.9273 608.599 59.6712C556.969 52.4151 478.512 67.6657 433.36 93.7344L307.848 166.199C267.995 189.208 198.746 202.668 153.176 196.264L-33.3533 170.049L-33.3471 170.05L-22.5602 161.183L168.529 187.4C204.404 192.441 258.919 181.845 290.292 163.731L415.804 91.2671Z" fill="#252238"/>
<path d="M-25.6691 165.618L160.861 191.833C201.583 197.556 263.465 185.528 299.078 164.967L424.59 92.5022C473.981 63.9858 559.806 47.3033 616.284 55.2407V55.2407C672.761 63.1781 678.506 92.7298 629.114 121.246L238.953 346.506C195.178 371.779 200.269 397.97 250.323 405.004V405.004C300.378 412.039 376.441 397.254 420.215 371.981L819.205 141.624C863.721 115.923 941.074 100.887 991.976 108.041V108.041C1042.88 115.195 1048.06 141.829 1003.54 167.531L607.621 396.115C562.151 422.367 567.439 449.572 619.433 456.879V456.879C671.426 464.187 750.436 448.829 795.906 422.576L928.519 346.012C964.132 325.451 1026.01 313.423 1066.74 319.146L1216.84 340.241" stroke="#514E66" stroke-width="2.20154" stroke-linecap="round" stroke-dasharray="11.74 11.74"/>
<mask id="mask0_10087_39834" style="mask-type:alpha" maskUnits="userSpaceOnUse" x="-8" y="-1" width="717" height="227">
<path d="M-7.28906 152.846L560.51 -0.246094L708.291 83.0508L492.304 225.846L-7.28906 205.446V152.846Z" fill="#D9D9D9"/>
</mask>
<g mask="url(#mask0_10087_39834)">
<path d="M-25.6652 165.614L160.865 191.829C201.587 197.552 263.469 185.524 299.082 164.963L424.594 92.4983C473.985 63.9819 559.81 47.2994 616.288 55.2368V55.2368C672.765 63.1742 678.51 92.7259 629.118 121.242L238.957 346.502C195.182 371.775 200.273 397.966 250.327 405.001V405.001C300.382 412.035 376.445 397.25 420.219 371.977L819.209 141.62C863.725 115.919 941.077 100.883 991.98 108.037V108.037C1042.88 115.191 1048.06 141.825 1003.54 167.527L607.625 396.111C562.155 422.363 567.443 449.568 619.437 456.876V456.876C671.43 464.183 750.44 448.825 795.91 422.572L928.523 346.009C964.136 325.447 1026.02 313.419 1066.74 319.142L1216.84 340.237" stroke="url(#paint0_linear_10087_39834)" stroke-width="2.20154" stroke-linecap="round" stroke-dasharray="11.74 11.74"/>
</g>
</g>
<defs>
<linearGradient id="paint0_linear_10087_39834" x1="343.319" y1="136.363" x2="225.362" y2="-15.5804" gradientUnits="userSpaceOnUse">
<stop offset="0.0833333" stop-color="#FAE2B6"/>
<stop offset="0.630208" stop-color="#EF90B8"/>
<stop offset="0.958333" stop-color="#B684F0"/>
</linearGradient>
<clipPath id="clip0_10087_39834">
<rect width="1194" height="507" fill="white"/>
</clipPath>
</defs>
</svg>
