<svg width="16" height="16" viewBox="0 0 16 16" fill="none" xmlns="http://www.w3.org/2000/svg">
<path d="M11.6563 10.0693C11.5667 9.97977 11.5102 9.85721 11.5102 9.71578L11.5102 4.49262L6.28701 4.49262C6.0136 4.49262 5.78732 4.26635 5.78732 3.99293C5.78732 3.71952 6.0136 3.49324 6.28701 3.49324L12.0099 3.49324C12.2833 3.49324 12.5096 3.71952 12.5096 3.99293L12.5096 9.71578C12.5096 9.9892 12.2833 10.2155 12.0099 10.2155C11.8732 10.2202 11.7459 10.1589 11.6563 10.0693Z" fill="#F3F3F3"/>
<path d="M3.6424 12.3606C3.44912 12.1673 3.44912 11.8468 3.6424 11.6535L11.5761 3.71976C11.7694 3.52649 12.09 3.52649 12.2832 3.71976C12.4765 3.91304 12.4765 4.2336 12.2832 4.42687L4.3495 12.3606C4.15623 12.5539 3.83567 12.5539 3.6424 12.3606Z" fill="#F3F3F3"/>
</svg>
