<svg width="53" height="52" viewBox="0 0 53 52" fill="none" xmlns="http://www.w3.org/2000/svg">
<circle cx="26.3335" cy="26" r="22.75" fill="url(#paint0_linear_3738_72642)"/>
<path d="M30.3096 14.0628C30.8013 13.2045 30.5073 12.1083 29.653 11.6143C28.7987 11.1203 27.7076 11.4157 27.2159 12.2739L26.3583 13.7709L25.5007 12.2739C25.009 11.4157 23.9178 11.1203 23.0635 11.6143C22.2092 12.1083 21.9153 13.2045 22.407 14.0628L24.299 17.3654L18.3145 27.8117H13.4932C12.5076 27.8117 11.7085 28.6145 11.7085 29.6048C11.7085 30.595 12.5076 31.3978 13.4932 31.3978H30.2862C30.4334 31.0091 30.5884 30.3422 30.4235 29.7293C30.1757 28.8078 29.2585 27.8117 27.7216 27.8117H22.433L30.3096 14.0628Z" fill="white"/>
<path d="M19.2427 33.3806C18.9381 33.0409 18.2559 32.4979 17.6576 32.3193C16.7455 32.0468 16.054 32.2178 15.7051 32.3666L14.3756 34.6872C13.8839 35.5455 14.1779 36.6417 15.0322 37.1357C15.8865 37.6297 16.9776 37.3343 17.4693 36.4761L19.2427 33.3806Z" fill="white"/>
<path d="M36.4565 31.3978H39.1738C40.1594 31.3978 40.9585 30.595 40.9585 29.6048C40.9585 28.6145 40.1594 27.8117 39.1738 27.8117H34.402L29.027 18.4293C28.6277 18.8105 27.8621 19.7843 27.7464 20.8885C27.5977 22.308 27.8208 23.5034 28.4901 24.6738C30.7402 28.6091 32.9938 32.5426 35.2473 36.4761C35.7389 37.3343 36.8301 37.6297 37.6844 37.1357C38.5387 36.6417 38.8326 35.5455 38.3409 34.6872L36.4565 31.3978Z" fill="white"/>
<defs>
<linearGradient id="paint0_linear_3738_72642" x1="26.3335" y1="3.25" x2="26.3335" y2="48.75" gradientUnits="userSpaceOnUse">
<stop stop-color="#2AC9FA"/>
<stop offset="1" stop-color="#1F65EB"/>
</linearGradient>
</defs>
</svg>
