<svg width="52" height="52" viewBox="0 0 52 52" fill="none" xmlns="http://www.w3.org/2000/svg">
<path d="M26.0007 3.25598C26.0007 3.25598 39.4105 2.65636 46.52 16.0871H24.8597C24.8597 16.0871 20.7719 15.9558 17.2801 20.8972C16.277 22.9712 15.1988 25.1076 16.4088 29.3181C14.6658 26.3757 7.15527 13.3448 7.15527 13.3448C7.15527 13.3448 12.4528 3.78695 26.0005 3.25598H26.0007Z" fill="#EF3F36"/>
<path d="M45.8239 37.3523C45.8239 37.3523 39.6361 49.2275 24.4146 48.6403C26.2953 45.3981 35.2477 29.9497 35.2477 29.9497C35.2477 29.9497 37.4106 26.4889 34.859 21.0042C33.5611 19.0989 32.2383 17.1062 27.9754 16.0441C31.4048 16.013 46.4823 16.0441 46.4823 16.0441C46.4823 16.0441 52.1306 25.3958 45.8239 37.3523Z" fill="#FCD900"/>
<path d="M6.27126 37.4454C6.27126 37.4454 -0.957234 26.1697 7.16768 13.3262C9.04223 16.5684 17.9947 32.0169 17.9947 32.0169C17.9947 32.0169 19.9256 35.6152 25.9629 36.1522C28.2638 35.9836 30.6586 35.8399 33.7182 32.6978C32.0315 35.6714 24.4644 48.6649 24.4644 48.6649C24.4644 48.6649 13.5058 48.8648 6.27108 37.4454H6.27126Z" fill="#61BC5B"/>
<path d="M24.4087 48.7521L27.4555 36.0835C27.4555 36.0835 30.8034 35.821 33.6121 32.7539C31.8691 35.8087 24.4087 48.7521 24.4087 48.7521Z" fill="#5AB055"/>
<path d="M15.7944 26.1448C15.7944 20.5603 20.3397 16.0312 25.9443 16.0312C31.549 16.0312 36.0942 20.5603 36.0942 26.1448C36.0942 31.7296 31.549 36.2584 25.9443 36.2584C20.3397 36.2522 15.7944 31.7296 15.7944 26.1448Z" fill="white"/>
<path d="M17.4937 26.1444C17.4937 21.4968 21.2741 17.7236 25.9448 17.7236C30.609 17.7236 34.3957 21.4906 34.3957 26.1444C34.3957 30.7922 30.6154 34.5654 25.9448 34.5654C21.2803 34.5654 17.4937 30.7922 17.4937 26.1444Z" fill="url(#paint0_linear_3738_72538)"/>
<path d="M46.4759 16.0503L33.9311 19.7173C33.9311 19.7173 32.0379 16.9498 27.9692 16.0503C31.4988 16.0315 46.4759 16.0503 46.4759 16.0503Z" fill="#EACA05"/>
<path d="M16.1643 28.8559C14.4025 25.8136 7.15527 13.3447 7.15527 13.3447L16.4463 22.5027C16.4463 22.5027 15.4933 24.458 15.8508 27.2566L16.1641 28.8559H16.1643Z" fill="#DF3A32"/>
<defs>
<linearGradient id="paint0_linear_3738_72538" x1="25.9443" y1="17.8425" x2="25.9443" y2="34.0584" gradientUnits="userSpaceOnUse">
<stop stop-color="#86BBE5"/>
<stop offset="1" stop-color="#1072BA"/>
</linearGradient>
</defs>
</svg>
